<?xml version="1.0" encoding="UTF-8"?>
<svg id="Layer_1" data-name="Layer 1" xmlns="http://www.w3.org/2000/svg" viewBox="0 0 5963.23 7198.26">
  <defs>
    <style>
      .cls-1 {
        stroke-miterlimit: 10;
      }

      .cls-1, .cls-2, .cls-3 {
        fill: none;
      }

      .cls-1, .cls-2, .cls-3, .cls-4 {
        stroke-width: 30px;
      }

      .cls-1, .cls-2, .cls-4 {
        stroke: #231f20;
      }

      .cls-3 {
        stroke: #000;
      }

      .cls-4 {
        stroke-miterlimit: 5.5;
      }

      .cls-5 {
        opacity: .5;
      }

      .cls-6 {
        stroke-width: 0px;
      }
    </style>
  </defs>
  <path id="outline2" class="cls-1" d="M3569.33,741.41c-17.28-23.51-52.22-8.22-79.76-18.8-40.34-15.49,91.47,3.77,75.52-1.61,123.45,41.63-196.06-41.93-315.18,37.78-25.97,17.38-20.55,65.94-44.97,121.56-16.14,36.74-30.97,66.61-56.24,107.94-14.85,24.29-43.66,42.84-63,69.52-21.57,29.76-33.57,67.94-46.8,100.85-20.84,51.84-20.92,154.59-28.77,219.07-15.83,129.93-24.49,191.48-33.55,322.21-3.11,44.85-.27,105.8-2.69,150.65-3.71,68.67,7.3,124.27-.77,191.49-10.73,89.45,0,193.95,4.05,282.31.53,11.67,18.68,66.43-.96,63.78-54.74-7.39-21.92-35.07-24.93-80.59-2.97-44.98-6.3-124.19-2.1-174.08,2.64-31.35,19.93-486.84,16.6-559.56-8.61-188.23-22.55-217.33-46.52-385.17-10.95-76.66-72.88-134.01-98.82-204.75-12.74-34.73-.23-87.17-19.31-115.92-12.4-18.68-38.45-9.49-48.87-41.8-4.38-13.59-3.38-26.31,1.28-38.12-8.31-9.43-43.44-23.18-55.25-29.96-41.83-24.01-65.52-87.24-111.14-104.77-22.79-8.75-61.15,4.49-79.98,17.71-35.69,25.06-159.31,22.04-127.93,11.18,61.82-21.39,84.63,24.34,71.48-50.74-3.18-18.17-15.69-32.38-22.07-47.95-13.16-32.14,2.19-68.88-24.81-97.04-16.22-16.92-69.61-44.28-69.61-44.28,0,0,80.07,22.99,95.33,47.08,26.34,41.57,5.61,97.38,47.53,131.79,42.34,34.74,90.92-26.15,134.25,1.31,47.3,29.99,92.23,68.09,145.44,88.54,15.37,5.91,39.49,5.03,47.5,22.74,22.06-14.86,45.91-26.32,61.46-33.99,20.86-10.29,92.92-37.75,110.88-52.56,3.69-3.04,13.37-4.78,24.96-5.55,1.71-7.23,3.34-14.23,4.78-20.84,12.54-57.46-6.57-119.19-2.51-177.86,2.26-32.62,20.94-54.36,26.57-83.95,4.1-21.57-2.09-47.1.67-71.86,3.76-33.75,27.04-75.02,31.77-110.07,2.82-20.88-23.38-136.43-17.43-159.94,4.68-18.5,22.12,86.36,26.62,105.1,29.09,121.03-24.25,233.25-33.15,346.23-2.08,26.39,6.05,55.66,15.36,80.57,13.64,36.48,26,71.02,30.33,103.89,50.38,19.92,57.23,53.2,114.74,59.17,44.02,4.57,117.19-85.67,156.19-124.15,30.42-30.02,34.34-11.62,77.09-56.16,30.59-31.88,6-46.88,29.2-74.37,35.63-42.23,51.64-36.73,71.24-66.2,22.55-33.89,11.82-55.43,28.61-92.54,6.49-14.34,36.28-29.24,35.78-27.92-5.05,13.72-48.94,67.8-37.31,81.92,6.35,7.71,21.81,27.29,25.54,25.42,42.53-21.29,57.06-38.32,73.7-63.45,8.5-12.84,57.85-37.94,57.4-37.38-11.54,14.24-25.2,24.71-31.94,41.44-14.61,36.27-138.79,102.15-172.23,123.25-50.27,31.72-16.63,35.59-53.78,92.98-13.1,20.23-30.15,20.11-46.33,39.22-38.05,44.94-41.38,34.2-47.26,95.15-.48,4.97,10.71,19.88,17.31,19.58,66.56-3.04,96.83,7.88,165.61,25.41"/>
  <g id="_180634458" data-name="180634458">
    <path id="_180634461" data-name="180634461" class="cls-2" d="M5188.83,2025.89c80.54,47.48,159.82,98.44,233.08,158.54,32.47,26.6,60.2,59.84,92.35,86.71,46.74,39.09,97.33,86.73,157.59,96.88,80.46,13.59,175-31.13,221.96-103.22,16.91-25.88,28.38-63.22,36.67-93.5,19.4-70.46,21.27-145.72,13.38-218.36-5.23-48.19-13.47-96.16-24.97-143.03-26.24-106.45-67.79-216.6-134.33-301.01-34.63-43.78-63.69-92.35-98.66-136.13-37.61-47.2-77.08-92.69-115.26-139.36-35.11-43.07-76.09-78.51-116.52-115.29-40.76-37.04-82.99-74.95-125.89-107.26-35.57-26.74-69.25-58.38-105.93-82.7-60.29-39.96-119.25-84.29-185.29-113.43-81.96-36.37-160.66-80.07-244.77-111.89-344.54-130.44-602.6-98.4-741.5-71.6-122.12,23.55-243.15,98.02-320.61,171.6-68.1,64.67-100.09,119.42-130.44,154.18-25.44,29.02-52.03,50.6-85.42,83.99-46.45,46.53-139.62,109.68-218.23,155.42-70.18,40.74-139.85,70.38-189.43,79.51-59.09,10.99-88.47,11.36-122.75,6.86.07,5.22.11,8.2.11,8.51-.08-5.57,30.72,8.39,33.62,11.51,13.51,14.5,25.07,33.54,35.98,50.35,17.3,26.64,30.71,55.9,43.96,85.07,10.59,23.3,18.09,49.46,31.01,71.38,11.13,18.88,25.94,36.62,38.05,55.32,19.21,29.66,67.22,48.39,89.23,66.73,4.07,3.39,7.24,6.77,9.18,10.2,47.17,83.32,73.51,146.74,121.47,193.35,30.94,30.09,83.16,39.27,155.29,77.61,39.73,21.12,48.36,37.64,97.99,42.95,55.98,5.98,112.35,5.38,168.43,1.35,99.09-7.11,197.13-24.99,295.85-36.01,84.67-9.45,170.15-7.72,255.17-7.75,83.49-.02,167.21,11.57,250.6,3.74,72.94-6.85,146.67-26.7,219.92-12.61,42.54,8.18,84.12,19.93,124.84,34.49-11.28-25.16,151.78,38.22,234.25,86.9Z"/>
    <path id="_180634520" data-name="180634520" class="cls-2" d="M5229.35,1494.51c-69.1-123.22-210.75-198.23-322.09-267.7-177.99-111.07-385.63-207.84-595.3-187.17-177.44,17.49-332.54,136.71-454.57,270.18-85.37,93.37-171.9,184.1-284.95,236.17-108.37,49.92-228.18,65.88-345.03,67.79l-1.63.27c18.41,10.91,34.96,20.57,40.71,30.69l17.83,23.36c97.51,12.98,184.99,29.1,280.93-3.46,216.33-73.42,363.79-279.47,569.46-374.71,197.99-91.68,445.76-39.43,635.97,43.21,112.92,49.05,262.95,88.43,334.62,207.66,8.64,14.38,11.26,27.81,9.7,40.17l126.59-60.56c-3.46-8.86-7.54-17.53-12.23-25.9Z"/>
    <path id="_180634523" data-name="180634523" class="cls-2" d="M3217.04,1382.74c20.98-19.34,56.79-32.89,71.09-36.93,52.08-14.72,99.43-41.23,147.89-65.9,46.88-23.86,97.05-43.6,137.92-79.03,37.8-32.78,65.66-76.65,102.29-110.8,66.2-61.71,118.4-137.04,182.35-200.85,124.55-124.27,261.41-163.72,427.15-159.78,125.49,2.98,261.55,15.52,378.34,56.6,292.76,102.97,571.33,322.12,785.69,554.97,16.76,18.21,33.08,37.04,48.83,56.43l150.09-71.8c-77.62-96.23-140.65-159.26-216.67-227.6-79.56-71.51-177.33-157.2-304.72-233.77-147.19-88.46-352.37-175.9-512.65-219.01-117.14-31.51-230.59-37.43-335.02-37.41-210.4.03-381.95,48.48-522.31,167.08-71.06,60.03-128.27,154.1-200.69,220.95-162.79,150.26-341.94,272.06-510.12,286.61,4.72.01,9.12.12,12.38-.27,19.28-2.28,50.34-7.15,68.35,3.48,30.24,17.83,39.28,68.63,48.86,100.85,2.77,9.32,6.13,20.52,10.09,31.29,6.35-13.28,21-26.01,30.87-35.12Z"/>
    <path id="_180634522" data-name="180634522" class="cls-2" d="M3246.57,1448.75c37.49-2.68,88.63-34.66,111.53-43.86,80.88-32.45,160.61-74.5,232.49-126.39,67.43-48.66,114.97-120.52,168.53-185.06,81.25-97.9,169.27-194.38,278.41-255.01,148.9-82.72,347.36-52.1,504.26-14.18,176.01,42.54,333.38,141.12,492.99,227.38,99.46,53.75,177.65,131.69,260.75,210.5,34.71,32.92,78.53,61.99,105.53,105.4,12.14,19.54,19.34,41.76,26.61,63.83l70.9-33.92c-15.74-19.39-32.06-38.22-48.83-56.43-214.35-232.85-492.92-451.99-785.69-554.96-116.79-41.08-252.85-53.61-378.34-56.6-165.74-3.94-302.6,35.51-427.15,159.78-63.95,63.81-116.15,139.14-182.35,200.85-36.64,34.15-64.5,78.02-102.29,110.8-40.87,35.43-91.05,55.16-137.92,79.03-48.46,24.67-95.8,51.18-147.89,65.9-14.3,4.04-50.11,17.59-71.09,36.93-9.88,9.11-24.53,21.84-30.87,35.12,3.26,8.87,6.93,17.44,11.02,24.4,1.75,2.98,3.62,5.74,5.54,8.35,13.9,1.43,34.81-1.21,43.84-1.85Z"/>
    <path id="_180634521" data-name="180634521" class="cls-2" d="M3572.43,1545.98c113.05-52.07,199.58-142.81,284.95-236.17,122.03-133.47,277.13-252.69,454.57-270.18,209.67-20.67,417.32,76.11,595.3,187.17,111.34,69.47,252.98,144.48,322.09,267.7,4.69,8.37,8.77,17.04,12.23,25.9l186.11-89.03c-7.27-22.07-14.47-44.29-26.61-63.83-27-43.42-70.82-72.48-105.53-105.4-83.1-78.81-161.29-156.75-260.75-210.5-159.61-86.26-316.99-184.84-492.99-227.38-156.9-37.91-355.36-68.54-504.26,14.18-109.15,60.63-197.16,157.11-278.41,255.01-53.56,64.54-101.1,136.39-168.53,185.05-71.88,51.89-151.61,93.94-232.49,126.39-22.9,9.19-74.04,41.17-111.53,43.86-9.02.65-29.94,3.28-43.84,1.85,15.67,21.28,35.19,32.07,31.28,64.44-3.59,29.73-21.32,43.06-48.49,42.06-14.5-.53-26.94-8.46-37.71-20.23,6.51,10.35,13.16,20.61,19.83,30.87,12.34,18.99,36.52,33.5,58.13,46.29l1.63-.27c116.85-1.91,236.66-17.87,345.03-67.79Z"/>
    <path id="_180634516" data-name="180634516" class="cls-2" d="M5241.58,1520.41l-126.59,60.56c-4.67,36.88-46.68,64.21-77.65,78.61-13.02,6.07-26.01,10.45-38.96,13.34l253.36-38.17c8.13-36.05,4.49-76.89-10.16-114.34Z"/>
    <path id="_180634519" data-name="180634519" class="cls-2" d="M5546.68,1461.13c26.32,37.63,50.69,77.18,72.68,118.23l194.45-29.29c-5.95-9.63-11.86-18.61-17.67-26.84-56.8-80.49-104.38-144.15-147.47-197.57l-150.09,71.8c16.74,20.62,32.83,41.86,48.1,63.67Z"/>
    <path id="_180634518" data-name="180634518" class="cls-2" d="M5498.58,1397.46l-70.9,33.92c10.13,30.73,20.4,61.16,44.37,83.58,25.14,23.5,49.09,48.31,71.07,75.03-.97-3.42-1.88-6.99-2.7-10.7.83,3.72,1.74,7.28,2.7,10.7.21.25.41.51.62.77l75.6-11.39c-21.99-41.05-46.36-80.61-72.68-118.23-15.26-21.81-31.35-43.05-48.09-63.67Z"/>
    <path id="_180634517" data-name="180634517" class="cls-2" d="M5472.06,1514.96c-23.98-22.43-34.25-52.85-44.37-83.58l-186.1,89.03c14.65,37.44,18.29,78.29,10.16,114.34l291.62-43.93c-.08-.27-.16-.55-.23-.83-21.98-26.71-45.93-51.52-71.07-75.03Z"/>
    <path id="_180634511" data-name="180634511" class="cls-2" d="M5145.52,1735.48c60.07-8.82,94.78-50.03,106.22-100.74l-253.35,38.17c-10.5,2.34-20.98,3.71-31.44,4.18-11.42.51-22.82-.03-34.21-1.51l14.6,5.58c55.16,24.38,136.18,63.44,198.18,54.33Z"/>
    <path id="_180634513" data-name="180634513" class="cls-2" d="M5565.97,1645.69c13.23,33,9.37,52.48,18.55,121.91,5.12,38.74,3.82,77.74,9.09,116.6,26.69,197.29-274.94,51.4-344.3,12.46-54.52-30.62-115.13-67.3-174.69-83.22-59.36-15.88-150.76-30.05-203.97-75.92-4.76-4.1-12.32-8.32-18.88-12.84,14.5,13.85,28.07,28.66,40.38,44.66,45.64,59.36,92.58,47.71,156.59,71.95,107.85,40.86,207.94,101.97,316.11,142.98,92.09,34.93,225.31,108.91,268.6-34.93,16.63-55.26-7.79-87.13-11.45-140.69-4.6-67.62,4.53-94.14-32.5-154.13-13.9-22.51-29.26-43.67-45.74-63.76l-.39.06c7.17,24.9,17.51,42.18,22.6,54.88Z"/>
    <path id="_180634515" data-name="180634515" class="cls-2" d="M5922.02,1814.24c-22.96-97.46-66.6-196.82-108.21-264.17l-194.45,29.29c22.09,41.25,41.78,84,58.62,127.83,32.52,84.66,88.79,177.09,81.54,272.56-7.98,105.16-93.65,213.55-190.18,193.91-92.21-18.77-208.73-108.05-291.58-150.32-90.68-46.27-166.92-109.16-264.25-137.65-52.94-15.5-110.35-7.15-161.37-27.14-46.37-18.16-83.51-55.75-118.38-91.77-40.91-42.25-80.67-49.65-126.04-80.75-20.34-13.95-49.38-56.08-42.11-85.84-16.82,43.59,32.17,95.16,57.57,118.12,59.98,54.17,101.11,102.12,132.59,179.46,52.82,7.19,104.29,12.9,156.64,24.32,17.96,3.92,32.77,13.6,51.11,17,20.56,3.83,40.71,6.62,60.99,12.21,73.83,20.37,139.97,57.61,205.56,98.65,15.75,9.85,31.62,19.52,48,28.09,44.74,23.44,87.1,61.64,126.6,94.06,90.27,74.07,169.58,180.17,287.31,196.96,50.6,7.21,107.81-14.85,142.31-41.93,74.64-58.64,100.07-140.64,108.69-236.66,5.53-61.53,2.59-176.19-20.98-276.24Z"/>
    <path id="_180634514" data-name="180634514" class="cls-2" d="M4607.72,1686.03c45.37,31.1,85.13,38.51,126.04,80.75,34.87,36.02,72.01,73.61,118.38,91.77,51.02,19.99,108.43,11.64,161.37,27.14,97.33,28.49,173.56,91.39,264.24,137.65,82.86,42.27,199.37,131.55,291.58,150.32,96.52,19.64,182.19-88.75,190.18-193.91,7.24-95.48-49.02-187.91-81.54-272.56-16.84-43.83-36.52-86.58-58.62-127.83l-75.6,11.39c16.48,20.09,31.84,41.25,45.74,63.76,37.04,60,27.91,86.51,32.5,154.13,3.66,53.56,28.08,85.43,11.45,140.69-43.29,143.84-176.51,69.87-268.6,34.93-108.17-41.01-208.26-102.12-316.11-142.98-64.01-24.25-110.95-12.6-156.59-71.95-12.31-16-25.87-30.8-40.38-44.66-4.25-2.93-8.07-5.99-10.42-9.23,2.34,3.24,6.17,6.3,10.42,9.23-51.66-49.36-115.22-86.69-176.27-123.19-18.44-11.02-54.19-32-81.07-27.76-11.85,3.78-21.11,10.71-26.71,21.7-.8,1.58-1.49,3.16-2.11,4.76-7.27,29.76,21.78,71.9,42.12,85.84Z"/>
    <path id="_180634512" data-name="180634512" class="cls-2" d="M4675.5,1601.49c61.06,36.5,124.61,73.84,176.27,123.19,6.55,4.52,14.12,8.74,18.88,12.84,53.21,45.86,144.6,60.04,203.97,75.92,59.56,15.93,120.17,52.6,174.69,83.22,69.35,38.94,370.99,184.83,344.3-12.46-5.26-38.86-3.96-77.87-9.09-116.61-9.18-69.42-5.32-88.91-18.55-121.91-5.09-12.71-15.44-29.98-22.6-54.88l-291.62,43.93c-11.44,50.72-46.16,91.92-106.22,100.74-62,9.11-143.02-29.95-198.18-54.33l-14.6-5.58c-28.88-3.75-57.68-13.5-86.52-27.24-38.15-18.17-185.46-95.8-251.79-74.61,26.87-4.24,62.63,16.74,81.07,27.76Z"/>
    <path id="_180634510" data-name="180634510" class="cls-2" d="M5105.29,1540.8c-71.67-119.23-221.7-158.61-334.62-207.66-190.21-82.64-437.97-134.89-635.96-43.21-205.68,95.24-353.13,301.28-569.46,374.71-95.94,32.56-183.43,16.45-280.93,3.46,3.05.41,39.51,78.51,46.09,89.33,18.72,30.79,37.29,61.39,65.37,83.24,33.01,25.69,72.56,40.38,110.07,55.96,47.57,19.78,89.58,53.62,140.43,63.25,52.85,10.02,106.17-3.23,159.3-3.19,59.99.06,114.92-12.18,174.69-19.42,104.38-12.64,224.94-25.37,336.93-26.42,78.11-.74,156.03,6.79,234.12,7.29,49.92.32,95.58-4.87,144.72-11.55,19.83-2.69,40.23-5.08,59.75-8.8-.71-1.73-1.42-3.44-2.14-5.14-14.59,4.82-18.26-6.64-26.16-17.33-92.03-124.55-259.09-165.18-400.58-151.26-25.91,2.55-46.97,24.78-73.53,22.49-25.72-2.24-47.77-9.51-75.32-9.51-30.49.02-60.98-2.38-91.41,1.05-31.93,3.61-60.42,7.89-91.87,16.36-51.72,13.93-105.2,22.17-155.58,41.58-36.42,14.03-92.36,42.25-129.05,13.51-30.14-23.63-13.43-65.61,7.73-89.42,38.72-43.51,99.73-59.98,149.03-84.65,36.98-18.5,74.83-34.85,112.32-52.07,30.53-14.03,69.97-24.94,97.69-43.95,40.49-27.77,89.97-33,127.57-68.39,24.5-23.06,37.58-69.29,66.03-86.75,24.76-15.18,69.51,1.59,93.61,13.23,43.46,21,84.41,22.21,130.98,25.4,41.89,2.86,81.49,11.52,119.73,31,67.39,34.33,139.31,58.98,205.7,95.02,47.71,25.91,113.1,58.35,147.28,103.71-10.18,17.59-25.61,22.85-42.57,21.79,13.89,2.3,27.8,3.25,41.73,2.62,23.36-1.05,46.82-6.53,70.4-17.51,41.35-19.23,102.37-61.5,67.95-118.78Z"/>
    <path id="_180634508" data-name="180634508" class="cls-2" d="M4526.08,1514.15c-23.45-4.28-46.59.96-70.22-4.31-18.92-4.22-45.83-17.65-65.05-15-18.85,2.64-27.1,24.59-47.57,20.29-14.06-2.95-19.11-20.42-35.4-17.9-18.65,2.88-40.06,31.92-57.56,40.46-36.46,17.76-71.5,36.86-106.53,57.56-56.58,33.42-123.4,52.33-182.71,79.98-19.65,9.16-37.28,20.7-57.21,29.65,31.92-14.33,73.02-34.14,107.18-38.43,13.6-1.72,26.79,2.73,40.3,2.82,18.63.14,23.68-6.66,39.36-13.26,27.86-11.73,38.05-1.72,64.03-.29,23.6,1.3,42.45-13.86,64.98-16.5,16.07-1.9,32.46-.56,49.24-2.05,14.3-1.27,26.97,2.05,41.63,1.72,58.7-1.34,128.77-8.63,184.73,12.44,16.71,6.3,33.24,14.01,50.14,20.39,46.09,17.45,69.41,44.49,105.35,80.43,18.8,18.8,39.12,36.98,56.81,57.21-23.32-32.53-50.91-60.81-84.37-91.03-26.34-23.8-77.04-79.43-54.47-123.96,19.51-38.31,78.22-28.65,142.54-5.77-5.89-2.71-11.75-5.5-17.56-8.43-57.34-28.85-104.36-54.45-167.61-66Z"/>
    <path id="_180634509" data-name="180634509" class="cls-2" d="M4967.79,1652.67c-34.18-45.36-99.57-77.8-147.28-103.71-66.39-36.04-138.31-60.69-205.7-95.02-38.23-19.48-77.84-28.14-119.73-31-46.57-3.19-87.52-4.41-130.98-25.4-24.1-11.64-68.85-28.42-93.61-13.23-28.45,17.46-41.53,63.68-66.03,86.75-37.6,35.4-87.08,40.62-127.57,68.39-27.71,19.01-67.16,29.93-97.69,43.96-37.49,17.22-75.34,33.57-112.32,52.07-49.3,24.66-110.31,41.13-149.03,84.65-21.16,23.81-37.87,65.79-7.73,89.42,36.69,28.74,92.63.52,129.05-13.51,50.39-19.42,103.86-27.66,155.58-41.59,31.44-8.47,59.94-12.75,91.87-16.36,30.43-3.43,60.92-1.03,91.41-1.05,27.55,0,49.59,7.27,75.32,9.51,26.56,2.29,47.62-19.94,73.53-22.49,141.5-13.92,308.56,26.72,400.58,151.26,7.9,10.68,11.57,22.15,26.16,17.33-.74-1.77-1.49-3.52-2.24-5.25-8.55-12.29-13.83-26.57-19.89-40.34-7.47-13.33-15.42-25.8-23.95-37.7-17.69-20.23-38-38.41-56.81-57.21-35.93-35.94-59.25-62.97-105.35-80.43-16.89-6.38-33.43-14.1-50.14-20.4-55.96-21.07-126.03-13.78-184.73-12.44-14.66.33-27.32-2.99-41.63-1.72-16.77,1.49-33.16.15-49.24,2.05-22.53,2.65-41.37,17.81-64.98,16.5-25.98-1.43-36.18-11.44-64.03.29-15.68,6.61-20.73,13.4-39.36,13.26-13.51-.09-26.7-4.54-40.3-2.82-34.15,4.29-75.26,24.1-107.18,38.43,19.94-8.95,37.56-20.49,57.21-29.65,59.31-27.65,126.13-46.55,182.71-79.98,35.03-20.7,70.07-39.81,106.53-57.56,17.5-8.55,38.91-37.58,57.56-40.46,16.3-2.51,21.35,14.95,35.4,17.9,20.47,4.31,28.72-17.64,47.57-20.29,19.22-2.66,46.13,10.78,65.05,15,23.63,5.27,46.77.03,70.22,4.31,63.25,11.55,110.27,37.15,167.61,66,5.82,2.93,11.68,5.72,17.56,8.43,26.37,9.38,52.49,20.61,75.09,30.99,20.1,7.95,40.16,16.06,59.82,25.35,12.46,5.89,29.86,15.55,48.01,22.24,10.34,3.12,20.69,5.59,31.04,7.3,16.97,1.06,32.4-4.2,42.58-21.79Z"/>
    <path id="_180634505" data-name="180634505" class="cls-2" d="M3127.21,1285.72c-18.01-10.62-49.07-5.76-68.35-3.48-10.24,1.21-31.69-2.42-39.01,7.11-12.23,15.95,12.92,36.83,21.22,47.93,23,30.78,38.62,67.27,55.04,102.39,17.13,36.63,42.47,115.73,89.4,117.45,27.18,1,44.9-12.33,48.49-42.06,4.39-36.34-20.74-45.48-36.82-72.79-9.06-15.41-16.06-38.7-21.11-55.69-9.58-32.22-18.63-83.03-48.86-100.86Z"/>
    <path id="_180634609" data-name="180634609" class="cls-2" d="M3263.72,1754.91c28.19-30.67-2.37-125.81,9.67-101.11,25.1,51.4,88.78,159.37,115.3,183.84,32.41,29.88,121.4,53.7,161.11,82.51,22.09,16.03-107.47,46.79-126.58,93.55-19.65,48.08-73.32-29.89-102.5-58.65-39.92-39.33-86.86-33.19-135.26-53.8-80.82-34.41-88.68-116.58,1.87-165.19,28.37-17.59,49.01,20.34,74.47,19,.65-.03,1.47.33,1.91-.15Z"/>
    <path id="_180634600" data-name="180634600" class="cls-2" d="M2997.63,2586.77c13.77-23.34,19.38-48.21,26.15-74.92,7.38-29.05,7.2-87.08,28.2-126.38,23.62-44.18,58.12-63.67,88.89-123.98,33.88-91.49,41.18-197.57,52.14-219.26,26.73-52.88,60.47-97.18,104.2-101.75-34.42-17.43-77.75-24.67-111.75-39.23-81.37-34.83-89.01-122.32,5.95-165.06,23.5-10.57,50.85,25.83,72.74,14.51,17.67-9.13,10.26-44.27,10.12-61.04-.3-34.85-13.68-55.64-42.37-71.96-25.29-14.38-52.33-31.63-70.13-56.5-14.63-20.44-26.63-42.66-38.13-65.28-20.76-40.84-37.22-84.87-61.18-123.73-10.38-16.86-21.06-34.17-31.9-50.63-12.77-19.43-18.78-31.18-48.48-27.55,3.94,40.75,1.54,123.18,1.95,158.1.6,50.28,1.2,100.56,1.8,150.84.69,58.22,3.58,299.52,4.32,361.97.74,61.72,1.48,123.45,2.21,185.18.68,56.56,1.36,113.13,2.03,169.69.56,47.2,1.13,94.4,1.69,141.59.35,29.79,5.1,119.32,1.51,125.41Z"/>
    <g id="_180634458-2" data-name="180634458">
      <path id="_180634461-2" data-name="180634461" class="cls-2" d="M774.39,2025.35c-80.54,47.48-159.82,98.44-233.08,158.54-32.47,26.6-60.2,59.84-92.35,86.71-46.74,39.09-97.33,86.73-157.59,96.88-80.46,13.59-175-31.13-221.96-103.22-16.91-25.88-28.38-63.22-36.67-93.5-19.4-70.46-21.27-145.72-13.38-218.36,5.23-48.19,13.47-96.16,24.97-143.03,26.24-106.45,67.79-216.6,134.33-301.01,34.63-43.78,63.69-92.35,98.66-136.13,37.61-47.2,77.08-92.69,115.26-139.36,35.11-43.07,76.09-78.51,116.52-115.29,40.76-37.04,82.99-74.95,125.89-107.26,35.57-26.74,69.25-58.38,105.93-82.7,60.29-39.96,119.25-84.29,185.29-113.43,81.96-36.37,160.66-80.07,244.77-111.89,344.54-130.44,602.6-98.4,741.5-71.6,122.12,23.55,243.15,98.02,320.61,171.6,68.1,64.67,100.09,119.42,130.44,154.18,25.44,29.02,52.03,50.6,85.42,83.99,46.45,46.53,139.62,109.68,218.23,155.42,70.18,40.74,139.85,70.38,189.43,79.51,59.09,10.99,88.47,11.36,122.75,6.86-.07,5.22-.11,8.2-.11,8.51.08-5.57-30.72,8.39-33.62,11.51-13.51,14.5-25.07,33.54-35.98,50.35-17.3,26.64-30.71,55.9-43.96,85.07-10.59,23.3-18.09,49.46-31.01,71.38-11.13,18.88-25.94,36.62-38.05,55.32-19.21,29.66-67.22,48.39-89.23,66.73-4.07,3.39-7.24,6.77-9.18,10.2-47.17,83.32-73.51,146.74-121.47,193.35-30.94,30.09-83.16,39.27-155.29,77.61-39.73,21.12-48.36,37.64-97.99,42.95-55.98,5.98-112.35,5.38-168.43,1.35-99.09-7.11-197.13-24.99-295.85-36.01-84.67-9.45-170.15-7.72-255.17-7.75-83.49-.02-167.21,11.57-250.6,3.74-72.94-6.85-146.67-26.7-219.92-12.61-42.54,8.18-84.12,19.93-124.84,34.49,11.28-25.16-151.78,38.22-234.25,86.9Z"/>
      <path id="_180634520-2" data-name="180634520" class="cls-2" d="M733.88,1493.96c69.1-123.22,210.75-198.23,322.09-267.7,177.99-111.07,385.63-207.84,595.3-187.17,177.44,17.49,332.54,136.71,454.57,270.18,85.37,93.37,171.9,184.1,284.95,236.17,108.37,49.92,228.18,65.88,345.03,67.79l1.63.27c-18.41,10.91-34.96,20.57-40.71,30.69l-17.83,23.36c-97.51,12.98-184.99,29.1-280.93-3.46-216.33-73.42-363.79-279.47-569.46-374.71-197.99-91.68-445.76-39.43-635.97,43.21-112.92,49.05-262.95,88.43-334.62,207.66-8.64,14.38-11.26,27.81-9.7,40.17l-126.59-60.56c3.46-8.86,7.54-17.53,12.23-25.9Z"/>
      <path id="_180634523-2" data-name="180634523" class="cls-2" d="M2746.19,1382.2c-20.98-19.34-56.79-32.89-71.09-36.93-52.08-14.72-99.43-41.23-147.89-65.9-46.88-23.86-97.05-43.6-137.92-79.03-37.8-32.78-65.66-76.65-102.29-110.8-66.2-61.71-118.4-137.04-182.35-200.85-124.55-124.27-261.41-163.72-427.15-159.78-125.49,2.98-261.55,15.52-378.34,56.6-292.76,102.97-571.33,322.12-785.69,554.97-16.76,18.21-33.08,37.04-48.83,56.43l-150.09-71.8c77.62-96.23,140.65-159.26,216.67-227.6,79.56-71.51,177.33-157.2,304.72-233.77,147.19-88.46,352.37-175.9,512.65-219.01,117.14-31.51,230.59-37.43,335.02-37.41,210.4.03,381.95,48.48,522.31,167.08,71.06,60.03,128.27,154.1,200.69,220.95,162.79,150.26,341.94,272.06,510.12,286.61-4.72.01-9.12.12-12.38-.27-19.28-2.28-50.34-7.15-68.35,3.48-30.24,17.83-39.28,68.63-48.86,100.85-2.77,9.32-6.13,20.52-10.09,31.29-6.35-13.28-21-26.01-30.87-35.12Z"/>
      <path id="_180634522-2" data-name="180634522" class="cls-2" d="M2716.66,1448.21c-37.49-2.68-88.63-34.66-111.53-43.86-80.88-32.45-160.61-74.5-232.49-126.39-67.43-48.66-114.97-120.52-168.53-185.06-81.25-97.9-169.27-194.38-278.41-255.01-148.9-82.72-347.36-52.1-504.26-14.18-176.01,42.54-333.38,141.12-492.99,227.38-99.46,53.75-177.65,131.69-260.75,210.5-34.71,32.92-78.53,61.99-105.53,105.4-12.14,19.54-19.34,41.76-26.61,63.83l-70.9-33.92c15.74-19.39,32.06-38.22,48.83-56.43,214.35-232.85,492.92-451.99,785.69-554.96,116.79-41.08,252.85-53.61,378.34-56.6,165.74-3.94,302.6,35.51,427.15,159.78,63.95,63.81,116.15,139.14,182.35,200.85,36.64,34.15,64.5,78.02,102.29,110.8,40.87,35.43,91.05,55.16,137.92,79.03,48.46,24.67,95.8,51.18,147.89,65.9,14.3,4.04,50.11,17.59,71.09,36.93,9.88,9.11,24.53,21.84,30.87,35.12-3.26,8.87-6.93,17.44-11.02,24.4-1.75,2.98-3.62,5.74-5.54,8.35-13.9,1.43-34.81-1.21-43.84-1.85Z"/>
      <path id="_180634521-2" data-name="180634521" class="cls-2" d="M2390.79,1545.44c-113.05-52.07-199.58-142.81-284.95-236.17-122.03-133.47-277.13-252.69-454.57-270.18-209.67-20.67-417.32,76.11-595.3,187.17-111.34,69.47-252.98,144.48-322.09,267.7-4.69,8.37-8.77,17.04-12.23,25.9l-186.11-89.03c7.27-22.07,14.47-44.29,26.61-63.83,27-43.42,70.82-72.48,105.53-105.4,83.1-78.81,161.29-156.75,260.75-210.5,159.61-86.26,316.99-184.84,492.99-227.38,156.9-37.91,355.36-68.54,504.26,14.18,109.15,60.63,197.16,157.11,278.41,255.01,53.56,64.54,101.1,136.39,168.53,185.05,71.88,51.89,151.61,93.94,232.49,126.39,22.9,9.19,74.04,41.17,111.53,43.86,9.02.65,29.94,3.28,43.84,1.85-15.67,21.28-35.19,32.07-31.28,64.44,3.59,29.73,21.32,43.06,48.49,42.06,14.5-.53,26.94-8.46,37.71-20.23-6.51,10.35-13.16,20.61-19.83,30.87-12.34,18.99-36.52,33.5-58.13,46.29l-1.63-.27c-116.85-1.91-236.66-17.87-345.03-67.79Z"/>
      <path id="_180634516-2" data-name="180634516" class="cls-2" d="M721.65,1519.86l126.59,60.56c4.67,36.88,46.68,64.21,77.65,78.61,13.02,6.07,26.01,10.45,38.96,13.34l-253.36-38.17c-8.13-36.05-4.49-76.89,10.16-114.34Z"/>
      <path id="_180634519-2" data-name="180634519" class="cls-2" d="M416.55,1460.59c-26.32,37.63-50.69,77.18-72.68,118.23l-194.45-29.29c5.95-9.63,11.86-18.61,17.67-26.84,56.8-80.49,104.38-144.15,147.47-197.57l150.09,71.8c-16.74,20.62-32.83,41.86-48.1,63.67Z"/>
      <path id="_180634518-2" data-name="180634518" class="cls-2" d="M464.64,1396.92l70.9,33.92c-10.13,30.73-20.4,61.16-44.37,83.58-25.14,23.5-49.09,48.31-71.07,75.03.97-3.42,1.88-6.99,2.7-10.7-.83,3.72-1.74,7.28-2.7,10.7-.21.25-.41.51-.62.77l-75.6-11.39c21.99-41.05,46.36-80.61,72.68-118.23,15.26-21.81,31.35-43.05,48.09-63.67Z"/>
      <path id="_180634517-2" data-name="180634517" class="cls-2" d="M491.17,1514.41c23.98-22.43,34.25-52.85,44.37-83.58l186.1,89.03c-14.65,37.44-18.29,78.29-10.16,114.34l-291.62-43.93c.08-.27.16-.55.23-.83,21.98-26.71,45.93-51.52,71.07-75.03Z"/>
      <path id="_180634511-2" data-name="180634511" class="cls-2" d="M817.71,1734.94c-60.07-8.82-94.78-50.03-106.22-100.74l253.35,38.17c10.5,2.34,20.98,3.71,31.44,4.18,11.42.51,22.82-.03,34.21-1.51l-14.6,5.58c-55.16,24.38-136.18,63.44-198.18,54.33Z"/>
      <path id="_180634513-2" data-name="180634513" class="cls-2" d="M397.26,1645.15c-13.23,33-9.37,52.48-18.55,121.91-5.12,38.74-3.82,77.74-9.09,116.6-26.69,197.29,274.94,51.4,344.3,12.46,54.52-30.62,115.13-67.3,174.69-83.22,59.36-15.88,150.76-30.05,203.97-75.92,4.76-4.1,12.32-8.32,18.88-12.84-14.5,13.85-28.07,28.66-40.38,44.66-45.64,59.36-92.58,47.71-156.59,71.95-107.85,40.86-207.94,101.97-316.11,142.98-92.09,34.93-225.31,108.91-268.6-34.93-16.63-55.26,7.79-87.13,11.45-140.69,4.6-67.62-4.53-94.14,32.5-154.13,13.9-22.51,29.26-43.67,45.74-63.76l.39.06c-7.17,24.9-17.51,42.18-22.6,54.88Z"/>
      <path id="_180634515-2" data-name="180634515" class="cls-2" d="M41.21,1813.7c22.96-97.46,66.6-196.82,108.21-264.17l194.45,29.29c-22.09,41.25-41.78,84-58.62,127.83-32.52,84.66-88.79,177.09-81.54,272.56,7.98,105.16,93.65,213.55,190.18,193.91,92.21-18.77,208.73-108.05,291.58-150.32,90.68-46.27,166.92-109.16,264.25-137.65,52.94-15.5,110.35-7.15,161.37-27.14,46.37-18.16,83.51-55.75,118.38-91.77,40.91-42.25,80.67-49.65,126.04-80.75,20.34-13.95,49.38-56.08,42.11-85.84,16.82,43.59-32.17,95.16-57.57,118.12-59.98,54.17-101.11,102.12-132.59,179.46-52.82,7.19-104.29,12.9-156.64,24.32-17.96,3.92-32.77,13.6-51.11,17-20.56,3.83-40.71,6.62-60.99,12.21-73.83,20.37-139.97,57.61-205.56,98.65-15.75,9.85-31.62,19.52-48,28.09-44.74,23.44-87.1,61.64-126.6,94.06-90.27,74.07-169.58,180.17-287.31,196.96-50.6,7.21-107.81-14.85-142.31-41.93-74.64-58.64-100.07-140.64-108.69-236.66-5.53-61.53-2.59-176.19,20.98-276.24Z"/>
      <path id="_180634514-2" data-name="180634514" class="cls-2" d="M1355.5,1685.49c-45.37,31.1-85.13,38.51-126.04,80.75-34.87,36.02-72.01,73.61-118.38,91.77-51.02,19.99-108.43,11.64-161.37,27.14-97.33,28.49-173.56,91.39-264.24,137.65-82.86,42.27-199.37,131.55-291.58,150.32-96.52,19.64-182.19-88.75-190.18-193.91-7.24-95.48,49.02-187.91,81.54-272.56,16.84-43.83,36.52-86.58,58.62-127.83l75.6,11.39c-16.48,20.09-31.84,41.25-45.74,63.76-37.04,60-27.91,86.51-32.5,154.13-3.66,53.56-28.08,85.43-11.45,140.69,43.29,143.84,176.51,69.87,268.6,34.93,108.17-41.01,208.26-102.12,316.11-142.98,64.01-24.25,110.95-12.6,156.59-71.95,12.31-16,25.87-30.8,40.38-44.66,4.25-2.93,8.07-5.99,10.42-9.23-2.34,3.24-6.17,6.3-10.42,9.23,51.66-49.36,115.22-86.69,176.27-123.19,18.44-11.02,54.19-32,81.07-27.76,11.85,3.78,21.11,10.71,26.71,21.7.8,1.58,1.49,3.16,2.11,4.76,7.27,29.76-21.78,71.9-42.12,85.84Z"/>
      <path id="_180634512-2" data-name="180634512" class="cls-2" d="M1287.73,1600.95c-61.06,36.5-124.61,73.84-176.27,123.19-6.55,4.52-14.12,8.74-18.88,12.84-53.21,45.86-144.6,60.04-203.97,75.92-59.56,15.93-120.17,52.6-174.69,83.22-69.35,38.94-370.99,184.83-344.3-12.46,5.26-38.86,3.96-77.87,9.09-116.61,9.18-69.42,5.32-88.91,18.55-121.91,5.09-12.71,15.44-29.98,22.6-54.88l291.62,43.93c11.44,50.72,46.16,91.92,106.22,100.74,62,9.11,143.02-29.95,198.18-54.33l14.6-5.58c28.88-3.75,57.68-13.5,86.52-27.24,38.15-18.17,185.46-95.8,251.79-74.61-26.87-4.24-62.63,16.74-81.07,27.76Z"/>
      <path id="_180634510-2" data-name="180634510" class="cls-2" d="M857.93,1540.26c71.67-119.23,221.7-158.61,334.62-207.66,190.21-82.64,437.97-134.89,635.96-43.21,205.68,95.24,353.13,301.28,569.46,374.71,95.94,32.56,183.43,16.45,280.93,3.46-3.05.41-39.51,78.51-46.09,89.33-18.72,30.79-37.29,61.39-65.37,83.24-33.01,25.69-72.56,40.38-110.07,55.96-47.57,19.78-89.58,53.62-140.43,63.25-52.85,10.02-106.17-3.23-159.3-3.19-59.99.06-114.92-12.18-174.69-19.42-104.38-12.64-224.94-25.37-336.93-26.42-78.11-.74-156.03,6.79-234.12,7.29-49.92.32-95.58-4.87-144.72-11.55-19.83-2.69-40.23-5.08-59.75-8.8.71-1.73,1.42-3.44,2.14-5.14,14.59,4.82,18.26-6.64,26.16-17.33,92.03-124.55,259.09-165.18,400.58-151.26,25.91,2.55,46.97,24.78,73.53,22.49,25.72-2.24,47.77-9.51,75.32-9.51,30.49.02,60.98-2.38,91.41,1.05,31.93,3.61,60.42,7.89,91.87,16.36,51.72,13.93,105.2,22.17,155.58,41.58,36.42,14.03,92.36,42.25,129.05,13.51,30.14-23.63,13.43-65.61-7.73-89.42-38.72-43.51-99.73-59.98-149.03-84.65-36.98-18.5-74.83-34.85-112.32-52.07-30.53-14.03-69.97-24.94-97.69-43.95-40.49-27.77-89.97-33-127.57-68.39-24.5-23.06-37.58-69.29-66.03-86.75-24.76-15.18-69.51,1.59-93.61,13.23-43.46,21-84.41,22.21-130.98,25.4-41.89,2.86-81.49,11.52-119.73,31-67.39,34.33-139.31,58.98-205.7,95.02-47.71,25.91-113.1,58.35-147.28,103.71,10.18,17.59,25.61,22.85,42.57,21.79-13.89,2.3-27.8,3.25-41.73,2.62-23.36-1.05-46.82-6.53-70.4-17.51-41.35-19.23-102.37-61.5-67.95-118.78Z"/>
      <path id="_180634508-2" data-name="180634508" class="cls-2" d="M1437.15,1513.61c23.45-4.28,46.59.96,70.22-4.31,18.92-4.22,45.83-17.65,65.05-15,18.85,2.64,27.1,24.59,47.57,20.29,14.06-2.95,19.11-20.42,35.4-17.9,18.65,2.88,40.06,31.92,57.56,40.46,36.46,17.76,71.5,36.86,106.53,57.56,56.58,33.42,123.4,52.33,182.71,79.98,19.65,9.16,37.28,20.7,57.21,29.65-31.92-14.33-73.02-34.14-107.18-38.43-13.6-1.72-26.79,2.73-40.3,2.82-18.63.14-23.68-6.66-39.36-13.26-27.86-11.73-38.05-1.72-64.03-.29-23.6,1.3-42.45-13.86-64.98-16.5-16.07-1.9-32.46-.56-49.24-2.05-14.3-1.27-26.97,2.05-41.63,1.72-58.7-1.34-128.77-8.63-184.73,12.44-16.71,6.3-33.24,14.01-50.14,20.39-46.09,17.45-69.41,44.49-105.35,80.43-18.8,18.8-39.12,36.98-56.81,57.21,23.32-32.53,50.91-60.81,84.37-91.03,26.34-23.8,77.04-79.43,54.47-123.96-19.51-38.31-78.22-28.65-142.54-5.77,5.89-2.71,11.75-5.5,17.56-8.43,57.34-28.85,104.36-54.45,167.61-66Z"/>
      <path id="_180634509-2" data-name="180634509" class="cls-2" d="M995.44,1652.13c34.18-45.36,99.57-77.8,147.28-103.71,66.39-36.04,138.31-60.69,205.7-95.02,38.23-19.48,77.84-28.14,119.73-31,46.57-3.19,87.52-4.41,130.98-25.4,24.1-11.64,68.85-28.42,93.61-13.23,28.45,17.46,41.53,63.68,66.03,86.75,37.6,35.4,87.08,40.62,127.57,68.39,27.71,19.01,67.16,29.93,97.69,43.96,37.49,17.22,75.34,33.57,112.32,52.07,49.3,24.66,110.31,41.13,149.03,84.65,21.16,23.81,37.87,65.79,7.73,89.42-36.69,28.74-92.63.52-129.05-13.51-50.39-19.42-103.86-27.66-155.58-41.59-31.44-8.47-59.94-12.75-91.87-16.36-30.43-3.43-60.92-1.03-91.41-1.05-27.55,0-49.59,7.27-75.32,9.51-26.56,2.29-47.62-19.94-73.53-22.49-141.5-13.92-308.56,26.72-400.58,151.26-7.9,10.68-11.57,22.15-26.16,17.33.74-1.77,1.49-3.52,2.24-5.25,8.55-12.29,13.83-26.57,19.89-40.34,7.47-13.33,15.42-25.8,23.95-37.7,17.69-20.23,38-38.41,56.81-57.21,35.93-35.94,59.25-62.97,105.35-80.43,16.89-6.38,33.43-14.1,50.14-20.4,55.96-21.07,126.03-13.78,184.73-12.44,14.66.33,27.32-2.99,41.63-1.72,16.77,1.49,33.16.15,49.24,2.05,22.53,2.65,41.37,17.81,64.98,16.5,25.98-1.43,36.18-11.44,64.03.29,15.68,6.61,20.73,13.4,39.36,13.26,13.51-.09,26.7-4.54,40.3-2.82,34.15,4.29,75.26,24.1,107.18,38.43-19.94-8.95-37.56-20.49-57.21-29.65-59.31-27.65-126.13-46.55-182.71-79.98-35.03-20.7-70.07-39.81-106.53-57.56-17.5-8.55-38.91-37.58-57.56-40.46-16.3-2.51-21.35,14.95-35.4,17.9-20.47,4.31-28.72-17.64-47.57-20.29-19.22-2.66-46.13,10.78-65.05,15-23.63,5.27-46.77.03-70.22,4.31-63.25,11.55-110.27,37.15-167.61,66-5.82,2.93-11.68,5.72-17.56,8.43-26.37,9.38-52.49,20.61-75.09,30.99-20.1,7.95-40.16,16.06-59.82,25.35-12.46,5.89-29.86,15.55-48.01,22.24-10.34,3.12-20.69,5.59-31.04,7.3-16.97,1.06-32.4-4.2-42.58-21.79Z"/>
      <path id="_180634505-2" data-name="180634505" class="cls-2" d="M2836.01,1285.17c18.01-10.62,49.07-5.76,68.35-3.48,10.24,1.21,31.69-2.42,39.01,7.11,12.23,15.95-12.92,36.83-21.22,47.93-23,30.78-38.62,67.27-55.04,102.39-17.13,36.63-42.47,115.73-89.4,117.45-27.18,1-44.9-12.33-48.49-42.06-4.39-36.34,20.74-45.48,36.82-72.79,9.06-15.41,16.06-38.7,21.11-55.69,9.58-32.22,18.63-83.03,48.86-100.86Z"/>
      <path id="_180634609-2" data-name="180634609" class="cls-2" d="M2699.51,1754.36c-28.19-30.67,2.37-125.81-9.67-101.11-25.1,51.4-88.78,159.37-115.3,183.84-32.41,29.88-121.4,53.7-161.11,82.51-22.09,16.03,107.47,46.79,126.58,93.55,19.65,48.08,73.32-29.89,102.5-58.65,39.92-39.33,86.86-33.19,135.26-53.8,80.82-34.41,88.68-116.58-1.87-165.19-28.37-17.59-49.01,20.34-74.47,19-.65-.03-1.47.33-1.91-.15Z"/>
      <path id="_180634600-2" data-name="180634600" class="cls-2" d="M2965.59,2586.23c-13.77-23.34-19.38-48.21-26.15-74.92-7.38-29.05-7.2-87.08-28.2-126.38-23.62-44.18-58.12-63.67-88.89-123.98-33.88-91.49-41.18-197.57-52.14-219.26-26.73-52.88-60.47-97.18-104.2-101.75,34.42-17.43,77.75-24.67,111.75-39.23,81.37-34.83,89.01-122.32-5.95-165.06-23.5-10.57-50.85,25.83-72.74,14.51-17.67-9.13-10.26-44.27-10.12-61.04.3-34.85,13.68-55.64,42.37-71.96,25.29-14.38,52.33-31.63,70.13-56.5,14.63-20.44,26.63-42.66,38.13-65.28,20.76-40.84,37.22-84.87,61.18-123.73,10.38-16.86,21.06-34.17,31.9-50.63,12.77-19.43,18.78-31.18,48.48-27.55-3.94,40.75-1.54,123.18-1.95,158.1-.6,50.28-1.2,100.56-1.8,150.84-.69,58.22-3.58,299.52-4.32,361.97-.74,61.72-1.48,123.45-2.21,185.18-.68,56.56-1.36,113.13-2.03,169.69-.56,47.2-1.13,94.4-1.69,141.59-.35,29.79-5.1,119.32-1.51,125.41Z"/>
    </g>
    <g>
      <path class="cls-4" d="M2632.86,1366.43l259.87,1559.23" marker-end=""/>
      <path class="cls-4" d="M2806.11,1366.43l86.62,1559.23" marker-end=""/>
      <path class="cls-4" d="M2719.48,2925.65l259.87,1559.23" marker-end=""/>
      <path class="cls-4" d="M2719.48,2925.65l433.12,1559.23" marker-end=""/>
      <path class="cls-4" d="M2892.73,2925.65l86.62,1559.23" marker-end=""/>
      <path class="cls-4" d="M2892.73,2925.65l259.87,1559.23" marker-end=""/>
      <path class="cls-4" d="M2979.36,1366.43l-86.62,1559.23" marker-end=""/>
      <path class="cls-4" d="M3152.6,1366.43l-259.87,1559.23" marker-end=""/>
      <path class="cls-4" d="M3325.85,1366.43l-433.12,1559.23" marker-end=""/>
      <path class="cls-4" d="M2632.86,1366.43l433.12,1559.23" marker-end=""/>
      <path class="cls-4" d="M2632.86,1366.43l606.37,1559.23" marker-end=""/>
      <path class="cls-4" d="M2806.11,1366.43l259.87,1559.23" marker-end=""/>
      <path class="cls-4" d="M2806.11,1366.43l433.12,1559.23" marker-end=""/>
      <path class="cls-4" d="M2979.36,1366.43l86.62,1559.23" marker-end=""/>
      <path class="cls-4" d="M2979.36,1366.43l259.87,1559.23" marker-end=""/>
      <path class="cls-4" d="M3152.6,1366.43l-86.62,1559.23" marker-end=""/>
      <path class="cls-4" d="M3152.6,1366.43l86.62,1559.23" marker-end=""/>
      <path class="cls-4" d="M3325.85,1366.43l-259.87,1559.23" marker-end=""/>
      <path class="cls-4" d="M3325.85,1366.43l-86.62,1559.23" marker-end=""/>
      <path class="cls-4" d="M3065.98,2925.65l-86.62,1559.23" marker-end=""/>
      <path class="cls-4" d="M3065.98,2925.65l86.62,1559.23" marker-end=""/>
      <path class="cls-4" d="M3239.23,2925.65l-259.87,1559.23" marker-end=""/>
      <path class="cls-4" d="M3239.23,2925.65l-86.62,1559.23" marker-end=""/>
      <path class="cls-4" d="M2806.11,4484.88l268.53,1559.23" marker-end=""/>
      <path class="cls-4" d="M2979.36,4484.88l95.29,1559.23" marker-end=""/>
      <path class="cls-4" d="M3152.6,4484.88l-77.96,1559.23" marker-end=""/>
      <path class="cls-4" d="M2632.86,1366.43l86.62,1559.23" marker-end=""/>
      <path class="cls-4" d="M2806.11,1366.43l-86.62,1559.23" marker-end=""/>
      <path class="cls-4" d="M2979.36,1366.43l-259.87,1559.23" marker-end=""/>
      <path class="cls-4" d="M3152.6,1366.43l-433.12,1559.23" marker-end=""/>
      <path class="cls-4" d="M3325.85,1366.43l-606.37,1559.23" marker-end=""/>
      <path class="cls-4" d="M2719.48,2925.65l86.62,1559.23" marker-end=""/>
      <path class="cls-4" d="M2892.73,2925.65l-86.62,1559.23" marker-end=""/>
      <path class="cls-4" d="M3065.98,2925.65l-259.87,1559.23" marker-end=""/>
      <path class="cls-4" d="M3239.23,2925.65l-433.12,1559.23" marker-end=""/>
      <path class="cls-4" d="M2806.11,4484.88l77.96,1559.23" marker-end=""/>
      <path class="cls-4" d="M2979.36,4484.88l-95.29,1559.23" marker-end=""/>
      <path class="cls-4" d="M3152.6,4484.88l-268.53,1559.23" marker-end=""/>
      <circle id="_0_0" data-name="0_0" class="cls-4" cx="2632.86" cy="1366.43" r="73.63"/>
      <circle id="_0_1" data-name="0_1" class="cls-4" cx="2806.11" cy="1366.43" r="73.63"/>
      <circle id="_0_2" data-name="0_2" class="cls-4" cx="2979.36" cy="1366.43" r="73.63"/>
      <circle id="_0_3" data-name="0_3" class="cls-4" cx="3152.6" cy="1366.43" r="73.63"/>
      <circle id="_0_4" data-name="0_4" class="cls-4" cx="3325.85" cy="1366.43" r="73.63"/>
      <circle id="_1_0" data-name="1_0" class="cls-4" cx="2719.48" cy="2925.65" r="73.63"/>
      <circle id="_1_1" data-name="1_1" class="cls-4" cx="2892.73" cy="2925.65" r="73.63"/>
      <circle id="_1_2" data-name="1_2" class="cls-4" cx="3065.98" cy="2925.65" r="73.63"/>
      <circle id="_1_3" data-name="1_3" class="cls-4" cx="3239.23" cy="2925.65" r="73.63"/>
      <circle id="_2_0" data-name="2_0" class="cls-4" cx="2806.11" cy="4484.88" r="73.63"/>
      <circle id="_2_1" data-name="2_1" class="cls-4" cx="2979.36" cy="4484.88" r="73.63"/>
      <circle id="_2_2" data-name="2_2" class="cls-4" cx="3152.6" cy="4484.88" r="73.63"/>
      <circle id="_3_0" data-name="3_0" class="cls-4" cx="2884.07" cy="6044.11" r="73.63"/>
      <circle id="_3_1" data-name="3_1" class="cls-4" cx="3074.64" cy="6044.11" r="73.63"/>
    </g>
  </g>
  <g class="cls-5">
    <path class="cls-3" d="M2853.42,5950.15h-.91l3.55-1.01,2.74-2.33,4.16-4.46,5.78-7.2,7.71-10.45,26.48-36.62,28-38.45,58.63-81.97,59.04-88.15,55.79-93.63,25.46-48.59,23.33-49.71,20.69-50.62,17.65-51.53,14-52.34,9.94-53.06,5.58-53.66.51-54.17-22.22-.3-28.3.41-33.37.91-37.64,1.32-40.78,1.62-43.11,1.83-89.17,3.65-87.04,3.04-40.27,1.01-36.93.41-32.66-.2-27.29-.91-21.1-1.83-13.9-2.74-9.23-4.06-7.3-5.17-5.17-5.78-2.54-5.88.2-5.38,3.55-4.36,7.1-2.94,11.06-.91,14.81,3.14,21.61,2.03,27.59,1.01,32.77.3,36.93-.41,40.17-.81,86.84-2.43,89.37-2.13,43.42-.61h41.39l38.55.81,34.59,1.62,30.03,2.74,24.35,3.96-1.52-21.81-.71-21.3-.71-5.78-1.32-8.01-4.36-21.81-6.09-27.19-7-29.82-7.3-29.93-7-27.29-5.99-22.01-2.43-8.22-1.93-5.88-1.32-3.35-2.33-5.27-7.3-16.33-10.45-22.82-13.19-28.2-15.32-32.56-16.94-35.81-36.72-76.89-36.93-76.69-17.25-35.51-15.72-32.06-13.69-27.69-11.16-22.11-4.36-8.62-3.65-6.9-2.74-4.87-1.72-2.84-.1-2.43-.51-5.07-1.62-14.2-1.83-14.2-.71-4.97-.41-2.23,18.26-38.45-24.04,29.72-3.14,1.12-4.06-1.01-4.97-3.14-5.68-4.97-13.19-14.41-15.12-19.17-32.77-45.55-16.03-23.03-14.81-20.9-40.07-55.59-38.14-53.46-36.01-51.53-33.98-49.71-31.75-47.98-29.52-46.66-27.39-45.35-24.96-44.33-22.72-43.42-20.19-42.61-17.85-42.2-15.32-41.79-12.68-41.69-10.25-41.59-7.51-41.9-4.77-42.2-2.13-42.81.71-43.52,3.55-44.53,6.39-45.55,9.43-46.87,12.27-48.29,15.42-49.91,18.46-51.84,21.61-53.76,24.75-56.1,28-58.33,31.35-60.97,34.59-63.61,37.94-66.65,41.49-69.69,44.84-72.94-39.26-63.91-39.46-67.97-39.16-71.72-38.55-75.17-37.33-78.21-35.81-80.85-33.78-83.18-31.24-85.21-28.4-86.73-25.06-88.15-21.2-88.97-16.94-89.47-12.27-89.78-7.1-89.57-1.52-89.07,4.46-88.15,2.64-25.97,3.55-28.2,10.75-58.94,7.41-28.51,9.03-26.38,10.55-23.23,12.48-18.97,2.64,30.53,2.23,29.82,1.22,284.35-1.01,60.26-2.54,26.88-.91,28.4,2.54,60.97,8.01,65.74,12.88,69.59,17.25,72.23,21.1,74.05,24.25,74.76,27.09,74.56,29.32,73.24,30.94,71.01,32.06,67.76,32.66,63.4,32.66,58.23,32.26,51.94,31.24,44.64,15.01,19.27,14.61,17.14,5.78,8.72,6.7,13.39,5.68,14.61,4.56,11.46,1.72,3.25,1.22.71,7.1-8.83,4.16-9.84,1.72-11.06-.71-12.17-2.74-13.29-4.67-14.3-13.9-32.06-18.67-36.42-21.4-40.68-22.32-45.04-21.3-49.2-10.96-28.3-12.17-32.16-13.09-35.51-13.9-38.35-28.91-82.78-29.11-87.55-27.49-87.85-12.48-42.71-11.56-41.19-10.14-39.06-8.62-36.42-6.9-33.27-4.87-29.62-7.71-74.66-2.64-70.71,1.01-68.07,3.45-66.55,8.12-133.6,2.03-69.29-1.12-72.74,1.93-7.81,2.33-4.06,2.74-.91,2.94,1.93,3.14,4.36,3.35,6.39,6.59,17.04,11.56,39.97,3.75,16.23,1.01,5.68.51,3.65-.1,18.06-1.72,20.09-2.33,24.55-1.01,14.91-.81,17.04-.51,19.58.1,22.32.71,25.56,1.42,29.01,2.43,32.87,3.35,37.13,4.56,41.49,5.88,46.46-.3,17.25,1.42,13.29,1.12,16.23,2.74,38.24,6.19,41.08,5.38,19.78,7.3,18.26h146.99l66.55.2,61.78.3,57.11.3,52.34.51,47.58.51,42.81.51,38.04.61,33.27.71,28.3.71,23.53.71,18.56.71,13.69.71,8.72.71,3.85.71-1.22.61-6.19.61-11.26.61-16.23.51-21.3.51-26.38.41-31.55.3-36.62.2-41.9.1h-46.97l-52.14-.1-57.42-.3-62.69-.41-67.87-.51-73.24-.71-78.52-.91-5.88,7.91-2.64,9.13,1.62,19.07,5.48,16.13,2.33,5.38,1.01,2.74,2.23,17.45,3.04,17.14,4.77,22.42,4.26,17.04,3.85,12.58,3.55,9.33,6.19,12.98,5.38,12.27,2.64,6.19,1.72,2.33,1.42.2-1.42,3.85-3.04,7.1v6.09l2.03,8.42,4.87,11.46,8.52,14.91,2.13,18.06,6.39,14.91,7.81,13.59,6.19,14.1,10.96,30.74,11.56,29.93,22.52,60.66,8.01,21,3.96,10.45,4.97,11.87,1.12,1.12,2.43,2.64,3.55,5.07,4.36,8.62,17.14,34.69-.1,2.13-.2,4.77,1.42,7.71,4.36,11.36,45.75,85.21,22.52,43.11,20.19,45.45,2.33-.1,3.04-2.03,7.51-8.52,8.93-13.19,9.64-16.03,18.77-32.66,7.61-12.98,5.58-8.22,2.64-.2,5.17-1.32,3.35-2.43,3.96-4.46,4.26-7,4.56-10.04,4.06-1.83,3.75-1.83,4.87-3.45,5.88-5.78,7-8.72,7.81-12.48,8.72-16.94,5.58-3.04,3.55-5.58,2.03-5.58.91-2.84,59.14-82.37,28.1-42.3,27.49-45.75,7-12.88,3.45-7.51,1.32-3.75.41-1.52,28.3-54.68,26.48-56.4,28.71-58.43,13.8-29.52,12.48-31.75,4.97-5.48,4.87-7.61,9.43-20.59,9.03-25.87,8.42-29.22,14.61-59.95,5.88-26.68,4.87-21.71,4.36-19.68,5.38-25.97,6.29-30.23,6.49-32.56,6.59-33.07,6.09-31.45,5.38-27.9,4.26-22.42.1-8.62,2.03-12.98,1.93-15.22,3.45-35.51,3.85-39.87,4.97-41.19,7-39.46,9.54-34.59,6.09-14.61,7-12.27,8.12-9.54,9.23-6.49-6.8,59.85-5.07,58.84-7.41,116.36-8.52,117.07-6.49,59.85-8.83,61.17-14.2,73.24-17.65,70.91-20.9,68.58-23.94,66.45-26.58,64.62-29.11,62.69-31.14,61.17-33.17,59.75-70.81,115.65-75.27,111.89-155.01,217.39-75.37,108.14-71.21,109.66-33.37,55.69-31.55,56.5-29.32,57.62-26.88,58.74-24.35,60.05-21.3,61.58-18.16,63.2-14.61,65.03-10.96,67.05-6.9,69.08-2.54,71.52,1.93,73.95,4.56,47.27,8.22,46.46,11.46,45.35,14.3,44.43,17.04,43.22,19.38,42,21.4,40.78,23.13,39.36,50.42,74.26,53.77,67.66,54.68,60.66,26.98,27.39,26.38,25.36,4.36,2.03,7.3,2.43,7.3,2.43,4.46,2.13,25.56,25.06,21.2,24.55,20.29,26.07,22.52,29.22,5.07-.61,2.13-2.94-.51-4.97-2.74-6.8-4.67-8.12-6.19-9.23-15.52-20.29-17.45-20.9-16.43-18.67-7-7.71-5.58-6.29-3.96-4.46-1.93-2.23-19.78-28.4-21.1-30.84-22.01-33.07-22.72-35.1-45.75-74.97-44.13-79.94-39.77-82.88-17.45-42-15.32-41.9-12.98-41.69-10.04-41.19-7-40.48-3.55-39.46-.3-50.92,3.14-51.53,6.39-51.74,9.43-52.04,12.07-51.84,14.51-51.63,16.54-51.13,18.46-50.52,41.19-98.2,45.14-93.02,46.97-86.33,23.33-40.07,23.03-37.84,4.26-6.39,1.72-2.13,34.19-51.74,36.52-50.82,77.91-100.73,81.76-102.56,41.39-53.16,41.08-54.98,40.37-57.32,39.26-60.05,37.74-63.4,35.81-67.16,33.48-71.31,30.64-75.88,27.49-81.15,23.84-86.63,18.67-83.29,15.52-85.21,11.56-86.43,6.9-87.04,1.52-87.14-4.36-86.53-11.26-85.31-8.32-42.1-10.25-41.49,14.3,23.74,12.68,25.26,11.06,26.88,9.43,28.1,14.51,60.05,8.93,64.32,3.75,67.76-.81,70.3-5.07,72.13-8.83,72.94-12.07,73.04-14.91,72.33-17.35,70.71-19.17,68.27-20.69,65.03-21.61,60.97-22.22,56-22.32,50.21-39.26,77.71-42.2,73.95-44.53,70.91-46.36,68.68-95.26,133.6-94.95,133.5-23.53,33.88-25.16,35.71-53.77,76.69-55.9,82.58-54.88,87.34-51.13,91.1-23.13,46.66-21.1,47.07-18.67,47.48-15.83,47.78-12.58,47.78-9.03,47.78-4.36,35.2-2.13,33.17-.1,31.24,1.72,29.52,3.55,28,5.17,26.68,15.01,50.01,20.29,46.66,24.75,44.94,28.1,44.53,30.74,45.55,15.52,22.62,14,19.88,12.58,17.65,11.56,16.03,21.2,29.01,20.39,28.3,21.71,31.75,12.07,18.46,13.29,20.9,14.71,23.74,16.43,27.19,18.46,31.14,20.69,35.51,11.46,17.45-.61,2.74-.1,7.1,1.93,6.29,4.06,8.93,6.9,11.77,10.55,15.22,1.72,6.39,3.55,8.93,5.17,11.26,6.8,13.49,8.22,15.62,9.54,17.55,10.85,19.58,11.87,21.2,26.58,47.27,29.62,52.95,31.85,57.42,32.97,61.17,33.17,63.91,32.66,65.53,30.94,66.24,28.61,66.14,25.16,64.92,20.8,62.69,15.52,59.65,5.58,28.4,3.85,27.19,4.87,69.39-.91,67.97-6.19,66.55-11.06,65.03-15.32,63.5-19.07,62.18-22.52,60.76-25.26,59.45-27.59,58.03-29.42,56.61-62.29,109.36-63.61,104.18-60.97,99.11"/>
    <path class="cls-3" d="M3337.61,5462.71l11.06-47.27,8.93-45.55,6.7-43.82,4.77-42.2,2.74-40.78.91-39.36-.81-38.04-2.54-36.82-9.84-70.3-15.52-66.45-20.49-63.3-24.85-60.87-28.4-59.14-31.35-58.03-68.78-115.75-35.91-59.14-36.11-60.87-35.51-63.4-34.29-66.55-12.78-4.26-9.03-2.54-5.58-.71-2.74.81-.1,2.13,2.13,3.55,9.13,10.14,13.09,13.69,13.8,16.03,11.46,17.35,5.88,17.45-1.12,21-5.38,21.61-5.48,21.81-1.22,21.51,1.42,5.27,3.45,8.01,5.07,10.35,6.59,12.38,16.33,29.22,19.17,32.66,19.68,33.27,18.36,30.84,8.01,13.49,6.9,11.87,5.58,9.64,3.85,7.3,23.64,55.69,21.61,52.24,19.58,49.2,17.14,46.97,14.71,45.04,11.87,43.82,9.03,43.22,5.88,43.11,2.54,43.62-.91,44.53-4.77,46.26-8.52,48.39-12.78,51.13-17.04,54.48-21.51,58.33-26.27,62.79-35.61,74.97-39.06,71.62-41.9,68.78-44.23,66.65-93.94,129.54-91.6,120.72"/>
    <path class="cls-3" d="M2857.69,6070.06l52.34-71.92,75.98-105.7,72.13-105.3,66.04-105.6,30.03-53.06,27.8-53.46,25.06-53.77,22.11-54.17,18.97-54.78,15.52-55.29,11.77-56,7.71-56.81,3.45-57.52-1.22-58.53-5.99-59.45-11.16-60.46-16.64-61.68-22.32-62.79-16.74-35.71-19.17-33.38-19.88-32.56-18.56-33.07-3.85-8.32-6.09-12.17-7.71-15.22-9.13-17.85-20.69-41.29-21.1-44.64-18.36-43.42-7.1-19.88-5.28-17.85-2.84-15.22-.2-11.97,2.94-8.22,6.49-3.96,2.74.81,3.96,3.35,5.07,5.58,6.09,7.71,6.9,9.64,7.91,11.56,17.96,28.2,20.39,33.88,22.32,38.65,23.53,42.1,24.25,44.53,47.78,91.71,22.42,45.04,20.49,42.91,18.06,39.77,14.91,35.51,11.16,30.03,4.06,12.58,2.84,10.85,10.96,57.21,6.9,56.3,3.04,55.39-.61,54.48-4.06,53.56-7.41,52.85-10.45,52.04-13.29,51.13-15.93,50.52-18.46,49.81-20.69,49.1-22.72,48.39-51.03,94.95-56.91,92.72-61.27,90.69-63.91,88.76-36.52,48.69"/>
    <path class="cls-3" d="M2914.8,2858.35l-1.62,2.03-4.36,6.49-59.04,93.53-57.42,100.94-27.19,52.95-25.56,54.58-23.64,56-21.2,57.42-18.46,58.63-15.22,59.95-11.77,60.97-7.71,61.98-3.45,63,1.42,63.71,6.59,64.52,12.07,65.23,7,24.96,9.84,26.98,12.27,28.71,14.51,30.13,33.88,63.2,38.24,65.33,39.97,65.13,38.75,62.29,18.06,29.42,16.74,27.8,15.01,25.97,13.09,23.84-4.46-2.13-7.3-2.43-7.3-2.33-4.36-2.13-50.32-61.98-52.85-64.21-52.65-67.36-49.91-71.42-23.13-37.64-21.4-39.06-19.48-40.58-17.14-42.3-14.51-44.03-11.46-45.95-8.22-47.98-4.67-50.21-1.42-61.07,2.03-59.85,5.38-58.63,8.52-57.52,11.46-56.4,14.1-55.29,16.74-54.37,19.17-53.36,21.3-52.45,23.23-51.63,51.94-100.83,57.62-98.1,61.88-95.56,64.72-93.63,65.94-92.01,65.74-90.79,64.11-89.98,60.97-89.57,56.2-89.57,50.11-89.98,22.22-45.24,20.19-45.45,28.4-73.75,23.84-73.65,19.78-72.84,16.13-71.52,12.88-69.69,10.04-67.36,7.71-64.42,5.68-60.97,4.16-56.91,3.04-52.24,2.33-47.27,1.93-41.49,2.13-35.3,2.74-28.51,3.55-21.2,2.33-7.61,2.74-5.68,5.88-7,5.58-2.43,5.38,1.52,5.07,4.97,4.87,7.91,4.46,10.35,8.12,25.97,6.7,29.42,5.17,28.81,3.55,24.14,1.12,8.93.71,6.19,3.96,51.23,1.62,52.45-.3,53.36-2.43,53.97-10.45,109.05-17.45,108.95-23.53,106.82-29.01,102.76-16.33,49.3-17.35,47.68-18.36,45.65-19.27,43.42-24.55,49.81-26.17,47.78-27.49,45.95-28.71,44.33-60.16,85.11-62.49,81.97-63.2,80.95-62.39,82.17-59.85,85.42-28.51,44.64-27.29,46.26h-.1"/>
    <path class="cls-3" d="M2876.45,5924.69l-7.81,10.45-5.78,7.2-4.06,4.46-2.84,2.33-2.64,1.01h-.81l-72.02-109.25-75.17-109.36-73.04-111.99-33.98-57.82-31.55-59.45-28.3-61.27-24.35-63.5-19.88-66.14-14.71-68.88-8.72-72.13-2.23-75.58,1.52-39.26,3.45-40.17,5.38-41.19,7.41-42.3,15.22-63,19.38-59.45,23.03-56,25.87-52.34,28-48.79,29.62-45.24,30.33-41.69,30.53-37.94,29.93-34.39,28.71-30.64,26.78-26.98,24.25-23.33,20.9-19.48,16.94-15.83,12.27-12.07,7-8.32,18.67,13.59,14.3,12.38,10.04,11.36,6.19,10.75,2.54,10.35-.81,10.14-3.96,10.45-6.7,10.96-9.33,11.77-11.56,12.88-13.59,14.2-15.42,15.93-16.84,17.96-18.06,20.19-19.07,22.72-19.68,25.67-26.27,36.62-24.25,35.91-22.32,35.2-20.39,34.59-35.2,67.36-27.8,65.33-20.8,63.71-13.9,62.59-7.2,61.88-.91,61.58,5.38,61.58,11.26,62.18,17.04,63,22.42,64.42,27.8,66.14,32.77,68.37,37.64,70.91,42.2,73.95,19.78,32.26,18.87,28.71,17.75,25.36,16.64,22.42,15.12,19.88,13.59,17.65,11.77,15.93,9.74,14.3,7.61,13.29,5.28,12.48,2.64,12.17-.1,12.07-2.94,12.38-6.09,13.09-9.43,14.2-12.88,15.52h-.1"/>
    <path class="cls-3" d="M3068.89,2800.63l8.12,14.51,11.87,17.65,15.12,20.8,18.06,23.64,20.49,26.58,22.62,29.32,24.14,32.06,25.46,34.59,26.27,37.03,26.68,39.36,26.58,41.59,26.17,43.82,25.46,45.85,24.04,47.78,22.52,49.71,20.29,51.43,17.85,53.05,15.01,54.58,11.56,56.1,7.91,57.42,3.75,58.63-.81,59.85-5.78,60.87-11.26,61.78-17.04,62.69-23.23,63.3-29.82,64.01-36.93,64.62-44.43,65.03-52.24,65.33-60.56,65.53-69.29,65.74-4.97-.1-5.38-2.84-11.77-11.97-12.98-17.75-14.1-19.78-4.26-21.3-.51-7.71,2.43-5.48,39.46-34.59,36.72-34.39,34.09-34.19,31.45-34.08,28.91-34.09,26.27-33.98,23.84-33.98,21.3-33.98,18.87-34.09,16.43-34.19,14.1-34.39,11.77-34.49,9.43-34.8,7.2-35.1,4.97-35.3,2.84-35.71.61-36.01-1.42-36.52-3.55-36.93-5.58-37.43-7.61-37.94-9.54-38.55-24.85-78.92-32.36-81.76-39.36-84.71-46.26-88.15-52.75-91.81-32.56-50.92-31.85-45.35-28.61-39.46-12.27-17.65-10.65-16.23-8.62-14.71-6.19-13.29-3.65-11.87-.61-10.45,2.64-8.93,6.19-7.61,10.04-6.09,14.2-4.67h-.1"/>
    <path class="cls-3" d="M3402.64,1479.33l-.1,8.62-3.35.2-3.04,2.43-5.58,10.35-4.87,15.72-4.26,18.56-3.75,19.07-3.35,17.25-3.04,12.98-1.42,4.16-1.42,2.13-6.59,2.03-12.68,1.42-18.06.71-22.62.2-26.27-.2-29.11-.61-63.61-2.03-65.13-2.64-31.04-1.32-29.01-1.32-26.07-1.12-22.42-.81-17.75-.51-12.38-.1-2.23,2.64-.91,5.88-.81,5.88-2.23,2.74-10.85.2-15.22.3-19.07.51-22.11.51-50.72,1.32-54.88,1.32-53.56.91-24.55.3-22.11.1-19.07-.1-15.32-.41-10.85-.61-5.68-1.01-5.78-3.45-5.48-5.38-9.74-15.72-8.12-20.39-6.49-23.03-4.56-23.43-2.64-21.71-.61-17.85,1.62-11.87,3.45-4.46,7.1-3.75,10.45-3.25,13.59-2.64,16.54-2.13,19.27-1.62,21.71-1.12,23.94-.81,53.66-.41,59.95.71,64.42,1.62,67.05,2.13,134.72,4.56,64.01,1.83,59.55,1.12,52.95.1,23.53-.51,21.3-.81,18.77-1.32,15.93-1.72,13.09-2.23,9.84-2.74,14.2,34.69-.1-.1"/>
    <path class="cls-3" d="M2565.02,1198.64l3.04,19.17,1.32,21.3-.1,23.43-1.42,25.56-2.23,27.8-2.94,29.82-3.35,31.85-3.45,33.98-3.35,35.91-2.94,37.94-2.23,39.97-1.22,41.9-.1,43.93,1.42,45.75,3.25,47.68,5.17,49.5,4.97,32.26,7,35.61,8.93,38.55,10.45,40.98,25.06,87.04,28.81,90.59,30.84,89.88,30.84,85.42,14.91,39.66,14.2,36.93,13.39,33.78,12.17,30.13,15.52,35,17.14,35.4,17.14,34.29,15.32,31.55,11.67,27.29,4.06,11.56,2.43,9.84.71,8.01-1.32,5.88-3.55,3.65-5.88,1.22-5.78-8.72-31.35-51.03-31.55-53.46-31.55-55.69-31.14-57.82-30.43-59.65-29.62-61.47-28.2-63-26.68-64.42-24.85-65.74-22.52-66.75-20.09-67.76-17.35-68.47-14.2-69.18-10.75-69.59-7-69.89-3.04-70,1.01-60.26.3-39.36,1.42-34.09,3.65-60.56,1.01-30.64-.3-33.88-2.33-39.26-2.13-22.22-2.84-24.35-2.33-29.82-2.54-30.53,15.22-15.52,15.72-10.25,15.62-4.97,15.22.61,13.9,5.99,12.38,11.56,10.14,17.25,7.3,22.93"/>
    <path class="cls-3" d="M2645.97,1647.93l-.3,17.25h-8.01l-4.97,5.78-2.43,9.84-.3,12.48,4.06,25.46,3.65,9.74,3.96,5.58,3.45,1.52,5.78,1.42,8.01,1.32,10.04,1.12,25.56,1.93,31.95,1.62,37.13,1.12,41.19.81,43.93.51,45.65.2,91.6-.2,43.52-.3,40.48-.41,36.22-.51,30.74-.51,24.25-.51,9.23-.2,7.1-.2,57.82-1.52,28.61-1.22,26.78-2.23,23.43-3.55,18.97-5.38,12.88-7.51,3.85-4.77,1.93-5.48h5.88l-4.87,21.71-5.99,26.68-14.61,60.05-8.42,29.22-9.03,25.87-9.43,20.59-4.87,7.61-4.87,5.48,9.13-34.69,5.88-16.13,9.64-13.39-8.62-13.09-9.33,1.42-11.77,1.12-14,.81-16.03.61-37.64.61-43.72-.2-48.59-.81-52.04-1.32-108.95-3.25-54.17-1.72-52.14-1.52-48.69-1.22-44.03-.81-37.84-.2-16.23.2-14.1.3-11.97.61-9.54.91-7,1.12-4.26,1.42-5.38,5.68-3.04,8.72-1.01,19.88-1.01-2.74-2.33-5.38-5.48-16.13-1.62-19.07,2.64-9.13,5.88-7.91,78.52.91,73.24.71,67.87.51,62.69.41,57.42.3,52.14.1h46.97l41.9-.1,36.62-.2,31.55-.3,26.38-.41,21.3-.51,16.23-.51,11.26-.61,6.19-.61,1.22-.61-3.85-.71-8.72-.71-13.69-.71-18.56-.71-23.53-.71-28.3-.71-33.27-.71-38.04-.61-42.81-.51-47.58-.51-52.34-.51-57.11-.3-61.78-.3-66.55-.2h-146.99l-7.3-18.26-5.38-19.68-6.09-41.08-2.84-38.35-1.12-16.23-1.42-13.29h11.87l11.67.41.1.2"/>
    <path class="cls-3" d="M3351.82,1711.13l-1.93,5.48-3.85,4.77-12.88,7.51-18.97,5.38-23.43,3.55-26.78,2.13-28.61,1.32-57.82,1.52-7.1.2-9.33.2-24.14.51-30.74.51-36.22.51-40.48.41-43.62.3-91.5.2-45.65-.3-44.03-.51-41.08-.81-37.23-1.12-31.85-1.52-25.56-1.93-10.04-1.22-8.01-1.22-5.78-1.42-3.45-1.52-3.96-5.58-3.55-9.74-4.16-25.46.3-12.48,2.43-9.84,4.97-5.78h8.01l9.43,2.64,12.17,2.13,14.81,1.62,17.14,1.22,19.27.91,21.3.51,47.78.1,53.36-1.01,57.42-1.72,120.51-4.77,60.16-2.64,57.82-2.23,54.07-1.72,48.69-1.01h41.69l17.85.51,15.42.81,12.98,1.22,10.25,1.62,7.41,2.13,4.26,2.54,2.74,7.91.2,11.87-.71,12.68v10.65"/>
    <path class="cls-3" d="M2830.7,2598.56l5.88-1.22,3.55-3.65,1.32-5.88-.71-8.01-2.43-9.84-4.06-11.56-11.67-27.19-15.32-31.55-17.14-34.29-17.14-35.51-15.52-35-12.17-30.13-13.39-33.78-14.2-36.93-14.91-39.66-30.84-85.42-30.84-89.98-28.81-90.49-25.06-87.04-10.45-40.98-8.93-38.55-7-35.61-4.97-32.26-5.28-49.5-3.14-47.68-1.42-45.75v-43.93l1.32-41.9,2.23-39.97,2.84-37.94,3.35-36.01,3.45-33.88,3.35-31.95,3.04-29.82,2.23-27.69,1.42-25.56.1-23.53-1.32-21.3-3.04-19.07h5.88l1.12,72.74-2.03,69.39-8.12,133.6-3.45,66.55-1.01,68.07,2.64,70.71,7.71,74.66,4.87,29.62,6.9,33.27,8.62,36.42,10.14,39.06,11.56,41.19,12.48,42.71,27.49,87.85,29.11,87.55,28.91,82.78,13.9,38.35,13.09,35.51,12.17,32.16,10.96,28.3,21.3,49.2,22.32,45.04,21.4,40.68,18.67,36.42,13.9,32.06,4.67,14.4,2.74,13.19.71,12.17-1.72,11.06-4.16,9.84-7.1,8.83-1.22-.71-1.72-3.25-4.56-11.46-5.68-14.61-6.7-13.39-.1.1"/>
    <path class="cls-3" d="M2645.97,1647.93l-11.67-.41h-11.87l.3-17.25,100.94-.1,100.83,4.97,100.73,6.29,100.73,4.06,2.54-2.64,5.78-5.78,10.55-5.78,7.51-1.83,9.23-.61,4.87,3.14,4.97,3.14,8.72,3.55,14.1,3.65,21.1,3.04,13.69,1.22,16.03.91,18.56.51,21.3.1,3.75-.3,7.71-.71,10.75-1.01,13.49-1.32,32.06-2.84,34.9-2.43,32.77-1.22,14,.1,11.56.81,8.62,1.52,4.87,2.43.61,3.35-4.36,4.46-4.67,2.03-7.91,1.93-10.85,1.72-13.69,1.52-16.23,1.32-18.56,1.12-20.8,1.01-22.82.91-50.52,1.22-55.9.71-59.55.1-61.58-.3-122.65-2.03-57.72-1.62-53.16-2.03-46.77-2.23-20.59-1.22-18.36-1.32-15.93-1.42-13.39-1.42-10.55-1.42-7.51-1.52v-.1"/>
    <path class="cls-3" d="M3045.56,4230.28l-11.46-17.45,2.84-4.87-.81-8.12-3.45-10.14-4.97-10.96-10.96-20.39-3.75-7-1.42-3.55,4.16-8.32,10.35-11.77,15.52-15.22,19.88-18.56,23.33-21.91,25.77-25.26,27.29-28.61,28-31.85,27.69-35,26.58-38.24,24.45-41.39,21.4-44.53,17.45-47.58,12.58-50.72,6.8-53.66.1-56.71-6.19-40.88-11.56-41.49-13.9-40.27-12.88-37.43-18.26-51.53-20.8-49.5-22.82-47.17-24.25-44.84-25.16-42.4-25.56-39.97-25.56-37.33-24.96-34.59-23.74-31.95-22.22-29.01-20.09-26.07-17.45-23.03-14.2-19.98-10.55-16.74-6.39-13.39-1.72-10.04,2.74-5.17,6.8-9.94,9.64-13.09,11.06-14.4,11.26-14.1,10.14-12.27,7.71-8.52,3.85-3.35,3.45,1.01,4.67,3.25,5.68,5.48,6.7,7.41,16.13,20.39,19.07,26.78,21.4,31.95,23.33,36.11,24.45,39.16,24.96,41.08,49.2,83.18,22.93,40.07,21.1,37.33,18.46,33.68,15.32,28.81,11.56,22.82,4.16,8.93,3.04,6.9,26.07,72.33,20.49,74.56,14.2,76.08,7,77,.61,38.65-1.52,38.55-3.75,38.45-6.09,38.24-8.42,38.04-10.96,37.53-13.59,37.13-16.23,36.62-6.49,11.46-10.14,15.62-13.29,19.07-16.13,21.81-18.26,23.94-20.09,25.26-43.52,51.94-44.74,49.1-21.61,21.81-20.49,18.87-18.87,15.42-16.74,11.26-14.2,6.39-11.16.71v.1"/>
    <path class="cls-3" d="M2982.46,6070.06l36.52-48.69,63.91-88.76,61.27-90.69,56.91-92.72,51.03-94.95,22.72-48.39,20.69-49.1,18.46-49.81,15.93-50.52,13.29-51.13,10.45-52.04,7.41-52.85,4.06-53.56.61-54.48-3.04-55.39-6.9-56.3-10.96-57.21-2.84-10.85-4.06-12.58-11.16-30.03-14.91-35.51-18.06-39.77-20.49-42.91-22.42-45.04-47.78-91.71-24.25-44.53-23.53-42.1-22.32-38.65-20.39-33.88-17.96-28.2-7.91-11.56-6.9-9.64-6.09-7.71-5.07-5.58-3.96-3.35-2.74-.81-6.49,3.96-2.94,8.22.2,11.97,2.84,15.22,5.28,17.85,7.1,19.88,18.36,43.42,21.1,44.64,20.69,41.29,9.13,17.85,7.71,15.22,6.09,12.17,3.85,8.32-3.96-7.3-5.48-9.64-6.9-11.87-8.01-13.49-18.36-30.84-19.78-33.27-19.07-32.66-16.33-29.22-6.59-12.38-5.07-10.35-3.45-8.01-1.42-5.27,1.22-21.51,5.48-21.71,5.38-21.71,1.12-21-5.88-17.45-11.46-17.35-13.8-16.03-13.09-13.69-9.13-10.14-2.13-3.55.1-2.13,2.74-.81,5.58.71,9.03,2.54,12.78,4.26,34.29,66.55,35.51,63.4,36.11,60.87,35.91,59.14,68.78,115.75,31.35,58.03,28.4,59.14,24.85,60.87,20.49,63.3,15.52,66.45,9.84,70.3,2.54,36.82.81,38.04-.91,39.36-2.74,40.78-4.77,42.2-6.7,43.82-8.93,45.55-11.06,47.27-14.71,51.94-17.45,50.82-19.88,49.61-22.22,48.59-24.35,47.78-26.17,46.97-57.42,92.41-62.79,90.99-66.75,90.59-28.4,37.53"/>
    <path class="cls-3" d="M3271.88,1916.55l1.93,8.62.61,6.8-1.72,9.54-4.77,5.38-6.59,3.04-7.1,2.64-6.59,4.16-4.57,7.3-1.62,12.38-547.9,8.32-5.48-12.27-6.19-12.98-3.45-9.33-3.85-12.58-4.26-17.04-4.77-22.42,4.16,3.14,2.54,7.91,2.74,9.03,4.87,5.99,4.06,1.22,6.9,1.12,9.43.91,11.87.81,14.1.71,16.13.61,37.74.71,43.62.3,48.08-.1,103.68-1.22,103.78-2.23,48.19-1.52,43.72-1.62,37.84-1.72,16.23-.91,14.1-.91,11.97-.91,9.54-.91,7-.91,4.16-.91-.1-.1"/>
    <path class="cls-3" d="M2857.58,6070.06l52.45-72.02,75.98-105.7,72.13-105.3,66.04-105.6,30.03-53.06,27.8-53.46,25.06-53.76,22.11-54.17,18.97-54.78,15.52-55.29,11.77-56,7.71-56.81,3.45-57.52-1.22-58.53-5.99-59.45-11.16-60.46-16.64-61.68-22.32-62.79-16.74-35.71-19.17-33.38-19.88-32.56-18.56-33.07,23.64,55.69,21.61,52.24,19.58,49.2,17.14,46.97,14.61,45.04,11.97,43.82,9.03,43.22,5.88,43.11,2.54,43.62-1.01,44.53-4.67,46.26-8.62,48.39-12.68,51.13-17.04,54.48-21.51,58.33-26.27,62.79"/>
    <path class="cls-3" d="M3173.58,2164.78l-27.49,45.75-28.1,42.3-59.14,82.37-235.45-12.48-17.14-34.69,17.75-1.12,19.68-.1,43.42,1.62,46.66,2.43,46.77,1.22,44.03-2.33,19.98-3.14,18.26-4.67,16.13-6.7,13.49-8.83,10.65-11.16,7.3-14-19.48,1.62-22.32.3-24.75-.51-26.48-1.22-55.49-3.45-54.78-2.84-25.56-.61-23.53.3-20.9,1.42-17.55,2.94-13.69,4.67-9.03,6.59-3.96,8.72,1.93,11.36-4.97-11.97-3.96-10.45-8.01-20.9,5.68,2.84,11.77,2.33,17.04,1.93,21.4,1.52,24.85,1.12,27.49.71,59.55.51,59.75-.41,27.69-.51,25.26-.71,21.81-.81,17.55-.91,12.38-1.01,6.39-1.01,2.74-1.72,3.96-3.45,9.23-9.64,8.01-9.74,2.43-3.45.61-1.72-11.26-.41-16.54-.61-20.9-.71-24.55-.81-27.39-.91-29.42-.81-61.78-1.52-60.46-.91-27.69-.1-25.06.2-21.61.61-17.14,1.01-12.17,1.42-6.29,1.93-2.54,5.28-1.12,8.52-.1,8.12.41,3.85-22.52-60.66,6.8,2.84,13.69,1.52,19.78.41,24.65-.51,28.91-1.22,32.06-1.72,70-4.26,71.62-3.96,34.09-1.42,31.75-.81,28.51.1,24.25,1.12,19.07,2.33,13.09,3.75"/>
    <path class="cls-3" d="M3213.75,5111.82l11.77.2.71,21.3,1.52,21.81-24.35-3.96-30.03-2.74-34.59-1.62-38.55-.71h-41.39l-43.42.61-89.37,2.13-86.84,2.33-40.17.91-36.93.3-32.77-.2-27.59-1.12-21.61-2.03-14.81-3.14-7.91-2.94-5.48-2.64-5.58-5.78-1.83-8.83-.81-6.39-1.42-8.22,571.33.71h.1"/>
    <path class="cls-3" d="M2915.61,4254.01l-13.09-23.84-15.01-25.97-16.74-27.8-18.06-29.42-38.75-62.29-39.97-65.03-38.24-65.33-33.88-63.3-14.51-30.13-12.27-28.71-9.84-26.98-7-24.96-12.07-65.23-6.59-64.52-1.42-63.71,3.45-63,7.71-61.98,11.67-60.97,15.32-59.95,18.46-58.63,21.2-57.42,23.64-56,25.56-54.58,27.19-52.95,57.42-100.94,59.04-93.53-23.03,37.84-23.33,40.07-46.97,86.33-45.14,93.02-41.19,98.2-18.46,50.52-16.54,51.13-14.51,51.63-12.07,51.84-9.43,52.04-6.39,51.74-3.14,51.53.3,50.92,3.55,39.46,6.9,40.48,10.14,41.19,12.88,41.8,15.32,41.9,17.45,41.9,39.87,82.98,44.13,79.94,45.75,74.97,22.72,35,22.01,33.07,21.1,30.84,19.78,28.4,1.93,2.23,3.96,4.46,5.58,6.29,7,7.71,16.33,18.67,17.45,20.9,15.52,20.29,6.19,9.23,4.67,8.12,2.74,6.8.61,4.97-2.13,2.94-5.07.61-22.52-29.22-20.29-26.07-21.2-24.55-25.56-25.06-.1.1"/>
    <path class="cls-3" d="M3240.53,2028.04l-26.58,56.4-28.2,54.68-14.4.41-20.09.2-24.85-.1-28.91-.2-31.95-.41-34.09-.51-71.21-.91-69.39-.71h-31.75l-28.71.1-24.65.41-19.78.81-14,1.12-7.41,1.52-3.96,4.46-3.75,7.71-2.23,8.12.71,5.38-11.56-29.93-10.96-30.74,17.96-1.52,23.43-1.01,27.9-.41h31.65l34.49.2,36.62.51,75.78,1.12,73.65.61,33.98-.1,30.94-.61,26.98-1.01,22.32-1.72,16.64-2.43,10.25-3.25,2.23-3.96-2.03-4.97-2.74-4.87-.1-3.45,13.19-12.38,11.36-11.77,9.64-14.61,4.16-9.43,3.85-11.46,3.75.91,1.62,2.23.41,5.58h-.2"/>
    <path class="cls-3" d="M3295.52,1908.34l-12.48,31.75-13.8,29.52-28.71,58.43-.3-5.58-1.72-2.23-3.75-.91-11.67-4.57-18.77-2.84-25.06-1.32h-30.33l-34.69.91-38.04,1.83-82.47,5.17-84.5,5.88-40.68,2.54-38.35,2.13-35.1,1.42-30.84.51-25.56-.71-19.48-2.13-9.13,17.04-8.52-14.91-4.77-11.46-2.03-8.42v-6.09l2.94-7.1,1.42-3.85,544.85.3,6.49-8.62,2.23-5.58-2.84-2.74-8.52-.3,1.62-12.38,4.67-7.3,6.49-4.16,7.2-2.64,6.49-3.04,4.77-5.38,1.72-9.54-.61-6.8-1.93-8.62,11.77-4.77,11.97-3.45"/>
    <path class="cls-3" d="M2806.35,2288.04l-4.46-8.62-3.55-5.07-2.43-2.64-1.01-1.12-1.83-11.36,3.85-8.72,9.13-6.59,13.59-4.67,17.65-2.94,20.8-1.42,23.53-.3,25.56.61,54.88,2.84,55.39,3.45,26.48,1.22,24.75.51,22.32-.3,19.48-1.62-7.3,13.9-10.65,11.26-13.49,8.83-16.13,6.59-18.26,4.77-19.98,3.04-44.03,2.33-46.77-1.12-46.66-2.43-43.42-1.72-19.68.2-17.75,1.12"/>
    <path class="cls-3" d="M3046.78,2352.25l-8.72,16.84-7.81,12.48-6.9,8.83-5.99,5.68-4.87,3.45-3.75,1.93-4.06,1.83,3.04-9.03,1.12-7.1-.81-5.28-2.64-3.85-4.26-2.43-6.09-1.42-16.64-.3-22.42,1.62-27.39,1.93-31.95.41-35.81-2.74-.41,9.84,2.03,8.01,4.06,6.19,5.68,4.67,15.42,5.48,18.26,1.93,18.77-.1,16.54-.41,11.77.91,3.35,1.42,1.12,2.43-19.98-1.32-16.23,1.12-12.68,3.14-9.33,4.57-6.09,5.68-3.14,6.19-.3,6.39,2.33,5.99,4.67,5.28,6.9,4.06,8.93,2.23,10.75.2,12.48-2.54,13.8-5.48,15.12-9.13,16.13-13.09-5.48,8.22-7.71,12.98-18.67,32.66-9.74,16.03-8.93,13.19-7.51,8.52-3.04,2.03-2.33.1-20.19-45.45-22.52-43.11-45.75-85.21,217.9,3.55"/>
    <path class="cls-3" d="M3192.65,2078.96l.1,3.45,2.74,4.87,2.03,4.97-2.23,3.96-10.25,3.25-16.64,2.43-22.32,1.72-26.98,1.01-30.94.61-33.98.1-73.65-.61-75.78-1.12-36.62-.41-34.49-.3-31.65.1-27.9.41-23.43.91-17.96,1.52-6.29-14.1-7.81-13.59-6.39-14.91-2.03-18.06,10.55,16.64,9.54,18.16,462.38-1.01"/>
    <path class="cls-3" d="M2824.92,2589.83l-14.61-17.14-15.01-19.27-31.24-44.64-32.16-51.94-32.77-58.23-32.56-63.4-32.16-67.76-30.94-71.01-29.22-73.24-27.09-74.56-24.35-74.76-21-74.05-17.25-72.23-12.88-69.59-8.01-65.74-2.54-60.97.91-28.4,2.54-26.88,3.04,70,7,69.89,10.75,69.59,14.2,69.18,17.35,68.47,20.09,67.76,22.62,66.75,24.75,65.74,26.68,64.42,28.3,63,29.52,61.47,30.53,59.65,31.14,57.72,31.55,55.69,31.55,53.46,31.35,51.03h-.1"/>
    <path class="cls-3" d="M3185.75,2139.12l-.51,1.52-1.32,3.75-3.45,7.51-6.9,12.88-13.09-3.75-19.07-2.33-24.25-1.12-28.51-.1-31.75.81-34.09,1.42-71.62,3.96-70,4.16-32.06,1.72-28.91,1.22-24.65.51-19.78-.41-13.69-1.42-6.8-2.84-.71-5.38,2.23-8.01,3.75-7.81,3.96-4.46,7.41-1.52,14-1.12,19.78-.81,24.65-.41,28.71-.1h31.75l69.39.71,71.21.91,34.09.51,31.95.41,28.91.2,24.85.1,20.09-.2,14.4-.41v-.1"/>
    <path class="cls-3" d="M2665.45,1898.09l-3.04-17.14-2.23-17.45,612.52,5.68-9.03,2.64-11.26,2.23-28.4,3.45-35.3,2.33-40.98,1.22-45.35.3-48.59-.3-101.65-1.93-50.52-1.32-48.69-1.22-45.65-.91-41.39-.51h-35.71l-28.91.91-11.56.71-9.33,1.12-7,1.32-4.56,1.62-2.54,3.04-.81,4.36.1,9.74-.1.1"/>
    <path class="cls-3" d="M3241.45,1976.4l8.52.3,2.84,2.74-2.23,5.58-6.49,8.62-544.85-.3-1.42-.2-1.72-2.33-2.64-6.19,547.9-8.32.1.1"/>
    <path class="cls-3" d="M3058.85,2335.21l-.91,2.84-2.03,5.58-3.55,5.58-5.58,3.04-217.9-3.55-4.36-11.26-1.42-7.81.2-4.77.1-2.13,235.45,12.48"/>
    <path class="cls-3" d="M2465.5,1515.75l-1.22-284.35,2.84,24.35,2.13,22.22,2.33,39.26.41,33.88-1.01,30.64-3.75,60.56-1.42,34.09-.3,39.36"/>
    <path class="cls-3" d="M2965.52,4444.32l-.41-5.17-1.52-2.74-3.85-.81,24.04-29.72-18.26,38.45"/>
    <path class="cls-3" d="M3004.68,2403.28l-4.56,10.04-4.36,7-3.85,4.46-3.35,2.43-5.17,1.32-2.64.2,7.41-9.13,5.68-6.49,4.06-4.36,2.84-2.74,2.94-2.13,1.01-.61"/>
    <path class="cls-3" d="M3213.75,5111.82l-571.33-.71-1.01-7.81-.51-10.35.91-24.14,3.75-22.32,3.04-8.01,3.96-4.77,7.71,1.32,9.84,1.01,25.26,1.52,31.95.91,37.23.3,41.49-.1,44.43-.41,93.33-1.32,46.36-.71,44.74-.51,41.79-.2,37.64.2,32.36.61,25.97,1.32,10.14.91,8.01,1.12,5.88,1.32,3.55,1.62,2.03,3.45,2.23,7.1,4.77,20.59,3.65,22.32.91,9.23v6.49h-.1"/>
    <path class="cls-3" d="M2959.74,4435.7l-.2.1-3.14,1.12-4.06-1.01-4.97-3.14-5.68-4.97-13.19-14.4-15.12-19.17-32.77-45.55-16.03-23.03-14.81-20.9,2.94,14,3.45,9.03,3.25,5.27,2.64,3.25,1.42,2.43-.3,3.15-2.74,5.48-5.58,9.13,18.67,13.69,14.3,12.27,10.14,11.46,6.19,10.65,2.54,10.35-.81,10.25-3.96,10.45-6.7,10.96-9.33,11.77-11.56,12.78-13.69,14.3-15.32,15.93-16.94,17.85-18.06,20.19-19.07,22.72-19.68,25.67-26.27,36.62-24.25,35.91-22.32,35.2-20.39,34.59-35.2,67.36-27.8,65.33-20.8,63.71-13.9,62.59-7.2,61.88-.91,61.58,5.38,61.58,11.26,62.18,17.04,63,22.42,64.42,27.8,66.14,32.77,68.37,37.64,70.91,42.2,73.95,19.78,32.26,18.87,28.71,17.85,25.36,16.64,22.42,15.12,19.88,13.59,17.65,11.77,15.83,9.74,14.4,7.61,13.19,5.17,12.58,2.74,12.07-.1,12.07-3.04,12.48-6.09,13.09-9.43,14.1-12.88,15.62,26.48-36.62,28-38.45,58.63-81.97,59.04-88.15,55.79-93.63,25.56-48.59,23.33-49.71,20.69-50.62,17.55-51.53,14-52.34,10.04-53.05,5.48-53.66.51-54.17-22.22-.3-28.3.41-33.37.91-37.64,1.32-40.78,1.62-43.11,1.83-89.17,3.65-87.04,3.04-40.27,1.01-36.93.41-32.66-.2-27.29-.91-21.1-1.83-13.9-2.74-9.13-4.06-7.41-5.17-5.07-5.78-2.64-5.88.3-5.38,3.45-4.36,7.1-2.94,11.06-.91-7.91-2.94-5.48-2.64-5.58-5.78-1.83-8.83-.81-6.39-1.42-8.22-1.01-7.91-.51-10.35,1.01-24.04,3.75-22.32,3.04-8.12,3.85-4.67,7.71,1.32,9.84,1.01,25.26,1.52,31.95.91,37.23.3,41.49-.1,44.53-.41,93.23-1.32,46.46-.71,44.64-.51,41.79-.2,37.74.2,32.36.61,25.87,1.32,10.14.91,8.12,1.12,5.78,1.32,3.55,1.62,2.03,3.55,2.23,7,4.77,20.69,3.65,22.32.91,9.13v6.49l11.77.2-.71-5.78-1.42-8.01-4.36-21.81-5.99-27.19-7-29.82-7.41-29.93-6.9-27.29-5.99-22.01-2.43-8.22-1.93-5.88-1.32-3.35-2.33-5.27-7.3-16.33-10.45-22.82-13.19-28.2-15.42-32.56-16.94-35.81-36.62-76.89-36.93-76.69-17.25-35.51-15.72-32.16-13.69-27.59-11.16-22.11-4.46-8.72-3.55-6.8-2.74-4.87-1.72-2.84-3.25,15.93-7.1,17.25-10.55,18.26-13.49,19.17-15.93,19.98-17.75,20.59-39.16,42.5-40.37,43.32-37.53,42.81-16.33,20.8-14.1,20.29-11.36,19.58-8.01,18.77h13.8l18.56-.2,22.42-.2,25.56-.3,57.92-.71,61.78-.61,59.75-.3,27.29.1,24.65.3,21.1.51,16.94.71,11.97,1.12,6.39,1.32,2.84,3.25,3.65,6.19,3.96,6.9,3.96,5.48-4.57,4.77-11.77,3.65-17.85,2.64-23.13,1.72-27.39.91-30.74.1-67.46-1.83-69.08-3.96-32.66-2.64-30.23-2.94-26.78-3.14-22.32-3.25-16.94-3.45-10.65-3.35-21.51,31.65-18.46,31.95-15.42,32.26-12.58,32.56-9.84,32.66-7.2,32.97-4.77,32.97-2.33,33.07-.1,33.07,2.03,33.07,9.74,65.84,16.84,65.33,22.72,64.21,27.59,62.89,31.65,61.07,34.59,59.14,36.42,56.5,37.43,53.87,37.43,50.52,36.32,47.07,34.19,43.11-.41,8.01-3.65,10.55-12.98,24.24-7.51,11.46-6.9,9.54-5.28,6.49-2.74,2.23-2.64-1.52-3.85-3.85-4.97-5.88-6.09-8.01-14.81-21.51-18.06-27.9-20.69-32.97-22.52-37.13-23.84-40.07-24.45-41.9-48.29-84.5-22.52-40.37-20.59-37.53-18.06-33.68-14.81-28.51-5.99-12.07-4.97-10.35-3.85-8.52-2.64-6.49-14-40.58-11.77-39.46-9.74-38.35-7.61-37.23-5.58-36.11-3.75-35.2-2.03-67.66,4.77-64.11,10.85-60.97,16.33-58.13,21.4-55.69,25.77-53.56,29.42-51.74,32.77-50.32,35.3-49.1,75.98-96.27,79.23-95.76,5.99.71,7.1,4.06,15.83,14.81,15.22,18.16,6.19,8.22,4.77,6.59-.1-2.43-.51-5.07-1.62-14.2-1.72-14.2-.71-4.97-.51-2.23-.41-5.17-1.52-2.74-3.85-.81"/>
    <path class="cls-3" d="M2970.69,4487.54l-3.25,15.93-7.1,17.25-10.55,18.26-13.49,19.17-15.93,19.98-17.75,20.59-39.16,42.5-40.37,43.32-37.53,42.81-16.33,20.8-14.1,20.29-11.36,19.58-8.01,18.77h13.8l18.46-.2,22.42-.2,25.67-.3,57.82-.81,61.78-.61,59.85-.2,27.29.1,24.55.3,21.2.51,16.94.71,11.97,1.01,6.39,1.42,2.84,3.25,3.65,6.09,3.96,6.9,3.96,5.58-4.57,4.77-11.67,3.65-17.96,2.64-23.13,1.72-27.39.91-30.64.1-67.46-1.83-69.08-3.96-32.66-2.54-30.23-2.94-26.78-3.14-22.42-3.35-16.94-3.35-10.65-3.45-21.51,31.65-18.46,31.95-15.42,32.26-12.58,32.56-9.84,32.66-7.2,32.87-4.77,32.97-2.33,33.07-.1,33.17,2.03,33.07,9.74,65.84,16.84,65.23,22.72,64.32,27.59,62.79,31.65,61.17,34.59,59.04,36.42,56.61,37.43,53.77,37.43,50.62,36.32,47.07,34.19,43.11-.41,8.01-3.65,10.55-12.98,24.25-7.51,11.46-6.9,9.54-5.28,6.49-2.74,2.23-2.64-1.52-3.96-3.85-4.97-5.88-5.99-8.01-14.91-21.51-18.06-27.9-20.59-32.97-22.62-37.13-23.74-40.07-24.55-41.9-48.19-84.5-22.52-40.37-20.59-37.53-18.06-33.68-14.81-28.51-5.99-12.07-4.97-10.35-3.85-8.52-2.64-6.49-14-40.58-11.77-39.46-9.74-38.35-7.61-37.23-5.58-36.11-3.75-35.2-2.03-67.56,4.67-64.11,10.85-60.97,16.43-58.23,21.3-55.59,25.77-53.56,29.52-51.84,32.77-50.21,35.2-49.2,76.08-96.27,79.23-95.76,5.99.71,7.1,4.06,15.83,14.81,15.22,18.16,6.19,8.22,4.77,6.59-.1.1"/>
    <path class="cls-3" d="M2661.49,5206.16l547.69,8.93,4.46,5.68,2.13,9.43.2,11.77-1.22,12.98-2.43,12.78-3.14,11.46-3.65,8.62-3.55,4.67-3.55,1.42-5.88,1.22-8.32,1.01-10.35,1.01-26.48,1.42-32.97.91-38.24.51h-42.2l-90.89-1.22-90.89-2.54-42.2-1.62-38.35-1.83-33.07-2.03-26.48-2.13-10.45-1.12-8.32-1.12-5.99-1.22-3.55-1.12-4.67-4.87-4.87-9.13-8.72-25.16-3.25-13.29-2.03-11.87-.3-8.93,1.52-4.67"/>
    <path class="cls-3" d="M2714.14,4862.37l7.71-1.42,14.91-1.12,21.1-.81,26.27-.41,30.43-.2,33.48.1,72.23.81,72.23,1.72,33.48,1.01,30.43,1.22,26.27,1.32,21.1,1.42,14.91,1.52,7.61,1.52,6.7,5.07,6.9,8.93,12.48,23.94,5.07,12.48,3.75,10.96,2.13,8.32.1,4.16-486.02,4.97-.51-9.33,2.64-12.07,11.56-27.9,7.1-13.29,6.8-11.26,5.58-8.12,3.55-3.55"/>
    <path class="cls-3" d="M2729.26,5379.53l12.68,5.07,19.78,3.35,25.56,1.83,30.43.81,34.29-.1,36.93-.81,77.81-2.23,75.88-1.42,34.59.3,30.84,1.32,26.17,2.54,20.29,4.16,13.49,5.88,3.75,3.75,1.72,4.36-.81,3.25-2.43,6.49-8.01,18.26-9.23,18.16-3.96,6.39-2.94,3.04-7.3,1.42-14.3.91-20.19.41h-25.16l-29.22-.3-32.06-.71-69.08-2.23-69.18-3.14-32.06-1.72-29.11-1.93-25.16-1.93-20.09-1.93-14.2-1.93-7.3-1.93-2.54-3.45-4.77-8.12-5.88-11.16-5.88-12.68-4.97-12.58-2.94-10.85.2-7.71,4.36-2.74v-.1"/>
    <path class="cls-3" d="M2846.73,4683.63l7.2-1.32,11.06-1.01,14.51-.51,17.14.1,39.87,2.43,43.32,6.19,42,10.75,18.87,7.41,16.64,8.93,13.9,10.55,10.45,12.17,6.39,14.1,1.72,16.03-321.17,7.71,7.81-11.36,9.03-13.49,20.29-29.22,10.55-13.69,10.65-11.87,10.25-8.83,9.54-5.07"/>
    <path class="cls-3" d="M2754.11,5302.43l11.36-.81,18.67-.91,24.85-.71,30.03-.61,33.98-.51,36.93-.1,78.31.51,76.79,2.23,35.1,1.93,31.45,2.43,26.58,3.14,20.8,3.75,13.8,4.56,3.96,2.54,1.83,2.74-.2,1.72-.91,3.55-3.04,10.04-3.25,9.94-1.22,3.35-.71,1.42-4.57,1.32-8.93.91-12.48.61-15.72.2h-18.26l-20.19-.3-44.03-1.12-45.14-1.62-41.49-1.83-18.06-.81-15.42-.71-12.17-.61-8.52-.41-16.74-.81-18.77-1.01-41.79-2.43-43.82-3.14-41.69-4.06-18.67-2.33-16.64-2.54-13.9-2.94-10.75-3.14-7-3.45-2.74-3.75,2.03-4.06,7.3-4.46,2.64-.61,5.48-.91,16.03-2.33,17.25-2.33,7-.91,4.77-.61h-.1"/>
    <path class="cls-3" d="M2768.92,5474.99l38.55,2.64,40.78.71,84.81-1.83,83.79-1.22,39.36,1.32,36.62,3.65,2.23,2.84.51,5.68.61,5.68,2.23,3.14,3.96-8.12,4.16-5.48,4.06-3.25,3.96-1.12,7,2.84,5.17,8.01,2.33,11.06-1.52,12.07-6.09,10.96-11.77,7.71-6.8,1.22-13.39,1.01-18.77.91-23.43.51h-26.88l-29.52-.41-62.89-3.14-61.47-6.7-27.69-4.97-24.45-6.19-20.19-7.61-14.91-9.03-8.72-10.55-1.52-12.27-.1-.1"/>
    <path class="cls-3" d="M3124.99,4955.29l6.7,1.22,11.36,2.94,27.39,10.04,11.16,6.59,6.49,7.3.71,3.85-1.42,3.96-3.75,3.96-6.39,4.06-3.45,1.01-5.58.81-17.14,1.01-24.25.2-30.13-.51-35.1-.91-38.95-1.42-41.79-1.52-43.42-1.72-87.75-3.15-42.2-1.22-39.66-.81-36.01-.2-31.35.51-25.67,1.32-18.77,2.33,15.12-21.3,56.5,1.83,56.81-1.62,113.72-9.23,113.72-9.43,56.71-1.72,56.4,1.72v.1"/>
    <path class="cls-3" d="M2814.98,5544.58l291.24,17.65-3.75,4.97-4.16,7.2-8.62,17.85-8.72,16.74-4.16,5.78-3.85,2.94-4.36.51-8.32.2h-11.77l-14.61-.41-35.61-1.32-40.17-1.93-40.17-2.43-35.61-2.43-14.61-1.32-11.77-1.12-8.32-1.12-4.26-1.01-2.33-2.43-4.56-5.99-11.87-18.26-9.74-20.09-1.62-8.22,1.62-5.78h.1"/>
    <path class="cls-3" d="M2872.39,5631.72l191.32,7.41-8.12,13.8-11.26,10.65-13.9,7.71-15.83,5.07-17.25,2.74-18.16.61-36.72-3.96-33.58-8.93-14.2-5.68-11.67-6.09-8.62-6.29-4.97-6.19-.91-5.78,3.85-5.07"/>
    <path class="cls-3" d="M2924.33,5701.51l24.85-2.94,19.88-.61,15.22,1.52,11.16,3.35,7.51,4.77,4.26,5.88,1.52,6.9-.61,7.41-6.39,15.22-9.94,14-9.74,10.25-3.65,2.94-2.23,1.12-3.14-2.43-5.99-6.49-7.91-9.54-8.93-11.36-16.74-23.43-5.99-9.74-3.14-6.8"/>
    <path class="cls-3" d="M2894.81,4624.08l13.8-2.13,16.03-.41,35.51,2.84,33.88,6.39,14,3.96,10.85,4.16,6.8,4.06,1.83,3.75-4.06,3.25-10.96,2.43-8.22.91-10.35.61-12.48.2-14.81-.1-17.14-.41-19.58-.81-22.32-1.32-24.96-1.72-2.43-4.26-.2-4.36,4.16-8.22,6.39-6.19,4.26-2.64"/>
    <path class="cls-3" d="M2972.52,4556.52l17.35,2.33,11.87,5.27,5.58,6.9-1.32,7.71-3.55,3.75-5.48,3.45-7.71,3.14-9.84,2.64-12.17,1.93-14.61,1.22-17.04.3-19.68-.81,4.97-6.29,7.3-6.49,18.16-12.27,17.04-9.23,5.99-2.64,3.14-.91"/>
    <path class="cls-3" d="M3252.5,3458.29l-21.3,3.14-27.29,3.25-32.46,3.25-36.72,3.14-39.87,3.04-42.3,2.84-87.65,4.67-85.62,2.74-39.66.51-36.32-.2-32.06-1.01-26.78-1.83-20.69-2.74-13.49-3.85,1.01-11.67,6.09-10.55,7.91-8.01,6.19-3.85,3.55-.71,5.88-.81,8.12-.71,10.14-.91,25.67-1.72,31.95-1.72,36.93-1.83,40.68-1.83,87.55-3.35,87.65-2.74,40.68-1.01,36.93-.81,31.95-.51h25.67l10.04.1,8.12.2,5.88.3,3.55.41,1.32,1.22,2.33,3.25,6.49,10.04,6.49,11.46,3.45,8.83"/>
    <path class="cls-3" d="M3068.89,2800.63l-14.2,4.67-10.04,6.09-6.19,7.51-2.64,9.03.71,10.45,3.55,11.87,6.29,13.29,8.52,14.71,10.65,16.23,12.38,17.55,28.61,39.56,31.75,45.24,32.56,51.03,52.75,91.81,46.26,88.15,39.36,84.71,32.36,81.76,24.85,78.92,9.54,38.55,7.61,37.94,5.58,37.43,3.55,36.93,1.42,36.52-.61,36.01-2.84,35.71-4.97,35.3-7.2,35.1-9.43,34.8-11.77,34.49-14.1,34.39-16.43,34.19-18.87,34.09-21.3,33.98-23.84,33.98-26.27,33.98-28.91,34.09-31.45,34.08-34.09,34.19-36.72,34.39-39.46,34.59-2.43,5.48.51,7.71,4.26,21.3-10.55-15.22-6.9-11.77-4.06-8.93-1.83-6.29.1-7.1.51-2.74,11.16-.71,14.2-6.39,16.74-11.26,18.87-15.42,20.49-18.87,21.61-21.81,44.74-49,43.52-52.04,20.09-25.26,18.26-23.94,16.13-21.81,13.29-19.07,10.14-15.62,6.49-11.46,16.23-36.62,13.59-37.13,10.96-37.53,8.42-38.04,6.09-38.24,3.75-38.45,1.52-38.55-.61-38.65-7-77-14.2-76.08-20.49-74.56-26.07-72.33-3.04-6.9-4.16-8.93-11.56-22.82-15.32-28.81-18.46-33.68-21.1-37.33-22.93-40.07-49.2-83.18-24.96-41.08-24.45-39.16-23.33-36.11-21.4-31.95-19.07-26.78-16.13-20.39-6.7-7.41-5.68-5.48-4.67-3.25-3.45-1.01-3.85,3.35-7.71,8.52-10.14,12.27-11.26,14.1-11.06,14.4-9.64,13.09-6.8,9.94-2.74,5.17,1.72,10.04,6.39,13.39,10.55,16.74,14.2,19.98,17.45,23.03,20.09,26.07,22.22,29.01,23.84,31.95,24.85,34.59,25.56,37.33,25.56,39.97,25.16,42.4,24.25,44.84,22.82,47.17,20.8,49.5,18.26,51.53h-5.88l-3.45-8.83-6.49-11.56-6.49-10.04-2.33-3.25-1.32-1.22-3.55-.41-5.88-.3-8.12-.2-10.04-.1h-25.67l-31.95.51-36.93.81-40.68,1.01-87.65,2.74-87.55,3.35-40.68,1.83-36.93,1.83-31.95,1.72-25.67,1.72-10.14.91-8.12.71-5.88.81-3.55.71-6.19,3.85-7.81,8.01-6.19,10.55-1.01,11.67-5.48-.3-6.29.1,9.03-47.78,12.58-47.78,15.83-47.78,18.67-47.48,21.1-47.07,23.13-46.66,51.13-91.1,54.88-87.34,55.9-82.58,53.77-76.69,25.16-35.71,23.53-33.88,4.67,2.03,1.12,5.38-.3,5.99.1,3.96.2-.1"/>
    <path class="cls-3" d="M2768.82,3321.24l19.38,4.06,23.33,2.74,26.48,1.62,29.11.61,63.5-.91,66.14-2.64,63.91-2.84,29.42-1.01,26.88-.61h23.84l19.98.81,15.52,1.93,10.55,3.04,2.43,3.04,4.56,7.1,6.09,9.94,6.7,11.46,6.59,11.56,5.58,10.35,3.85,7.81,1.42,3.96-1.62,3.14-4.06,2.74-6.39,2.33-8.52,2.03-22.72,3.04-29.42,1.93-34.8,1.12-39.06.3-41.9-.3-43.62-.51-87.24-1.42-41.19-.41h-37.84l-33.37.61-27.59,1.42-20.59,2.43-7.2,1.62-5.07,2.03-2.43-6.09-.1-10.85,2.13-14,4.16-15.62,5.88-15.62,7.61-14.2,9.23-11.16,10.45-6.59"/>
    <path class="cls-3" d="M3071.73,3171.1l18.26,6.19,19.27,12.78,16.43,18.67,5.99,11.26,3.85,12.48-9.84-2.03-15.12-1.22-19.58-.51h-23.23l-26.07.41-28.1.61-59.24,1.72-57.72,1.12-26.27.1-23.53-.41-19.88-1.12-15.42-1.93-10.25-2.74-4.26-3.85-.3-14.4,5.48-11.26,10.55-8.42,14.81-6.09,18.36-3.96,21.2-2.13,47.88-.71,50.32,2.03,46.87,1.83,20.19-.1,17.25-1.12,13.29-2.74,8.83-4.46"/>
    <path class="cls-3" d="M2972.82,3091.98l16.84-.3,19.27-.51,17.35.2,6.7.61,4.67,1.01,10.25,4.16,8.12,4.06,10.35,7.61,3.25,7-2.94,6.39-8.52,5.78-13.19,5.17-16.94,4.36-19.98,3.85-45.65,5.48-47.68,2.64-22.62.2-20.59-.51-17.85-1.32-14.2-2.13-1.62-6.59,1.72-6.19,4.56-5.78,7-5.27,19.58-9.23,24.45-7.51,25.77-5.88,23.74-4.16,18.46-2.43,6.19-.61,3.55-.2v.1"/>
    <path class="cls-3" d="M2927.28,2996.42l27.29,18.56,21.71,15.32,16.33,12.48,11.46,9.84,6.7,7.71,2.54,5.78-1.42,4.26-4.97,2.94-8.32,2.03-11.16,1.42-13.69,1.12-15.93,1.12-37.23,3.75-42,7.61-3.55-7.51,2.33-11.16,6.59-13.49,9.23-14.71,20.8-28.2,8.32-11.26,4.97-7.61"/>
    <path class="cls-3" d="M3152.48,3275.79l9.43.51,9.43,2.33,3.55,2.84,2.23,4.67.41,6.59-1.93,9.23-12.58-3.65-18.67-2.23-23.74-1.01h-28l-31.35.71-33.58,1.42-70.71,3.75-68.88,3.75-31.45,1.32-28.3.81-24.04-.1-18.97-1.12-12.98-2.23-6.09-3.75-1.32-6.29,2.64-4.87,6.19-3.55,9.54-2.54,12.17-1.62,14.71-.61,34.8.61,39.56,2.33,41.08,3.14,39.16,2.84,34.29,1.42,37.64-2.54,39.26-5.88,39.16-5.38,37.33-.91"/>
    <path class="cls-3" d="M3295.52,1908.34l-11.87,3.45-11.87,4.77-4.16.91-6.9.91-9.64.91-11.87.91-14.2.91-16.23.91-37.84,1.83-43.72,1.62-48.19,1.42-103.68,2.33-103.68,1.22-48.19.1-43.62-.3-37.74-.81-16.13-.61-14.1-.61-11.87-.81-9.43-1.01-6.9-1.12-4.06-1.22-4.87-5.99-2.74-9.03-2.54-7.91-4.16-3.14-.1-9.74.81-4.46,2.54-2.94,4.56-1.62,7-1.32,9.33-1.12,11.56-.71,28.91-.91h35.81l41.29.51,45.65.91,48.79,1.22,50.52,1.32,101.54,1.93,48.59.3,45.35-.3,40.98-1.22,35.3-2.33,28.4-3.45,11.26-2.23,9.03-2.64-612.52-5.68,1.01-19.88,3.04-8.72,5.38-5.68,4.26-1.42,7-1.12,9.54-.91,11.87-.61,14.2-.3,16.13-.2,37.94.2,43.93.71,48.79,1.32,52.14,1.52,54.17,1.72,108.95,3.25,52.04,1.22,48.59.81,43.72.2,37.64-.51,16.03-.61,14-.81,11.77-1.12,9.33-1.42,8.62,13.09-9.54,13.39-5.99,16.13-9.13,34.69.1-.1"/>
    <path class="cls-3" d="M2821.37,3890.64l-2.23-2.94-4.26-6.8-5.48-9.54-5.99-11.16-10.25-22.82-2.84-9.43-.2-6.7,456.19,20.39-5.68,11.56-7,14.51-7.51,13.09-3.65,4.87-3.45,2.94-7.3,1.93-14.1,1.83-19.98,1.83-24.96,1.62-28.91,1.42-31.85,1.22-68.98,1.72-69.18.3-32.36-.41-29.52-.81-25.77-1.32-20.9-1.83-15.32-2.43-8.52-2.94v-.1"/>
    <path class="cls-3" d="M3252.5,3458.29h5.88l12.88,37.43,13.8,40.37,11.67,41.49,6.19,40.88-.1,56.71-6.8,53.66-12.58,50.72-17.45,47.58-21.4,44.53-24.45,41.39-26.58,38.24-27.69,35-28,31.85-27.29,28.61-25.77,25.26-23.33,21.91-19.88,18.56-15.52,15.22-10.35,11.77-4.16,8.32,1.42,3.55,3.75,7,10.85,20.29,5.07,11.06,3.45,10.14.81,8.01-2.84,4.97-20.69-35.51-18.46-31.14-16.43-27.19-14.71-23.74-13.29-20.9-12.07-18.46-21.71-31.75-20.39-28.3-21.2-29.01-11.56-16.03-12.68-17.65-13.9-19.88-15.52-22.62,8.52,2.94,15.22,2.43,21,1.83,25.67,1.32,29.52.81,32.36.41,69.29-.3,68.88-1.72,31.85-1.22,28.91-1.42,24.96-1.62,20.09-1.83,14.1-1.83,7.3-1.93,3.45-2.94,3.65-4.77,7.51-13.19,7-14.41,5.68-11.67-456.19-20.39.2,6.7,2.84,9.54,10.35,22.82,5.88,11.16,5.48,9.43,4.26,6.8,2.23,2.94-30.74-45.55-28.1-44.53-24.75-44.94-20.29-46.66-15.01-50.01-5.28-26.68-3.55-28-1.72-29.52.2-31.24,2.13-33.17,4.36-35.2,6.29-.1,5.48.3,13.49,3.75,20.69,2.84,26.78,1.83,32.06,1.01,36.32.2,39.66-.51,85.62-2.84,87.65-4.56,42.2-2.84,39.97-3.04,36.62-3.14,32.56-3.25,27.29-3.25,21.3-3.14h-.2"/>
    <path class="cls-3" d="M2710.59,3638.96l8.01,2.23,10.25,2.03,26.27,3.35,33.17,2.74,38.85,2.03,43.21,1.42,46.36,1.12,97.18,1.32,48.39.51,46.56.51,43.62.61,39.26.81,33.78,1.22,27.09,1.62,10.55,1.01,8.52,1.22,6.09,1.32,3.75,1.52,4.87,5.58,3.04,8.32,1.12,10.14-.41,10.96-5.38,20.69-4.56,8.01-5.68,5.07-3.75,1.22-6.29,1.12-8.62.91-10.96.91-27.69,1.32-34.59.91-39.97.51-44.13.2-95.05-.91-94.95-2.23-44.13-1.52-39.97-1.83-34.49-2.03-27.69-2.33-10.85-1.22-8.62-1.22-6.29-1.32-3.65-1.32-4.36-5.48-4.36-10.35-4.26-13.59-3.75-15.11-2.94-14.91-2.13-13.09-.91-9.64.61-4.36h-.1"/>
    <path class="cls-3" d="M3154.81,3491.16l47.07-1.62h21.61l18.97,3.14,15.32,7.81,5.88,6.29,4.67,8.12,3.25,10.25,1.62,12.58-.1,15.01-1.83,17.85-7.41-1.93-9.74-1.52-11.87-1.22-13.8-.91-32.97-1.12-38.75-.1-43.52.61-46.77,1.01-98.2,2.74-48.9,1.32-47.07.91-43.72.41-39.36-.41-33.48-1.32-26.38-2.64-10.14-1.72-7.81-2.13-5.48-2.64-2.84-2.94-.3-2.43-.1-5.17.2-15.12,1.32-15.52,1.12-5.78,1.52-3.25,55.9.91,56-1.52,112.2-7.1,112.1-8.01,55.9-2.43,55.9-.41"/>
    <path class="cls-3" d="M2711.61,3578.7l8.12-1.12,15.42-.81,21.71-.3,27.09-.1,31.35.2,34.8.51,75.58,1.52,77.1,1.93,36.72,1.12,34.19,1.01,30.64,1.01,26.07,1.01,20.59.81,14.1.61,53.77,3.45,23.74,2.54,20.39,3.55,15.93,4.87,10.75,6.7,4.36,8.62-.51,5.17-2.43,5.88-3.14,2.84-5.78,2.33-8.22,1.72-10.55,1.22-12.68.81-14.71.41-34.69-.51-40.58-1.72-45.14-2.84-48.39-3.55-50.42-4.16-101.04-8.62-48.08-4.06-44.64-3.45-39.87-2.74-33.78-1.52-14.2-.2-12.17.1-10.04.51-7.61.91-2.94-6.39,1.52-8.22,3.85-7.41,3.85-3.75v.1"/>
    <path class="cls-3" d="M2755.63,3769.01l515.03,21.3-17.35,2.43-23.94,2.23-29.52,1.83-34.09,1.52-37.53,1.32-40.07,1.01-83.49,1.01h-81.46l-37.33-.41-33.88-.71-29.11-1.01-23.64-1.22-17.04-1.52-5.68-.81-3.65-.91-1.42-.91-2.84-2.23-7.41-7.1-5.99-8.52-.91-3.96,1.32-3.45v.1"/>
    <path class="cls-3" d="M3153.8,3913.27l13.49,1.01,10.85,1.62,8.32,2.33,5.88,2.84,3.55,3.35,1.32,3.65-.81,3.85-2.84,4.06-11.16,8.32-18.06,8.01-23.84,6.9-28.81,5.07-6.09.51-9.43.3-12.17.3-14.51.1-33.98-.1-37.23-.41-36.72-.81-32.26-1.01-13.29-.51-10.65-.61-7.51-.71-4.06-.61-8.52-3.04-6.19-2.94-3.85-2.84-1.62-2.74,2.64-5.27,9.64-4.77,15.62-4.36,20.49-3.96,24.25-3.55,26.88-3.14,57.52-5.07,28.3-2.03,26.68-1.52,23.94-1.12,20.09-.81,15.01-.3h9.13"/>
    <path class="cls-3" d="M3101.76,4033.07l-170.53-19.98-2.54-1.83-4.56-3.75-3.14-5.38,1.72-6.39,51.74,2.74,48.19-2.03,42.2-4.16,18.16-2.03,15.72-1.52,13.09-.81,10.04.41,6.7,1.83,3.04,3.65-.81,5.78-5.07,8.32-9.54,11.06-14.4,14.2v-.1"/>
    <path class="cls-3" d="M3101.76,4033.07l-19.07,15.42-20.09,11.56-20.8,7.41-21,2.94-20.8-1.83-20.29-7.1-19.17-12.58-17.75-18.46,158.96,2.64"/>
    <path class="cls-3" d="M3101.76,4033.07l-158.96-2.64-6.19-7.3-2.43-3.85-2.84-6.29,170.53,19.98-.1.1"/>
    <path class="cls-3" d="M2986.11,4082.88l61.78,5.28-16.13,15.83-12.27,11.36-9.23,6.59-6.8,1.93-5.17-2.84-4.06-7.71-3.85-12.68-4.26-17.75"/>
    <path class="cls-3" d="M2777.85,2227.27l-.41-3.96.1-8.01,1.12-8.52,2.54-5.28,6.29-1.93,12.17-1.42,17.14-1.01,21.61-.61,25.06-.2,27.69.1,60.46.81,61.78,1.52,29.42.91,27.39.81,24.55.91,20.9.71,16.54.61,11.26.41-.61,1.72-2.43,3.45-8.01,9.74-9.23,9.64-3.96,3.45-2.74,1.72-6.39,1.01-12.38,1.01-17.55.91-21.81.81-25.26.71-27.69.51-59.75.51-59.55-.61-27.49-.71-24.85-1.12-21.4-1.52-17.04-1.93-11.77-2.33-5.68-2.84"/>
    <path class="cls-3" d="M3234.85,2019.31l-3.85,11.46-4.16,9.43-9.64,14.61-11.36,11.77-13.19,12.38-462.38,1.01-9.43-18.16-10.65-16.64,9.13-17.04,19.48,2.13,25.56.71,30.84-.51,35.1-1.42,38.35-2.03,40.68-2.64,84.5-5.88,82.47-5.17,38.04-1.72,34.69-1.01,30.33.1,25.06,1.32,18.77,2.74,11.67,4.57"/>
    <path class="cls-3" d="M3004.68,2403.28l-1.01.61-2.94,2.13-2.84,2.74-4.06,4.36-5.68,6.49-7.41,9.13-16.13,13.09-15.12,9.13-13.8,5.48-12.48,2.54-10.75-.2-8.93-2.23-6.9-4.06-4.67-5.28-2.33-5.99.3-6.39,3.14-6.19,6.09-5.68,9.33-4.57,12.68-3.14,16.23-1.12,19.98,1.32-1.12-2.43-3.35-1.42-11.77-.91-16.54.41-18.67.1-18.36-1.93-15.42-5.48-5.68-4.67-4.06-6.19-2.03-8.01.41-9.84,35.81,2.74,31.95-.41,27.39-1.93,22.42-1.62,16.64.3,6.09,1.42,4.26,2.43,2.64,3.85.81,5.28-1.12,7.1-3.04,9.03"/>
  </g>
  <g>
    <path class="cls-6" d="M1091.02,6732.07v466.19h3980.97v-932.39H1091.02v466.19ZM2117.7,6517.31v41.9h-83.81v-83.81h83.81v41.9ZM2274.84,6663.98l5.24,183.33,78.57,3.14c90.1,3.14,104.76-6.29,104.76-74.38,0-72.29-10.48-80.67-100.57-80.67h-78.57l3.14-39.81,3.14-38.76,91.14-3.14c88-3.14,92.19-2.1,125.71,28.29l34.57,30.38v101.62q0,101.62-34.57,132c-32.48,29.33-36.67,30.38-143.52,30.38s-111.05-1.05-143.52-30.38l-34.57-30.38-3.14-201.14-3.14-200.1,45.05,3.14,45.05,3.14,5.24,183.33ZM2683.41,6658.74c0,211.62-8.38,198,115.24,191.72l68.1-3.14,3.14-67.05c2.1-47.14-1.05-70.19-10.48-75.43-7.33-5.24-45.05-9.43-83.81-9.43h-71.24v-83.81h83.81c90.1,0,137.24,15.71,157.14,51.33,5.24,11.52,10.48,63.91,10.48,116.29,0,92.19-1.05,97.43-30.38,126.76-30.38,29.33-33.52,30.38-137.24,30.38-112.1,0-157.14-13.62-178.1-51.33-6.29-12.57-10.48-101.62-10.48-214.76v-194.86h83.81v183.33ZM3102.46,6663.98l5.24,183.33,29.33,3.14c25.14,3.14,28.29,7.33,28.29,45.05q0,40.86-41.9,40.86c-31.43,0-50.29-7.33-75.43-30.38l-34.57-30.38-3.14-201.14-3.14-200.1,45.05,3.14,45.05,3.14,5.24,183.33ZM3291.04,6517.31v41.9h-83.81v-83.81h83.81v41.9ZM1528.93,6546.64c-13.62,22-73.33,118.38-134.1,214.76l-110,174.95h-44c-25.14,0-45.05-3.14-45.05-6.29s59.71-100.57,132-214.76l132-208.48h93.24l-24.1,39.81ZM1991.98,6548.74v40.86l-80.67,3.14-81.71,3.14-3.14,169.72-2.1,170.76h-83.81v-345.72h-167.62v-83.81h419.05v41.9ZM4724.19,6519.4c9.43,9.43,12.57,71.24,12.57,214.76v202.19h-83.81v-105.81l-127.81,3.14-128.86,3.14-3.14,50.29-3.14,49.24h-84.86l4.19-139.33c3.14-128.86,5.24-141.43,31.43-187.52,22-35.62,42.95-55.52,83.81-75.43,49.24-24.1,66-27.24,170.76-27.24,76.48,0,120.48,4.19,128.86,12.57ZM4904.38,6721.59v214.76h-83.81v-429.53h83.81v214.76ZM2117.7,6773.98v162.38h-83.81v-324.76h83.81v162.38ZM3291.04,6773.98v162.38h-83.81v-324.76h83.81v162.38ZM3629.42,6626.26c67.05,28.29,75.43,47.14,78.57,185.43l4.19,124.67h-85.91v-103.71c0-127.81-7.33-137.24-117.33-137.24h-71.24v240.95h-83.81v-149.81c0-102.67,4.19-154,12.57-162.38,17.81-17.81,218.95-16.76,262.95,2.1ZM4092.47,6645.12c32.48,37.71,40.86,96.38,34.57,246.19-4.19,120.48-5.24,121.52-37.71,150.86-31.43,28.29-38.76,30.38-127.81,30.38h-94.29v-82.76l81.71-3.14,80.67-3.14,3.14-135.14c2.1-101.62-1.05-137.24-10.48-144.57-20.95-12.57-148.76-10.48-163.43,4.19-7.33,7.33-12.57,36.67-12.57,66s5.24,58.67,12.57,66c7.33,7.33,41.9,12.57,83.81,12.57h71.24v83.81h-83.81c-143.52,0-172.86-31.43-165.52-179.14,3.14-80.67,5.24-85.91,38.76-116.29l34.57-31.43,115.24,4.19c110,3.14,116.29,4.19,139.33,31.43Z"/>
    <path class="cls-6" d="M4468.57,6610.55c-41.9,18.86-56.57,41.9-71.24,107.91l-6.29,29.33h261.91v-157.14h-70.19c-46.1,0-85.91,7.33-114.19,19.9Z"/>
  </g>
</svg>