<?xml version="1.0" standalone="no"?>
<!DOCTYPE svg PUBLIC "-//W3C//DTD SVG 20010904//EN"
 "http://www.w3.org/TR/2001/REC-SVG-20010904/DTD/svg10.dtd">
<svg version="1.0" xmlns="http://www.w3.org/2000/svg"
 width="900.000000pt" height="500.000000pt" viewBox="0 0 900.000000 500.000000"
 preserveAspectRatio="xMidYMid meet">

<g transform="translate(0.000000,500.000000) scale(0.100000,-0.100000)"
fill="#000000" stroke="none">
<path d="M4282 4889 c-20 -6 -41 -22 -53 -42 -17 -28 -19 -43 -13 -122 4 -49
13 -103 21 -118 30 -59 134 -72 187 -22 29 27 43 72 28 87 -15 15 -52 -1 -52
-22 0 -30 -46 -55 -78 -44 -38 13 -52 49 -52 135 0 84 14 109 61 109 30 0 43
-9 58 -37 7 -15 21 -23 37 -23 24 0 25 3 19 27 -9 37 -24 53 -62 70 -37 15
-54 15 -101 2z"/>
<path d="M4514 4886 c-9 -24 4 -34 51 -38 l39 -3 -2 -50 c-1 -27 -5 -92 -8
-142 l-6 -93 26 0 c19 0 27 6 30 23 4 18 15 195 16 248 0 12 11 15 48 15 41
-1 47 2 50 22 3 21 0 22 -56 22 -32 0 -87 3 -120 6 -53 6 -63 4 -68 -10z"/>
<path d="M4871 4847 c-13 -6 -32 -23 -43 -37 -23 -32 -46 -179 -33 -216 23
-63 122 -93 182 -55 35 22 56 75 68 174 5 40 3 62 -9 84 -27 53 -111 78 -165
50z m95 -45 c29 -19 34 -50 19 -122 -8 -39 -15 -73 -15 -75 0 -15 -37 -35 -65
-35 -26 0 -39 6 -52 26 -16 25 -16 31 0 108 10 48 24 86 34 94 18 13 62 16 79
4z"/>
<path d="M3982 4843 c-13 -3 -25 -10 -27 -16 -7 -19 -35 -330 -30 -335 2 -2
16 -2 30 2 19 5 25 13 25 35 0 28 3 30 63 43 l62 14 18 -27 c13 -20 23 -25 43
-21 17 3 23 9 20 19 -13 32 -168 293 -174 292 -4 -1 -17 -4 -30 -6z m62 -141
c20 -35 36 -68 36 -73 0 -5 -18 -12 -40 -15 -22 -4 -43 -7 -47 -8 -8 -1 -6 92
3 137 7 34 4 37 48 -41z"/>
<path d="M3790 4793 c-8 -3 -52 -19 -97 -35 -46 -17 -83 -35 -83 -42 0 -17 98
-288 108 -298 4 -4 17 -2 27 6 18 13 18 15 -3 73 -12 33 -22 63 -22 66 0 3 23
13 50 22 35 12 50 22 50 34 0 29 -10 31 -63 11 -28 -11 -52 -19 -53 -17 -11
12 -33 82 -27 88 5 3 26 12 48 19 86 28 104 38 98 60 -6 21 -8 22 -33 13z"/>
<path d="M5121 4645 c-29 -86 -52 -157 -50 -159 2 -2 14 -7 26 -10 19 -6 24 0
42 49 12 31 21 60 21 65 0 12 12 13 43 1 21 -8 25 -17 31 -83 4 -51 11 -77 23
-85 31 -24 35 -14 28 67 -6 71 -5 80 10 80 9 0 30 13 46 29 22 23 29 39 29 68
0 49 -25 74 -100 101 -104 38 -89 50 -149 -123z m154 75 c49 -19 58 -81 14
-95 -17 -6 -109 11 -109 20 0 1 7 23 16 49 17 49 16 49 79 26z"/>
<path d="M5460 4590 c0 -104 -2 -114 -31 -172 -24 -48 -28 -63 -17 -69 26 -17
38 -8 67 49 24 47 43 67 109 115 45 31 84 62 87 67 3 6 -5 15 -19 21 -22 10
-31 7 -85 -35 l-61 -47 0 79 c0 74 -1 79 -25 90 l-25 12 0 -110z"/>
<path d="M3295 4575 c-87 -51 -112 -79 -82 -91 8 -3 30 4 49 15 l34 21 16 -28
c123 -215 128 -222 148 -209 11 6 20 16 20 21 0 5 -30 60 -67 124 -73 126 -73
119 -7 158 19 11 14 45 -8 43 -7 0 -53 -25 -103 -54z"/>
<path d="M3032 4400 c-40 -24 -66 -80 -57 -121 4 -16 31 -60 61 -99 65 -82
102 -99 165 -73 52 20 79 60 79 114 0 34 -8 53 -42 98 -65 86 -85 101 -132
101 -23 0 -55 -9 -74 -20z m88 -30 c10 -6 40 -37 65 -70 37 -48 46 -67 43 -92
-4 -39 -41 -64 -80 -55 -34 9 -118 121 -118 157 0 31 27 59 68 69 2 1 12 -4
22 -9z"/>
<path d="M2830 4225 c-11 -14 -6 -23 35 -65 l48 -48 -38 -46 c-21 -25 -40 -46
-43 -46 -4 0 -28 21 -54 47 -47 46 -48 46 -68 28 l-20 -19 32 -34 c18 -18 72
-70 121 -114 73 -67 90 -78 102 -68 22 18 19 25 -30 71 -25 23 -45 47 -45 54
0 6 18 29 40 50 l40 39 50 -49 50 -49 21 20 20 21 -117 111 c-65 62 -121 112
-125 112 -3 0 -12 -7 -19 -15z"/>
<path d="M2588 3935 c-64 -35 -89 -132 -43 -175 35 -32 76 -28 146 15 67 41
102 43 107 6 8 -50 -48 -102 -87 -82 -12 7 -22 6 -29 -1 -18 -18 -14 -36 9
-49 62 -33 159 47 159 131 0 44 -14 66 -50 79 -36 12 -55 6 -128 -39 -64 -39
-96 -37 -100 6 -4 41 39 78 79 70 35 -7 58 16 39 39 -16 19 -67 19 -102 0z"/>
<path d="M2412 3685 c-11 -25 -10 -26 83 -72 52 -26 95 -50 95 -54 0 -3 -55
-9 -122 -13 -125 -7 -157 -18 -145 -48 3 -8 68 -47 146 -87 135 -69 140 -71
151 -51 6 11 9 24 6 28 -2 4 -45 27 -95 52 -50 24 -91 47 -91 50 0 3 10 6 23
7 225 13 237 15 247 33 6 10 10 21 10 24 0 5 -150 84 -291 154 -3 1 -11 -9
-17 -23z"/>
<path d="M6565 3640 c-3 -5 3 -27 14 -48 l20 -39 -130 -62 c-123 -59 -129 -63
-118 -84 7 -12 13 -23 14 -25 2 -2 57 24 124 57 66 34 125 61 129 61 5 0 17
-18 27 -40 20 -45 19 -44 45 -30 17 9 15 17 -33 115 -36 73 -56 105 -68 105
-10 0 -21 -4 -24 -10z"/>
<path d="M3610 3113 l0 -278 167 -167 168 -168 -168 -168 -167 -167 0 -278 0
-277 273 0 272 0 170 170 170 170 170 -170 170 -170 278 0 277 0 0 278 0 277
-170 170 -170 170 170 170 170 170 0 273 0 272 -277 0 -278 0 -167 -167 -168
-168 -168 168 -167 167 -278 0 -277 0 0 -277z m490 -33 l-1 -234 583 -583 583
-583 -195 0 -195 0 -598 598 -597 597 0 223 0 222 211 -2 210 -3 -1 -235z
m1220 30 l0 -210 -215 0 -215 0 0 210 0 210 215 0 215 0 0 -210z m-663 -7 c86
86 158 157 160 157 2 0 3 -99 3 -220 l0 -220 222 0 223 0 -160 -160 -160 -160
188 -188 187 -187 0 -195 0 -195 -570 570 -570 570 0 195 0 195 160 -160 160
-160 157 158z m-432 -883 l220 -220 -160 -160 -160 -160 -222 0 -223 0 0 222
0 223 157 157 c87 87 160 158 163 158 3 0 104 -99 225 -220z"/>
<path d="M2283 3340 c-77 -47 -84 -170 -11 -208 45 -23 142 -52 176 -52 70 0
131 100 102 170 -15 37 -45 56 -133 86 -85 29 -93 29 -134 4z m128 -61 c75
-26 99 -43 99 -76 0 -23 -40 -73 -58 -73 -19 0 -137 41 -159 56 -44 28 -20
114 32 114 11 0 50 -10 86 -21z"/>
<path d="M6572 3302 c-79 -26 -143 -52 -143 -57 1 -42 7 -45 58 -30 96 30 89
31 107 -21 9 -26 16 -53 16 -60 0 -7 -29 -22 -65 -34 -59 -20 -65 -24 -59 -43
4 -12 8 -24 10 -26 1 -2 72 19 156 46 150 48 170 60 150 91 -7 9 -21 8 -68 -8
-32 -11 -62 -20 -66 -20 -3 0 -15 27 -26 59 l-20 60 64 21 c56 19 65 25 62 43
-2 12 -10 23 -18 24 -8 1 -79 -19 -158 -45z"/>
<path d="M2203 3026 c-45 -20 -66 -67 -60 -130 6 -62 33 -87 115 -104 129 -27
188 -9 212 64 27 79 -16 143 -109 163 -94 20 -125 21 -158 7z m170 -66 c63
-18 77 -97 22 -122 -41 -19 -164 6 -193 39 -26 29 -24 68 6 91 19 15 97 11
165 -8z"/>
<path d="M6770 3004 c-8 -1 -70 -13 -138 -24 -103 -19 -122 -25 -118 -39 2 -9
7 -34 10 -56 20 -123 27 -145 48 -145 19 0 20 4 14 53 -3 28 -9 68 -12 88 l-6
36 43 6 c24 3 46 4 50 2 3 -3 9 -27 13 -55 6 -45 9 -50 32 -50 23 0 25 3 20
30 -19 97 -21 87 24 95 23 4 45 3 49 -1 5 -5 14 -42 20 -81 10 -58 16 -73 30
-73 10 0 20 2 23 5 4 5 -13 130 -27 193 -5 21 -28 27 -75 16z"/>
<path d="M2110 2673 c0 -23 10 -34 60 -67 33 -21 60 -40 60 -41 0 -2 -29 -20
-65 -40 -51 -28 -65 -41 -65 -59 0 -21 6 -24 61 -30 76 -7 264 -8 271 0 3 3 4
14 1 25 -4 16 -15 19 -62 20 -31 1 -81 4 -111 7 l-55 7 48 28 c26 15 47 34 47
42 0 8 -20 28 -45 45 -25 17 -45 32 -45 34 0 2 52 1 116 -2 l116 -5 -4 29 -3
29 -162 3 -163 3 0 -28z"/>
<path d="M6564 2571 c-2 -2 -4 -15 -4 -28 0 -23 1 -23 115 -23 116 0 139 -8
86 -30 -38 -15 -73 -49 -65 -62 4 -5 27 -23 52 -39 l46 -29 -117 0 c-98 0
-119 -3 -124 -16 -3 -8 -1 -20 4 -25 5 -5 83 -13 171 -16 l162 -6 0 29 c0 24
-10 35 -60 68 -33 21 -60 39 -60 41 0 2 29 21 65 44 46 28 65 46 65 61 0 11
-6 23 -12 25 -17 6 -319 11 -324 6z"/>
<path d="M2405 2228 c3 -18 9 -55 14 -83 10 -55 4 -65 -41 -65 -16 0 -31 -1
-35 -2 -5 -2 -13 21 -18 51 -11 56 -20 67 -44 52 -11 -7 -12 -19 -4 -60 6 -28
7 -53 4 -55 -3 -2 -24 -7 -47 -10 l-41 -7 -14 83 c-13 73 -17 83 -35 80 -10
-2 -20 -5 -22 -7 -5 -5 31 -199 38 -208 7 -7 309 38 318 48 2 2 -4 51 -14 109
-16 100 -18 106 -41 106 -21 0 -23 -3 -18 -32z"/>
<path d="M6584 2216 c-18 -8 -38 -28 -47 -49 -45 -94 -1 -166 114 -186 106
-18 137 -15 169 17 49 49 52 131 6 177 -37 37 -192 64 -242 41z m136 -56 c30
-6 62 -18 72 -27 25 -22 23 -75 -2 -98 -19 -17 -27 -18 -98 -6 -96 16 -122 31
-122 73 0 64 39 79 150 58z"/>
<path d="M2340 1925 c-85 -28 -155 -54 -154 -56 0 -2 3 -14 6 -26 l6 -23 58
20 c31 11 62 20 69 20 10 0 51 -108 43 -115 -2 -1 -30 -11 -63 -22 -52 -18
-60 -23 -57 -43 1 -13 4 -26 7 -28 8 -8 315 100 315 111 0 7 -4 18 -9 26 -7
11 -19 10 -72 -8 -35 -11 -66 -18 -70 -14 -11 13 -39 105 -34 113 2 3 31 15
65 25 41 12 60 23 60 34 -1 39 -15 38 -170 -14z"/>
<path d="M6503 1910 c-39 -24 -63 -67 -63 -116 0 -53 47 -96 134 -123 37 -12
81 -21 96 -21 61 0 122 90 106 155 -11 44 -49 72 -135 99 -98 31 -98 31 -138
6z m133 -63 c77 -26 102 -54 90 -101 -11 -46 -46 -53 -129 -27 -40 13 -80 30
-89 39 -38 32 -11 112 37 112 11 0 52 -11 91 -23z"/>
<path d="M6375 1639 c-4 -11 -5 -22 -3 -23 1 -2 46 -25 98 -52 60 -31 87 -50
75 -52 -11 -1 -71 -6 -133 -11 -111 -8 -131 -15 -132 -46 0 -5 65 -44 145 -85
122 -63 147 -73 155 -60 5 8 10 20 10 25 0 6 -44 33 -97 60 -54 27 -91 50 -83
52 8 2 66 7 129 11 93 7 117 12 128 27 7 11 13 21 13 24 0 8 -274 151 -288
151 -6 0 -14 -9 -17 -21z"/>
<path d="M2500 1560 c-63 -32 -118 -59 -121 -59 -3 -1 -14 17 -24 39 -18 40
-29 47 -53 32 -17 -11 82 -222 104 -222 23 0 27 25 10 59 -9 16 -16 33 -16 36
0 3 55 33 123 66 67 33 122 64 121 70 -1 5 -2 16 -2 24 -3 23 -19 18 -142 -45z"/>
<path d="M6213 1340 c-44 -26 -77 -92 -68 -136 13 -72 85 -84 172 -28 66 42
106 43 111 3 2 -17 -6 -34 -25 -53 -22 -22 -33 -26 -59 -21 -27 5 -34 2 -39
-16 -15 -46 65 -54 115 -13 62 53 76 114 36 160 -34 40 -77 37 -151 -9 -64
-39 -84 -44 -103 -25 -20 20 -14 48 18 80 24 24 36 28 58 23 40 -8 66 20 37
41 -26 20 -64 17 -102 -6z"/>
<path d="M6047 1142 c-16 -15 -14 -20 35 -69 l52 -53 -44 -45 -44 -45 -46 45
c-50 49 -61 53 -81 29 -12 -15 0 -30 105 -131 114 -108 120 -112 138 -96 18
16 17 18 -32 68 l-50 51 45 44 45 44 48 -47 c26 -26 51 -47 54 -47 4 0 12 10
19 21 10 19 5 28 -43 76 -29 30 -83 81 -119 113 -61 55 -67 58 -82 42z"/>
<path d="M5795 896 c-45 -20 -85 -71 -85 -110 0 -34 33 -92 92 -159 25 -29 43
-40 74 -44 74 -10 144 50 144 124 0 57 -129 204 -179 203 -9 -1 -30 -7 -46
-14z m128 -120 c53 -72 56 -90 25 -123 -35 -38 -70 -30 -116 25 -82 99 -90
137 -35 166 41 21 74 4 126 -68z"/>
<path d="M5527 716 c-17 -13 -14 -22 53 -137 76 -130 75 -123 17 -155 -23 -12
-26 -18 -17 -34 6 -11 12 -20 15 -20 3 0 196 109 203 116 2 1 -2 12 -8 24
l-11 21 -33 -21 c-18 -11 -37 -20 -42 -20 -5 0 -41 54 -79 120 -38 66 -71 120
-74 120 -3 0 -14 -7 -24 -14z"/>
<path d="M3520 610 c-25 -50 -44 -70 -115 -122 -47 -34 -85 -65 -85 -70 0 -4
9 -12 20 -18 17 -9 30 -4 79 35 33 25 62 45 65 45 3 0 6 -36 6 -79 0 -78 6
-91 41 -91 5 0 9 50 9 110 0 98 3 116 25 160 30 59 31 66 5 80 -17 9 -23 4
-50 -50z"/>
<path d="M3704 563 c3 -16 8 -51 11 -78 6 -50 6 -51 -27 -60 -24 -7 -38 -21
-51 -48 -35 -71 -5 -112 109 -151 l73 -24 15 41 c35 95 95 271 93 273 -1 1
-13 5 -27 9 -24 6 -27 2 -46 -57 -18 -56 -23 -63 -45 -60 -35 4 -39 12 -45 88
-6 69 -20 94 -52 94 -9 0 -12 -8 -8 -27z m85 -194 c24 -10 24 -22 1 -84 -10
-25 -10 -25 -47 -10 -20 8 -42 20 -50 26 -20 17 -15 56 9 73 22 15 33 15 87
-5z"/>
<path d="M5248 579 c-16 -9 -16 -14 7 -74 l24 -65 -33 -14 c-18 -7 -42 -17
-54 -20 -24 -8 -26 -14 -13 -35 7 -11 17 -11 60 4 29 9 54 15 55 14 5 -6 26
-71 26 -79 0 -5 -34 -20 -75 -35 -76 -28 -80 -31 -69 -58 5 -13 22 -10 110 21
57 20 104 39 104 42 0 17 -108 304 -116 307 -5 1 -17 -2 -26 -8z"/>
<path d="M5025 498 c-2 -7 -5 -22 -7 -33 -3 -16 -17 -23 -68 -34 -41 -9 -65
-10 -67 -4 -10 28 -29 42 -51 37 -13 -4 -22 -12 -20 -18 2 -6 39 -73 83 -149
62 -107 84 -137 100 -137 45 0 52 18 65 170 6 80 14 153 16 163 4 13 -1 17
-21 17 -14 0 -27 -6 -30 -12z m-16 -130 c-1 -18 -4 -58 -8 -88 l-6 -55 -42 75
-43 75 38 12 c57 18 62 16 61 -19z"/>
<path d="M4019 466 c-30 -17 -45 -48 -59 -125 -22 -120 -3 -168 75 -190 104
-28 154 29 171 197 6 55 5 61 -23 92 -25 28 -37 34 -84 37 -35 2 -63 -2 -80
-11z m120 -51 c8 -8 14 -27 14 -42 0 -53 -25 -145 -44 -164 -40 -40 -109 -9
-109 49 1 56 29 147 51 165 25 20 63 16 88 -8z"/>
<path d="M4604 440 c-30 -12 -64 -58 -64 -86 0 -19 5 -24 25 -24 16 0 25 6 25
15 0 25 38 55 68 55 44 0 59 -26 67 -111 9 -93 3 -113 -35 -129 -25 -10 -34
-10 -56 5 -15 9 -29 26 -32 37 -3 12 -10 17 -19 14 -8 -3 -19 -6 -24 -6 -20 0
-7 -43 20 -71 25 -25 37 -29 83 -29 100 0 130 45 119 180 -4 47 -13 95 -20
107 -23 44 -102 66 -157 43z"/>
<path d="M4349 390 c-1 -27 -3 -54 -4 -60 -1 -5 -3 -46 -4 -90 l-1 -80 -50 0
c-43 0 -50 -3 -50 -20 0 -24 14 -27 143 -34 l97 -4 0 24 c0 21 -4 24 -40 24
-24 0 -43 5 -45 13 -3 6 -1 72 3 145 l7 132 -27 0 c-27 0 -28 -2 -29 -50z"/>
</g>
</svg>
