<?xml version="1.0" standalone="no"?>
<!DOCTYPE svg PUBLIC "-//W3C//DTD SVG 20010904//EN"
 "http://www.w3.org/TR/2001/REC-SVG-20010904/DTD/svg10.dtd">
<svg version="1.0" xmlns="http://www.w3.org/2000/svg"
 width="225.000000pt" height="225.000000pt" viewBox="0 0 225.000000 225.000000"
 preserveAspectRatio="xMidYMid meet">

<g transform="translate(0.000000,225.000000) scale(0.100000,-0.100000)"
fill="#000000" stroke="none">
<path d="M230 1283 l0 -108 52 0 53 0 0 -50 0 -50 -53 0 -52 0 0 -107 0 -108
190 0 190 0 0 48 0 47 -132 0 -133 0 -3 63 -3 62 126 0 125 0 0 45 0 45 -125
0 -126 0 3 63 3 62 133 0 132 0 0 48 0 47 -190 0 -190 0 0 -107z"/>
<path d="M710 1126 l0 -266 60 0 60 0 0 109 0 109 104 4 c112 3 136 13 179 70
27 37 27 129 0 166 -47 63 -60 67 -239 70 l-164 3 0 -265z m293 146 c12 -10
17 -27 15 -46 -2 -25 -10 -33 -38 -43 -19 -7 -61 -12 -92 -12 l-58 -1 0 66 0
67 77 -7 c50 -5 84 -13 96 -24z"/>
<path d="M1210 1285 l0 -105 55 0 54 0 3 58 3 57 138 3 137 3 0 44 0 45 -195
0 -195 0 0 -105z"/>
<path d="M1680 1125 l0 -265 195 0 195 0 0 45 0 45 -135 0 -135 0 0 220 0 220
-60 0 -60 0 0 -265z"/>
<path d="M1330 1125 l0 -45 120 0 120 0 0 45 0 45 -120 0 -120 0 0 -45z"/>
<path d="M1210 965 l0 -105 58 0 57 0 -3 105 -3 105 -55 0 -54 0 0 -105z"/>
</g>
</svg>
