<?xml version="1.0" standalone="no"?>
<!DOCTYPE svg PUBLIC "-//W3C//DTD SVG 20010904//EN"
 "http://www.w3.org/TR/2001/REC-SVG-20010904/DTD/svg10.dtd">
<svg version="1.0" xmlns="http://www.w3.org/2000/svg"
 width="1134.000000pt" height="500.000000pt" viewBox="0 0 1134.000000 500.000000"
 preserveAspectRatio="xMidYMid meet">

<g transform="translate(0.000000,500.000000) scale(0.100000,-0.100000)"
fill="#000000" stroke="none">
<path d="M2110 2635 l0 -765 170 0 170 0 0 765 0 765 -170 0 -170 0 0 -765z"/>
<path d="M2620 2805 l0 -595 170 0 170 0 0 595 0 595 -170 0 -170 0 0 -595z"/>
<path d="M3130 2635 l0 -765 170 0 170 0 0 765 0 765 -170 0 -170 0 0 -765z"/>
<path d="M3640 3230 l0 -170 170 0 170 0 0 170 0 170 -170 0 -170 0 0 -170z"/>
<path d="M4150 3230 l0 -170 425 0 425 0 0 170 0 170 -425 0 -425 0 0 -170z"/>
<path d="M5340 3185 l0 -215 40 0 40 0 1 148 c1 161 -1 162 52 -28 l32 -115
41 -3 42 -3 20 68 c11 37 31 104 45 148 l25 80 1 -148 1 -148 38 3 37 3 3 213
2 212 -63 0 -64 0 -36 -133 c-21 -73 -37 -140 -37 -150 0 -47 -19 -3 -55 131
l-40 147 -63 3 -62 3 0 -216z"/>
<path d="M7320 3184 l0 -215 38 3 37 3 5 108 c4 93 8 111 24 123 27 19 50 18
69 -4 12 -13 17 -43 19 -122 l3 -105 38 -3 37 -3 0 126 c0 139 -8 163 -61 185
-34 15 -85 7 -111 -17 -17 -15 -18 -13 -18 60 l0 77 -40 0 -40 0 0 -216z"/>
<path d="M8589 3373 c0 -4 -1 -26 -2 -48 -2 -34 -6 -41 -25 -43 -32 -5 -28
-55 6 -60 21 -3 22 -7 22 -105 0 -56 4 -107 8 -114 10 -16 57 -33 93 -33 27 0
29 3 29 35 0 31 -3 35 -25 35 -25 0 -25 1 -25 90 0 89 0 90 25 90 21 0 25 5
25 30 0 25 -4 30 -24 30 -23 0 -25 5 -28 48 -3 47 -3 47 -40 50 -21 2 -38 0
-39 -5z"/>
<path d="M8777 3373 c-4 -3 -7 -26 -7 -50 0 -36 -3 -43 -20 -43 -16 0 -20 -7
-20 -30 0 -23 4 -30 20 -30 19 0 20 -7 20 -100 0 -86 3 -103 20 -120 22 -22
57 -33 91 -28 19 2 24 9 24 33 0 22 -5 31 -20 34 -30 5 -35 19 -35 103 0 76 0
77 28 80 21 2 28 9 30 30 3 23 -1 27 -25 30 -26 3 -28 7 -31 51 -3 46 -4 47
-36 47 -18 0 -36 -3 -39 -7z"/>
<path d="M5900 3283 c-39 -12 -63 -30 -76 -55 -19 -37 -19 -38 24 -38 26 0 41
6 50 20 20 33 92 24 92 -11 0 -22 -28 -39 -64 -39 -37 0 -105 -30 -116 -51 -6
-10 -10 -34 -10 -54 0 -54 38 -85 104 -85 29 0 61 6 73 15 19 13 22 13 27 0 3
-9 18 -15 39 -15 l33 0 -4 128 c-3 85 -8 134 -18 149 -20 32 -106 52 -154 36z
m100 -186 c0 -41 -27 -67 -71 -67 -67 0 -66 53 2 77 53 18 69 16 69 -10z"/>
<path d="M6164 3274 c-80 -39 -65 -150 23 -170 83 -18 105 -26 110 -40 15 -41
-76 -54 -107 -16 -13 15 -29 22 -55 22 -33 0 -36 -2 -30 -22 17 -57 102 -96
175 -79 61 14 90 45 90 97 0 54 -28 78 -108 95 -69 15 -91 31 -72 53 19 23 77
21 92 -4 9 -14 24 -20 50 -20 l38 0 -13 33 c-24 59 -123 86 -193 51z"/>
<path d="M6455 3275 c-41 -21 -55 -43 -55 -82 0 -40 34 -79 77 -88 60 -14 107
-30 110 -40 12 -41 -77 -55 -107 -17 -13 15 -29 22 -55 22 -33 0 -36 -2 -30
-22 19 -61 98 -96 176 -79 60 14 89 45 89 97 0 54 -28 78 -108 95 -69 15 -91
31 -72 53 19 23 77 21 92 -4 9 -13 24 -20 45 -20 26 0 33 4 33 20 0 62 -121
102 -195 65z"/>
<path d="M6764 3276 c-32 -14 -64 -51 -64 -73 0 -22 63 -16 83 8 22 24 74 23
91 -3 16 -26 -1 -37 -73 -49 -83 -15 -113 -41 -115 -98 -1 -35 4 -47 27 -67
34 -29 109 -33 145 -8 20 14 23 14 28 0 4 -11 19 -16 43 -16 l36 0 -3 122 c-4
138 -12 161 -67 184 -43 17 -90 17 -131 0z m116 -183 c0 -37 -27 -63 -65 -63
-69 0 -67 59 2 78 58 15 63 14 63 -15z"/>
<path d="M7085 3276 c-98 -43 -126 -182 -52 -260 78 -82 208 -63 246 37 10 26
10 27 -26 27 -25 0 -42 -7 -59 -25 -74 -80 -159 44 -98 143 21 32 78 31 100
-3 12 -19 25 -25 50 -25 41 0 45 23 12 65 -39 50 -112 68 -173 41z"/>
<path d="M8003 3275 c-39 -17 -55 -45 -51 -93 4 -44 45 -76 111 -86 25 -4 53
-13 63 -21 18 -15 18 -16 -5 -36 -29 -24 -67 -19 -93 11 -20 24 -88 28 -88 6
0 -29 49 -73 95 -85 93 -23 175 20 175 91 0 54 -31 83 -106 98 -71 16 -93 32
-74 54 19 23 77 21 92 -4 9 -13 24 -20 45 -20 26 0 33 4 33 20 0 62 -116 101
-197 65z"/>
<path d="M8325 3276 c-92 -41 -120 -160 -60 -253 51 -77 209 -73 250 7 20 40
20 40 -23 40 -26 0 -45 -7 -57 -20 -10 -11 -31 -20 -47 -20 -30 0 -68 30 -68
55 0 11 21 15 108 17 l107 3 -3 35 c-5 47 -31 100 -63 123 -34 25 -105 31
-144 13z m110 -79 c8 -12 15 -25 15 -29 0 -5 -29 -8 -65 -8 -65 0 -76 7 -57
37 11 17 53 31 74 25 10 -2 25 -14 33 -25z"/>
<path d="M8993 3275 c-38 -16 -53 -42 -53 -89 0 -42 28 -72 74 -81 88 -18 106
-26 106 -46 0 -41 -91 -45 -106 -4 -7 17 -84 22 -84 5 0 -22 24 -58 48 -72 65
-37 166 -27 202 20 24 30 26 79 5 109 -15 21 -34 29 -132 53 -31 8 -43 16 -43
29 0 35 70 43 97 11 20 -23 83 -28 83 -7 0 23 -32 59 -66 73 -42 18 -90 17
-131 -1z"/>
<path d="M7640 3160 c0 -66 5 -130 11 -143 22 -49 103 -66 153 -33 21 13 25
13 30 1 3 -9 19 -15 41 -15 l35 0 0 155 0 155 -40 0 -40 0 0 -98 c0 -111 -13
-142 -59 -142 -45 0 -51 15 -51 132 l0 108 -40 0 -40 0 0 -120z"/>
<path d="M3640 2380 l0 -510 170 0 170 0 0 510 0 510 -170 0 -170 0 0 -510z"/>
<path d="M4150 2380 l0 -510 170 0 170 0 0 510 0 510 -170 0 -170 0 0 -510z"/>
<path d="M5340 2635 l0 -215 45 0 45 0 0 215 0 215 -45 0 -45 0 0 -215z"/>
<path d="M7927 2834 c-19 -10 -31 -28 -39 -59 -7 -27 -19 -45 -30 -48 -26 -7
-25 -57 2 -57 18 0 20 -8 22 -122 l3 -123 43 -3 42 -3 0 125 0 126 25 0 c21 0
25 5 25 30 0 26 -4 30 -26 30 -21 0 -25 4 -22 23 2 14 11 23 26 25 18 3 22 10
22 38 0 32 -2 34 -32 34 -18 -1 -45 -8 -61 -16z"/>
<path d="M6280 2800 l0 -40 40 0 40 0 0 40 0 40 -40 0 -40 0 0 -40z"/>
<path d="M6110 2775 c0 -38 -3 -45 -20 -45 -16 0 -20 -7 -20 -30 0 -23 4 -30
20 -30 19 0 20 -7 20 -105 0 -126 11 -145 85 -145 43 0 45 1 45 29 0 23 -5 30
-22 33 -22 3 -23 8 -26 96 l-3 92 26 0 c21 0 25 5 25 30 0 25 -4 30 -25 30
-23 0 -25 4 -25 45 l0 45 -40 0 -40 0 0 -45z"/>
<path d="M6430 2775 c0 -38 -3 -45 -20 -45 -16 0 -20 -7 -20 -30 0 -23 4 -30
20 -30 19 0 20 -7 20 -100 0 -94 2 -103 25 -125 18 -19 35 -25 70 -25 43 0 45
1 45 30 0 22 -5 30 -18 30 -34 0 -42 21 -42 107 0 82 0 83 25 83 21 0 25 5 25
30 0 25 -4 30 -25 30 -23 0 -25 4 -25 45 l0 45 -40 0 -40 0 0 -45z"/>
<path d="M6942 2775 c5 -42 4 -45 -18 -45 -20 0 -24 -5 -24 -29 0 -22 5 -30
21 -33 19 -3 20 -10 22 -106 2 -96 4 -105 26 -123 15 -12 39 -19 67 -19 42 0
44 1 44 29 0 23 -5 30 -22 33 -22 3 -23 8 -26 96 l-3 92 26 0 c21 0 25 5 25
30 0 25 -4 30 -25 30 -23 0 -25 4 -25 45 l0 45 -46 0 -47 0 5 -45z"/>
<path d="M5620 2733 c-8 -3 -25 -15 -37 -26 l-23 -20 0 22 c0 20 -4 22 -37 19
l-38 -3 -3 -152 -3 -153 41 0 40 0 0 93 c0 112 12 141 60 145 51 5 60 -14 60
-135 l0 -103 40 0 40 0 0 115 c0 134 -12 168 -65 191 -36 15 -50 16 -75 7z"/>
<path d="M5874 2731 c-42 -11 -52 -18 -70 -52 -33 -64 10 -121 103 -135 57 -8
82 -27 67 -51 -18 -29 -70 -29 -98 1 -30 34 -86 37 -86 5 0 -11 13 -33 28 -49
54 -54 177 -50 221 7 51 64 7 133 -98 154 -67 13 -87 33 -56 55 28 21 53 17
79 -11 24 -25 86 -36 86 -15 0 20 -30 69 -48 79 -27 14 -94 20 -128 12z"/>
<path d="M7209 2731 c-72 -23 -109 -76 -109 -155 0 -90 45 -146 128 -162 64
-12 162 38 162 82 0 20 -74 18 -90 -1 -19 -23 -76 -19 -100 7 -39 42 -29 48
90 48 l110 0 0 28 c0 37 -39 112 -70 133 -31 22 -86 31 -121 20z m83 -78 c35
-32 23 -43 -47 -43 -69 0 -78 7 -45 40 24 24 67 26 92 3z"/>
<path d="M7623 2729 c-133 -39 -147 -242 -20 -299 56 -26 95 -25 147 3 60 32
82 75 78 154 -3 53 -8 67 -33 94 -17 17 -37 34 -45 39 -27 14 -94 19 -127 9z
m102 -79 c22 -25 30 -98 13 -130 -29 -54 -103 -57 -127 -4 -18 40 -13 98 10
128 25 32 77 36 104 6z"/>
<path d="M6280 2575 l0 -155 40 0 40 0 0 155 0 155 -40 0 -40 0 0 -155z"/>
<path d="M6600 2610 c0 -141 11 -172 65 -190 39 -13 88 -6 106 16 14 17 30 18
27 2 -2 -8 11 -14 35 -16 l37 -3 0 155 0 156 -40 0 -40 0 0 -105 c0 -92 -3
-108 -20 -125 -25 -25 -52 -26 -73 -2 -14 15 -17 40 -17 125 l0 107 -40 0 -40
0 0 -120z"/>
<path d="M5214 2291 c-2 -2 -4 -19 -4 -38 l0 -33 65 0 65 0 0 -175 0 -175 45
0 45 0 0 175 0 175 58 0 c32 0 61 2 64 5 2 3 3 18 0 34 l-4 30 -165 3 c-91 2
-167 1 -169 -1z"/>
<path d="M6188 2292 l-38 -3 0 -210 0 -209 40 0 40 0 0 100 c0 87 3 103 20
120 22 22 60 26 78 8 8 -8 12 -49 12 -120 l0 -108 46 0 46 0 -4 123 c-4 130
-12 157 -55 176 -37 17 -88 13 -116 -9 l-26 -21 -3 78 -3 78 -37 -3z"/>
<path d="M7134 2291 c-2 -2 -4 -98 -4 -213 l0 -208 45 0 45 0 -2 211 -3 212
-38 1 c-21 1 -41 -1 -43 -3z"/>
<path d="M5576 2161 c-48 -32 -71 -78 -71 -143 0 -64 19 -97 75 -135 62 -43
175 -22 205 38 8 15 15 30 15 34 0 14 -75 3 -97 -15 -14 -11 -33 -20 -43 -20
-26 0 -70 39 -70 61 0 18 8 19 110 19 l111 0 -7 38 c-10 56 -38 105 -72 125
-41 23 -119 22 -156 -2z m124 -63 c30 -32 25 -38 -29 -38 -27 0 -56 -3 -65 -6
-23 -9 -20 22 4 46 26 26 64 25 90 -2z"/>
<path d="M5896 2161 c-48 -32 -71 -78 -71 -143 0 -42 6 -64 21 -85 69 -94 200
-99 254 -10 29 47 26 57 -18 57 -32 0 -41 -5 -50 -25 -10 -21 -19 -25 -51 -25
-50 0 -71 26 -71 91 0 81 58 122 105 75 32 -32 95 -37 95 -8 0 25 -27 60 -60
77 -41 21 -119 19 -154 -4z"/>
<path d="M6576 2159 c-21 -17 -26 -18 -26 -5 0 12 -10 16 -40 16 l-40 0 0
-150 0 -150 39 0 39 0 4 99 c3 107 18 141 63 141 44 0 55 -28 55 -138 l0 -102
40 0 40 0 0 116 c0 119 -7 146 -44 176 -30 25 -97 23 -130 -3z"/>
<path d="M6860 2162 c-50 -26 -83 -92 -77 -155 10 -117 130 -181 237 -127 108
55 105 232 -4 284 -45 21 -113 20 -156 -2z m130 -67 c19 -20 24 -37 24 -77 0
-43 -4 -54 -28 -74 -15 -13 -36 -24 -46 -24 -10 0 -31 11 -46 24 -24 20 -28
31 -28 74 0 61 30 102 74 102 15 0 36 -11 50 -25z"/>
<path d="M7330 2162 c-22 -12 -44 -35 -57 -62 -76 -148 70 -295 218 -219 76
39 103 163 51 236 -43 61 -142 81 -212 45z m129 -66 c43 -46 37 -129 -13 -162
-55 -35 -112 14 -110 93 2 81 74 121 123 69z"/>
<path d="M7645 2158 c-76 -59 -72 -200 7 -248 36 -22 98 -26 129 -10 17 9 19
7 19 -18 0 -15 -5 -33 -12 -40 -17 -17 -83 -15 -98 3 -16 19 -90 21 -90 1 0
-31 41 -65 93 -76 94 -21 176 18 191 91 3 18 6 94 6 170 l0 139 -40 0 c-23 0
-40 -5 -40 -11 0 -7 -10 -5 -25 5 -36 24 -106 21 -140 -6z m145 -64 c9 -9 15
-33 15 -60 0 -76 -61 -109 -110 -59 -73 72 21 189 95 119z"/>
<path d="M7915 2153 c55 -139 95 -262 93 -282 -2 -20 -11 -28 -35 -36 -27 -7
-33 -14 -33 -37 0 -26 2 -28 44 -28 72 0 89 22 150 200 29 85 57 165 61 178 6
22 5 23 -37 20 l-43 -3 -25 -87 c-14 -48 -28 -89 -30 -92 -3 -2 -18 38 -34 90
l-29 94 -45 0 c-38 0 -43 -2 -37 -17z"/>
</g>
</svg>
