<svg width="221" height="58" viewBox="0 0 221 58" fill="none" xmlns="http://www.w3.org/2000/svg">
  <path d="M67.4 29C67.4 13.4 78 0.5 95.1 0.5C107 0.5 116.8 7 120.4 18.5L110.4 22.3C108.3 15.5 102.4 11.4 95.1 11.4C84.7 11.4 78.7 19.2 78.7 29C78.7 38.8 84.7 46.6 95.1 46.6C102.1 46.6 107.9 42.4 110.4 35.7L120.4 39.5C117 51 107 57.5 95.1 57.5C78 57.5 67.4 44.6 67.4 29Z" fill="white"/>
  <path d="M124.9 1.5H135.6V56.5H124.9V1.5Z" fill="white"/>
  <path d="M142.9 1.5H177.4V12.4H153.6V22.9H175.7V33.8H153.6V45.6H177.4V56.5H142.9V1.5Z" fill="white"/>
  <path d="M180.8 1.5H191.5V45.6H215.9V56.5H180.8V1.5Z" fill="white"/>
  <path d="M0 39.1H19.9V19.9H0V0.7H39.8V19.9H19.9V39.1H39.8V58.3H0V39.1Z" fill="white"/>
</svg>