<?xml version="1.0" encoding="UTF-8" standalone="no"?>
<svg
   id="Layer_1"
   data-name="Layer 1"
   viewBox="0 0 835.95776 989.57259"
   version="1.1"
   sodipodi:docname="logo.svg"
   inkscape:export-filename="logo2.svg"
   inkscape:export-xdpi="300"
   inkscape:export-ydpi="300"
   inkscape:version="1.3 (0e150ed, 2023-07-21)"
   width="835.95776"
   height="989.57263"
   xmlns:inkscape="http://www.inkscape.org/namespaces/inkscape"
   xmlns:sodipodi="http://sodipodi.sourceforge.net/DTD/sodipodi-0.dtd"
   xmlns="http://www.w3.org/2000/svg"
   xmlns:svg="http://www.w3.org/2000/svg">
  <sodipodi:namedview
     id="namedview109"
     pagecolor="#ffffff"
     bordercolor="#000000"
     borderopacity="0.25"
     inkscape:showpageshadow="2"
     inkscape:pageopacity="0.0"
     inkscape:pagecheckerboard="0"
     inkscape:deskcolor="#d1d1d1"
     inkscape:zoom="0.116438"
     inkscape:cx="459.472"
     inkscape:cy="901.76747"
     inkscape:window-width="1440"
     inkscape:window-height="847"
     inkscape:window-x="0"
     inkscape:window-y="325"
     inkscape:window-maximized="1"
     inkscape:current-layer="Layer_1"
     showguides="false" />
  <defs
     id="defs1">
    <style
       id="style1">&#10;      .cls-1, .cls-2, .cls-3, .cls-4 {&#10;        fill: none;&#10;      }&#10;&#10;      .cls-1, .cls-5 {&#10;        stroke-width: 0px;&#10;      }&#10;&#10;      .cls-2 {&#10;        stroke: #000;&#10;      }&#10;&#10;      .cls-2, .cls-6, .cls-3, .cls-4 {&#10;        stroke-width: 30px;&#10;      }&#10;&#10;      .cls-5, .cls-6 {&#10;        fill: #000;&#10;      }&#10;&#10;      .cls-6 {&#10;        stroke-miterlimit: 5.5;&#10;      }&#10;&#10;      .cls-6, .cls-3, .cls-4 {&#10;        stroke: #231f20;&#10;      }&#10;&#10;      .cls-7 {&#10;        opacity: .5;&#10;      }&#10;&#10;      .cls-4 {&#10;        stroke-miterlimit: 10;&#10;      }&#10;    </style>
  </defs>
  <g
     id="g111"
     inkscape:export-filename="../../../../g111.png"
     inkscape:export-xdpi="96"
     inkscape:export-ydpi="96"
     transform="translate(-171.94112,-212.26069)">
    <g
       id="g110">
      <path
         id="outline2"
         class="cls-4"
         d="m 663.72005,325.5933 c -2.34,-3.19 -7.09,-1.12 -10.82,-2.55 -5.47,-2.1 12.41,0.51 10.25,-0.22 16.75,5.65 -26.61,-5.69 -42.77,5.13 -3.52,2.36 -2.79,8.95 -6.1,16.5 -2.19,4.99 -4.2,9.04 -7.63,14.65 -2.01,3.3 -5.93,5.81 -8.55,9.43 -2.93,4.04 -4.56,9.22 -6.35,13.69 -2.83,7.03 -2.84,20.98 -3.9,29.73 -2.15,17.63 -3.32,25.99 -4.55,43.73 -0.42,6.09 -0.04,14.36 -0.37,20.44 -0.5,9.32 0.99,16.86 -0.1,25.99 -1.46,12.14 0,26.32 0.55,38.31 0.07,1.58 2.53,9.02 -0.13,8.66 -7.43,-1 -2.97,-4.76 -3.38,-10.94 -0.4,-6.1 -0.85,-16.85 -0.28,-23.62 0.36,-4.25 2.7,-66.07 2.25,-75.94 -1.17,-25.54 -3.06,-29.49 -6.31,-52.27 -1.49,-10.4 -9.89,-18.19 -13.41,-27.79 -1.73,-4.71 -0.03,-11.83 -2.62,-15.73 -1.68,-2.54 -5.22,-1.29 -6.63,-5.67 -0.59,-1.84 -0.46,-3.57 0.17,-5.17 -1.13,-1.28 -5.9,-3.15 -7.5,-4.07 -5.68,-3.26 -8.89,-11.84 -15.08,-14.22 -3.09,-1.19 -8.3,0.61 -10.85,2.4 -4.84,3.4 -21.62,2.99 -17.36,1.52 8.39,-2.9 11.48,3.3 9.7,-6.89 -0.43,-2.47 -2.13,-4.39 -3,-6.51 -1.79,-4.36 0.3,-9.35 -3.37,-13.17 -2.2,-2.3 -9.45,-6.01 -9.45,-6.01 0,0 10.87,3.12 12.94,6.39 3.57,5.64 0.76,13.22 6.45,17.88 5.75,4.71 12.34,-3.55 18.22,0.18 6.42,4.07 12.52,9.24 19.74,12.01 2.09,0.8 5.36,0.68 6.45,3.09 2.99,-2.02 6.23,-3.57 8.34,-4.61 2.83,-1.4 12.61,-5.12 15.05,-7.13 0.5,-0.41 1.82,-0.65 3.39,-0.75 0.23,-0.98 0.45,-1.93 0.65,-2.83 1.7,-7.8 -0.89,-16.18 -0.34,-24.14 0.31,-4.43 2.84,-7.38 3.61,-11.39 0.56,-2.93 -0.28,-6.39 0.09,-9.75 0.51,-4.58 3.67,-10.18 4.31,-14.94 0.38,-2.83 -3.17,-18.51 -2.37,-21.7 0.64,-2.51 3,11.72 3.61,14.26 3.95,16.42 -3.29,31.65 -4.5,46.99 -0.28,3.58 0.82,7.55 2.08,10.93 1.85,4.95 3.53,9.64 4.12,14.1 6.84,2.7 7.77,7.22 15.57,8.03 5.97,0.62 15.9,-11.63 21.2,-16.85 4.13,-4.07 4.66,-1.58 10.46,-7.62 4.15,-4.33 0.81,-6.36 3.96,-10.09 4.84,-5.73 7.01,-4.98 9.67,-8.98 3.06,-4.6 1.6,-7.52 3.88,-12.56 0.88,-1.95 4.92,-3.97 4.86,-3.79 -0.69,1.86 -6.64,9.2 -5.06,11.12 0.86,1.05 2.96,3.7 3.47,3.45 5.77,-2.89 7.74,-5.2 10,-8.61 1.15,-1.74 7.85,-5.15 7.79,-5.07 -1.57,1.93 -3.42,3.35 -4.33,5.62 -1.98,4.92 -18.84,13.86 -23.37,16.73 -6.82,4.3 -2.26,4.83 -7.3,12.62 -1.78,2.75 -4.09,2.73 -6.29,5.32 -5.16,6.1 -5.62,4.64 -6.41,12.91 -0.07,0.68 1.45,2.7 2.35,2.66 9.03,-0.41 13.14,1.07 22.47,3.45"
         inkscape:export-filename="logo2.svg"
         inkscape:export-xdpi="96"
         inkscape:export-ydpi="96" />
      <g
         id="_180634458"
         data-name="180634458"
         transform="translate(-2004.03,-1178.1267)">
        <path
           id="_180634461"
           data-name="180634461"
           class="cls-3"
           d="m 2893.48,1678.03 c 10.93,6.44 21.69,13.36 31.63,21.52 4.41,3.61 8.17,8.12 12.53,11.77 6.34,5.3 13.21,11.77 21.39,13.15 10.92,1.84 23.75,-4.22 30.12,-14.01 2.29,-3.51 3.85,-8.58 4.98,-12.69 2.63,-9.56 2.89,-19.78 1.82,-29.63 -0.71,-6.54 -1.83,-13.05 -3.39,-19.41 -3.56,-14.45 -9.2,-29.39 -18.23,-40.85 -4.7,-5.94 -8.64,-12.53 -13.39,-18.47 -5.1,-6.41 -10.46,-12.58 -15.64,-18.91 -4.77,-5.84 -10.33,-10.65 -15.81,-15.65 -5.53,-5.03 -11.26,-10.17 -17.08,-14.56 -4.83,-3.63 -9.4,-7.92 -14.38,-11.22 -8.18,-5.42 -16.18,-11.44 -25.15,-15.39 -11.12,-4.94 -21.8,-10.87 -33.22,-15.18 -46.76,-17.7 -81.78,-13.35 -100.63,-9.72 -16.57,3.2 -33,13.3 -43.51,23.29 -9.24,8.78 -13.58,16.21 -17.7,20.92 -3.45,3.94 -7.06,6.87 -11.59,11.4 -6.3,6.31 -18.95,14.88 -29.61,21.09 -9.52,5.53 -18.98,9.55 -25.71,10.79 -8.02,1.49 -12.01,1.54 -16.66,0.93 0,0.71 0.01,1.11 0.02,1.15 -0.01,-0.76 4.17,1.14 4.56,1.56 1.83,1.97 3.4,4.55 4.88,6.83 2.35,3.62 4.17,7.59 5.97,11.54 1.44,3.16 2.46,6.71 4.21,9.69 1.51,2.56 3.52,4.97 5.16,7.51 2.61,4.02 9.12,6.57 12.11,9.06 0.55,0.46 0.98,0.92 1.25,1.38 6.4,11.31 9.98,19.91 16.48,26.24 4.2,4.08 11.29,5.33 21.07,10.53 5.39,2.87 6.56,5.11 13.3,5.83 7.6,0.81 15.25,0.73 22.86,0.18 13.45,-0.96 26.75,-3.39 40.15,-4.89 11.49,-1.28 23.09,-1.05 34.63,-1.05 11.33,0 22.69,1.57 34.01,0.51 9.9,-0.93 19.9,-3.62 29.84,-1.71 5.77,1.11 11.42,2.7 16.94,4.68 -1.53,-3.41 20.6,5.19 31.79,11.79 z" />
        <path
           id="_180634520"
           data-name="180634520"
           class="cls-3"
           d="m 2898.98,1605.92 c -9.38,-16.72 -28.6,-26.9 -43.71,-36.33 -24.15,-15.07 -52.33,-28.21 -80.79,-25.4 -24.08,2.37 -45.13,18.55 -61.69,36.66 -11.59,12.67 -23.33,24.98 -38.67,32.05 -14.71,6.77 -30.97,8.94 -46.82,9.2 l -0.22,0.04 c 2.5,1.48 4.74,2.79 5.52,4.16 l 2.42,3.17 c 13.23,1.76 25.1,3.95 38.12,-0.47 29.36,-9.96 49.37,-37.93 77.28,-50.85 26.87,-12.44 60.49,-5.35 86.3,5.86 15.32,6.66 35.68,12 45.41,28.18 1.17,1.95 1.53,3.77 1.32,5.45 l 17.18,-8.22 c -0.47,-1.2 -1.02,-2.38 -1.66,-3.51 z" />
        <path
           id="_180634523"
           data-name="180634523"
           class="cls-3"
           d="m 2625.89,1590.75 c 2.85,-2.62 7.71,-4.46 9.65,-5.01 7.07,-2 13.49,-5.59 20.07,-8.94 6.36,-3.24 13.17,-5.92 18.72,-10.72 5.13,-4.45 8.91,-10.4 13.88,-15.04 8.98,-8.37 16.07,-18.6 24.75,-27.26 16.9,-16.86 35.48,-22.22 57.97,-21.68 17.03,0.4 35.49,2.11 51.34,7.68 39.73,13.97 77.53,43.71 106.62,75.31 2.27,2.47 4.49,5.03 6.63,7.66 l 20.37,-9.74 c -10.53,-13.06 -19.09,-21.61 -29.4,-30.89 -10.8,-9.7 -24.06,-21.33 -41.35,-31.72 -19.97,-12 -47.82,-23.87 -69.57,-29.72 -15.9,-4.28 -31.29,-5.08 -45.46,-5.08 -28.55,0 -51.83,6.58 -70.88,22.67 -9.64,8.15 -17.41,20.91 -27.23,29.98 -22.09,20.39 -46.4,36.92 -69.23,38.89 0.64,0 1.24,0.02 1.68,-0.04 2.62,-0.31 6.83,-0.97 9.28,0.47 4.1,2.42 5.33,9.31 6.63,13.69 0.38,1.26 0.83,2.79 1.37,4.25 0.86,-1.8 2.85,-3.53 4.19,-4.77 z" />
        <path
           id="_180634522"
           data-name="180634522"
           class="cls-3"
           d="m 2629.9,1599.71 c 5.09,-0.36 12.03,-4.7 15.14,-5.95 10.98,-4.4 21.8,-10.11 31.55,-17.15 9.15,-6.6 15.6,-16.36 22.87,-25.11 11.03,-13.28 22.97,-26.38 37.78,-34.61 20.21,-11.23 47.14,-7.07 68.43,-1.92 23.89,5.77 45.24,19.15 66.9,30.86 13.5,7.29 24.11,17.87 35.39,28.57 4.71,4.47 10.66,8.41 14.32,14.3 1.65,2.65 2.62,5.67 3.61,8.66 l 9.62,-4.6 c -2.14,-2.63 -4.35,-5.19 -6.63,-7.66 -29.09,-31.6 -66.89,-61.34 -106.62,-75.31 -15.85,-5.57 -34.31,-7.28 -51.34,-7.68 -22.49,-0.53 -41.07,4.82 -57.97,21.68 -8.68,8.66 -15.76,18.88 -24.75,27.26 -4.97,4.63 -8.75,10.59 -13.88,15.04 -5.55,4.81 -12.36,7.49 -18.72,10.72 -6.58,3.35 -13,6.95 -20.07,8.94 -1.94,0.55 -6.8,2.39 -9.65,5.01 -1.34,1.24 -3.33,2.96 -4.19,4.77 0.44,1.2 0.94,2.37 1.5,3.31 0.24,0.4 0.49,0.78 0.75,1.13 1.89,0.19 4.72,-0.16 5.95,-0.25 z" />
        <path
           id="_180634521"
           data-name="180634521"
           class="cls-3"
           d="m 2674.12,1612.91 c 15.34,-7.07 27.08,-19.38 38.67,-32.05 16.56,-18.11 37.61,-34.29 61.69,-36.66 28.45,-2.8 56.63,10.33 80.79,25.4 15.11,9.43 34.33,19.61 43.71,36.33 0.64,1.14 1.19,2.31 1.66,3.51 l 25.26,-12.08 c -0.99,-2.99 -1.96,-6.01 -3.61,-8.66 -3.66,-5.89 -9.61,-9.84 -14.32,-14.3 -11.28,-10.7 -21.89,-21.27 -35.39,-28.57 -21.66,-11.71 -43.02,-25.08 -66.9,-30.86 -21.29,-5.14 -48.22,-9.3 -68.43,1.92 -14.81,8.23 -26.76,21.32 -37.78,34.61 -7.27,8.76 -13.72,18.51 -22.87,25.11 -9.75,7.04 -20.57,12.75 -31.55,17.15 -3.11,1.25 -10.05,5.59 -15.14,5.95 -1.22,0.09 -4.06,0.45 -5.95,0.25 2.13,2.89 4.78,4.35 4.24,8.75 -0.49,4.04 -2.89,5.84 -6.58,5.71 -1.97,-0.07 -3.66,-1.15 -5.12,-2.75 0.88,1.4 1.79,2.8 2.69,4.19 1.68,2.58 4.96,4.55 7.89,6.28 l 0.22,-0.04 c 15.86,-0.26 32.12,-2.43 46.82,-9.2 z" />
        <path
           id="_180634516"
           data-name="180634516"
           class="cls-3"
           d="m 2900.64,1609.44 -17.18,8.22 c -0.63,5.01 -6.33,8.71 -10.54,10.67 -1.77,0.82 -3.53,1.42 -5.29,1.81 l 34.38,-5.18 c 1.1,-4.89 0.61,-10.43 -1.38,-15.52 z" />
        <path
           id="_180634519"
           data-name="180634519"
           class="cls-3"
           d="m 2942.04,1601.39 c 3.57,5.11 6.88,10.47 9.86,16.05 l 26.39,-3.98 c -0.81,-1.31 -1.61,-2.53 -2.4,-3.64 -7.71,-10.92 -14.17,-19.56 -20.01,-26.81 l -20.37,9.74 c 2.27,2.8 4.46,5.68 6.53,8.64 z" />
        <path
           id="_180634518"
           data-name="180634518"
           class="cls-3"
           d="m 2935.51,1592.75 -9.62,4.6 c 1.37,4.17 2.77,8.3 6.02,11.34 3.41,3.19 6.66,6.56 9.64,10.18 -0.13,-0.46 -0.25,-0.95 -0.37,-1.45 0.11,0.5 0.24,0.99 0.37,1.45 0.03,0.03 0.06,0.07 0.08,0.1 l 10.26,-1.55 c -2.98,-5.57 -6.29,-10.94 -9.86,-16.05 -2.07,-2.96 -4.25,-5.84 -6.53,-8.64 z" />
        <path
           id="_180634517"
           data-name="180634517"
           class="cls-3"
           d="m 2931.91,1608.7 c -3.25,-3.04 -4.65,-7.17 -6.02,-11.34 l -25.26,12.08 c 1.99,5.08 2.48,10.62 1.38,15.52 l 39.58,-5.96 c 0,0 -0.02,-0.07 -0.03,-0.11 -2.98,-3.63 -6.23,-6.99 -9.65,-10.18 z" />
        <path
           id="_180634511"
           data-name="180634511"
           class="cls-3"
           d="m 2887.6,1638.62 c 8.15,-1.2 12.86,-6.79 14.41,-13.67 l -34.38,5.18 c -1.43,0.32 -2.85,0.5 -4.27,0.57 -1.55,0.07 -3.1,0 -4.64,-0.21 l 1.98,0.76 c 7.49,3.31 18.48,8.61 26.89,7.37 z" />
        <path
           id="_180634513"
           data-name="180634513"
           class="cls-3"
           d="m 2944.66,1626.44 c 1.79,4.48 1.27,7.12 2.52,16.54 0.7,5.26 0.52,10.55 1.23,15.82 3.62,26.77 -37.31,6.98 -46.72,1.69 -7.4,-4.16 -15.62,-9.13 -23.71,-11.29 -8.06,-2.15 -20.46,-4.08 -27.68,-10.3 -0.65,-0.56 -1.67,-1.13 -2.56,-1.74 1.97,1.88 3.81,3.89 5.48,6.06 6.19,8.05 12.56,6.47 21.25,9.76 14.64,5.54 28.22,13.84 42.9,19.4 12.5,4.74 30.58,14.78 36.45,-4.74 2.26,-7.5 -1.06,-11.82 -1.55,-19.09 -0.62,-9.18 0.62,-12.77 -4.41,-20.92 -1.89,-3.06 -3.97,-5.93 -6.21,-8.65 h -0.05 c 0.97,3.39 2.38,5.73 3.07,7.46 z" />
        <path
           id="_180634515"
           data-name="180634515"
           class="cls-3"
           d="m 2992.98,1649.31 c -3.12,-13.23 -9.04,-26.71 -14.69,-35.85 l -26.39,3.98 c 3,5.6 5.67,11.4 7.95,17.35 4.41,11.49 12.05,24.03 11.07,36.99 -1.08,14.27 -12.71,28.98 -25.81,26.31 -12.51,-2.55 -28.33,-14.66 -39.57,-20.4 -12.31,-6.28 -22.65,-14.81 -35.86,-18.68 -7.18,-2.1 -14.97,-0.97 -21.9,-3.68 -6.29,-2.46 -11.33,-7.57 -16.07,-12.45 -5.55,-5.73 -10.95,-6.74 -17.1,-10.96 -2.76,-1.89 -6.7,-7.61 -5.72,-11.65 -2.28,5.92 4.37,12.91 7.81,16.03 8.14,7.35 13.72,13.86 17.99,24.35 7.17,0.98 14.15,1.75 21.26,3.3 2.44,0.53 4.45,1.85 6.94,2.31 2.79,0.52 5.53,0.9 8.28,1.66 10.02,2.76 18.99,7.82 27.9,13.39 2.14,1.34 4.29,2.65 6.51,3.81 6.07,3.18 11.82,8.36 17.18,12.76 12.25,10.05 23.01,24.45 38.99,26.73 6.87,0.98 14.63,-2.02 19.31,-5.69 10.13,-7.96 13.58,-19.09 14.75,-32.12 0.75,-8.35 0.35,-23.91 -2.85,-37.49 z" />
        <path
           id="_180634514"
           data-name="180634514"
           class="cls-3"
           d="m 2814.62,1631.91 c 6.16,4.22 11.55,5.23 17.1,10.96 4.73,4.89 9.77,9.99 16.07,12.45 6.92,2.71 14.71,1.58 21.9,3.68 13.21,3.87 23.55,12.4 35.86,18.68 11.24,5.74 27.06,17.85 39.57,20.4 13.1,2.67 24.72,-12.04 25.81,-26.31 0.98,-12.96 -6.65,-25.5 -11.07,-36.99 -2.28,-5.95 -4.96,-11.75 -7.95,-17.35 l -10.26,1.55 c 2.24,2.73 4.32,5.6 6.21,8.65 5.03,8.14 3.79,11.74 4.41,20.92 0.5,7.27 3.81,11.59 1.55,19.09 -5.88,19.52 -23.95,9.48 -36.45,4.74 -14.68,-5.56 -28.26,-13.86 -42.9,-19.4 -8.69,-3.29 -15.06,-1.71 -21.25,-9.76 -1.67,-2.17 -3.51,-4.18 -5.48,-6.06 -0.58,-0.4 -1.1,-0.81 -1.41,-1.25 0.32,0.44 0.84,0.86 1.41,1.25 -7.01,-6.7 -15.64,-11.76 -23.92,-16.72 -2.5,-1.5 -7.35,-4.34 -11,-3.77 -1.61,0.51 -2.86,1.45 -3.62,2.94 -0.11,0.21 -0.2,0.43 -0.29,0.65 -0.99,4.04 2.96,9.76 5.72,11.65 z" />
        <path
           id="_180634512"
           data-name="180634512"
           class="cls-3"
           d="m 2823.82,1620.44 c 8.29,4.95 16.91,10.02 23.92,16.72 0.89,0.61 1.92,1.19 2.56,1.74 7.22,6.22 19.62,8.15 27.68,10.3 8.08,2.16 16.31,7.14 23.71,11.29 9.41,5.28 50.35,25.08 46.72,-1.69 -0.71,-5.27 -0.54,-10.57 -1.23,-15.82 -1.25,-9.42 -0.72,-12.07 -2.52,-16.54 -0.69,-1.72 -2.1,-4.07 -3.07,-7.45 l -39.58,5.96 c -1.55,6.88 -6.26,12.47 -14.41,13.67 -8.41,1.24 -19.41,-4.06 -26.89,-7.37 l -1.98,-0.76 c -3.92,-0.51 -7.83,-1.83 -11.74,-3.7 -5.18,-2.47 -25.17,-13 -34.17,-10.12 3.65,-0.57 8.5,2.27 11,3.77 z" />
        <path
           id="_180634510"
           data-name="180634510"
           class="cls-3"
           d="m 2882.14,1612.2 c -9.73,-16.18 -30.09,-21.52 -45.41,-28.18 -25.81,-11.21 -59.44,-18.3 -86.3,-5.86 -27.91,12.92 -47.92,40.89 -77.28,50.85 -13.02,4.42 -24.89,2.23 -38.12,0.47 0.41,0.06 5.36,10.65 6.26,12.12 2.54,4.18 5.06,8.33 8.87,11.3 4.48,3.49 9.85,5.48 14.94,7.59 6.46,2.68 12.16,7.28 19.06,8.58 7.17,1.36 14.41,-0.44 21.62,-0.43 8.14,0 15.6,-1.65 23.71,-2.64 14.16,-1.72 30.53,-3.44 45.72,-3.59 10.6,-0.1 21.17,0.92 31.77,0.99 6.77,0.04 12.97,-0.66 19.64,-1.57 2.69,-0.37 5.46,-0.69 8.11,-1.19 -0.1,-0.24 -0.19,-0.47 -0.29,-0.7 -1.98,0.65 -2.48,-0.9 -3.55,-2.35 -12.49,-16.9 -35.16,-22.42 -54.36,-20.53 -3.52,0.35 -6.37,3.36 -9.98,3.05 -3.49,-0.3 -6.48,-1.29 -10.22,-1.29 -4.14,0 -8.27,-0.32 -12.4,0.14 -4.33,0.49 -8.2,1.07 -12.47,2.22 -7.02,1.89 -14.28,3.01 -21.11,5.64 -4.94,1.9 -12.53,5.73 -17.51,1.83 -4.09,-3.21 -1.82,-8.9 1.05,-12.13 5.25,-5.91 13.53,-8.14 20.22,-11.49 5.02,-2.51 10.16,-4.73 15.24,-7.07 4.14,-1.9 9.5,-3.38 13.26,-5.96 5.49,-3.77 12.21,-4.48 17.31,-9.28 3.33,-3.13 5.1,-9.4 8.96,-11.77 3.36,-2.06 9.43,0.22 12.7,1.8 5.9,2.85 11.45,3.01 17.77,3.45 5.68,0.39 11.06,1.56 16.25,4.21 9.15,4.66 18.91,8 27.91,12.89 6.47,3.52 15.35,7.92 19.99,14.07 -1.38,2.39 -3.48,3.1 -5.78,2.96 1.88,0.31 3.77,0.44 5.66,0.36 3.17,-0.14 6.35,-0.89 9.55,-2.38 5.61,-2.61 13.89,-8.35 9.22,-16.12 z" />
        <path
           id="_180634508"
           data-name="180634508"
           class="cls-3"
           d="m 2803.54,1608.59 c -3.18,-0.58 -6.32,0.13 -9.53,-0.58 -2.57,-0.57 -6.22,-2.4 -8.83,-2.04 -2.56,0.36 -3.68,3.34 -6.46,2.75 -1.91,-0.4 -2.59,-2.77 -4.8,-2.43 -2.53,0.39 -5.44,4.33 -7.81,5.49 -4.95,2.41 -9.7,5 -14.46,7.81 -7.68,4.54 -16.75,7.1 -24.8,10.85 -2.67,1.24 -5.06,2.81 -7.76,4.02 4.33,-1.94 9.91,-4.63 14.54,-5.22 1.85,-0.23 3.64,0.37 5.47,0.38 2.53,0.02 3.21,-0.9 5.34,-1.8 3.78,-1.59 5.16,-0.23 8.69,-0.04 3.2,0.18 5.76,-1.88 8.82,-2.24 2.18,-0.26 4.41,-0.08 6.68,-0.28 1.94,-0.17 3.66,0.28 5.65,0.23 7.97,-0.18 17.48,-1.17 25.07,1.69 2.27,0.85 4.51,1.9 6.8,2.77 6.25,2.37 9.42,6.04 14.3,10.91 2.55,2.55 5.31,5.02 7.71,7.76 -3.17,-4.41 -6.91,-8.25 -11.45,-12.35 -3.57,-3.23 -10.45,-10.78 -7.39,-16.82 2.65,-5.2 10.62,-3.89 19.34,-0.78 -0.8,-0.37 -1.59,-0.75 -2.38,-1.14 -7.78,-3.91 -14.16,-7.39 -22.75,-8.96 z" />
        <path
           id="_180634509"
           data-name="180634509"
           class="cls-3"
           d="m 2863.48,1627.38 c -4.64,-6.16 -13.51,-10.56 -19.99,-14.07 -9.01,-4.89 -18.77,-8.24 -27.91,-12.89 -5.19,-2.64 -10.56,-3.82 -16.25,-4.21 -6.32,-0.43 -11.88,-0.6 -17.77,-3.45 -3.27,-1.58 -9.34,-3.86 -12.7,-1.8 -3.86,2.37 -5.64,8.64 -8.96,11.77 -5.1,4.8 -11.82,5.51 -17.31,9.28 -3.76,2.58 -9.11,4.06 -13.26,5.96 -5.09,2.34 -10.22,4.56 -15.24,7.07 -6.69,3.35 -14.97,5.58 -20.22,11.49 -2.87,3.23 -5.14,8.93 -1.05,12.13 4.98,3.9 12.57,0.07 17.51,-1.83 6.84,-2.64 14.09,-3.75 21.11,-5.64 4.27,-1.15 8.13,-1.73 12.47,-2.22 4.13,-0.47 8.27,-0.14 12.4,-0.14 3.74,0 6.73,0.99 10.22,1.29 3.6,0.31 6.46,-2.71 9.98,-3.05 19.2,-1.89 41.87,3.63 54.36,20.53 1.07,1.45 1.57,3.01 3.55,2.35 -0.1,-0.24 -0.2,-0.48 -0.3,-0.71 -1.16,-1.67 -1.88,-3.61 -2.7,-5.47 -1.01,-1.81 -2.09,-3.5 -3.25,-5.12 -2.4,-2.75 -5.16,-5.21 -7.71,-7.76 -4.88,-4.88 -8.04,-8.55 -14.3,-10.91 -2.29,-0.87 -4.54,-1.91 -6.8,-2.77 -7.59,-2.86 -17.1,-1.87 -25.07,-1.69 -1.99,0.05 -3.71,-0.41 -5.65,-0.23 -2.28,0.2 -4.5,0.02 -6.68,0.28 -3.06,0.36 -5.61,2.42 -8.82,2.24 -3.53,-0.19 -4.91,-1.55 -8.69,0.04 -2.13,0.9 -2.81,1.82 -5.34,1.8 -1.83,-0.01 -3.62,-0.62 -5.47,-0.38 -4.63,0.58 -10.21,3.27 -14.54,5.22 2.71,-1.22 5.1,-2.78 7.76,-4.02 8.05,-3.75 17.12,-6.32 24.79,-10.85 4.75,-2.81 9.51,-5.4 14.46,-7.81 2.37,-1.16 5.28,-5.1 7.81,-5.49 2.21,-0.34 2.9,2.03 4.8,2.43 2.78,0.58 3.9,-2.39 6.46,-2.75 2.61,-0.36 6.26,1.46 8.83,2.04 3.21,0.72 6.35,0 9.53,0.58 8.58,1.57 14.96,5.04 22.75,8.96 0.79,0.4 1.58,0.78 2.38,1.14 3.58,1.27 7.12,2.8 10.19,4.21 2.73,1.08 5.45,2.18 8.12,3.44 1.69,0.8 4.05,2.11 6.52,3.02 1.4,0.42 2.81,0.76 4.21,0.99 2.3,0.14 4.4,-0.57 5.78,-2.96 z" />
        <path
           id="_180634505"
           data-name="180634505"
           class="cls-3"
           d="m 2613.7,1577.59 c -2.44,-1.44 -6.66,-0.78 -9.28,-0.47 -1.39,0.16 -4.3,-0.33 -5.29,0.96 -1.66,2.17 1.75,5 2.88,6.5 3.12,4.18 5.24,9.13 7.47,13.89 2.32,4.97 5.76,15.71 12.13,15.94 3.69,0.14 6.09,-1.67 6.58,-5.71 0.6,-4.93 -2.82,-6.17 -5,-9.88 -1.23,-2.09 -2.18,-5.25 -2.87,-7.56 -1.3,-4.37 -2.53,-11.27 -6.63,-13.69 z" />
        <path
           id="_180634609"
           data-name="180634609"
           class="cls-3"
           d="m 2632.23,1641.26 c 3.83,-4.16 -0.32,-17.07 1.31,-13.72 3.41,6.98 12.05,21.63 15.65,24.95 4.4,4.06 16.48,7.29 21.86,11.2 3,2.18 -14.58,6.35 -17.18,12.69 -2.67,6.52 -9.95,-4.06 -13.91,-7.96 -5.42,-5.34 -11.79,-4.5 -18.36,-7.3 -10.97,-4.67 -12.03,-15.82 0.25,-22.42 3.85,-2.39 6.65,2.76 10.11,2.58 0.09,0 0.2,0.04 0.26,-0.02 z" />
        <path
           id="_180634600"
           data-name="180634600"
           class="cls-3"
           d="m 2596.12,1754.15 c 1.87,-3.17 2.63,-6.54 3.55,-10.17 1,-3.94 0.98,-11.82 3.83,-17.15 3.21,-6 7.89,-8.64 12.06,-16.82 4.6,-12.42 5.59,-26.81 7.08,-29.76 3.63,-7.18 8.21,-13.19 14.14,-13.81 -4.67,-2.37 -10.55,-3.35 -15.17,-5.32 -11.04,-4.73 -12.08,-16.6 0.81,-22.4 3.19,-1.43 6.9,3.51 9.87,1.97 2.4,-1.24 1.39,-6.01 1.37,-8.28 -0.04,-4.73 -1.86,-7.55 -5.75,-9.77 -3.43,-1.95 -7.1,-4.29 -9.52,-7.67 -1.99,-2.77 -3.61,-5.79 -5.17,-8.86 -2.82,-5.54 -5.05,-11.52 -8.3,-16.79 -1.41,-2.29 -2.86,-4.64 -4.33,-6.87 -1.73,-2.64 -2.55,-4.23 -6.58,-3.74 0.54,5.53 0.21,16.72 0.26,21.45 0.08,6.82 0.16,13.65 0.24,20.47 0.09,7.9 0.49,40.65 0.59,49.12 0.1,8.38 0.2,16.75 0.3,25.13 0.09,7.68 0.18,15.35 0.28,23.03 0.08,6.41 0.15,12.81 0.23,19.21 0.05,4.04 0.69,16.19 0.21,17.02 z" />
        <g
           id="_180634458-2"
           data-name="180634458">
          <path
             id="_180634461-2"
             data-name="180634461"
             class="cls-3"
             d="m 2294.41,1677.96 c -10.93,6.44 -21.69,13.36 -31.63,21.52 -4.41,3.61 -8.17,8.12 -12.53,11.77 -6.34,5.3 -13.21,11.77 -21.39,13.15 -10.92,1.84 -23.75,-4.22 -30.12,-14.01 -2.29,-3.51 -3.85,-8.58 -4.98,-12.69 -2.63,-9.56 -2.89,-19.78 -1.82,-29.63 0.71,-6.54 1.83,-13.05 3.39,-19.41 3.56,-14.45 9.2,-29.39 18.23,-40.85 4.7,-5.94 8.64,-12.53 13.39,-18.47 5.1,-6.41 10.46,-12.58 15.64,-18.91 4.77,-5.84 10.33,-10.65 15.81,-15.65 5.53,-5.03 11.26,-10.17 17.08,-14.56 4.83,-3.63 9.4,-7.92 14.38,-11.22 8.18,-5.42 16.18,-11.44 25.15,-15.39 11.12,-4.94 21.8,-10.87 33.22,-15.18 46.76,-17.7 81.78,-13.35 100.63,-9.72 16.57,3.2 33,13.3 43.51,23.29 9.24,8.78 13.58,16.21 17.7,20.92 3.45,3.94 7.06,6.87 11.59,11.4 6.3,6.31 18.95,14.88 29.61,21.09 9.52,5.53 18.98,9.55 25.71,10.79 8.02,1.49 12.01,1.54 16.66,0.93 0,0.71 -0.01,1.11 -0.02,1.15 0.01,-0.76 -4.17,1.14 -4.56,1.56 -1.83,1.97 -3.4,4.55 -4.88,6.83 -2.35,3.62 -4.17,7.59 -5.97,11.54 -1.44,3.16 -2.46,6.71 -4.21,9.69 -1.51,2.56 -3.52,4.97 -5.16,7.51 -2.61,4.02 -9.12,6.57 -12.11,9.06 -0.55,0.46 -0.98,0.92 -1.25,1.38 -6.4,11.31 -9.98,19.91 -16.48,26.24 -4.2,4.08 -11.29,5.33 -21.07,10.53 -5.39,2.87 -6.56,5.11 -13.3,5.83 -7.6,0.81 -15.25,0.73 -22.86,0.18 -13.45,-0.96 -26.75,-3.39 -40.15,-4.89 -11.49,-1.28 -23.09,-1.05 -34.63,-1.05 -11.33,0 -22.69,1.57 -34.01,0.51 -9.9,-0.93 -19.9,-3.62 -29.84,-1.71 -5.77,1.11 -11.42,2.7 -16.94,4.68 1.53,-3.41 -20.6,5.19 -31.79,11.79 z" />
          <path
             id="_180634520-2"
             data-name="180634520"
             class="cls-3"
             d="m 2288.91,1605.85 c 9.38,-16.72 28.6,-26.9 43.71,-36.33 24.15,-15.07 52.33,-28.21 80.79,-25.4 24.08,2.37 45.13,18.55 61.69,36.66 11.59,12.67 23.33,24.98 38.67,32.05 14.71,6.77 30.97,8.94 46.82,9.2 l 0.22,0.04 c -2.5,1.48 -4.74,2.79 -5.52,4.16 l -2.42,3.17 c -13.23,1.76 -25.1,3.95 -38.12,-0.47 -29.36,-9.96 -49.37,-37.93 -77.28,-50.85 -26.87,-12.44 -60.49,-5.35 -86.3,5.86 -15.32,6.66 -35.68,12 -45.41,28.18 -1.17,1.95 -1.53,3.77 -1.32,5.45 l -17.18,-8.22 c 0.47,-1.2 1.02,-2.38 1.66,-3.51 z" />
          <path
             id="_180634523-2"
             data-name="180634523"
             class="cls-3"
             d="m 2562,1590.68 c -2.85,-2.62 -7.71,-4.46 -9.65,-5.01 -7.07,-2 -13.49,-5.59 -20.07,-8.94 -6.36,-3.24 -13.17,-5.92 -18.72,-10.72 -5.13,-4.45 -8.91,-10.4 -13.88,-15.04 -8.98,-8.37 -16.07,-18.6 -24.75,-27.26 -16.9,-16.86 -35.48,-22.22 -57.97,-21.68 -17.03,0.4 -35.49,2.11 -51.34,7.68 -39.73,13.97 -77.53,43.71 -106.62,75.31 -2.27,2.47 -4.49,5.03 -6.63,7.66 l -20.37,-9.74 c 10.53,-13.06 19.09,-21.61 29.4,-30.89 10.8,-9.7 24.06,-21.33 41.35,-31.72 19.97,-12 47.82,-23.87 69.57,-29.72 15.9,-4.28 31.29,-5.08 45.46,-5.08 28.55,0 51.83,6.58 70.88,22.67 9.64,8.15 17.41,20.91 27.23,29.98 22.09,20.39 46.4,36.92 69.23,38.89 -0.64,0 -1.24,0.02 -1.68,-0.04 -2.62,-0.31 -6.83,-0.97 -9.28,0.47 -4.1,2.42 -5.33,9.31 -6.63,13.69 -0.38,1.26 -0.83,2.79 -1.37,4.25 -0.86,-1.8 -2.85,-3.53 -4.19,-4.77 z" />
          <path
             id="_180634522-2"
             data-name="180634522"
             class="cls-3"
             d="m 2557.99,1599.64 c -5.09,-0.36 -12.03,-4.7 -15.14,-5.95 -10.98,-4.4 -21.8,-10.11 -31.55,-17.15 -9.15,-6.6 -15.6,-16.36 -22.87,-25.11 -11.03,-13.28 -22.97,-26.38 -37.78,-34.61 -20.21,-11.23 -47.14,-7.07 -68.43,-1.92 -23.89,5.77 -45.24,19.15 -66.9,30.86 -13.5,7.29 -24.11,17.87 -35.39,28.57 -4.71,4.47 -10.66,8.41 -14.32,14.3 -1.65,2.65 -2.62,5.67 -3.61,8.66 l -9.62,-4.6 c 2.14,-2.63 4.35,-5.19 6.63,-7.66 29.09,-31.6 66.89,-61.34 106.62,-75.31 15.85,-5.57 34.31,-7.28 51.34,-7.68 22.49,-0.53 41.07,4.82 57.97,21.68 8.68,8.66 15.76,18.88 24.75,27.26 4.97,4.63 8.75,10.59 13.88,15.04 5.55,4.81 12.36,7.49 18.72,10.72 6.58,3.35 13,6.95 20.07,8.94 1.94,0.55 6.8,2.39 9.65,5.01 1.34,1.24 3.33,2.96 4.19,4.77 -0.44,1.2 -0.94,2.37 -1.5,3.31 -0.24,0.4 -0.49,0.78 -0.75,1.13 -1.89,0.19 -4.72,-0.16 -5.95,-0.25 z" />
          <path
             id="_180634521-2"
             data-name="180634521"
             class="cls-3"
             d="m 2513.77,1612.83 c -15.34,-7.07 -27.08,-19.38 -38.67,-32.05 -16.56,-18.11 -37.61,-34.29 -61.69,-36.66 -28.45,-2.8 -56.63,10.33 -80.79,25.4 -15.11,9.43 -34.33,19.61 -43.71,36.33 -0.64,1.14 -1.19,2.31 -1.66,3.51 l -25.26,-12.08 c 0.99,-2.99 1.96,-6.01 3.61,-8.66 3.66,-5.89 9.61,-9.84 14.32,-14.3 11.28,-10.7 21.89,-21.27 35.39,-28.57 21.66,-11.71 43.02,-25.08 66.9,-30.86 21.29,-5.14 48.22,-9.3 68.43,1.92 14.81,8.23 26.76,21.32 37.78,34.61 7.27,8.76 13.72,18.51 22.87,25.11 9.75,7.04 20.57,12.75 31.55,17.15 3.11,1.25 10.05,5.59 15.14,5.95 1.22,0.09 4.06,0.45 5.95,0.25 -2.13,2.89 -4.78,4.35 -4.24,8.75 0.49,4.04 2.89,5.84 6.58,5.71 1.97,-0.07 3.66,-1.15 5.12,-2.75 -0.88,1.4 -1.79,2.8 -2.69,4.19 -1.68,2.58 -4.96,4.55 -7.89,6.28 l -0.22,-0.04 c -15.86,-0.26 -32.12,-2.43 -46.82,-9.2 z" />
          <path
             id="_180634516-2"
             data-name="180634516"
             class="cls-3"
             d="m 2287.25,1609.36 17.18,8.22 c 0.63,5.01 6.33,8.71 10.54,10.67 1.77,0.82 3.53,1.42 5.29,1.81 l -34.38,-5.18 c -1.1,-4.89 -0.61,-10.43 1.38,-15.52 z" />
          <path
             id="_180634519-2"
             data-name="180634519"
             class="cls-3"
             d="m 2245.85,1601.32 c -3.57,5.11 -6.88,10.47 -9.86,16.05 l -26.39,-3.98 c 0.81,-1.31 1.61,-2.53 2.4,-3.64 7.71,-10.92 14.17,-19.56 20.01,-26.81 l 20.37,9.74 c -2.27,2.8 -4.46,5.68 -6.53,8.64 z" />
          <path
             id="_180634518-2"
             data-name="180634518"
             class="cls-3"
             d="m 2252.38,1592.68 9.62,4.6 c -1.37,4.17 -2.77,8.3 -6.02,11.34 -3.41,3.19 -6.66,6.56 -9.64,10.18 0.13,-0.46 0.25,-0.95 0.37,-1.45 -0.11,0.5 -0.24,0.99 -0.37,1.45 -0.03,0.03 -0.06,0.07 -0.08,0.1 l -10.26,-1.55 c 2.98,-5.57 6.29,-10.94 9.86,-16.05 2.07,-2.96 4.25,-5.84 6.53,-8.64 z" />
          <path
             id="_180634517-2"
             data-name="180634517"
             class="cls-3"
             d="m 2255.98,1608.62 c 3.25,-3.04 4.65,-7.17 6.02,-11.34 l 25.26,12.08 c -1.99,5.08 -2.48,10.62 -1.38,15.52 l -39.58,-5.96 c 0,0 0.02,-0.07 0.03,-0.11 2.98,-3.63 6.23,-6.99 9.65,-10.18 z" />
          <path
             id="_180634511-2"
             data-name="180634511"
             class="cls-3"
             d="m 2300.29,1638.55 c -8.15,-1.2 -12.86,-6.79 -14.41,-13.67 l 34.38,5.18 c 1.43,0.32 2.85,0.5 4.27,0.57 1.55,0.07 3.1,0 4.64,-0.21 l -1.98,0.76 c -7.49,3.31 -18.48,8.61 -26.89,7.37 z" />
          <path
             id="_180634513-2"
             data-name="180634513"
             class="cls-3"
             d="m 2243.23,1626.36 c -1.79,4.48 -1.27,7.12 -2.52,16.54 -0.7,5.26 -0.52,10.55 -1.23,15.82 -3.62,26.77 37.31,6.98 46.72,1.69 7.4,-4.16 15.62,-9.13 23.71,-11.29 8.06,-2.15 20.46,-4.08 27.68,-10.3 0.65,-0.56 1.67,-1.13 2.56,-1.74 -1.97,1.88 -3.81,3.89 -5.48,6.06 -6.19,8.05 -12.56,6.47 -21.25,9.76 -14.64,5.54 -28.22,13.84 -42.9,19.4 -12.5,4.74 -30.58,14.78 -36.45,-4.74 -2.26,-7.5 1.06,-11.82 1.55,-19.09 0.62,-9.18 -0.62,-12.77 4.41,-20.92 1.89,-3.06 3.97,-5.93 6.21,-8.65 h 0.05 c -0.97,3.39 -2.38,5.73 -3.07,7.46 z" />
          <path
             id="_180634515-2"
             data-name="180634515"
             class="cls-3"
             d="m 2194.92,1649.24 c 3.12,-13.23 9.04,-26.71 14.69,-35.85 l 26.39,3.98 c -3,5.6 -5.67,11.4 -7.95,17.35 -4.41,11.49 -12.05,24.03 -11.07,36.99 1.08,14.27 12.71,28.98 25.81,26.31 12.51,-2.55 28.33,-14.66 39.57,-20.4 12.31,-6.28 22.65,-14.81 35.86,-18.68 7.18,-2.1 14.97,-0.97 21.9,-3.68 6.29,-2.46 11.33,-7.57 16.07,-12.45 5.55,-5.73 10.95,-6.74 17.1,-10.96 2.76,-1.89 6.7,-7.61 5.72,-11.65 2.28,5.92 -4.37,12.91 -7.81,16.03 -8.14,7.35 -13.72,13.86 -17.99,24.35 -7.17,0.98 -14.15,1.75 -21.26,3.3 -2.44,0.53 -4.45,1.85 -6.94,2.31 -2.79,0.52 -5.53,0.9 -8.28,1.66 -10.02,2.76 -18.99,7.82 -27.9,13.39 -2.14,1.34 -4.29,2.65 -6.51,3.81 -6.07,3.18 -11.82,8.36 -17.18,12.76 -12.25,10.05 -23.01,24.45 -38.99,26.73 -6.87,0.98 -14.63,-2.02 -19.31,-5.69 -10.13,-7.96 -13.58,-19.09 -14.75,-32.12 -0.75,-8.35 -0.35,-23.91 2.85,-37.49 z" />
          <path
             id="_180634514-2"
             data-name="180634514"
             class="cls-3"
             d="m 2373.27,1631.84 c -6.16,4.22 -11.55,5.23 -17.1,10.96 -4.73,4.89 -9.77,9.99 -16.07,12.45 -6.92,2.71 -14.71,1.58 -21.9,3.68 -13.21,3.87 -23.55,12.4 -35.86,18.68 -11.24,5.74 -27.06,17.85 -39.57,20.4 -13.1,2.67 -24.72,-12.04 -25.81,-26.31 -0.98,-12.96 6.65,-25.5 11.07,-36.99 2.28,-5.95 4.96,-11.75 7.95,-17.35 l 10.26,1.55 c -2.24,2.73 -4.32,5.6 -6.21,8.65 -5.03,8.14 -3.79,11.74 -4.41,20.92 -0.5,7.27 -3.81,11.59 -1.55,19.09 5.88,19.52 23.95,9.48 36.45,4.74 14.68,-5.56 28.26,-13.86 42.9,-19.4 8.69,-3.29 15.06,-1.71 21.25,-9.76 1.67,-2.17 3.51,-4.18 5.48,-6.06 0.58,-0.4 1.1,-0.81 1.41,-1.25 -0.32,0.44 -0.84,0.86 -1.41,1.25 7.01,-6.7 15.64,-11.76 23.92,-16.72 2.5,-1.5 7.35,-4.34 11,-3.77 1.61,0.51 2.86,1.45 3.62,2.94 0.11,0.21 0.2,0.43 0.29,0.65 0.99,4.04 -2.96,9.76 -5.72,11.65 z" />
          <path
             id="_180634512-2"
             data-name="180634512"
             class="cls-3"
             d="m 2364.08,1620.37 c -8.29,4.95 -16.91,10.02 -23.92,16.72 -0.89,0.61 -1.92,1.19 -2.56,1.74 -7.22,6.22 -19.62,8.15 -27.68,10.3 -8.08,2.16 -16.31,7.14 -23.71,11.29 -9.41,5.28 -50.35,25.08 -46.72,-1.69 0.71,-5.27 0.54,-10.57 1.23,-15.82 1.25,-9.42 0.72,-12.07 2.52,-16.54 0.69,-1.72 2.1,-4.07 3.07,-7.45 l 39.58,5.96 c 1.55,6.88 6.26,12.47 14.41,13.67 8.41,1.24 19.41,-4.06 26.89,-7.37 l 1.98,-0.76 c 3.92,-0.51 7.83,-1.83 11.74,-3.7 5.18,-2.47 25.17,-13 34.17,-10.12 -3.65,-0.57 -8.5,2.27 -11,3.77 z" />
          <path
             id="_180634510-2"
             data-name="180634510"
             class="cls-3"
             d="m 2305.75,1612.13 c 9.73,-16.18 30.09,-21.52 45.41,-28.18 25.81,-11.21 59.44,-18.3 86.3,-5.86 27.91,12.92 47.92,40.89 77.28,50.85 13.02,4.42 24.89,2.23 38.12,0.47 -0.41,0.06 -5.36,10.65 -6.26,12.12 -2.54,4.18 -5.06,8.33 -8.87,11.3 -4.48,3.49 -9.85,5.48 -14.94,7.59 -6.46,2.68 -12.16,7.28 -19.06,8.58 -7.17,1.36 -14.41,-0.44 -21.62,-0.43 -8.14,0 -15.6,-1.65 -23.71,-2.64 -14.16,-1.72 -30.53,-3.44 -45.72,-3.59 -10.6,-0.1 -21.17,0.92 -31.77,0.99 -6.77,0.04 -12.97,-0.66 -19.64,-1.57 -2.69,-0.37 -5.46,-0.69 -8.11,-1.19 0.1,-0.24 0.19,-0.47 0.29,-0.7 1.98,0.65 2.48,-0.9 3.55,-2.35 12.49,-16.9 35.16,-22.42 54.36,-20.53 3.52,0.35 6.37,3.36 9.98,3.05 3.49,-0.3 6.48,-1.29 10.22,-1.29 4.14,0 8.27,-0.32 12.4,0.14 4.33,0.49 8.2,1.07 12.47,2.22 7.02,1.89 14.28,3.01 21.11,5.64 4.94,1.9 12.53,5.73 17.51,1.83 4.09,-3.21 1.82,-8.9 -1.05,-12.13 -5.25,-5.91 -13.53,-8.14 -20.22,-11.49 -5.02,-2.51 -10.16,-4.73 -15.24,-7.07 -4.14,-1.9 -9.5,-3.38 -13.26,-5.96 -5.49,-3.77 -12.21,-4.48 -17.31,-9.28 -3.33,-3.13 -5.1,-9.4 -8.96,-11.77 -3.36,-2.06 -9.43,0.22 -12.7,1.8 -5.9,2.85 -11.45,3.01 -17.77,3.45 -5.68,0.39 -11.06,1.56 -16.25,4.21 -9.15,4.66 -18.91,8 -27.91,12.89 -6.47,3.52 -15.35,7.92 -19.99,14.07 1.38,2.39 3.48,3.1 5.78,2.96 -1.88,0.31 -3.77,0.44 -5.66,0.36 -3.17,-0.14 -6.35,-0.89 -9.55,-2.38 -5.61,-2.61 -13.89,-8.35 -9.22,-16.12 z" />
          <path
             id="_180634508-2"
             data-name="180634508"
             class="cls-3"
             d="m 2384.35,1608.51 c 3.18,-0.58 6.32,0.13 9.53,-0.58 2.57,-0.57 6.22,-2.4 8.83,-2.04 2.56,0.36 3.68,3.34 6.46,2.75 1.91,-0.4 2.59,-2.77 4.8,-2.43 2.53,0.39 5.44,4.33 7.81,5.49 4.95,2.41 9.7,5 14.46,7.81 7.68,4.54 16.75,7.1 24.8,10.85 2.67,1.24 5.06,2.81 7.76,4.02 -4.33,-1.94 -9.91,-4.63 -14.54,-5.22 -1.85,-0.23 -3.64,0.37 -5.47,0.38 -2.53,0.02 -3.21,-0.9 -5.34,-1.8 -3.78,-1.59 -5.16,-0.23 -8.69,-0.04 -3.2,0.18 -5.76,-1.88 -8.82,-2.24 -2.18,-0.26 -4.41,-0.08 -6.68,-0.28 -1.94,-0.17 -3.66,0.28 -5.65,0.23 -7.97,-0.18 -17.48,-1.17 -25.07,1.69 -2.27,0.85 -4.51,1.9 -6.8,2.77 -6.25,2.37 -9.42,6.04 -14.3,10.91 -2.55,2.55 -5.31,5.02 -7.71,7.76 3.17,-4.41 6.91,-8.25 11.45,-12.35 3.57,-3.23 10.45,-10.78 7.39,-16.82 -2.65,-5.2 -10.62,-3.89 -19.34,-0.78 0.8,-0.37 1.59,-0.75 2.38,-1.14 7.78,-3.91 14.16,-7.39 22.75,-8.96 z" />
          <path
             id="_180634509-2"
             data-name="180634509"
             class="cls-3"
             d="m 2324.41,1627.31 c 4.64,-6.16 13.51,-10.56 19.99,-14.07 9.01,-4.89 18.77,-8.24 27.91,-12.89 5.19,-2.64 10.56,-3.82 16.25,-4.21 6.32,-0.43 11.88,-0.6 17.77,-3.45 3.27,-1.58 9.34,-3.86 12.7,-1.8 3.86,2.37 5.64,8.64 8.96,11.77 5.1,4.8 11.82,5.51 17.31,9.28 3.76,2.58 9.11,4.06 13.26,5.96 5.09,2.34 10.22,4.56 15.24,7.07 6.69,3.35 14.97,5.58 20.22,11.49 2.87,3.23 5.14,8.93 1.05,12.13 -4.98,3.9 -12.57,0.07 -17.51,-1.83 -6.84,-2.64 -14.09,-3.75 -21.11,-5.64 -4.27,-1.15 -8.13,-1.73 -12.47,-2.22 -4.13,-0.47 -8.27,-0.14 -12.4,-0.14 -3.74,0 -6.73,0.99 -10.22,1.29 -3.6,0.31 -6.46,-2.71 -9.98,-3.05 -19.2,-1.89 -41.87,3.63 -54.36,20.53 -1.07,1.45 -1.57,3.01 -3.55,2.35 0.1,-0.24 0.2,-0.48 0.3,-0.71 1.16,-1.67 1.88,-3.61 2.7,-5.47 1.01,-1.81 2.09,-3.5 3.25,-5.12 2.4,-2.75 5.16,-5.21 7.71,-7.76 4.88,-4.88 8.04,-8.55 14.3,-10.91 2.29,-0.87 4.54,-1.91 6.8,-2.77 7.59,-2.86 17.1,-1.87 25.07,-1.69 1.99,0.05 3.71,-0.41 5.65,-0.23 2.28,0.2 4.5,0.02 6.68,0.28 3.06,0.36 5.61,2.42 8.82,2.24 3.53,-0.19 4.91,-1.55 8.69,0.04 2.13,0.9 2.81,1.82 5.34,1.8 1.83,-0.01 3.62,-0.62 5.47,-0.38 4.63,0.58 10.21,3.27 14.54,5.22 -2.71,-1.22 -5.1,-2.78 -7.76,-4.02 -8.05,-3.75 -17.12,-6.32 -24.79,-10.85 -4.75,-2.81 -9.51,-5.4 -14.46,-7.81 -2.37,-1.16 -5.28,-5.1 -7.81,-5.49 -2.21,-0.34 -2.9,2.03 -4.8,2.43 -2.78,0.58 -3.9,-2.39 -6.46,-2.75 -2.61,-0.36 -6.26,1.46 -8.83,2.04 -3.21,0.72 -6.35,0 -9.53,0.58 -8.58,1.57 -14.96,5.04 -22.75,8.96 -0.79,0.4 -1.58,0.78 -2.38,1.14 -3.58,1.27 -7.12,2.8 -10.19,4.21 -2.73,1.08 -5.45,2.18 -8.12,3.44 -1.69,0.8 -4.05,2.11 -6.52,3.02 -1.4,0.42 -2.81,0.76 -4.21,0.99 -2.3,0.14 -4.4,-0.57 -5.78,-2.96 z" />
          <path
             id="_180634505-2"
             data-name="180634505"
             class="cls-3"
             d="m 2574.19,1577.51 c 2.44,-1.44 6.66,-0.78 9.28,-0.47 1.39,0.16 4.3,-0.33 5.29,0.96 1.66,2.17 -1.75,5 -2.88,6.5 -3.12,4.18 -5.24,9.13 -7.47,13.89 -2.32,4.97 -5.76,15.71 -12.13,15.94 -3.69,0.14 -6.09,-1.67 -6.58,-5.71 -0.6,-4.93 2.82,-6.17 5,-9.88 1.23,-2.09 2.18,-5.25 2.87,-7.56 1.3,-4.37 2.53,-11.27 6.63,-13.69 z" />
          <path
             id="_180634609-2"
             data-name="180634609"
             class="cls-3"
             d="m 2555.66,1641.18 c -3.83,-4.16 0.32,-17.07 -1.31,-13.72 -3.41,6.98 -12.05,21.63 -15.65,24.95 -4.4,4.06 -16.48,7.29 -21.86,11.2 -3,2.18 14.58,6.35 17.18,12.69 2.67,6.52 9.95,-4.06 13.91,-7.96 5.42,-5.34 11.79,-4.5 18.36,-7.3 10.97,-4.67 12.03,-15.82 -0.25,-22.42 -3.85,-2.39 -6.65,2.76 -10.11,2.58 -0.09,0 -0.2,0.04 -0.26,-0.02 z" />
          <path
             id="_180634600-2"
             data-name="180634600"
             class="cls-3"
             d="m 2591.77,1754.07 c -1.87,-3.17 -2.63,-6.54 -3.55,-10.17 -1,-3.94 -0.98,-11.82 -3.83,-17.15 -3.21,-6 -7.89,-8.64 -12.06,-16.82 -4.6,-12.42 -5.59,-26.81 -7.08,-29.76 -3.63,-7.18 -8.21,-13.19 -14.14,-13.81 4.67,-2.37 10.55,-3.35 15.17,-5.32 11.04,-4.73 12.08,-16.6 -0.81,-22.4 -3.19,-1.43 -6.9,3.51 -9.87,1.97 -2.4,-1.24 -1.39,-6.01 -1.37,-8.28 0.04,-4.73 1.86,-7.55 5.75,-9.77 3.43,-1.95 7.1,-4.29 9.52,-7.67 1.99,-2.77 3.61,-5.79 5.17,-8.86 2.82,-5.54 5.05,-11.52 8.3,-16.79 1.41,-2.29 2.86,-4.64 4.33,-6.87 1.73,-2.64 2.55,-4.23 6.58,-3.74 -0.54,5.53 -0.21,16.72 -0.26,21.45 -0.08,6.82 -0.16,13.65 -0.24,20.47 -0.09,7.9 -0.49,40.65 -0.59,49.12 -0.1,8.38 -0.2,16.75 -0.3,25.13 -0.09,7.68 -0.18,15.35 -0.28,23.03 -0.08,6.41 -0.15,12.81 -0.23,19.21 -0.05,4.04 -0.69,16.19 -0.21,17.02 z" />
        </g>
        <g
           id="g38">
          <path
             class="cls-6"
             d="m 2546.62,1588.54 35.27,211.6"
             marker-end=""
             id="path1" />
          <path
             class="cls-6"
             d="m 2570.13,1588.54 11.76,211.6"
             marker-end=""
             id="path2" />
          <path
             class="cls-6"
             d="m 2558.37,1800.14 35.27,211.6"
             marker-end=""
             id="path3" />
          <path
             class="cls-6"
             d="m 2558.37,1800.14 58.78,211.6"
             marker-end=""
             id="path4" />
          <path
             class="cls-6"
             d="m 2581.88,1800.14 11.76,211.6"
             marker-end=""
             id="path5" />
          <path
             class="cls-6"
             d="m 2581.88,1800.14 35.27,211.6"
             marker-end=""
             id="path6" />
          <path
             class="cls-6"
             d="m 2593.64,1588.54 -11.76,211.6"
             marker-end=""
             id="path7" />
          <path
             class="cls-6"
             d="m 2617.15,1588.54 -35.27,211.6"
             marker-end=""
             id="path8" />
          <path
             class="cls-6"
             d="m 2640.66,1588.54 -58.78,211.6"
             marker-end=""
             id="path9" />
          <path
             class="cls-6"
             d="m 2546.62,1588.54 58.78,211.6"
             marker-end=""
             id="path10" />
          <path
             class="cls-6"
             d="m 2546.62,1588.54 82.29,211.6"
             marker-end=""
             id="path11" />
          <path
             class="cls-6"
             d="m 2570.13,1588.54 35.27,211.6"
             marker-end=""
             id="path12" />
          <path
             class="cls-6"
             d="m 2570.13,1588.54 58.78,211.6"
             marker-end=""
             id="path13" />
          <path
             class="cls-6"
             d="m 2593.64,1588.54 11.76,211.6"
             marker-end=""
             id="path14" />
          <path
             class="cls-6"
             d="m 2593.64,1588.54 35.27,211.6"
             marker-end=""
             id="path15" />
          <path
             class="cls-6"
             d="m 2617.15,1588.54 -11.76,211.6"
             marker-end=""
             id="path16" />
          <path
             class="cls-6"
             d="m 2617.15,1588.54 11.76,211.6"
             marker-end=""
             id="path17" />
          <path
             class="cls-6"
             d="m 2640.66,1588.54 -35.27,211.6"
             marker-end=""
             id="path18" />
          <path
             class="cls-6"
             d="m 2640.66,1588.54 -11.76,211.6"
             marker-end=""
             id="path19" />
          <path
             class="cls-6"
             d="m 2605.39,1800.14 -11.76,211.6"
             marker-end=""
             id="path20" />
          <path
             class="cls-6"
             d="m 2605.39,1800.14 11.76,211.6"
             marker-end=""
             id="path21" />
          <path
             class="cls-6"
             d="m 2628.91,1800.14 -35.27,211.6"
             marker-end=""
             id="path22" />
          <path
             class="cls-6"
             d="m 2628.91,1800.14 -11.76,211.6"
             marker-end=""
             id="path23" />
          <path
             class="cls-6"
             d="m 2570.13,2011.73 36.44,211.6"
             marker-end=""
             id="path24" />
          <path
             class="cls-6"
             d="m 2593.64,2011.73 12.93,211.6"
             marker-end=""
             id="path25" />
          <path
             class="cls-6"
             d="m 2617.15,2011.73 -10.58,211.6"
             marker-end=""
             id="path26" />
          <path
             class="cls-6"
             d="m 2546.62,1588.54 11.76,211.6"
             marker-end=""
             id="path27" />
          <path
             class="cls-6"
             d="m 2570.13,1588.54 -11.76,211.6"
             marker-end=""
             id="path28" />
          <path
             class="cls-6"
             d="m 2593.64,1588.54 -35.27,211.6"
             marker-end=""
             id="path29" />
          <path
             class="cls-6"
             d="m 2617.15,1588.54 -58.78,211.6"
             marker-end=""
             id="path30" />
          <path
             class="cls-6"
             d="m 2640.66,1588.54 -82.29,211.6"
             marker-end=""
             id="path31" />
          <path
             class="cls-6"
             d="m 2558.37,1800.14 11.76,211.6"
             marker-end=""
             id="path32" />
          <path
             class="cls-6"
             d="m 2581.88,1800.14 -11.76,211.6"
             marker-end=""
             id="path33" />
          <path
             class="cls-6"
             d="m 2605.39,1800.14 -35.27,211.6"
             marker-end=""
             id="path34" />
          <path
             class="cls-6"
             d="m 2628.91,1800.14 -58.78,211.6"
             marker-end=""
             id="path35" />
          <path
             class="cls-6"
             d="m 2570.13,2011.73 10.58,211.6"
             marker-end=""
             id="path36" />
          <path
             class="cls-6"
             d="m 2593.64,2011.73 -12.93,211.6"
             marker-end=""
             id="path37" />
          <path
             class="cls-6"
             d="m 2617.15,2011.73 -36.44,211.6"
             marker-end=""
             id="path38" />
          <circle
             id="_0_0"
             data-name="0_0"
             class="cls-6"
             cx="2546.6201"
             cy="1588.54"
             r="9.9899998" />
          <circle
             id="_0_1"
             data-name="0_1"
             class="cls-6"
             cx="2570.1299"
             cy="1588.54"
             r="9.9899998" />
          <circle
             id="_0_2"
             data-name="0_2"
             class="cls-6"
             cx="2593.6399"
             cy="1588.54"
             r="9.9899998" />
          <circle
             id="_0_3"
             data-name="0_3"
             class="cls-6"
             cx="2617.1499"
             cy="1588.54"
             r="9.9899998" />
          <circle
             id="_0_4"
             data-name="0_4"
             class="cls-6"
             cx="2640.6599"
             cy="1588.54"
             r="9.9899998" />
          <circle
             id="_1_0"
             data-name="1_0"
             class="cls-6"
             cx="2558.3701"
             cy="1800.14"
             r="9.9899998" />
          <circle
             id="_1_1"
             data-name="1_1"
             class="cls-6"
             cx="2581.8799"
             cy="1800.14"
             r="9.9899998" />
          <circle
             id="_1_2"
             data-name="1_2"
             class="cls-6"
             cx="2605.3899"
             cy="1800.14"
             r="9.9899998" />
          <circle
             id="_1_3"
             data-name="1_3"
             class="cls-6"
             cx="2628.9099"
             cy="1800.14"
             r="9.9899998" />
          <circle
             id="_2_0"
             data-name="2_0"
             class="cls-6"
             cx="2570.1299"
             cy="2011.73"
             r="9.9899998" />
          <circle
             id="_2_1"
             data-name="2_1"
             class="cls-6"
             cx="2593.6399"
             cy="2011.73"
             r="9.9899998" />
          <circle
             id="_2_2"
             data-name="2_2"
             class="cls-6"
             cx="2617.1499"
             cy="2011.73"
             r="9.9899998" />
          <circle
             id="_3_0"
             data-name="3_0"
             class="cls-6"
             cx="2580.71"
             cy="2223.3301"
             r="9.9899998" />
          <circle
             id="_3_1"
             data-name="3_1"
             class="cls-6"
             cx="2606.5701"
             cy="2223.3301"
             r="9.9899998" />
        </g>
      </g>
      <g
         class="cls-7"
         id="g107"
         transform="translate(-2004.03,-1178.1267)">
        <path
           class="cls-2"
           d="m 2574.82,2210.58 h -0.12 l 0.48,-0.14 0.37,-0.32 0.56,-0.61 0.78,-0.98 1.05,-1.42 3.59,-4.97 3.8,-5.22 7.96,-11.12 8.01,-11.96 7.57,-12.71 3.46,-6.59 3.17,-6.75 2.81,-6.87 2.4,-6.99 1.9,-7.1 1.35,-7.2 0.76,-7.28 0.07,-7.35 -3.01,-0.04 -3.84,0.06 -4.53,0.12 -5.11,0.18 -5.53,0.22 -5.85,0.25 -12.1,0.5 -11.81,0.41 -5.47,0.14 -5.01,0.06 -4.43,-0.03 -3.7,-0.12 -2.86,-0.25 -1.89,-0.37 -1.25,-0.55 -0.99,-0.7 -0.7,-0.78 -0.34,-0.8 0.03,-0.73 0.48,-0.59 0.96,-0.4 1.5,-0.12 2.01,0.43 2.93,0.28 3.74,0.14 4.45,0.04 5.01,-0.06 5.45,-0.11 11.78,-0.33 12.13,-0.29 5.89,-0.08 h 5.62 l 5.23,0.11 4.69,0.22 4.07,0.37 3.3,0.54 -0.21,-2.96 -0.1,-2.89 -0.1,-0.78 -0.18,-1.09 -0.59,-2.96 -0.83,-3.69 -0.95,-4.05 -0.99,-4.06 -0.95,-3.7 -0.81,-2.99 -0.33,-1.12 -0.26,-0.8 -0.18,-0.45 -0.32,-0.72 -0.99,-2.22 -1.42,-3.1 -1.79,-3.83 -2.08,-4.42 -2.3,-4.86 -4.98,-10.43 -5.01,-10.41 -2.34,-4.82 -2.13,-4.35 -1.86,-3.76 -1.51,-3 -0.59,-1.17 -0.5,-0.94 -0.37,-0.66 -0.23,-0.39 v -0.33 c 0,0 -0.08,-0.69 -0.08,-0.69 l -0.22,-1.93 -0.25,-1.93 -0.1,-0.67 -0.06,-0.3 2.48,-5.22 -3.26,4.03 -0.43,0.15 -0.55,-0.14 -0.67,-0.43 -0.77,-0.67 -1.79,-1.95 -2.05,-2.6 -4.45,-6.18 -2.18,-3.12 -2.01,-2.84 -5.44,-7.54 -5.18,-7.25 -4.89,-6.99 -4.61,-6.75 -4.31,-6.51 -4.01,-6.33 -3.72,-6.15 -3.39,-6.02 -3.08,-5.89 -2.74,-5.78 -2.42,-5.73 -2.08,-5.67 -1.72,-5.66 -1.39,-5.64 -1.02,-5.69 -0.65,-5.73 -0.29,-5.81 0.1,-5.91 0.48,-6.04 0.87,-6.18 1.28,-6.36 1.67,-6.55 2.09,-6.77 2.51,-7.03 2.93,-7.3 3.36,-7.61 3.8,-7.92 4.25,-8.27 4.69,-8.63 5.15,-9.04 5.63,-9.46 6.08,-9.9 -5.33,-8.67 -5.36,-9.22 -5.31,-9.73 -5.23,-10.2 -5.07,-10.61 -4.86,-10.97 -4.58,-11.29 -4.24,-11.56 -3.85,-11.77 -3.4,-11.96 -2.88,-12.07 -2.3,-12.14 -1.67,-12.18 -0.96,-12.16 -0.21,-12.09 0.61,-11.96 0.36,-3.52 0.48,-3.83 1.46,-8 1,-3.87 1.23,-3.58 1.43,-3.15 1.69,-2.57 0.36,4.14 0.3,4.05 0.17,38.59 -0.14,8.18 -0.34,3.65 -0.12,3.85 0.34,8.27 1.09,8.92 1.75,9.44 2.34,9.8 2.86,10.05 3.29,10.15 3.68,10.12 3.98,9.94 4.2,9.64 4.35,9.2 4.43,8.6 4.43,7.9 4.38,7.05 4.24,6.06 2.04,2.62 1.98,2.33 0.78,1.18 0.91,1.82 0.77,1.98 0.62,1.56 0.23,0.44 0.17,0.1 0.96,-1.2 0.56,-1.34 0.23,-1.5 -0.1,-1.65 -0.37,-1.8 -0.63,-1.94 -1.89,-4.35 -2.53,-4.94 -2.9,-5.52 -3.03,-6.11 -2.89,-6.68 -1.49,-3.84 -1.65,-4.36 -1.78,-4.82 -1.89,-5.2 -3.92,-11.23 -3.95,-11.88 -3.73,-11.92 -1.69,-5.8 -1.57,-5.59 -1.38,-5.3 -1.17,-4.94 -0.94,-4.52 -0.66,-4.02 -1.05,-10.13 -0.36,-9.6 0.14,-9.24 0.47,-9.03 1.1,-18.13 0.28,-9.4 -0.15,-9.87 0.26,-1.06 0.32,-0.55 0.37,-0.12 0.4,0.26 0.43,0.59 0.45,0.87 0.89,2.31 1.57,5.42 0.51,2.2 0.14,0.77 0.07,0.5 v 2.45 c 0,0 -0.25,2.73 -0.25,2.73 l -0.32,3.33 -0.14,2.02 -0.11,2.31 -0.07,2.66 v 3.03 c 0,0 0.11,3.47 0.11,3.47 l 0.19,3.94 0.33,4.46 0.45,5.04 0.62,5.63 0.8,6.31 -0.04,2.34 0.19,1.8 0.15,2.2 0.37,5.19 0.84,5.58 0.73,2.68 0.99,2.48 h 19.95 l 9.03,0.03 8.38,0.04 7.75,0.04 7.1,0.07 6.46,0.07 5.81,0.07 5.16,0.08 4.52,0.1 3.84,0.1 3.19,0.1 2.52,0.1 1.86,0.1 1.18,0.1 0.52,0.1 -0.17,0.08 -0.84,0.08 -1.53,0.08 -2.2,0.07 -2.89,0.07 -3.58,0.06 -4.28,0.04 -4.97,0.03 h -5.69 c 0,0 -6.37,0.01 -6.37,0.01 h -7.08 c 0,0 -7.79,-0.06 -7.79,-0.06 l -8.51,-0.06 -9.21,-0.07 -9.94,-0.1 -10.66,-0.12 -0.8,1.07 -0.36,1.24 0.22,2.59 0.74,2.19 0.32,0.73 0.14,0.37 0.3,2.37 0.41,2.33 0.65,3.04 0.58,2.31 0.52,1.71 0.48,1.27 0.84,1.76 0.73,1.67 0.36,0.84 0.23,0.32 0.19,0.03 -0.19,0.52 -0.41,0.96 v 0.83 l 0.28,1.14 0.66,1.56 1.16,2.02 0.29,2.45 0.87,2.02 1.06,1.84 0.84,1.91 1.49,4.17 1.57,4.06 3.06,8.23 1.09,2.85 0.54,1.42 0.67,1.61 0.15,0.15 0.33,0.36 0.48,0.69 0.59,1.17 2.33,4.71 v 0.29 c 0,0 -0.04,0.65 -0.04,0.65 l 0.19,1.05 0.59,1.54 6.21,11.56 3.06,5.85 2.74,6.17 h 0.32 c 0,0 0.41,-0.29 0.41,-0.29 l 1.02,-1.16 1.21,-1.79 1.31,-2.18 2.55,-4.43 1.03,-1.76 0.76,-1.12 0.36,-0.03 0.7,-0.18 0.45,-0.33 0.54,-0.61 0.58,-0.95 0.62,-1.36 0.55,-0.25 0.51,-0.25 0.66,-0.47 0.8,-0.78 0.95,-1.18 1.06,-1.69 1.18,-2.3 0.76,-0.41 0.48,-0.76 0.28,-0.76 0.12,-0.39 8.03,-11.18 3.81,-5.74 3.73,-6.21 0.95,-1.75 0.47,-1.02 0.18,-0.51 0.06,-0.21 3.84,-7.42 3.59,-7.65 3.9,-7.93 1.87,-4.01 1.69,-4.31 0.67,-0.74 0.66,-1.03 1.28,-2.79 1.23,-3.51 1.14,-3.96 1.98,-8.14 0.8,-3.62 0.66,-2.95 0.59,-2.67 0.73,-3.52 0.85,-4.1 0.88,-4.42 0.89,-4.49 0.83,-4.27 0.73,-3.79 0.58,-3.04 v -1.17 c 0,0 0.29,-1.76 0.29,-1.76 l 0.26,-2.06 0.47,-4.82 0.52,-5.41 0.67,-5.59 0.95,-5.36 1.29,-4.69 0.83,-1.98 0.95,-1.67 1.1,-1.29 1.25,-0.88 -0.92,8.12 -0.69,7.98 -1,15.79 -1.16,15.89 -0.88,8.12 -1.2,8.3 -1.93,9.94 -2.4,9.62 -2.84,9.31 -3.25,9.02 -3.61,8.77 -3.95,8.51 -4.23,8.3 -4.5,8.11 -9.61,15.69 -10.21,15.18 -21.04,29.5 -10.23,14.68 -9.66,14.88 -4.53,7.56 -4.28,7.67 -3.98,7.82 -3.65,7.97 -3.3,8.15 -2.89,8.36 -2.46,8.58 -1.98,8.82 -1.49,9.1 -0.94,9.37 -0.34,9.71 0.26,10.04 0.62,6.42 1.12,6.31 1.56,6.15 1.94,6.03 2.31,5.86 2.63,5.7 2.9,5.53 3.14,5.34 6.84,10.08 7.3,9.18 7.42,8.23 3.66,3.72 3.58,3.44 0.59,0.28 0.99,0.33 0.99,0.33 0.61,0.29 3.47,3.4 2.88,3.33 2.75,3.54 3.06,3.96 0.69,-0.08 0.29,-0.4 -0.07,-0.67 -0.37,-0.92 -0.63,-1.1 -0.84,-1.25 -2.11,-2.75 -2.37,-2.84 -2.23,-2.53 -0.95,-1.05 -0.76,-0.85 -0.54,-0.61 -0.26,-0.3 -2.68,-3.85 -2.86,-4.19 -2.99,-4.49 -3.08,-4.76 -6.21,-10.17 -5.99,-10.85 -5.4,-11.25 -2.37,-5.7 -2.08,-5.69 -1.76,-5.66 -1.36,-5.59 -0.95,-5.49 -0.48,-5.36 -0.04,-6.91 0.43,-6.99 0.87,-7.02 1.28,-7.06 1.64,-7.03 1.97,-7.01 2.24,-6.94 2.51,-6.86 5.59,-13.33 6.13,-12.62 6.37,-11.72 3.17,-5.44 3.12,-5.13 0.58,-0.87 0.23,-0.29 4.64,-7.02 4.96,-6.9 10.57,-13.67 11.1,-13.92 5.62,-7.21 5.58,-7.46 5.48,-7.78 5.33,-8.15 5.12,-8.6 4.86,-9.11 4.54,-9.68 4.16,-10.3 3.73,-11.01 3.24,-11.76 2.53,-11.3 2.11,-11.56 1.57,-11.73 0.94,-11.81 0.21,-11.83 -0.59,-11.74 -1.53,-11.58 -1.13,-5.71 -1.39,-5.63 1.94,3.22 1.72,3.43 1.5,3.65 1.28,3.81 1.97,8.15 1.21,8.73 0.51,9.2 -0.11,9.54 -0.69,9.79 -1.2,9.9 -1.64,9.91 -2.02,9.82 -2.35,9.6 -2.6,9.26 -2.81,8.82 -2.93,8.27 -3.01,7.6 -3.03,6.81 -5.33,10.55 -5.73,10.04 -6.04,9.62 -6.29,9.32 -12.93,18.13 -12.89,18.12 -3.19,4.6 -3.41,4.85 -7.3,10.41 -7.59,11.21 -7.45,11.85 -6.94,12.36 -3.14,6.33 -2.86,6.39 -2.53,6.44 -2.15,6.48 -1.71,6.48 -1.23,6.48 -0.59,4.78 -0.29,4.5 v 4.24 c 0,0 0.22,4.01 0.22,4.01 l 0.48,3.8 0.7,3.62 2.04,6.79 2.75,6.33 3.36,6.1 3.81,6.04 4.17,6.18 2.11,3.07 1.9,2.7 1.71,2.4 1.57,2.18 2.88,3.94 2.77,3.84 2.95,4.31 1.64,2.51 1.8,2.84 2,3.22 2.23,3.69 2.51,4.23 2.81,4.82 1.56,2.37 -0.08,0.37 v 0.96 c 0,0 0.25,0.85 0.25,0.85 l 0.55,1.21 0.94,1.6 1.43,2.06 0.23,0.87 0.48,1.21 0.7,1.53 0.92,1.83 1.12,2.12 1.29,2.38 1.47,2.66 1.61,2.88 3.61,6.42 4.02,7.19 4.32,7.79 4.47,8.3 4.5,8.67 4.43,8.89 4.2,8.99 3.88,8.98 3.41,8.81 2.82,8.51 2.11,8.09 0.76,3.85 0.52,3.69 0.66,9.42 -0.12,9.22 -0.84,9.03 -1.5,8.82 -2.08,8.62 -2.59,8.44 -3.06,8.25 -3.43,8.07 -3.74,7.87 -3.99,7.68 -8.45,14.84 -8.63,14.14 -8.27,13.45"
           id="path39" />
        <path
           class="cls-2"
           d="m 2640.52,2144.43 1.5,-6.42 1.21,-6.18 0.91,-5.95 0.65,-5.73 0.37,-5.53 0.12,-5.34 -0.11,-5.16 -0.34,-5 -1.34,-9.54 -2.11,-9.02 -2.78,-8.59 -3.37,-8.26 -3.85,-8.03 -4.25,-7.87 -9.33,-15.71 -4.87,-8.03 -4.9,-8.26 -4.82,-8.6 -4.65,-9.03 -1.73,-0.58 -1.23,-0.34 -0.76,-0.1 -0.37,0.11 v 0.29 c 0,0 0.28,0.48 0.28,0.48 l 1.24,1.38 1.78,1.86 1.87,2.18 1.56,2.35 0.8,2.37 -0.15,2.85 -0.73,2.93 -0.74,2.96 -0.17,2.92 0.19,0.72 0.47,1.09 0.69,1.4 0.89,1.68 2.22,3.96 2.6,4.43 2.67,4.52 2.49,4.19 1.09,1.83 0.94,1.61 0.76,1.31 0.52,0.99 3.21,7.56 2.93,7.09 2.66,6.68 2.33,6.37 2,6.11 1.61,5.95 1.23,5.86 0.8,5.85 0.34,5.92 -0.12,6.04 -0.65,6.28 -1.16,6.57 -1.73,6.94 -2.31,7.39 -2.92,7.92 -3.57,8.52 -4.83,10.17 -5.3,9.72 -5.69,9.33 -6,9.04 -12.75,17.58 -12.43,16.38"
           id="path40" />
        <path
           class="cls-2"
           d="m 2575.39,2226.85 7.1,-9.76 10.31,-14.34 9.79,-14.29 8.96,-14.33 4.07,-7.2 3.77,-7.25 3.4,-7.3 3,-7.35 2.57,-7.43 2.11,-7.5 1.6,-7.6 1.05,-7.71 0.47,-7.81 -0.17,-7.94 -0.81,-8.07 -1.51,-8.2 -2.26,-8.37 -3.03,-8.52 -2.27,-4.85 -2.6,-4.53 -2.7,-4.42 -2.52,-4.49 -0.52,-1.13 -0.83,-1.65 -1.05,-2.06 -1.24,-2.42 -2.81,-5.6 -2.86,-6.06 -2.49,-5.89 -0.96,-2.7 -0.72,-2.42 -0.39,-2.06 -0.03,-1.62 0.4,-1.12 0.88,-0.54 0.37,0.11 0.54,0.45 0.69,0.76 0.83,1.05 0.94,1.31 1.07,1.57 2.44,3.83 2.77,4.6 3.03,5.25 3.19,5.71 3.29,6.04 6.48,12.44 3.04,6.11 2.78,5.82 2.45,5.4 2.02,4.82 1.51,4.07 0.55,1.71 0.39,1.47 1.49,7.76 0.94,7.64 0.41,7.52 -0.08,7.39 -0.55,7.27 -1,7.17 -1.42,7.06 -1.8,6.94 -2.16,6.86 -2.51,6.76 -2.81,6.66 -3.08,6.57 -6.92,12.89 -7.72,12.58 -8.31,12.31 -8.67,12.05 -4.96,6.61"
           id="path41" />
        <path
           class="cls-2"
           d="m 2583.15,1791 -0.22,0.28 -0.59,0.88 -8.01,12.69 -7.79,13.7 -3.69,7.19 -3.47,7.41 -3.21,7.6 -2.88,7.79 -2.51,7.96 -2.06,8.14 -1.6,8.27 -1.05,8.41 -0.47,8.55 0.19,8.65 0.89,8.76 1.64,8.85 0.95,3.39 1.34,3.66 1.67,3.9 1.97,4.09 4.6,8.58 5.19,8.87 5.42,8.84 5.26,8.45 2.45,3.99 2.27,3.77 2.04,3.52 1.78,3.24 -0.61,-0.29 -0.99,-0.33 -0.99,-0.32 -0.59,-0.29 -6.83,-8.41 -7.17,-8.71 -7.14,-9.14 -6.77,-9.69 -3.14,-5.11 -2.9,-5.3 -2.64,-5.51 -2.33,-5.74 -1.97,-5.97 -1.56,-6.24 -1.12,-6.51 -0.63,-6.81 -0.19,-8.29 0.28,-8.12 0.73,-7.96 1.16,-7.81 1.56,-7.65 1.91,-7.5 2.27,-7.38 2.6,-7.24 2.89,-7.12 3.15,-7.01 7.05,-13.68 7.82,-13.31 8.4,-12.97 8.78,-12.71 8.95,-12.49 8.92,-12.32 8.7,-12.21 8.27,-12.16 7.63,-12.16 6.8,-12.21 3.01,-6.14 2.74,-6.17 3.85,-10.01 3.24,-9.99 2.68,-9.88 2.19,-9.71 1.75,-9.46 1.36,-9.14 1.05,-8.74 0.77,-8.27 0.56,-7.72 0.41,-7.09 0.32,-6.42 0.26,-5.63 0.29,-4.79 0.37,-3.87 0.48,-2.88 0.32,-1.03 0.37,-0.77 0.8,-0.95 0.76,-0.33 0.73,0.21 0.69,0.67 0.66,1.07 0.61,1.4 1.1,3.52 0.91,3.99 0.7,3.91 0.48,3.28 0.15,1.21 0.1,0.84 0.54,6.95 0.22,7.12 -0.04,7.24 -0.33,7.32 -1.42,14.8 -2.37,14.79 -3.19,14.5 -3.94,13.95 -2.22,6.69 -2.35,6.47 -2.49,6.19 -2.62,5.89 -3.33,6.76 -3.55,6.48 -3.73,6.24 -3.9,6.02 -8.16,11.55 -8.48,11.12 -8.58,10.99 -8.47,11.15 -8.12,11.59 -3.87,6.06 -3.7,6.28 h -0.01"
           id="path42" />
        <path
           class="cls-2"
           d="m 2577.94,2207.12 -1.06,1.42 -0.78,0.98 -0.55,0.61 -0.39,0.32 -0.36,0.14 h -0.11 l -9.77,-14.83 -10.2,-14.84 -9.91,-15.2 -4.61,-7.85 -4.28,-8.07 -3.84,-8.31 -3.3,-8.62 -2.7,-8.98 -2,-9.35 -1.18,-9.79 -0.3,-10.26 0.21,-5.33 0.47,-5.45 0.73,-5.59 1,-5.74 2.06,-8.55 2.63,-8.07 3.12,-7.6 3.51,-7.1 3.8,-6.62 4.02,-6.14 4.12,-5.66 4.14,-5.15 4.06,-4.67 3.9,-4.16 3.63,-3.66 3.29,-3.17 2.84,-2.64 2.3,-2.15 1.67,-1.64 0.95,-1.13 2.53,1.84 1.94,1.68 1.36,1.54 0.84,1.46 0.34,1.4 -0.11,1.38 -0.54,1.42 -0.91,1.49 -1.27,1.6 -1.57,1.75 -1.84,1.93 -2.09,2.16 -2.29,2.44 -2.45,2.74 -2.59,3.08 -2.67,3.48 -3.57,4.97 -3.29,4.87 -3.03,4.78 -2.77,4.69 -4.78,9.14 -3.77,8.87 -2.82,8.65 -1.89,8.49 -0.98,8.4 -0.12,8.36 0.73,8.36 1.53,8.44 2.31,8.55 3.04,8.74 3.77,8.98 4.45,9.28 5.11,9.62 5.73,10.04 2.68,4.38 2.56,3.9 2.41,3.44 2.26,3.04 2.05,2.7 1.84,2.4 1.6,2.16 1.32,1.94 1.03,1.8 0.72,1.69 0.36,1.65 v 1.64 c 0,0 -0.41,1.68 -0.41,1.68 l -0.83,1.78 -1.28,1.93 -1.75,2.11 h -0.01"
           id="path43" />
        <path
           class="cls-2"
           d="m 2604.06,1783.17 1.1,1.97 1.61,2.4 2.05,2.82 2.45,3.21 2.78,3.61 3.07,3.98 3.28,4.35 3.46,4.69 3.57,5.02 3.62,5.34 3.61,5.64 3.55,5.95 3.46,6.22 3.26,6.48 3.06,6.75 2.75,6.98 2.42,7.2 2.04,7.41 1.57,7.61 1.07,7.79 0.51,7.96 -0.11,8.12 -0.78,8.26 -1.53,8.38 -2.31,8.51 -3.15,8.59 -4.05,8.69 -5.01,8.77 -6.03,8.82 -7.09,8.87 -8.22,8.89 -9.4,8.92 H 2610 c 0,0 -0.73,-0.4 -0.73,-0.4 l -1.6,-1.62 -1.76,-2.41 -1.91,-2.68 -0.58,-2.89 -0.07,-1.05 0.33,-0.74 5.36,-4.69 4.98,-4.67 4.63,-4.64 4.27,-4.63 3.92,-4.63 3.57,-4.61 3.24,-4.61 2.89,-4.61 2.56,-4.63 2.23,-4.64 1.91,-4.67 1.6,-4.68 1.28,-4.72 0.98,-4.76 0.67,-4.79 0.39,-4.85 0.08,-4.89 -0.19,-4.96 -0.48,-5.01 -0.76,-5.08 -1.03,-5.15 -1.29,-5.23 -3.37,-10.71 -4.39,-11.1 -5.34,-11.5 -6.28,-11.96 -7.16,-12.46 -4.42,-6.91 -4.32,-6.15 -3.88,-5.36 -1.67,-2.4 -1.45,-2.2 -1.17,-2 -0.84,-1.8 -0.5,-1.61 -0.08,-1.42 0.36,-1.21 0.84,-1.03 1.36,-0.83 1.93,-0.63 h -0.01"
           id="path44" />
        <path
           class="cls-2"
           d="m 2649.35,1603.86 v 1.17 c 0,0 -0.47,0.03 -0.47,0.03 l -0.41,0.33 -0.76,1.4 -0.66,2.13 -0.58,2.52 -0.51,2.59 -0.45,2.34 -0.41,1.76 -0.19,0.56 -0.19,0.29 -0.89,0.28 -1.72,0.19 -2.45,0.1 -3.07,0.03 -3.57,-0.03 -3.95,-0.08 -8.63,-0.28 -8.84,-0.36 -4.21,-0.18 -3.94,-0.18 -3.54,-0.15 -3.04,-0.11 -2.41,-0.07 h -1.68 c 0,0 -0.3,0.34 -0.3,0.34 l -0.12,0.8 -0.11,0.8 -0.3,0.37 -1.47,0.03 -2.06,0.04 -2.59,0.07 -3,0.07 -6.88,0.18 -7.45,0.18 -7.27,0.12 -3.33,0.04 h -3 c 0,0 -2.59,0 -2.59,0 l -2.08,-0.06 -1.47,-0.08 -0.77,-0.14 -0.78,-0.47 -0.74,-0.73 -1.32,-2.13 -1.1,-2.77 -0.88,-3.12 -0.62,-3.18 -0.36,-2.95 -0.08,-2.42 0.22,-1.61 0.47,-0.61 0.96,-0.51 1.42,-0.44 1.84,-0.36 2.24,-0.29 2.62,-0.22 2.95,-0.15 3.25,-0.11 7.28,-0.06 8.14,0.1 8.74,0.22 9.1,0.29 18.28,0.62 8.69,0.25 8.08,0.15 h 7.19 c 0,0 3.19,-0.06 3.19,-0.06 l 2.89,-0.11 2.55,-0.18 2.16,-0.23 1.78,-0.3 1.34,-0.37 1.93,4.71 h -0.01"
           id="path45" />
        <path
           class="cls-2"
           d="m 2535.68,1565.77 0.41,2.6 0.18,2.89 v 3.18 c 0,0 -0.21,3.47 -0.21,3.47 l -0.3,3.77 -0.4,4.05 -0.45,4.32 -0.47,4.61 -0.45,4.87 -0.4,5.15 -0.3,5.42 -0.17,5.69 v 5.96 c 0,0 0.18,6.21 0.18,6.21 l 0.44,6.47 0.7,6.72 0.67,4.38 0.95,4.83 1.21,5.23 1.42,5.56 3.4,11.81 3.91,12.29 4.19,12.2 4.19,11.59 2.02,5.38 1.93,5.01 1.82,4.58 1.65,4.09 2.11,4.75 2.33,4.8 2.33,4.65 2.08,4.28 1.58,3.7 0.55,1.57 0.33,1.34 0.1,1.09 -0.18,0.8 -0.48,0.5 -0.8,0.17 -0.78,-1.18 -4.25,-6.92 -4.28,-7.25 -4.28,-7.56 -4.23,-7.85 -4.13,-8.09 -4.02,-8.34 -3.83,-8.55 -3.62,-8.74 -3.37,-8.92 -3.06,-9.06 -2.73,-9.2 -2.35,-9.29 -1.93,-9.39 -1.46,-9.44 -0.95,-9.49 -0.41,-9.5 0.14,-8.18 0.04,-5.34 0.19,-4.63 0.5,-8.22 0.14,-4.16 -0.04,-4.6 -0.32,-5.33 -0.29,-3.01 -0.39,-3.3 -0.32,-4.05 -0.34,-4.14 2.06,-2.11 2.13,-1.39 2.12,-0.67 2.06,0.08 1.89,0.81 1.68,1.57 1.38,2.34 0.99,3.11"
           id="path46" />
        <path
           class="cls-2"
           d="m 2546.66,1626.74 -0.04,2.34 h -1.09 l -0.67,0.78 -0.33,1.34 -0.04,1.69 0.55,3.46 0.5,1.32 0.54,0.76 0.47,0.21 0.78,0.19 1.09,0.18 1.36,0.15 3.47,0.26 4.34,0.22 5.04,0.15 5.59,0.11 5.96,0.07 6.19,0.03 12.43,-0.03 5.91,-0.04 5.49,-0.06 4.91,-0.07 4.17,-0.07 3.29,-0.07 1.25,-0.03 0.96,-0.03 7.85,-0.21 3.88,-0.17 3.63,-0.3 3.18,-0.48 2.57,-0.73 1.75,-1.02 0.52,-0.65 0.26,-0.74 h 0.8 l -0.66,2.95 -0.81,3.62 -1.98,8.15 -1.14,3.96 -1.23,3.51 -1.28,2.79 -0.66,1.03 -0.66,0.74 1.24,-4.71 0.8,-2.19 1.31,-1.82 -1.17,-1.78 -1.27,0.19 -1.6,0.15 -1.9,0.11 -2.18,0.08 -5.11,0.08 -5.93,-0.03 -6.59,-0.11 -7.06,-0.18 -14.79,-0.44 -7.35,-0.23 -7.08,-0.21 -6.61,-0.17 -5.97,-0.11 -5.13,-0.03 -2.2,0.03 -1.91,0.04 -1.62,0.08 -1.29,0.12 -0.95,0.15 -0.58,0.19 -0.73,0.77 -0.41,1.18 -0.14,2.7 -0.14,-0.37 -0.32,-0.73 -0.74,-2.19 -0.22,-2.59 0.36,-1.24 0.8,-1.07 10.66,0.12 9.94,0.1 9.21,0.07 8.51,0.06 7.79,0.04 h 7.08 c 0,0 6.37,0.01 6.37,0.01 h 5.69 c 0,0 4.97,-0.04 4.97,-0.04 l 4.28,-0.04 3.58,-0.06 2.89,-0.07 2.2,-0.07 1.53,-0.08 0.84,-0.08 0.17,-0.08 -0.52,-0.1 -1.18,-0.1 -1.86,-0.1 -2.52,-0.1 -3.19,-0.1 -3.84,-0.1 -4.52,-0.1 -5.16,-0.08 -5.81,-0.07 -6.46,-0.07 -7.1,-0.07 -7.75,-0.04 -8.38,-0.04 -9.03,-0.03 h -19.95 l -0.99,-2.48 -0.73,-2.67 -0.83,-5.58 -0.39,-5.2 -0.15,-2.2 -0.19,-1.8 h 1.61 l 1.58,0.06 v 0.03"
           id="path47" />
        <path
           class="cls-2"
           d="m 2642.45,1635.32 -0.26,0.74 -0.52,0.65 -1.75,1.02 -2.57,0.73 -3.18,0.48 -3.63,0.29 -3.88,0.18 -7.85,0.21 -0.96,0.03 -1.27,0.03 -3.28,0.07 -4.17,0.07 -4.91,0.07 -5.49,0.06 -5.92,0.04 -12.42,0.03 -6.19,-0.04 -5.97,-0.07 -5.58,-0.11 -5.05,-0.15 -4.32,-0.21 -3.47,-0.26 -1.36,-0.17 -1.09,-0.17 -0.78,-0.19 -0.47,-0.21 -0.54,-0.76 -0.48,-1.32 -0.56,-3.46 0.04,-1.69 0.33,-1.34 0.67,-0.78 h 1.09 l 1.28,0.36 1.65,0.29 2.01,0.22 2.33,0.17 2.62,0.12 2.89,0.07 h 6.48 c 0,0 7.24,-0.12 7.24,-0.12 l 7.79,-0.23 16.35,-0.65 8.16,-0.36 7.85,-0.3 7.34,-0.23 6.61,-0.14 h 5.66 l 2.42,0.07 2.09,0.11 1.76,0.17 1.39,0.22 1,0.29 0.58,0.34 0.37,1.07 0.03,1.61 -0.1,1.72 v 1.45"
           id="path48" />
        <path
           class="cls-2"
           d="m 2571.73,1755.75 0.8,-0.17 0.48,-0.5 0.18,-0.8 -0.1,-1.09 -0.33,-1.34 -0.55,-1.57 -1.58,-3.69 -2.08,-4.28 -2.33,-4.65 -2.33,-4.82 -2.11,-4.75 -1.65,-4.09 -1.82,-4.58 -1.93,-5.01 -2.02,-5.38 -4.19,-11.59 -4.19,-12.21 -3.91,-12.28 -3.4,-11.81 -1.42,-5.56 -1.21,-5.23 -0.95,-4.83 -0.67,-4.38 -0.72,-6.72 -0.43,-6.47 -0.19,-6.21 v -5.96 l 0.18,-5.69 0.3,-5.42 0.39,-5.15 0.45,-4.89 0.47,-4.6 0.45,-4.34 0.41,-4.05 0.3,-3.76 0.19,-3.47 v -3.19 c 0,0 -0.17,-2.89 -0.17,-2.89 l -0.41,-2.59 h 0.8 l 0.15,9.87 -0.28,9.42 -1.1,18.13 -0.47,9.03 -0.14,9.24 0.36,9.6 1.05,10.13 0.66,4.02 0.94,4.52 1.17,4.94 1.38,5.3 1.57,5.59 1.69,5.8 3.73,11.92 3.95,11.88 3.92,11.23 1.89,5.2 1.78,4.82 1.65,4.36 1.49,3.84 2.89,6.68 3.03,6.11 2.9,5.52 2.53,4.94 1.89,4.35 0.63,1.95 0.37,1.79 0.1,1.65 -0.23,1.5 -0.56,1.34 -0.96,1.2 -0.17,-0.1 -0.23,-0.44 -0.62,-1.56 -0.77,-1.98 -0.91,-1.82 h -0.01"
           id="path49" />
        <path
           class="cls-2"
           d="m 2546.66,1626.74 -1.58,-0.06 h -1.61 l 0.04,-2.34 h 13.7 c 0,0 13.68,0.66 13.68,0.66 l 13.67,0.85 13.67,0.55 0.34,-0.36 0.78,-0.78 1.43,-0.78 1.02,-0.25 1.25,-0.08 0.66,0.43 0.67,0.43 1.18,0.48 1.91,0.5 2.86,0.41 1.86,0.17 2.18,0.12 2.52,0.07 h 2.89 c 0,0 0.51,-0.03 0.51,-0.03 l 1.05,-0.1 1.46,-0.14 1.83,-0.18 4.35,-0.39 4.74,-0.33 4.45,-0.17 h 1.9 c 0,0 1.57,0.12 1.57,0.12 l 1.17,0.21 0.66,0.33 0.08,0.45 -0.59,0.61 -0.63,0.28 -1.07,0.26 -1.47,0.23 -1.86,0.21 -2.2,0.18 -2.52,0.15 -2.82,0.14 -3.1,0.12 -6.86,0.17 -7.59,0.1 h -8.08 c 0,0 -8.36,-0.03 -8.36,-0.03 l -16.64,-0.28 -7.83,-0.22 -7.21,-0.28 -6.35,-0.3 -2.79,-0.17 -2.49,-0.18 -2.16,-0.19 -1.82,-0.19 -1.43,-0.19 -1.02,-0.21 v 0"
           id="path50" />
        <path
           class="cls-2"
           d="m 2600.89,1977.18 -1.56,-2.37 0.39,-0.66 -0.11,-1.1 -0.47,-1.38 -0.67,-1.49 -1.49,-2.77 -0.51,-0.95 -0.19,-0.48 0.56,-1.13 1.4,-1.6 2.11,-2.06 2.7,-2.52 3.17,-2.97 3.5,-3.43 3.7,-3.88 3.8,-4.32 3.76,-4.75 3.61,-5.19 3.32,-5.62 2.9,-6.04 2.37,-6.46 1.71,-6.88 0.92,-7.28 v -7.7 c 0,0 -0.83,-5.55 -0.83,-5.55 l -1.57,-5.63 -1.89,-5.47 -1.75,-5.08 -2.48,-6.99 -2.82,-6.72 -3.1,-6.4 -3.29,-6.08 -3.41,-5.75 -3.47,-5.42 -3.47,-5.07 -3.39,-4.69 -3.22,-4.34 -3.01,-3.94 -2.73,-3.54 -2.37,-3.12 -1.93,-2.71 -1.43,-2.27 -0.87,-1.82 -0.23,-1.36 0.37,-0.7 0.92,-1.35 1.31,-1.78 1.5,-1.95 1.53,-1.91 1.38,-1.67 1.05,-1.16 0.52,-0.45 0.47,0.14 0.63,0.44 0.77,0.74 0.91,1 2.19,2.77 2.59,3.63 2.9,4.34 3.17,4.9 3.32,5.31 3.39,5.58 6.68,11.29 3.11,5.44 2.86,5.07 2.51,4.57 2.08,3.91 1.57,3.1 0.56,1.21 0.41,0.94 3.54,9.82 2.78,10.12 1.93,10.32 0.95,10.45 0.08,5.25 -0.21,5.23 -0.51,5.22 -0.83,5.19 -1.14,5.16 -1.49,5.09 -1.84,5.04 -2.2,4.97 -0.88,1.56 -1.38,2.12 -1.8,2.59 -2.19,2.96 -2.48,3.25 -2.73,3.43 -5.91,7.05 -6.07,6.66 -2.93,2.96 -2.78,2.56 -2.56,2.09 -2.27,1.53 -1.93,0.87 -1.51,0.1 v 0"
           id="path51" />
        <path
           class="cls-2"
           d="m 2592.33,2226.85 4.96,-6.61 8.67,-12.05 8.31,-12.31 7.72,-12.58 6.92,-12.89 3.08,-6.57 2.81,-6.66 2.51,-6.76 2.16,-6.86 1.8,-6.94 1.42,-7.06 1,-7.17 0.55,-7.27 0.08,-7.39 -0.41,-7.52 -0.94,-7.64 -1.49,-7.76 -0.39,-1.47 -0.55,-1.71 -1.51,-4.07 -2.02,-4.82 -2.45,-5.4 -2.78,-5.82 -3.04,-6.11 -6.48,-12.44 -3.29,-6.04 -3.19,-5.71 -3.03,-5.25 -2.77,-4.6 -2.44,-3.83 -1.07,-1.57 -0.94,-1.31 -0.83,-1.05 -0.69,-0.76 -0.54,-0.45 -0.37,-0.11 -0.88,0.54 -0.4,1.12 0.03,1.62 0.39,2.06 0.72,2.42 0.96,2.7 2.49,5.89 2.86,6.06 2.81,5.6 1.24,2.42 1.05,2.06 0.83,1.65 0.52,1.13 -0.54,-0.99 -0.74,-1.31 -0.94,-1.61 -1.09,-1.83 -2.49,-4.18 -2.68,-4.52 -2.59,-4.43 -2.22,-3.96 -0.89,-1.68 -0.69,-1.4 -0.47,-1.09 -0.19,-0.72 0.17,-2.92 0.74,-2.95 0.73,-2.95 0.15,-2.85 -0.8,-2.37 -1.56,-2.35 -1.87,-2.18 -1.78,-1.86 -1.24,-1.38 -0.29,-0.48 v -0.29 c 0,0 0.39,-0.11 0.39,-0.11 l 0.76,0.1 1.23,0.34 1.73,0.58 4.65,9.03 4.82,8.6 4.9,8.26 4.87,8.03 9.33,15.71 4.25,7.87 3.85,8.03 3.37,8.26 2.78,8.59 2.11,9.02 1.34,9.54 0.34,5 0.11,5.16 -0.12,5.34 -0.37,5.53 -0.65,5.73 -0.91,5.95 -1.21,6.18 -1.5,6.42 -2,7.05 -2.37,6.9 -2.7,6.73 -3.01,6.59 -3.3,6.48 -3.55,6.37 -7.79,12.54 -8.52,12.35 -9.06,12.29 -3.85,5.09"
           id="path52" />
        <path
           class="cls-2"
           d="m 2631.6,1663.19 0.26,1.17 0.08,0.92 -0.23,1.29 -0.65,0.73 -0.89,0.41 -0.96,0.36 -0.89,0.56 -0.62,0.99 -0.22,1.68 -74.35,1.13 -0.74,-1.67 -0.84,-1.76 -0.47,-1.27 -0.52,-1.71 -0.58,-2.31 -0.65,-3.04 0.56,0.43 0.34,1.07 0.37,1.23 0.66,0.81 0.55,0.17 0.94,0.15 1.28,0.12 1.61,0.11 1.91,0.1 2.19,0.08 5.12,0.1 5.92,0.04 h 6.53 c 0,0 14.07,-0.18 14.07,-0.18 l 14.08,-0.3 6.54,-0.21 5.93,-0.22 5.13,-0.23 2.2,-0.12 1.91,-0.12 1.62,-0.12 1.29,-0.12 0.95,-0.12 0.56,-0.12 h -0.01"
           id="path53" />
        <path
           class="cls-2"
           d="m 2575.38,2226.85 7.12,-9.77 10.31,-14.34 9.79,-14.29 8.96,-14.33 4.07,-7.2 3.77,-7.25 3.4,-7.3 3,-7.35 2.57,-7.43 2.11,-7.5 1.6,-7.6 1.05,-7.71 0.47,-7.81 -0.17,-7.94 -0.81,-8.07 -1.51,-8.2 -2.26,-8.37 -3.03,-8.52 -2.27,-4.85 -2.6,-4.53 -2.7,-4.42 -2.52,-4.49 3.21,7.56 2.93,7.09 2.66,6.68 2.33,6.37 1.98,6.11 1.62,5.95 1.23,5.86 0.8,5.85 0.34,5.92 -0.14,6.04 -0.63,6.28 -1.17,6.57 -1.72,6.94 -2.31,7.39 -2.92,7.92 -3.57,8.52"
           id="path54" />
        <path
           class="cls-2"
           d="m 2618.26,1696.88 -3.73,6.21 -3.81,5.74 -8.03,11.18 -31.95,-1.69 -2.33,-4.71 2.41,-0.15 h 2.67 c 0,0 5.89,0.21 5.89,0.21 l 6.33,0.33 6.35,0.17 5.97,-0.32 2.71,-0.43 2.48,-0.63 2.19,-0.91 1.83,-1.2 1.45,-1.51 0.99,-1.9 -2.64,0.22 -3.03,0.04 -3.36,-0.07 -3.59,-0.17 -7.53,-0.47 -7.43,-0.39 -3.47,-0.08 -3.19,0.04 -2.84,0.19 -2.38,0.4 -1.86,0.63 -1.23,0.89 -0.54,1.18 0.26,1.54 -0.67,-1.62 -0.54,-1.42 -1.09,-2.84 0.77,0.39 1.6,0.32 2.31,0.26 2.9,0.21 3.37,0.15 3.73,0.1 8.08,0.07 8.11,-0.06 3.76,-0.07 3.43,-0.1 2.96,-0.11 2.38,-0.12 1.68,-0.14 0.87,-0.14 0.37,-0.23 0.54,-0.47 1.25,-1.31 1.09,-1.32 0.33,-0.47 0.08,-0.23 -1.53,-0.06 -2.24,-0.08 -2.84,-0.1 -3.33,-0.11 -3.72,-0.12 -3.99,-0.11 -8.38,-0.21 -8.2,-0.12 h -3.76 c 0,0 -3.4,0.01 -3.4,0.01 l -2.93,0.08 -2.33,0.14 -1.65,0.19 -0.85,0.26 -0.34,0.72 -0.15,1.16 v 1.1 c 0,0 0.04,0.52 0.04,0.52 l -3.06,-8.23 0.92,0.39 1.86,0.21 2.68,0.06 3.35,-0.07 3.92,-0.17 4.35,-0.23 9.5,-0.58 9.72,-0.54 4.63,-0.19 4.31,-0.11 h 3.87 c 0,0 3.29,0.17 3.29,0.17 l 2.59,0.32 1.78,0.51"
           id="path55" />
        <path
           class="cls-2"
           d="m 2623.72,2096.81 1.6,0.03 0.1,2.89 0.21,2.96 -3.3,-0.54 -4.07,-0.37 -4.69,-0.22 -5.23,-0.1 h -5.62 l -5.89,0.08 -12.13,0.29 -11.78,0.32 -5.45,0.12 -5.01,0.04 -4.45,-0.03 -3.74,-0.15 -2.93,-0.28 -2.01,-0.43 -1.07,-0.4 -0.74,-0.36 -0.76,-0.78 -0.25,-1.2 -0.11,-0.87 -0.19,-1.12 77.53,0.1 h 0.01"
           id="path56" />
        <path
           class="cls-2"
           d="m 2583.26,1980.4 -1.78,-3.24 -2.04,-3.52 -2.27,-3.77 -2.45,-3.99 -5.26,-8.45 -5.42,-8.82 -5.19,-8.87 -4.6,-8.59 -1.97,-4.09 -1.67,-3.9 -1.34,-3.66 -0.95,-3.39 -1.64,-8.85 -0.89,-8.76 -0.19,-8.65 0.47,-8.55 1.05,-8.41 1.58,-8.27 2.08,-8.14 2.51,-7.96 2.88,-7.79 3.21,-7.6 3.47,-7.41 3.69,-7.19 7.79,-13.7 8.01,-12.69 -3.12,5.13 -3.17,5.44 -6.37,11.72 -6.13,12.62 -5.59,13.33 -2.51,6.86 -2.24,6.94 -1.97,7.01 -1.64,7.03 -1.28,7.06 -0.87,7.02 -0.43,6.99 0.04,6.91 0.48,5.36 0.94,5.49 1.38,5.59 1.75,5.67 2.08,5.69 2.37,5.69 5.41,11.26 5.99,10.85 6.21,10.17 3.08,4.75 2.99,4.49 2.86,4.19 2.68,3.85 0.26,0.3 0.54,0.61 0.76,0.85 0.95,1.05 2.22,2.53 2.37,2.84 2.11,2.75 0.84,1.25 0.63,1.1 0.37,0.92 0.08,0.67 -0.29,0.4 -0.69,0.08 -3.06,-3.96 -2.75,-3.54 -2.88,-3.33 -3.47,-3.4 h -0.01"
           id="path57" />
        <path
           class="cls-2"
           d="m 2627.35,1678.32 -3.61,7.65 -3.83,7.42 -1.95,0.06 -2.73,0.03 h -3.37 c 0,0 -3.92,-0.04 -3.92,-0.04 l -4.34,-0.06 -4.63,-0.07 -9.66,-0.12 -9.42,-0.1 h -8.2 c 0,0 -3.35,0.07 -3.35,0.07 l -2.68,0.11 -1.9,0.15 -1,0.21 -0.54,0.61 -0.51,1.05 -0.3,1.1 0.1,0.73 -1.57,-4.06 -1.49,-4.17 2.44,-0.21 3.18,-0.14 3.79,-0.06 h 4.3 l 4.68,0.03 4.97,0.07 10.28,0.15 9.99,0.08 h 4.61 c 0,0 4.2,-0.1 4.2,-0.1 l 3.66,-0.14 3.03,-0.23 2.26,-0.33 1.39,-0.44 0.3,-0.54 -0.28,-0.67 -0.37,-0.66 v -0.47 c 0,0 1.78,-1.68 1.78,-1.68 l 1.54,-1.6 1.31,-1.98 0.56,-1.28 0.52,-1.56 0.51,0.12 0.22,0.3 0.06,0.76 h -0.03"
           id="path58" />
        <path
           class="cls-2"
           d="m 2634.81,1662.08 -1.69,4.31 -1.87,4.01 -3.9,7.93 -0.04,-0.76 -0.23,-0.3 -0.51,-0.12 -1.58,-0.62 -2.55,-0.39 -3.4,-0.18 h -4.12 l -4.71,0.12 -5.16,0.25 -11.19,0.7 -11.47,0.8 -5.52,0.34 -5.2,0.29 -4.76,0.19 -4.19,0.07 -3.47,-0.1 -2.64,-0.29 -1.24,2.31 -1.16,-2.02 -0.65,-1.56 -0.28,-1.14 v -0.83 l 0.4,-0.96 0.19,-0.52 73.94,0.04 0.88,-1.17 0.3,-0.76 -0.39,-0.37 -1.16,-0.04 0.22,-1.68 0.63,-0.99 0.88,-0.56 0.98,-0.36 0.88,-0.41 0.65,-0.73 0.23,-1.29 -0.08,-0.92 -0.26,-1.17 1.6,-0.65 1.62,-0.47"
           id="path59" />
        <path
           class="cls-2"
           d="m 2568.43,1713.61 -0.61,-1.17 -0.48,-0.69 -0.33,-0.36 -0.14,-0.15 -0.25,-1.54 0.52,-1.18 1.24,-0.89 1.84,-0.63 2.4,-0.4 2.82,-0.19 3.19,-0.04 3.47,0.08 7.45,0.39 7.52,0.47 3.59,0.17 3.36,0.07 3.03,-0.04 2.64,-0.22 -0.99,1.89 -1.45,1.53 -1.83,1.2 -2.19,0.89 -2.48,0.65 -2.71,0.41 -5.97,0.32 -6.35,-0.15 -6.33,-0.33 -5.89,-0.23 -2.67,0.03 -2.41,0.15"
           id="path60" />
        <path
           class="cls-2"
           d="m 2601.06,1722.32 -1.18,2.29 -1.06,1.69 -0.94,1.2 -0.81,0.77 -0.66,0.47 -0.51,0.26 -0.55,0.25 0.41,-1.23 0.15,-0.96 -0.11,-0.72 -0.36,-0.52 -0.58,-0.33 -0.83,-0.19 -2.26,-0.04 -3.04,0.22 -3.72,0.26 -4.34,0.06 -4.86,-0.37 -0.06,1.34 0.28,1.09 0.55,0.84 0.77,0.63 2.09,0.74 2.48,0.26 h 2.55 c 0,0 2.24,-0.07 2.24,-0.07 l 1.6,0.12 0.45,0.19 0.15,0.33 -2.71,-0.18 -2.2,0.15 -1.72,0.43 -1.27,0.62 -0.83,0.77 -0.43,0.84 -0.04,0.87 0.32,0.81 0.63,0.72 0.94,0.55 1.21,0.3 1.46,0.03 1.69,-0.34 1.87,-0.74 2.05,-1.24 2.19,-1.78 -0.74,1.12 -1.05,1.76 -2.53,4.43 -1.32,2.18 -1.21,1.79 -1.02,1.16 -0.41,0.28 h -0.32 c 0,0 -2.74,-6.15 -2.74,-6.15 l -3.06,-5.85 -6.21,-11.56 29.57,0.48"
           id="path61" />
        <path
           class="cls-2"
           d="m 2620.85,1685.23 v 0.47 c 0,0 0.39,0.66 0.39,0.66 l 0.28,0.67 -0.3,0.54 -1.39,0.44 -2.26,0.33 -3.03,0.23 -3.66,0.14 -4.2,0.08 h -4.61 c 0,0 -9.99,-0.07 -9.99,-0.07 l -10.28,-0.15 -4.97,-0.06 -4.68,-0.04 h -4.3 c 0,0 -3.79,0.07 -3.79,0.07 l -3.18,0.12 -2.44,0.21 -0.85,-1.91 -1.06,-1.84 -0.87,-2.02 -0.28,-2.45 1.43,2.26 1.29,2.46 62.75,-0.14"
           id="path62" />
        <path
           class="cls-2"
           d="m 2570.95,1754.56 -1.98,-2.33 -2.04,-2.62 -4.24,-6.06 -4.36,-7.05 -4.45,-7.9 -4.42,-8.6 -4.36,-9.2 -4.2,-9.64 -3.96,-9.94 -3.68,-10.12 -3.3,-10.15 -2.85,-10.05 -2.34,-9.8 -1.75,-9.44 -1.09,-8.92 -0.34,-8.27 0.12,-3.85 0.34,-3.65 0.41,9.5 0.95,9.49 1.46,9.44 1.93,9.39 2.35,9.29 2.73,9.2 3.07,9.06 3.36,8.92 3.62,8.74 3.84,8.55 4.01,8.34 4.14,8.09 4.23,7.83 4.28,7.56 4.28,7.25 4.25,6.92 h -0.01"
           id="path63" />
        <path
           class="cls-2"
           d="m 2619.92,1693.4 -0.07,0.21 -0.18,0.51 -0.47,1.02 -0.94,1.75 -1.78,-0.51 -2.59,-0.32 -3.29,-0.15 h -3.87 c 0,0 -4.31,0.1 -4.31,0.1 l -4.63,0.19 -9.72,0.54 -9.5,0.56 -4.35,0.23 -3.92,0.17 -3.35,0.07 -2.68,-0.06 -1.86,-0.19 -0.92,-0.39 -0.1,-0.73 0.3,-1.09 0.51,-1.06 0.54,-0.61 1,-0.21 1.9,-0.15 2.68,-0.11 3.35,-0.06 h 3.9 c 0,0 4.31,-0.01 4.31,-0.01 l 9.42,0.1 9.66,0.12 4.63,0.07 4.34,0.06 3.92,0.03 h 3.37 c 0,0 2.73,-0.01 2.73,-0.01 l 1.95,-0.06 v 0"
           id="path64" />
        <path
           class="cls-2"
           d="m 2549.31,1660.69 -0.41,-2.33 -0.3,-2.37 83.12,0.77 -1.23,0.36 -1.53,0.3 -3.85,0.47 -4.79,0.32 -5.56,0.17 -6.15,0.04 -6.59,-0.04 -13.79,-0.26 -6.86,-0.18 -6.61,-0.17 -6.19,-0.12 -5.62,-0.07 h -4.85 l -3.92,0.12 -1.57,0.1 -1.27,0.15 -0.95,0.18 -0.62,0.22 -0.34,0.41 -0.11,0.59 v 1.32 c 0,0 0,0.01 0,0.01"
           id="path65" />
        <path
           class="cls-2"
           d="m 2627.47,1671.32 1.16,0.04 0.39,0.37 -0.3,0.76 -0.88,1.17 -73.94,-0.04 -0.19,-0.03 -0.23,-0.32 -0.36,-0.84 74.35,-1.13 h 0.01"
           id="path66" />
        <path
           class="cls-2"
           d="m 2602.69,1720.01 -0.12,0.39 -0.28,0.76 -0.48,0.76 -0.76,0.41 -29.57,-0.48 -0.59,-1.53 -0.19,-1.06 0.03,-0.65 v -0.29 c 0,0 31.97,1.69 31.97,1.69"
           id="path67" />
        <path
           class="cls-2"
           d="m 2522.17,1608.8 -0.17,-38.59 0.39,3.3 0.29,3.01 0.32,5.33 0.06,4.6 -0.14,4.16 -0.51,8.22 -0.19,4.63 -0.04,5.34"
           id="path68" />
        <path
           class="cls-2"
           d="m 2590.03,2006.23 -0.06,-0.7 -0.21,-0.37 -0.52,-0.11 3.26,-4.03 -2.48,5.22"
           id="path69" />
        <path
           class="cls-2"
           d="m 2595.34,1729.25 -0.62,1.36 -0.59,0.95 -0.52,0.61 -0.45,0.33 -0.7,0.18 -0.36,0.03 1,-1.24 0.77,-0.88 0.55,-0.59 0.39,-0.37 0.4,-0.29 0.14,-0.08"
           id="path70" />
        <path
           class="cls-2"
           d="m 2623.72,2096.81 -77.53,-0.1 -0.14,-1.06 -0.07,-1.4 0.12,-3.28 0.51,-3.03 0.41,-1.09 0.54,-0.65 1.05,0.18 1.34,0.14 3.43,0.21 4.34,0.12 5.05,0.04 h 5.63 c 0,0 6.03,-0.07 6.03,-0.07 l 12.67,-0.18 6.29,-0.1 6.07,-0.07 5.67,-0.03 5.11,0.03 4.39,0.08 3.52,0.18 1.38,0.12 1.09,0.15 0.8,0.18 0.48,0.22 0.28,0.47 0.3,0.96 0.65,2.79 0.5,3.03 0.12,1.25 v 0.88 h -0.01"
           id="path71" />
        <path
           class="cls-2"
           d="m 2589.24,2005.06 h -0.03 c 0,0 -0.43,0.17 -0.43,0.17 l -0.55,-0.14 -0.67,-0.43 -0.77,-0.67 -1.79,-1.95 -2.05,-2.6 -4.45,-6.18 -2.18,-3.12 -2.01,-2.84 0.4,1.9 0.47,1.23 0.44,0.72 0.36,0.44 0.19,0.33 -0.04,0.43 -0.37,0.74 -0.76,1.24 2.53,1.86 1.94,1.67 1.38,1.56 0.84,1.45 0.34,1.4 -0.11,1.39 -0.54,1.42 -0.91,1.49 -1.27,1.6 -1.57,1.73 -1.86,1.94 -2.08,2.16 -2.3,2.42 -2.45,2.74 -2.59,3.08 -2.67,3.48 -3.57,4.97 -3.29,4.87 -3.03,4.78 -2.77,4.69 -4.78,9.14 -3.77,8.87 -2.82,8.65 -1.89,8.49 -0.98,8.4 -0.12,8.36 0.73,8.36 1.53,8.44 2.31,8.55 3.04,8.74 3.77,8.98 4.45,9.28 5.11,9.62 5.73,10.04 2.68,4.38 2.56,3.9 2.42,3.44 2.26,3.04 2.05,2.7 1.84,2.4 1.6,2.15 1.32,1.95 1.03,1.79 0.7,1.71 0.37,1.64 v 1.64 c 0,0 -0.43,1.69 -0.43,1.69 l -0.83,1.78 -1.28,1.91 -1.75,2.12 3.59,-4.97 3.8,-5.22 7.96,-11.12 8.01,-11.96 7.57,-12.71 3.47,-6.59 3.17,-6.75 2.81,-6.87 2.38,-6.99 1.9,-7.1 1.36,-7.2 0.74,-7.28 0.07,-7.35 -3.01,-0.04 -3.84,0.06 -4.53,0.12 -5.11,0.18 -5.53,0.22 -5.85,0.25 -12.1,0.5 -11.81,0.41 -5.47,0.14 -5.01,0.06 -4.43,-0.03 -3.7,-0.12 -2.86,-0.25 -1.89,-0.37 -1.24,-0.55 -1,-0.7 -0.69,-0.78 -0.36,-0.8 0.04,-0.73 0.47,-0.59 0.96,-0.4 1.5,-0.12 -1.07,-0.4 -0.74,-0.36 -0.76,-0.78 -0.25,-1.2 -0.11,-0.87 -0.19,-1.12 -0.14,-1.07 -0.07,-1.4 0.14,-3.26 0.51,-3.03 0.41,-1.1 0.52,-0.63 1.05,0.18 1.34,0.14 3.43,0.21 4.34,0.12 5.05,0.04 h 5.63 c 0,0 6.04,-0.07 6.04,-0.07 l 12.65,-0.18 6.31,-0.1 6.06,-0.07 5.67,-0.03 5.12,0.03 4.39,0.08 3.51,0.18 1.38,0.12 1.1,0.15 0.78,0.18 0.48,0.22 0.28,0.48 0.3,0.95 0.65,2.81 0.5,3.03 0.12,1.24 v 0.88 l 1.6,0.03 -0.1,-0.78 -0.19,-1.09 -0.59,-2.96 -0.81,-3.69 -0.95,-4.05 -1,-4.06 -0.94,-3.7 -0.81,-2.99 -0.33,-1.12 -0.26,-0.8 -0.18,-0.45 -0.32,-0.72 -0.99,-2.22 -1.42,-3.1 -1.79,-3.83 -2.09,-4.42 -2.3,-4.86 -4.97,-10.44 -5.01,-10.41 -2.34,-4.82 -2.13,-4.36 -1.86,-3.74 -1.51,-3 -0.61,-1.18 -0.48,-0.92 -0.37,-0.66 -0.23,-0.39 -0.44,2.16 -0.96,2.34 -1.43,2.48 -1.83,2.6 -2.16,2.71 -2.41,2.79 -5.31,5.77 -5.48,5.88 -5.09,5.81 -2.22,2.82 -1.91,2.75 -1.54,2.66 -1.09,2.55 h 1.87 l 2.52,-0.03 3.04,-0.03 3.47,-0.04 7.86,-0.1 8.38,-0.08 8.11,-0.04 h 3.7 c 0,0 3.35,0.06 3.35,0.06 l 2.86,0.07 2.3,0.1 1.62,0.15 0.87,0.18 0.39,0.44 0.5,0.84 0.54,0.94 0.54,0.74 -0.62,0.65 -1.6,0.5 -2.42,0.36 -3.14,0.23 -3.72,0.12 h -4.17 c 0,0 -9.15,-0.23 -9.15,-0.23 l -9.37,-0.54 -4.43,-0.36 -4.1,-0.4 -3.63,-0.43 -3.03,-0.44 -2.3,-0.47 -1.45,-0.45 -2.92,4.3 -2.51,4.34 -2.09,4.38 -1.71,4.42 -1.34,4.43 -0.98,4.47 -0.65,4.47 -0.32,4.49 v 4.49 c 0,0 0.26,4.49 0.26,4.49 l 1.32,8.93 2.29,8.87 3.08,8.71 3.74,8.54 4.3,8.29 4.69,8.03 4.94,7.67 5.08,7.31 5.08,6.86 4.93,6.39 4.64,5.85 -0.06,1.09 -0.5,1.43 -1.76,3.29 -1.02,1.56 -0.94,1.29 -0.72,0.88 -0.37,0.3 -0.36,-0.21 -0.52,-0.52 -0.67,-0.8 -0.83,-1.09 -2.01,-2.92 -2.45,-3.79 -2.81,-4.47 -3.06,-5.04 -3.24,-5.44 -3.32,-5.69 -6.55,-11.47 -3.06,-5.48 -2.79,-5.09 -2.45,-4.57 -2.01,-3.87 -0.81,-1.64 -0.67,-1.4 -0.52,-1.16 -0.36,-0.88 -1.9,-5.51 -1.6,-5.36 -1.32,-5.2 -1.03,-5.05 -0.76,-4.9 -0.51,-4.78 -0.28,-9.18 0.65,-8.7 1.47,-8.27 2.22,-7.89 2.9,-7.56 3.5,-7.27 3.99,-7.02 4.45,-6.83 4.79,-6.66 10.31,-13.06 10.75,-13 0.81,0.1 0.96,0.55 2.15,2.01 2.06,2.46 0.84,1.12 0.65,0.89 v -0.33 c 0,0 -0.08,-0.69 -0.08,-0.69 l -0.22,-1.93 -0.23,-1.93 -0.1,-0.67 -0.07,-0.3 -0.06,-0.7 -0.21,-0.37 -0.52,-0.11"
           id="path72" />
        <path
           class="cls-2"
           d="m 2590.73,2012.09 -0.44,2.16 -0.96,2.34 -1.43,2.48 -1.83,2.6 -2.16,2.71 -2.41,2.79 -5.31,5.77 -5.48,5.88 -5.09,5.81 -2.22,2.82 -1.91,2.75 -1.54,2.66 -1.09,2.55 h 1.87 l 2.51,-0.03 3.04,-0.03 3.48,-0.04 7.85,-0.11 8.38,-0.08 8.12,-0.03 h 3.7 c 0,0 3.33,0.06 3.33,0.06 l 2.88,0.07 2.3,0.1 1.62,0.14 0.87,0.19 0.39,0.44 0.5,0.83 0.54,0.94 0.54,0.76 -0.62,0.65 -1.58,0.5 -2.44,0.36 -3.14,0.23 -3.72,0.12 h -4.16 c 0,0 -9.15,-0.23 -9.15,-0.23 l -9.37,-0.54 -4.43,-0.34 -4.1,-0.4 -3.63,-0.43 -3.04,-0.45 -2.3,-0.45 -1.45,-0.47 -2.92,4.3 -2.51,4.34 -2.09,4.38 -1.71,4.42 -1.34,4.43 -0.98,4.46 -0.65,4.47 -0.32,4.49 v 4.5 c 0,0 0.26,4.49 0.26,4.49 l 1.32,8.93 2.29,8.85 3.08,8.73 3.74,8.52 4.3,8.3 4.69,8.01 4.94,7.68 5.08,7.3 5.08,6.87 4.93,6.39 4.64,5.85 -0.06,1.09 -0.5,1.43 -1.76,3.29 -1.02,1.56 -0.94,1.29 -0.72,0.88 -0.37,0.3 -0.36,-0.21 -0.54,-0.52 -0.67,-0.8 -0.81,-1.09 -2.02,-2.92 -2.45,-3.79 -2.79,-4.47 -3.07,-5.04 -3.22,-5.44 -3.33,-5.69 -6.54,-11.47 -3.06,-5.48 -2.79,-5.09 -2.45,-4.57 -2.01,-3.87 -0.81,-1.64 -0.67,-1.4 -0.52,-1.16 -0.36,-0.88 -1.9,-5.51 -1.6,-5.36 -1.32,-5.2 -1.03,-5.05 -0.76,-4.9 -0.51,-4.78 -0.28,-9.17 0.63,-8.7 1.47,-8.27 2.23,-7.9 2.89,-7.54 3.5,-7.27 4.01,-7.03 4.45,-6.81 4.78,-6.68 10.32,-13.06 10.75,-13 0.81,0.1 0.96,0.55 2.15,2.01 2.06,2.46 0.84,1.12 0.65,0.89 h -0.01"
           id="path73" />
        <path
           class="cls-2"
           d="m 2548.77,2109.61 74.33,1.21 0.61,0.77 0.29,1.28 0.03,1.6 -0.17,1.76 -0.33,1.73 -0.43,1.56 -0.5,1.17 -0.48,0.63 -0.48,0.19 -0.8,0.17 -1.13,0.14 -1.4,0.14 -3.59,0.19 -4.47,0.12 -5.19,0.07 h -5.73 l -12.33,-0.17 -12.33,-0.34 -5.73,-0.22 -5.2,-0.25 -4.49,-0.28 -3.59,-0.29 -1.42,-0.15 -1.13,-0.15 -0.81,-0.17 -0.48,-0.15 -0.63,-0.66 -0.66,-1.24 -1.18,-3.41 -0.44,-1.8 -0.28,-1.61 -0.04,-1.21 0.21,-0.63"
           id="path74" />
        <path
           class="cls-2"
           d="m 2555.92,2062.96 1.05,-0.19 2.02,-0.15 2.86,-0.11 3.57,-0.06 4.13,-0.03 h 4.54 c 0,0 9.8,0.12 9.8,0.12 l 9.8,0.23 4.54,0.14 4.13,0.17 3.57,0.18 2.86,0.19 2.02,0.21 1.03,0.21 0.91,0.69 0.94,1.21 1.69,3.25 0.69,1.69 0.51,1.49 0.29,1.13 v 0.56 c 0,0 -65.94,0.67 -65.94,0.67 l -0.07,-1.27 0.36,-1.64 1.57,-3.79 0.96,-1.8 0.92,-1.53 0.76,-1.1 0.48,-0.48"
           id="path75" />
        <path
           class="cls-2"
           d="m 2557.97,2133.14 1.72,0.69 2.68,0.45 3.47,0.25 4.13,0.11 h 4.65 c 0,0 5.01,-0.12 5.01,-0.12 l 10.56,-0.3 10.3,-0.19 4.69,0.04 4.19,0.18 3.55,0.34 2.75,0.56 1.83,0.8 0.51,0.51 0.23,0.59 -0.11,0.44 -0.33,0.88 -1.09,2.48 -1.25,2.46 -0.54,0.87 -0.4,0.41 -0.99,0.19 -1.94,0.12 -2.74,0.06 h -3.41 l -3.96,-0.04 -4.35,-0.1 -9.37,-0.3 -9.39,-0.43 -4.35,-0.23 -3.95,-0.26 -3.41,-0.26 -2.73,-0.26 -1.93,-0.26 -0.99,-0.26 -0.34,-0.47 -0.65,-1.1 -0.8,-1.51 -0.8,-1.72 -0.67,-1.71 -0.4,-1.47 0.03,-1.05 0.59,-0.37 v 0"
           id="path76" />
        <path
           class="cls-2"
           d="m 2573.91,2038.7 0.98,-0.18 1.5,-0.14 1.97,-0.07 h 2.33 c 0,0 5.41,0.34 5.41,0.34 l 5.88,0.84 5.7,1.46 2.56,1 2.26,1.21 1.89,1.43 1.42,1.65 0.87,1.91 0.23,2.18 -43.58,1.05 1.06,-1.54 1.23,-1.83 2.75,-3.96 1.43,-1.86 1.45,-1.61 1.39,-1.2 1.29,-0.69"
           id="path77" />
        <path
           class="cls-2"
           d="m 2561.34,2122.68 1.54,-0.11 2.53,-0.12 3.37,-0.1 4.07,-0.08 4.61,-0.07 h 5.01 c 0,0 10.63,0.06 10.63,0.06 l 10.42,0.3 4.76,0.26 4.27,0.33 3.61,0.43 2.82,0.51 1.87,0.62 0.54,0.34 0.25,0.37 -0.03,0.23 -0.12,0.48 -0.41,1.36 -0.44,1.35 -0.17,0.45 -0.1,0.19 -0.62,0.18 -1.21,0.12 -1.69,0.08 -2.13,0.03 h -2.48 l -2.74,-0.04 -5.97,-0.15 -6.13,-0.22 -5.63,-0.25 -2.45,-0.11 -2.09,-0.1 -1.65,-0.08 -1.16,-0.06 -2.27,-0.11 -2.55,-0.14 -5.67,-0.33 -5.95,-0.43 -5.66,-0.55 -2.53,-0.32 -2.26,-0.34 -1.89,-0.4 -1.46,-0.43 -0.95,-0.47 -0.37,-0.51 0.28,-0.55 0.99,-0.61 0.36,-0.08 0.74,-0.12 2.18,-0.32 2.34,-0.32 0.95,-0.12 0.65,-0.08 h -0.01"
           id="path78" />
        <path
           class="cls-2"
           d="m 2563.35,2146.1 5.23,0.36 5.53,0.1 11.51,-0.25 11.37,-0.17 5.34,0.18 4.97,0.5 0.3,0.39 0.07,0.77 0.08,0.77 0.3,0.43 0.54,-1.1 0.56,-0.74 0.55,-0.44 0.54,-0.15 0.95,0.39 0.7,1.09 0.32,1.5 -0.21,1.64 -0.83,1.49 -1.6,1.05 -0.92,0.17 -1.82,0.14 -2.55,0.12 -3.18,0.07 h -3.65 l -4.01,-0.06 -8.54,-0.43 -8.34,-0.91 -3.76,-0.67 -3.32,-0.84 -2.74,-1.03 -2.02,-1.23 -1.18,-1.43 -0.21,-1.67 h -0.01"
           id="path79" />
        <path
           class="cls-2"
           d="m 2611.67,2075.57 0.91,0.17 1.54,0.4 3.72,1.36 1.51,0.89 0.88,0.99 0.1,0.52 -0.19,0.54 -0.51,0.54 -0.87,0.55 -0.47,0.14 -0.76,0.11 -2.33,0.14 -3.29,0.03 -4.09,-0.07 -4.76,-0.12 -5.29,-0.19 -5.67,-0.21 -5.89,-0.23 -11.91,-0.43 -5.73,-0.17 -5.38,-0.11 -4.89,-0.03 -4.25,0.07 -3.48,0.18 -2.55,0.32 2.05,-2.89 7.67,0.25 7.71,-0.22 15.43,-1.25 15.43,-1.28 7.7,-0.23 7.65,0.23 v 0"
           id="path80" />
        <path
           class="cls-2"
           d="m 2569.6,2155.54 39.52,2.4 -0.51,0.67 -0.56,0.98 -1.17,2.42 -1.18,2.27 -0.56,0.78 -0.52,0.4 -0.59,0.07 -1.13,0.03 h -1.6 l -1.98,-0.06 -4.83,-0.18 -5.45,-0.26 -5.45,-0.33 -4.83,-0.33 -1.98,-0.18 -1.6,-0.15 -1.13,-0.15 -0.58,-0.14 -0.32,-0.33 -0.62,-0.81 -1.61,-2.48 -1.32,-2.73 -0.22,-1.12 0.22,-0.78 h 0.01"
           id="path81" />
        <path
           class="cls-2"
           d="m 2577.39,2167.37 25.96,1 -1.1,1.87 -1.53,1.45 -1.89,1.05 -2.15,0.69 -2.34,0.37 -2.46,0.08 -4.98,-0.54 -4.56,-1.21 -1.93,-0.77 -1.58,-0.83 -1.17,-0.85 -0.67,-0.84 -0.12,-0.78 0.52,-0.69"
           id="path82" />
        <path
           class="cls-2"
           d="m 2584.44,2176.84 3.37,-0.4 2.7,-0.08 2.06,0.21 1.51,0.45 1.02,0.65 0.58,0.8 0.21,0.94 -0.08,1 -0.87,2.06 -1.35,1.9 -1.32,1.39 -0.5,0.4 -0.3,0.15 -0.43,-0.33 -0.81,-0.88 -1.07,-1.29 -1.21,-1.54 -2.27,-3.18 -0.81,-1.32 -0.43,-0.92"
           id="path83" />
        <path
           class="cls-2"
           d="m 2580.43,2030.62 1.87,-0.29 2.18,-0.06 4.82,0.39 4.6,0.87 1.9,0.54 1.47,0.56 0.92,0.55 0.25,0.51 -0.55,0.44 -1.49,0.33 -1.12,0.12 -1.4,0.08 -1.69,0.03 h -2.01 c 0,0 -2.33,-0.07 -2.33,-0.07 l -2.66,-0.11 -3.03,-0.18 -3.39,-0.23 -0.33,-0.58 -0.03,-0.59 0.56,-1.12 0.87,-0.84 0.58,-0.36"
           id="path84" />
        <path
           class="cls-2"
           d="m 2590.98,2021.45 2.35,0.32 1.61,0.72 0.76,0.94 -0.18,1.05 -0.48,0.51 -0.74,0.47 -1.05,0.43 -1.34,0.36 -1.65,0.26 -1.98,0.17 -2.31,0.04 -2.67,-0.11 0.67,-0.85 0.99,-0.88 2.46,-1.67 2.31,-1.25 0.81,-0.36 0.43,-0.12"
           id="path85" />
        <path
           class="cls-2"
           d="m 2628.97,1872.42 -2.89,0.43 -3.7,0.44 -4.41,0.44 -4.98,0.43 -5.41,0.41 -5.74,0.39 -11.89,0.63 -11.62,0.37 -5.38,0.07 -4.93,-0.03 -4.35,-0.14 -3.63,-0.25 -2.81,-0.37 -1.83,-0.52 0.14,-1.58 0.83,-1.43 1.07,-1.09 0.84,-0.52 0.48,-0.1 0.8,-0.11 1.1,-0.1 1.38,-0.12 3.48,-0.23 4.34,-0.23 5.01,-0.25 5.52,-0.25 11.88,-0.45 11.89,-0.37 5.52,-0.14 5.01,-0.11 4.34,-0.07 h 4.85 c 0,0 1.1,0.04 1.1,0.04 l 0.8,0.04 0.48,0.06 0.18,0.17 0.32,0.44 0.88,1.36 0.88,1.56 0.47,1.2"
           id="path86" />
        <path
           class="cls-2"
           d="m 2604.06,1783.17 -1.93,0.63 -1.36,0.83 -0.84,1.02 -0.36,1.23 0.1,1.42 0.48,1.61 0.85,1.8 1.16,2 1.45,2.2 1.68,2.38 3.88,5.37 4.31,6.14 4.42,6.92 7.16,12.46 6.28,11.96 5.34,11.5 4.39,11.1 3.37,10.71 1.29,5.23 1.03,5.15 0.76,5.08 0.48,5.01 0.19,4.96 -0.08,4.89 -0.39,4.85 -0.67,4.79 -0.98,4.76 -1.28,4.72 -1.6,4.68 -1.91,4.67 -2.23,4.64 -2.56,4.63 -2.89,4.61 -3.24,4.61 -3.57,4.61 -3.92,4.63 -4.27,4.63 -4.63,4.64 -4.98,4.67 -5.36,4.69 -0.33,0.74 0.07,1.05 0.58,2.89 -1.43,-2.06 -0.94,-1.6 -0.55,-1.21 -0.25,-0.85 v -0.96 c 0,0 0.08,-0.37 0.08,-0.37 l 1.51,-0.1 1.93,-0.87 2.27,-1.53 2.56,-2.09 2.78,-2.56 2.93,-2.96 6.07,-6.65 5.91,-7.06 2.73,-3.43 2.48,-3.25 2.19,-2.96 1.8,-2.59 1.38,-2.12 0.88,-1.56 2.2,-4.97 1.84,-5.04 1.49,-5.09 1.14,-5.16 0.83,-5.19 0.51,-5.22 0.21,-5.23 -0.08,-5.25 -0.95,-10.45 -1.93,-10.32 -2.78,-10.12 -3.54,-9.82 -0.41,-0.94 -0.56,-1.21 -1.57,-3.1 -2.08,-3.91 -2.51,-4.57 -2.86,-5.07 -3.11,-5.44 -6.68,-11.29 -3.39,-5.58 -3.32,-5.31 -3.17,-4.9 -2.9,-4.34 -2.59,-3.63 -2.19,-2.77 -0.91,-1 -0.77,-0.74 -0.63,-0.44 -0.47,-0.14 -0.52,0.45 -1.05,1.16 -1.38,1.67 -1.53,1.91 -1.5,1.95 -1.31,1.78 -0.92,1.35 -0.37,0.7 0.23,1.36 0.87,1.82 1.43,2.27 1.93,2.71 2.37,3.13 2.73,3.54 3.01,3.94 3.24,4.34 3.37,4.69 3.47,5.07 3.47,5.42 3.41,5.75 3.29,6.08 3.1,6.4 2.82,6.72 2.48,6.99 h -0.8 l -0.47,-1.2 -0.88,-1.57 -0.88,-1.36 -0.32,-0.44 -0.18,-0.17 -0.48,-0.06 -0.8,-0.04 -1.1,-0.03 h -1.36 c 0,0 -3.48,-0.01 -3.48,-0.01 l -4.34,0.07 -5.01,0.11 -5.52,0.14 -11.89,0.37 -11.88,0.45 -5.52,0.25 -5.01,0.25 -4.34,0.23 -3.48,0.23 -1.38,0.12 -1.1,0.1 -0.8,0.11 -0.48,0.1 -0.84,0.52 -1.06,1.09 -0.84,1.43 -0.14,1.58 -0.74,-0.04 h -0.85 c 0,0 1.23,-6.47 1.23,-6.47 l 1.71,-6.48 2.15,-6.48 2.53,-6.44 2.86,-6.39 3.14,-6.33 6.94,-12.36 7.45,-11.85 7.59,-11.21 7.3,-10.41 3.41,-4.85 3.19,-4.6 0.63,0.28 0.15,0.73 -0.04,0.81 v 0.54 c 0,0 0.04,-0.01 0.04,-0.01"
           id="path87" />
        <path
           class="cls-2"
           d="m 2563.34,1853.82 2.63,0.55 3.17,0.37 3.59,0.22 3.95,0.08 8.62,-0.12 8.98,-0.36 8.67,-0.39 3.99,-0.14 3.65,-0.08 h 3.24 l 2.71,0.11 2.11,0.26 1.43,0.41 0.33,0.41 0.62,0.96 0.83,1.35 0.91,1.56 0.89,1.57 0.76,1.4 0.52,1.06 0.19,0.54 -0.22,0.43 -0.55,0.37 -0.87,0.32 -1.16,0.28 -3.08,0.41 -3.99,0.26 -4.72,0.15 -5.3,0.04 -5.69,-0.04 -5.92,-0.07 -11.84,-0.19 -5.59,-0.06 h -5.13 l -4.53,0.08 -3.74,0.19 -2.79,0.33 -0.98,0.22 -0.69,0.28 -0.33,-0.83 v -1.47 c 0,0 0.28,-1.9 0.28,-1.9 l 0.56,-2.12 0.8,-2.12 1.03,-1.93 1.25,-1.51 1.42,-0.89"
           id="path88" />
        <path
           class="cls-2"
           d="m 2604.44,1833.45 2.48,0.84 2.62,1.73 2.23,2.53 0.81,1.53 0.52,1.69 -1.34,-0.28 -2.05,-0.17 -2.66,-0.07 h -3.15 l -3.54,0.06 -3.81,0.08 -8.04,0.23 -7.83,0.15 h -3.57 c 0,0 -3.19,-0.04 -3.19,-0.04 l -2.7,-0.15 -2.09,-0.26 -1.39,-0.37 -0.58,-0.52 -0.04,-1.95 0.74,-1.53 1.43,-1.14 2.01,-0.83 2.49,-0.54 2.88,-0.29 6.5,-0.1 6.83,0.28 6.36,0.25 h 2.74 c 0,0 2.34,-0.17 2.34,-0.17 l 1.8,-0.37 1.2,-0.61"
           id="path89" />
        <path
           class="cls-2"
           d="m 2591.02,1822.71 2.29,-0.04 2.62,-0.07 2.35,0.03 0.91,0.08 0.63,0.14 1.39,0.56 1.1,0.55 1.4,1.03 0.44,0.95 -0.4,0.87 -1.16,0.78 -1.79,0.7 -2.3,0.59 -2.71,0.52 -6.19,0.74 -6.47,0.36 -3.07,0.03 -2.79,-0.07 -2.42,-0.18 -1.93,-0.29 -0.22,-0.89 0.23,-0.84 0.62,-0.78 0.95,-0.72 2.66,-1.25 3.32,-1.02 3.5,-0.8 3.22,-0.56 2.51,-0.33 0.84,-0.08 0.48,-0.03 v 0"
           id="path90" />
        <path
           class="cls-2"
           d="m 2584.84,1809.74 3.7,2.52 2.95,2.08 2.22,1.69 1.56,1.34 0.91,1.05 0.34,0.78 -0.19,0.58 -0.67,0.4 -1.13,0.28 -1.51,0.19 -1.86,0.15 -2.16,0.15 -5.05,0.51 -5.7,1.03 -0.48,-1.02 0.32,-1.51 0.89,-1.83 1.25,-2 2.82,-3.83 1.13,-1.53 0.67,-1.03"
           id="path91" />
        <path
           class="cls-2"
           d="m 2615.4,1847.65 1.28,0.07 1.28,0.32 0.48,0.39 0.3,0.63 0.06,0.89 -0.26,1.25 -1.71,-0.5 -2.53,-0.3 -3.22,-0.14 h -3.8 l -4.25,0.1 -4.56,0.19 -9.6,0.51 -9.35,0.51 -4.27,0.18 -3.84,0.11 h -3.26 c 0,0 -2.57,-0.17 -2.57,-0.17 l -1.76,-0.3 -0.83,-0.51 -0.18,-0.85 0.36,-0.66 0.84,-0.48 1.29,-0.34 1.65,-0.22 2,-0.08 4.72,0.08 5.37,0.32 5.58,0.43 5.31,0.39 4.65,0.19 5.11,-0.34 5.33,-0.8 5.31,-0.73 5.07,-0.12"
           id="path92" />
        <path
           class="cls-2"
           d="m 2634.81,1662.08 -1.61,0.47 -1.61,0.65 -0.56,0.12 -0.94,0.12 -1.31,0.12 -1.61,0.12 -1.93,0.12 -2.2,0.12 -5.13,0.25 -5.93,0.22 -6.54,0.19 -14.07,0.32 -14.07,0.17 h -6.54 c 0,0 -5.92,-0.03 -5.92,-0.03 l -5.12,-0.11 -2.19,-0.08 -1.91,-0.08 -1.61,-0.11 -1.28,-0.14 -0.94,-0.15 -0.55,-0.17 -0.66,-0.81 -0.37,-1.23 -0.34,-1.07 -0.56,-0.43 v -1.32 c 0,0 0.1,-0.61 0.1,-0.61 l 0.34,-0.4 0.62,-0.22 0.95,-0.18 1.27,-0.15 1.57,-0.1 3.92,-0.12 h 4.86 l 5.6,0.07 6.19,0.12 6.62,0.17 6.86,0.18 13.78,0.26 6.59,0.04 6.15,-0.04 5.56,-0.17 4.79,-0.32 3.85,-0.47 1.53,-0.3 1.23,-0.36 -83.12,-0.77 0.14,-2.7 0.41,-1.18 0.73,-0.77 0.58,-0.19 0.95,-0.15 1.29,-0.12 1.61,-0.08 1.93,-0.04 2.19,-0.03 5.15,0.03 5.96,0.1 6.62,0.18 7.08,0.21 7.35,0.23 14.79,0.44 7.06,0.17 6.59,0.11 5.93,0.03 5.11,-0.07 2.18,-0.08 1.9,-0.11 1.6,-0.15 1.27,-0.19 1.17,1.78 -1.29,1.82 -0.81,2.19 -1.24,4.71 h 0.01"
           id="path93" />
        <path
           class="cls-2"
           d="m 2570.47,1931.09 -0.3,-0.4 -0.58,-0.92 -0.74,-1.29 -0.81,-1.51 -1.39,-3.1 -0.39,-1.28 -0.03,-0.91 61.91,2.77 -0.77,1.57 -0.95,1.97 -1.02,1.78 -0.5,0.66 -0.47,0.4 -0.99,0.26 -1.91,0.25 -2.71,0.25 -3.39,0.22 -3.92,0.19 -4.32,0.17 -9.36,0.23 -9.39,0.04 -4.39,-0.06 -4.01,-0.11 -3.5,-0.18 -2.84,-0.25 -2.08,-0.33 -1.16,-0.4 v 0"
           id="path94" />
        <path
           class="cls-2"
           d="m 2628.97,1872.42 h 0.8 l 1.75,5.08 1.87,5.48 1.58,5.63 0.84,5.55 v 7.7 c 0,0 -0.94,7.28 -0.94,7.28 l -1.71,6.88 -2.37,6.46 -2.9,6.04 -3.32,5.62 -3.61,5.19 -3.76,4.75 -3.8,4.32 -3.7,3.88 -3.5,3.43 -3.17,2.97 -2.7,2.52 -2.11,2.06 -1.4,1.6 -0.56,1.13 0.19,0.48 0.51,0.95 1.47,2.75 0.69,1.5 0.47,1.38 0.11,1.09 -0.39,0.67 -2.81,-4.82 -2.51,-4.23 -2.23,-3.69 -2,-3.22 -1.8,-2.84 -1.64,-2.51 -2.95,-4.31 -2.77,-3.84 -2.88,-3.94 -1.57,-2.18 -1.72,-2.4 -1.89,-2.7 -2.11,-3.07 1.16,0.4 2.06,0.33 2.85,0.25 3.48,0.18 4.01,0.11 4.39,0.06 9.4,-0.04 9.35,-0.23 4.32,-0.17 3.92,-0.19 3.39,-0.22 2.73,-0.25 1.91,-0.25 0.99,-0.26 0.47,-0.4 0.5,-0.65 1.02,-1.79 0.95,-1.95 0.77,-1.58 -61.91,-2.77 0.03,0.91 0.39,1.29 1.4,3.1 0.8,1.51 0.74,1.28 0.58,0.92 0.3,0.4 -4.17,-6.18 -3.81,-6.04 -3.36,-6.1 -2.75,-6.33 -2.04,-6.79 -0.72,-3.62 -0.48,-3.8 -0.23,-4.01 0.03,-4.24 0.29,-4.5 0.59,-4.78 h 0.85 c 0,0 0.74,0.03 0.74,0.03 l 1.83,0.51 2.81,0.39 3.63,0.25 4.35,0.14 4.93,0.03 5.38,-0.07 11.62,-0.39 11.89,-0.62 5.73,-0.39 5.42,-0.41 4.97,-0.43 4.42,-0.44 3.7,-0.44 2.89,-0.43 h -0.03"
           id="path95" />
        <path
           class="cls-2"
           d="m 2555.43,1896.94 1.09,0.3 1.39,0.28 3.57,0.45 4.5,0.37 5.27,0.28 5.86,0.19 6.29,0.15 13.19,0.18 6.57,0.07 6.32,0.07 5.92,0.08 5.33,0.11 4.58,0.17 3.68,0.22 1.43,0.14 1.16,0.17 0.83,0.18 0.51,0.21 0.66,0.76 0.41,1.13 0.15,1.38 -0.06,1.49 -0.73,2.81 -0.62,1.09 -0.77,0.69 -0.51,0.17 -0.85,0.15 -1.17,0.12 -1.49,0.12 -3.76,0.18 -4.69,0.12 -5.42,0.07 -5.99,0.03 -12.9,-0.12 -12.89,-0.3 -5.99,-0.21 -5.42,-0.25 -4.68,-0.28 -3.76,-0.32 -1.47,-0.17 -1.17,-0.17 -0.85,-0.18 -0.5,-0.18 -0.59,-0.74 -0.59,-1.4 -0.58,-1.84 -0.51,-2.05 -0.4,-2.02 -0.29,-1.78 -0.12,-1.31 0.08,-0.59 h -0.01"
           id="path96" />
        <path
           class="cls-2"
           d="m 2615.72,1876.88 6.39,-0.22 h 2.93 l 2.57,0.43 2.08,1.06 0.8,0.85 0.63,1.1 0.44,1.39 0.22,1.71 v 2.04 c 0,0 -0.26,2.42 -0.26,2.42 l -1,-0.26 -1.32,-0.21 -1.61,-0.17 -1.87,-0.12 -4.47,-0.15 h -5.26 c 0,0 -5.91,0.07 -5.91,0.07 l -6.35,0.14 -13.33,0.37 -6.64,0.18 -6.39,0.12 -5.93,0.06 -5.34,-0.06 -4.54,-0.18 -3.58,-0.36 -1.38,-0.23 -1.06,-0.29 -0.74,-0.36 -0.39,-0.4 -0.04,-0.33 v -0.7 c 0,0 0.01,-2.05 0.01,-2.05 l 0.18,-2.11 0.15,-0.78 0.21,-0.44 7.59,0.12 7.6,-0.21 15.23,-0.96 15.21,-1.09 7.59,-0.33 7.59,-0.06"
           id="path97" />
        <path
           class="cls-2"
           d="m 2555.57,1888.76 1.1,-0.15 2.09,-0.11 2.95,-0.04 h 3.68 c 0,0 4.25,0.01 4.25,0.01 l 4.72,0.07 10.26,0.21 10.46,0.26 4.98,0.15 4.64,0.14 4.16,0.14 3.54,0.14 2.79,0.11 1.91,0.08 7.3,0.47 3.22,0.34 2.77,0.48 2.16,0.66 1.46,0.91 0.59,1.17 -0.07,0.7 -0.33,0.8 -0.43,0.39 -0.78,0.32 -1.12,0.23 -1.43,0.17 -1.72,0.11 -2,0.06 -4.71,-0.07 -5.51,-0.23 -6.13,-0.39 -6.57,-0.48 -6.84,-0.56 -13.71,-1.17 -6.53,-0.55 -6.06,-0.47 -5.41,-0.37 -4.58,-0.21 -1.93,-0.03 h -1.65 c 0,0 -1.36,0.08 -1.36,0.08 l -1.03,0.12 -0.4,-0.87 0.21,-1.12 0.52,-1 0.52,-0.51 v 0"
           id="path98" />
        <path
           class="cls-2"
           d="m 2561.55,1914.58 69.89,2.89 -2.35,0.33 -3.25,0.3 -4.01,0.25 -4.63,0.21 -5.09,0.18 -5.44,0.14 -11.33,0.14 h -11.05 l -5.07,-0.06 -4.6,-0.1 -3.95,-0.14 -3.21,-0.17 -2.31,-0.21 -0.77,-0.11 -0.5,-0.12 -0.19,-0.12 -0.39,-0.3 -1,-0.96 -0.81,-1.16 -0.12,-0.54 0.18,-0.47 v 0"
           id="path99" />
        <path
           class="cls-2"
           d="m 2615.58,1934.16 1.83,0.14 1.47,0.22 1.13,0.32 0.8,0.39 0.48,0.45 0.18,0.5 -0.11,0.52 -0.39,0.55 -1.51,1.13 -2.45,1.09 -3.24,0.94 -3.91,0.69 -0.83,0.07 -1.28,0.04 -1.65,0.04 h -1.97 c 0,0 -4.61,0 -4.61,0 l -5.05,-0.06 -4.98,-0.11 -4.38,-0.14 -1.8,-0.07 -1.45,-0.08 -1.02,-0.1 -0.55,-0.08 -1.16,-0.41 -0.84,-0.4 -0.52,-0.39 -0.22,-0.37 0.36,-0.72 1.31,-0.65 2.12,-0.59 2.78,-0.54 3.29,-0.48 3.65,-0.43 7.81,-0.69 3.84,-0.28 3.62,-0.21 3.25,-0.15 2.73,-0.11 2.04,-0.04 h 1.24"
           id="path100" />
        <path
           class="cls-2"
           d="m 2608.52,1950.42 -23.14,-2.71 -0.34,-0.25 -0.62,-0.51 -0.43,-0.73 0.23,-0.87 7.02,0.37 6.54,-0.28 5.73,-0.56 2.46,-0.28 2.13,-0.21 1.78,-0.11 1.36,0.06 0.91,0.25 0.41,0.5 -0.11,0.78 -0.69,1.13 -1.29,1.5 -1.95,1.93 v 0"
           id="path101" />
        <path
           class="cls-2"
           d="m 2608.52,1950.42 -2.59,2.09 -2.73,1.57 -2.82,1 -2.85,0.4 -2.82,-0.25 -2.75,-0.96 -2.6,-1.71 -2.41,-2.51 21.57,0.36"
           id="path102" />
        <path
           class="cls-2"
           d="m 2608.52,1950.42 -21.57,-0.36 -0.84,-0.99 -0.33,-0.52 -0.39,-0.85 23.14,2.71 h -0.01"
           id="path103" />
        <path
           class="cls-2"
           d="m 2592.82,1957.18 8.38,0.72 -2.19,2.15 -1.67,1.54 -1.25,0.89 -0.92,0.26 -0.7,-0.39 -0.55,-1.05 -0.52,-1.72 -0.58,-2.41"
           id="path104" />
        <path
           class="cls-2"
           d="m 2564.56,1705.36 -0.06,-0.54 v -1.09 c 0,0 0.17,-1.16 0.17,-1.16 l 0.34,-0.72 0.85,-0.26 1.65,-0.19 2.33,-0.14 2.93,-0.08 3.4,-0.03 h 3.76 c 0,0 8.2,0.12 8.2,0.12 l 8.38,0.21 3.99,0.12 3.72,0.11 3.33,0.12 2.84,0.1 2.24,0.08 1.53,0.06 -0.08,0.23 -0.33,0.47 -1.09,1.32 -1.25,1.31 -0.54,0.47 -0.37,0.23 -0.87,0.14 -1.68,0.14 -2.38,0.12 -2.96,0.11 -3.43,0.1 -3.76,0.07 -8.11,0.07 -8.08,-0.08 -3.73,-0.1 -3.37,-0.15 -2.9,-0.21 -2.31,-0.26 -1.6,-0.32 -0.77,-0.39"
           id="path105" />
        <path
           class="cls-2"
           d="m 2626.58,1677.14 -0.52,1.56 -0.56,1.28 -1.31,1.98 -1.54,1.6 -1.79,1.68 -62.75,0.14 -1.28,-2.46 -1.45,-2.26 1.24,-2.31 2.64,0.29 3.47,0.1 4.19,-0.07 4.76,-0.19 5.2,-0.28 5.52,-0.36 11.47,-0.8 11.19,-0.7 5.16,-0.23 4.71,-0.14 h 4.12 c 0,0 3.4,0.19 3.4,0.19 l 2.55,0.37 1.58,0.62"
           id="path106" />
        <path
           class="cls-2"
           d="m 2595.34,1729.25 -0.14,0.08 -0.4,0.29 -0.39,0.37 -0.55,0.59 -0.77,0.88 -1,1.24 -2.19,1.78 -2.05,1.24 -1.87,0.74 -1.69,0.34 -1.46,-0.03 -1.21,-0.3 -0.94,-0.55 -0.63,-0.72 -0.32,-0.81 0.04,-0.87 0.43,-0.84 0.83,-0.77 1.27,-0.62 1.72,-0.43 2.2,-0.15 2.71,0.18 -0.15,-0.33 -0.45,-0.19 -1.6,-0.12 -2.24,0.06 h -2.53 c 0,0 -2.49,-0.25 -2.49,-0.25 l -2.09,-0.74 -0.77,-0.63 -0.55,-0.84 -0.28,-1.09 0.06,-1.34 4.86,0.37 4.34,-0.06 3.72,-0.26 3.04,-0.22 2.26,0.04 0.83,0.19 0.58,0.33 0.36,0.52 0.11,0.72 -0.15,0.96 -0.41,1.23"
           id="path107" />
      </g>
      <g
         id="g109"
         inkscape:export-filename="logo.svg"
         inkscape:export-xdpi="96"
         inkscape:export-ydpi="96"
         transform="translate(-2004.03,-1178.1267)">
        <path
           class="cls-5"
           d="m 2345,2316.69 v 63.27 h 499.07 V 2253.43 H 2345 v 63.27 z m 98.15,-29.15 v 5.69 h -11.37 v -11.37 h 11.37 v 5.69 z m 21.33,19.91 0.71,24.88 10.66,0.43 c 12.23,0.43 14.22,-0.85 14.22,-10.09 0,-9.81 -1.42,-10.95 -13.65,-10.95 h -10.66 l 0.43,-5.4 0.43,-5.26 12.37,-0.43 c 11.94,-0.43 12.51,-0.28 17.06,3.84 l 4.69,4.12 v 13.79 q 0,13.79 -4.69,17.91 c -4.41,3.98 -4.98,4.12 -19.48,4.12 -14.5,0 -15.07,-0.14 -19.48,-4.12 l -4.69,-4.12 -0.43,-27.3 -0.43,-27.15 6.11,0.43 6.11,0.43 0.71,24.88 z m 55.44,-0.71 c 0,28.72 -1.14,26.87 15.64,26.02 l 9.24,-0.43 0.43,-9.1 c 0.28,-6.4 -0.14,-9.53 -1.42,-10.24 -1,-0.71 -6.11,-1.28 -11.37,-1.28 h -9.67 v -11.37 h 11.37 c 12.23,0 18.62,2.13 21.33,6.97 0.71,1.56 1.42,8.67 1.42,15.78 0,12.51 -0.14,13.22 -4.12,17.2 -4.12,3.98 -4.55,4.12 -18.62,4.12 -15.21,0 -21.33,-1.85 -24.17,-6.97 -0.85,-1.71 -1.42,-13.79 -1.42,-29.14 v -26.44 h 11.37 v 24.88 z m 56.87,0.71 0.71,24.88 3.98,0.43 c 3.41,0.43 3.84,1 3.84,6.11 q 0,5.54 -5.69,5.54 c -4.27,0 -6.82,-1 -10.24,-4.12 l -4.69,-4.12 -0.43,-27.3 -0.43,-27.15 6.11,0.43 6.11,0.43 0.71,24.88 z m 25.59,-19.91 v 5.69 h -11.37 v -11.37 h 11.37 v 5.69 z m -176.29,4.27 v 5.54 l -10.95,0.43 -11.09,0.43 -0.43,23.03 -0.28,23.17 h -11.37 v -46.92 h -22.75 v -11.37 h 56.87 z m 370.78,-3.98 c 1.28,1.28 1.71,9.67 1.71,29.14 v 27.44 h -11.37 v -14.36 l -17.34,0.43 -17.49,0.43 -0.43,6.82 -0.43,6.68 H 2740 l 0.57,-18.91 c 0.43,-17.49 0.71,-19.19 4.27,-25.45 2.99,-4.83 5.83,-7.53 11.37,-10.24 6.68,-3.27 8.96,-3.7 23.17,-3.7 10.38,0 16.35,0.57 17.49,1.71 z m 24.45,27.44 v 29.14 h -11.37 v -58.29 h 11.37 v 29.14 z m -378.17,7.11 v 22.04 h -11.37 v -44.07 h 11.37 v 22.04 z m 159.23,0 v 22.04 h -11.37 v -44.07 h 11.37 v 22.04 z m 45.92,-20.05 c 9.1,3.84 10.24,6.4 10.66,25.16 l 0.57,16.92 h -11.66 v -14.07 c 0,-17.34 -1,-18.62 -15.92,-18.62 h -9.67 v 32.7 h -11.37 v -20.33 c 0,-13.93 0.57,-20.9 1.71,-22.04 2.42,-2.42 29.71,-2.27 35.68,0.28 z m 62.84,2.56 c 4.41,5.12 5.54,13.08 4.69,33.41 -0.57,16.35 -0.71,16.49 -5.12,20.47 -4.27,3.84 -5.26,4.12 -17.34,4.12 h -12.8 v -11.23 l 11.09,-0.43 10.95,-0.43 0.43,-18.34 c 0.28,-13.79 -0.14,-18.62 -1.42,-19.62 -2.84,-1.71 -20.19,-1.42 -22.18,0.57 -1,1 -1.71,4.98 -1.71,8.96 0,3.98 0.71,7.96 1.71,8.96 1,1 5.69,1.71 11.37,1.71 h 9.67 v 11.37 h -11.37 c -19.48,0 -23.46,-4.27 -22.46,-24.31 0.43,-10.95 0.71,-11.66 5.26,-15.78 l 4.69,-4.27 15.64,0.57 c 14.93,0.43 15.78,0.57 18.91,4.27 z"
           id="path108" />
        <path
           class="cls-5"
           d="m 2762.18,2300.2 c -5.69,2.56 -7.68,5.69 -9.67,14.64 l -0.85,3.98 h 35.54 v -21.33 h -9.53 c -6.26,0 -11.66,1 -15.5,2.7 z"
           id="path109" />
      </g>
    </g>
  </g>
</svg>
