<svg version="1.1" id="Layer_1" xmlns="http://www.w3.org/2000/svg" xmlns:xlink="http://www.w3.org/1999/xlink" x="0px" y="0px" viewBox="0 0 288.4 113.1" style="enable-background:new 0 0 288.4 113.1;" xml:space="preserve">
 <style type="text/css">
  .st0{fill:#003087;}
	.st1{fill:#FFFFFF;}
	.st2{fill:#C14991;}
 </style>
 <g>
  <path class="st0" d="M107.9,36c0,19.9-12.9,36-28.8,36c-15.9,0-28.8-16.1-28.8-36c0-19.9,12.9-36,28.8-36
		C95.1,0,107.9,16.1,107.9,36">
  </path>
  <path class="st1" d="M79.2,4.2C65.5,4.2,54.4,18.5,54.4,36c0,17.6,11.1,31.9,24.7,31.9c13.6,0,24.7-14.3,24.7-31.9
		C103.9,18.5,92.8,4.2,79.2,4.2 M79.2,69.5c-14.5,0-26.3-15-26.3-33.4c0-18.4,11.8-33.4,26.3-33.4c14.5,0,26.3,15,26.3,33.4
		C105.5,54.5,93.7,69.5,79.2,69.5">
  </path>
  <path class="st1" d="M86.9,13.2v0.1c-0.6,0.2-1.3,0.4-2,0.6c-0.2,0-0.4,0.1-0.4,0.2v0.1c0.9,0.6,1.9,1.4,2.9,1.9
		c0-0.8-0.1-1.7-0.1-2.5l0.1-0.1c2.1,1.2,4,2.4,6.2,3.6v0.2c-1,0.4-2.2,0.7-3.1,1.3c-2.1-1-4.1-2.5-6-3.8c-1.5-1.1-3.1-2.3-4.5-3.5
		c-0.1-0.2,0.1-0.3,0.2-0.4c0-1,0.2-2,0.2-3.1l0.4,0.2L86.9,13.2z">
  </path>
  <path class="st1" d="M88.2,11.3c1.8,1.6,3.3,3.1,5,5C90,14.8,87,13,84.4,10.5c-1-0.9-2-1.7-2.9-2.6h0.2L88.2,11.3z">
  </path>
  <path class="st1" d="M79.7,12.3c3.1,2.5,6.4,5,9.8,6.9c0.1,0.1,0.2,0.4,0.1,0.6c-0.2,0.2-0.6-0.1-0.8-0.1c-3.2-2-6.5-4.2-9.4-6.6
		c-0.2-0.2-0.2-0.5-0.1-0.7C79.3,12.3,79.5,12.3,79.7,12.3">
  </path>
  <path class="st1" d="M81.8,20.4c-0.9-0.2-1.8-0.7-2.2-1.4c-0.1-0.1-0.1-0.4,0.1-0.4c0.9,0.9,2.2,1.4,3.4,1.3
		c0.1,0.1,0.4,0.2,0.2,0.4c-0.2,0.1-0.5,0.1-0.7,0.2c0.5,1,1.7,1.3,2.6,1.6c0.1,0.2-0.1,0.2-0.2,0.2C83.8,22.3,82.4,21.7,81.8,20.4
		 M84.1,20.2c1,0.4,2,0.9,3.1,0.6c0.3,0,0.5,0.1,0.5,0.3c0,0.2-0.1,0.4-0.3,0.4C86,21.7,85,20.9,84,20.4L84.1,20.2z M96,36.6
		c-0.1-2.7-2.8-3.6-4.3-5.2c-0.4-0.3-0.7,0.2-1.1,0.1c-0.7-0.4,0.4-0.4,0.4-0.9c-0.6-0.8-0.6-1.9-1.2-2.7c-0.4-0.2-0.6,0.2-1,0
		c-0.2-1.3-0.6-2.6-1.2-3.7c-1.4-0.9-1.4,1.4-2.6,1.3c0-0.1-0.1-0.1-0.1-0.2c0-0.2,0.3-0.2,0.4-0.4c0.3-0.2,0.3-0.8,0.3-1.2
		c-0.2-0.4-0.7-0.4-1.1-0.4c-0.2,0-0.3-0.2-0.2-0.5c0.4-0.6,1-0.1,1.6-0.1c0.6-0.4,1.2-0.2,1.8-0.5c0.5-0.2,0.6-0.6,0.6-1.1
		c0.2-0.1,0.4,0.1,0.6-0.1c0-0.3-0.1-0.7-0.2-0.9c-2-1.1-3.6-3-6-3.7c-0.4-0.2-1.2,0.1-1-0.6c-0.2-0.7-1.1-0.7-1.7-0.9
		c-0.1-0.2-0.1-0.4,0.1-0.5c0.1-0.1,0.1-0.2-0.1-0.4c-0.7-0.2-1-1.1-1.4-1.7c-0.4-0.3-1-0.5-1.5-0.4c-1.2,0-1.3,1.6-2,2.3
		c-0.2,0.5-0.8,0.8-0.8,1.5c0.3,0.9,1.5,1,2.4,1.2c0.4-0.1,0.9,0.1,1-0.2c0.1-0.2-0.1-0.2-0.2-0.2c-0.3-0.1-0.4-0.4-0.3-0.7
		c0.2-0.2,0.5-0.3,0.8-0.3c0.5,0.4,0.9-0.2,1.4-0.1c0.5,0.1,0.7,0.6,0.8,1c-0.6-0.1-1.2-0.4-1.8-0.2c-0.2,0.3,0,0.6,0.1,0.9
		c0.4-0.1,0.9-0.1,1.3-0.2c0.2,0,0.5,0.1,0.6,0.4c1.2,0.2,2.6,0.2,3.6,1c0,0.4,0.6,0.7,0.2,1c-1.2-1.2-2.9-1.4-4.5-1
		c-0.3-0.2,0.1-0.6-0.2-0.7c-1,0.2-1.9,0.6-2.9,1l-0.1-0.1c0.1-0.2,0-0.3,0.1-0.4c-0.2-0.1-0.4-0.3-0.7-0.3
		c-0.4,0.7,0.3,1.5,0.2,2.2c0.3,0.8,0.7-0.2,1.2-0.1c0.4,0,0.9-0.3,1.2,0.1c-0.5,0.2-1,0.3-1.4,0.7c-0.1,0.2,0.1,0.3,0.1,0.4
		c0.4,0.6,1.3,0.2,1.8,0.5c0,0.1-0.1,0.2-0.2,0.4c-0.7,0.1-1.1,0.7-1.5,1.2c-0.4-0.1-0.2-0.6-0.3-0.8c-0.1-0.3-0.4-0.3-0.6-0.3
		c-0.2,0.8-0.5,1.5-0.6,2.2c0.1,0.5,0.7,0.3,1,0.4c0.5,0.1,0.2,0.7,0.4,1c0.4,0.1,1,0.1,1.5,0c0.1,0.1,0.1,0.2,0.1,0.4
		c-0.2,0.3-0.5,0.4-0.8,0.4c-0.1,0.1-0.4,0.3-0.2,0.6c0.8,0.4-0.1,1.6,0.7,2c0.8,0.4,2,0.2,2.7-0.1c0.5-0.1,0.8-0.7,1.4-0.5
		c0.1,0.1,0.2,0.1,0.2,0.2c1.2,0.1,2.4-0.1,3.5-0.3c0.4,0.1,0.9-0.3,1.1,0.1c0,0.1,0.1,0.1,0,0.2c-1.5,0.6-3.4,0.6-5,0.8
		c-1,0.3-0.6,1.4-0.7,2.3c-0.6,0.3-0.4-0.6-0.8-0.9c-1.6,0.1-2.9,0.6-4.4,1c-0.9,0.5-1.4,1.5-1.6,2.5c0,0.6-0.2,1.3,0.3,1.5
		c1.2,0.4,3,0.6,4.1-0.2c0.9-0.3,1.7-1.1,2.6-0.7c0.5-0.8,1.3-1.7,2.2-2.2c0.4-0.1,0.4-0.5,0.8-0.6c0.4,0.1,0.2,0.6,0.3,0.7
		c0.9,0.1,1.7-0.2,2.5-0.1c0.5,0.2,0.6,0.7,0.7,1.1c0,0.2-0.1,0.4-0.1,0.6c0.3,0.6-0.4,0.9-0.1,1.6c-1,1.6-2.5,2.9-4.5,3.3
		C83,39.3,83.3,40,83,40.3c-2.1,1.4-5.4,2.1-6.1,5c-0.4,1.5,0.9,2.1,1.8,2.8c1.2,0.2,1.8,1.8,3.3,1.5c0.6-1.5,0.7-3.3,1.4-4.8
		c1.8-3.1,3.9-6.1,6.6-8.3c0.9-0.7,1.8-1.6,3.1-1.6c0.2,0,0.1,0.2,0.1,0.2c-1.2,0.4-2.1,1.2-2.9,1.9c-0.7,0.7-1.6,1.5-2,2.5
		c-1.5,1.9-3.1,4.2-4.1,6.4c-0.1,0.7-0.2,1.5-0.1,2.3c0.2,0,0.3-0.3,0.5-0.4c1-2.2,2.1-4.3,3.3-6.3c0.7-1,1.3-2.3,2.5-2.8l0.1,0.1
		c-1.4,1.8-2.6,3.9-3.6,6c-0.7,1.7-1.7,3.3-1.8,5.2c0.2,0.5,0.9,0.3,1.2,0.7c0.3,0.2,0.4,0.6,0.3,0.9c-0.1,0.2-0.3,0.5-0.6,0.5
		c-0.5-0.1-0.4-0.7-0.7-1c-0.2,0-0.4-0.2-0.5,0c-0.1,0.7,0.7,1.4,0.1,2.1c-0.6,0.4-0.4-0.5-0.8-0.7c-0.2-0.1-0.6-0.1-0.7,0
		c-1.8,1.7-4.3,2.6-6.8,2.9c-0.8,0.4-2.5-0.2-2.5,1.1c0.1,1.2-0.1,2.7,0.9,3.4c2.5,0.2,5.1,0.2,7.4-0.4c1.8-0.4,3.5-1,5-1.8
		c2.5-1.9,3.7-5,5.3-7.6C95.2,46.1,97,41.5,96,36.6">
  </path>
  <path class="st1" d="M91.5,20.8c0,1.4-0.1,2.8-1.2,3.6c-0.7,0.3-1.5,0.1-2.1-0.4v-0.2c0.4,0.1,1.1,0.3,1.5-0.1c0-0.2,0-0.4-0.2-0.4
		c-0.6,0.2-1-0.1-1.6-0.2c-0.1-0.1-0.1-0.2-0.1-0.4c0.3-0.1,0.7-0.1,0.9-0.6c-0.2-0.8,0.9-0.8,0.9-1.5c0.2-0.3,0.7-0.6,1.2-0.4
		C91.1,20.3,91.4,20.5,91.5,20.8">
  </path>
  <path class="st1" d="M73.3,30c-0.2,0.1-0.2-0.2-0.4-0.4c0.1-0.2,0.6-0.1,0.8-0.1C73.9,29.8,73.5,29.8,73.3,30 M73.5,31.1
		c-0.1,0.2-0.3,0.3-0.6,0.2c-0.2-0.1-0.5-0.4-0.8-0.3v-0.2c0.5,0.3,0.7-0.3,1.2-0.2c0.1-0.1,0.3-0.2,0.4-0.1
		C73.7,30.7,73.5,30.9,73.5,31.1 M71.4,27.2L71,27.4c-0.1-0.2,0.2-0.2,0.2-0.4c0.5,0,1.2-0.2,1.4,0.5c0.1,0.3,0.1,0.7-0.2,0.8h-1.5
		C70.8,27.7,71.8,27.8,71.4,27.2 M69.9,26.6c-0.1,0.4-0.1,0.9-0.4,1c-0.2-0.1-0.6-0.4-0.7,0.1L68.7,29c-0.1,0.1-0.4,0.1-0.4-0.1
		c-0.1-0.9,0.1-1.8,0.6-2.4c0.2,0.2,0.6,0.1,0.7-0.2c0.2-0.3,0.4-1,0.9-1c0.1,0.3,0.5,0.4,0.7,0.2l0.2,0.1c0,0.4-0.2,0.6-0.6,0.8
		C70.4,26.3,70.1,26,69.9,26.6 M72.8,25.2c0.4-0.5,0.3-1.2,0.7-1.7c0.2-0.1,0.4,0.1,0.4,0.2l-0.1,0.8c-0.8-0.1-0.4,1.5-1.4,1.1
		l-0.2-0.3C72.3,25,72.6,25.3,72.8,25.2 M66.7,27.2c-0.4-0.1-0.1-0.7-0.4-1c-0.6,0.4-0.2,1.3-0.8,1.8c-0.1,0-0.2-0.1-0.3-0.2
		c0.6-0.7,0.2-1.8,0.8-2.6c0.5-0.1,0.5,0.7,1,0.3C67.1,26,67.1,26.8,66.7,27.2 M74.5,27.9c-0.3-0.2-0.6,0.2-0.8,0
		c0.1-0.5,0.3-1,0.8-1.2c0.2-0.5,0.1-1.3-0.3-1.7c0.1-0.1,0.2-0.2,0.4-0.2c0.2-0.8,0.3-1.9-0.4-2.5c-0.4-0.1-0.7-0.4-1.1-0.3
		c0,0-0.1,0-0.1-0.1c-0.3-0.1-0.8-0.2-1.1,0c-0.6-0.5-1.4-0.4-2.1-0.6c-1.2-0.3-2.2,0.4-3.1,1c-2.2,1-1.3,3.7-2.6,5.3
		c-0.2,1-0.2,2.3,0.6,3.1c0.7-0.1,1.2,0.6,1.8,0.4c1-0.5-0.5-1.1-0.1-1.8c0.6-0.1,0.4,0.7,0.9,0.9c0.4,0.1,0.6-0.4,0.9-0.4
		c0.6,0.3,0.2,1,0.6,1.5c0.8,1.2,2.2,1.6,3.7,1.7c1-0.1,1.5-0.8,2-1.7C74.9,30.3,75.3,28.8,74.5,27.9">
  </path>
  <path class="st1" d="M69.8,33.5c0.5,0.4,1.8-0.1,1.7,0.9c0.7,0.5,1.5,0.9,2.2,1.4l2.3,1.8h0.3c0.2-0.2-0.5-0.6,0-0.7
		c1.7,0.3,3.1-0.9,4.6-1.4c0.4-0.1,0.7,0.2,0.9,0.5c0.5,1.2,0.7,2.5,0.7,3.7c-0.6,0.3-1,0.7-1.7,0.8c-0.7-0.4-1.3,0.2-1.8,0.4
		c-1.7,1-3.7,2.2-5.9,1.2c-1.8,1.2-3.3-1-5-1.2c-0.2,0.2-0.3,0.5-0.2,0.9c0.3,0.2,0.8,0.1,1.2,0.3c1,0.6,1.7,1.8,3.1,1.6
		c0,0.1,0.1,0.1,0.1,0.1v0.2c-0.6,0.4-1.5,1-1.7,1.7c0.1,0.2,0.4,0.2,0.6,0.1c1.1-0.6,2-1.6,3.3-1.7c0.6,0.6-0.6,1-0.2,1.7
		c0.7,0.6,1,1.5,0.7,2.4c-0.4,0.6-1.2,0.7-1.4,1.4c-0.1,0.2,0.1,0.6,0.4,0.7c1,0,1.2-2,2.6-1.3c1.1,0.5,2.5,0.3,3.3,1.3
		c0.4,0.6,0.7,1.4,1,2.1c-0.2,0.5-0.9,0.6-1.4,0.8c-2.1,0.9-4.6,1.1-6.8,1.9c-2,0.1-3.7-1.4-5.6-0.3c-1.2,0.2-2.4-0.3-3.3-0.9
		c-0.9-0.7-0.5-2.1-1.5-2.8c-1.6-4.1,0.2-8.2,0.9-12.1c0.9-1.7,0.5-4,2.3-5.2c0.8-0.4,1.4-1,1.8-1.7c0.9-0.1,1,1,1.8,1.1L69.8,33.5z
		">
  </path>
  <path class="st1" d="M87.3,33.5c-0.1,0.3,0.1,0.4,0.2,0.6c-0.1,0.6-0.1,1.2-0.3,1.7c-0.8,1-2,1.9-3.4,2c-0.8-0.1-1-1-1.4-1.6
		c0.1-1,0.6-2.2,1.7-2.6c0.3-0.2,0.6,0.1,0.9,0c0.8,0,1.4-0.5,2.2-0.3L87.3,33.5z">
  </path>
  <path class="st1" d="M72.5,56.9c0.6,0.6,0.6,1.7,0.3,2.5c-1.3,0.5-2.7,0.9-4.1,1c-0.6,0-1.3,0-1.7-0.4c-0.1-0.6-1-0.5-1-1.2
		c-0.1-0.3-0.6-0.2-0.7-0.6c0.2-0.5-0.3-0.7-0.4-1.1c0.1-1,1.4-0.9,2-1.2c0.8-1.1,2.3-0.4,3.3-0.2C71.1,56,71.9,56.4,72.5,56.9">
  </path>
  <path class="st1" d="M92,60.7c-0.5,0.4-0.9,0.9-1.5,1.2c-0.9-0.9-2-2-2.5-3.1c0-0.2,0-0.4,0.2-0.4C90,58.2,91.1,59.5,92,60.7">
  </path>
  <path class="st1" d="M85,61.4c0.4,1,0.6,2,0.9,2.9c-0.4,0.4-1.2,0.5-1.8,0.8c-5.3,1.6-11.7,0.6-15.8-2.6c0.2-0.4,0.4-0.9,0.9-1
		c0.7-0.1,1.4,0.4,2.2,0.4c0,0,0.9,0.2,1.3,0c0.6,0,1-0.5,1.6-0.7c0.9-0.1,1.8-0.1,2.7-0.2c1.5,0.7,4.4,0.3,4.7,0.2
		c0.3-0.1,1.7-0.9,2.6-1.2C85,60.1,84.7,61,85,61.4">
  </path>
  <path class="st1" d="M88.2,60.5c0.7,0.7,1.3,1,1.6,1.8c-0.1,0.2-0.4,0.4-0.7,0.6c-0.5-0.2-0.7-1-1.3-0.9c-0.2,0.6,0.5,0.9,0.4,1.5
		c-0.4,0.2-1,0.5-1.5,0.6c-0.6-0.9-0.8-1.8-1-2.8c0.1-1.2,1.5-0.2,2.2-0.8L88.2,60.5z">
  </path>
  <path class="st1" d="M124.1,19.1c1.7,0,2.7-1.1,2.7-2.7c0-1.6-1-2.7-2.7-2.7h-3.6v5.4H124.1z M123.7,10.9c1.5,0,2.3-1.1,2.3-2.4
		c0-1.3-0.8-2.3-2.4-2.3h-3.2v4.7H123.7z M117,3.3h6.7c3.4,0,5.8,1.7,5.8,4.8c0,1.7-0.8,3.2-2.3,4v0.1c2.1,0.6,3,2.5,3,4.4
		c0,3.8-3,5.4-6.5,5.4H117V3.3z">
  </path>
  <path class="st1" d="M139.2,19.5c2.2,0,4-1.7,4-4.2c0-2.5-1.8-4.2-4-4.2c-2.2,0-4,1.7-4,4.2C135.2,17.8,137.1,19.5,139.2,19.5
		 M139.2,8.3c4.1,0,7.4,2.9,7.4,7.1c0,4.1-3.3,7.1-7.4,7.1c-4.1,0-7.4-2.9-7.4-7.1C131.8,11.2,135.1,8.3,139.2,8.3">
  </path>
  <path class="st1" d="M149.2,18c0,0,1.5,1.5,3.7,1.5c1,0,1.8-0.4,1.8-1.2c0-2-6.6-1.7-6.6-6.1c0-2.5,2.2-4,5.2-4
		c3,0,4.5,1.5,4.5,1.5l-1.2,2.5c0,0-1.2-1.2-3.3-1.2c-0.9,0-1.7,0.4-1.7,1.2c0,1.9,6.6,1.7,6.6,6c0,2.2-2,4-5.1,4
		c-3.4,0-5.2-2-5.2-2L149.2,18z">
  </path>
  <path class="st1" d="M161,11.4h-1.7V8.8h1.8V4.9h3.3v3.9h3.1v2.7h-3.1v5.2c0,2.2,1.7,2.5,2.7,2.5c0.4,0,0.6-0.1,0.6-0.1v2.9
		c0,0-0.4,0.1-1,0.1c-1.9,0-5.6-0.6-5.6-5.1V11.4z">
  </path>
  <path class="st1" d="M176.3,19.5c2.2,0,4-1.7,4-4.2c0-2.5-1.8-4.2-4-4.2c-2.2,0-4,1.7-4,4.2C172.3,17.8,174.1,19.5,176.3,19.5
		 M176.3,8.3c4.1,0,7.4,2.9,7.4,7.1c0,4.1-3.3,7.1-7.4,7.1c-4.1,0-7.4-2.9-7.4-7.1C168.9,11.2,172.2,8.3,176.3,8.3">
  </path>
  <path class="st1" d="M185.7,8.6h3.2v1.6c0,0.5-0.1,0.9-0.1,0.9h0.1c0.6-1.1,2.1-2.8,4.8-2.8c3,0,4.7,1.6,4.7,5.1V22H195v-8
		c0-1.6-0.4-2.7-2.1-2.7c-1.8,0-3.1,1.1-3.6,2.7c-0.2,0.6-0.2,1.2-0.2,1.8V22h-3.4V8.6z">
  </path>
  <path class="st1" d="M125,26.1c4.6,0,6.9,2.6,6.9,2.6l-1.6,2.5c0,0-2.1-2-5.1-2c-4,0-6.3,3-6.3,6.4c0,3.6,2.4,6.7,6.3,6.7
		c3.2,0,5.4-2.4,5.4-2.4l1.8,2.5c0,0-2.6,3-7.4,3c-5.7,0-9.7-4.3-9.7-9.8C115.4,30.2,119.5,26.1,125,26.1">
  </path>
  <path class="st1" d="M134.8,26.4h3.4v6.5c0,0.7-0.1,1.1-0.1,1.1h0.1c0.7-1.3,2.3-2.7,4.6-2.7c3,0,4.7,1.6,4.7,5.1v8.7h-3.3v-8
		c0-1.6-0.4-2.7-2.1-2.7c-1.8,0-3.1,1.2-3.6,2.8c-0.2,0.5-0.2,1.1-0.2,1.7v6.2h-3.4V26.4z">
  </path>
  <rect x="150.7" y="31.7" class="st1" width="3.4" height="13.5">
  </rect>
  <path class="st1" d="M170,42.6c1.7,0,3.4-1.3,3.4-4.3c0-2.1-1.1-4.1-3.4-4.1c-1.8,0-3.4,1.5-3.4,4.2C166.6,41,168,42.6,170,42.6
		 M169.3,31.3c3,0,3.9,1.7,3.9,1.7h0.1c0,0,0-0.3,0-0.8v-5.9h3.4v18.8h-3.2V44c0-0.5,0.1-0.9,0.1-0.9h-0.1c0,0-1.1,2.3-4.2,2.3
		c-3.6,0-6-2.9-6-7.1C163.2,34.1,165.8,31.3,169.3,31.3">
  </path>
  <path class="st1" d="M179.8,31.7h3.2V34c0,0.5-0.1,1-0.1,1h0.1c0.6-1.9,2.2-3.5,4.3-3.5c0.3,0,0.6,0.1,0.6,0.1v3.3
		c0,0-0.3-0.1-0.8-0.1c-1.4,0-3,0.8-3.7,2.8c-0.2,0.7-0.3,1.4-0.3,2.2v5.3h-3.4V31.7z">
  </path>
  <path class="st1" d="M198.1,36.7c-0.1-1.8-1.2-2.8-2.7-2.8c-1.7,0-2.9,1.1-3.2,2.8H198.1z M195.5,31.3c3.9,0,6,2.8,6,6.4
		c0,0.4-0.1,1.3-0.1,1.3h-9.3c0.2,2.4,2,3.6,4,3.6c2.2,0,3.9-1.5,3.9-1.5l1.3,2.4c0,0-2.1,1.9-5.4,1.9c-4.5,0-7.2-3.2-7.2-7.1
		C188.6,34.2,191.5,31.3,195.5,31.3">
  </path>
  <path class="st1" d="M204,31.7h3.2v1.6c0,0.5-0.1,0.9-0.1,0.9h0.1c0.6-1.1,2.1-2.8,4.8-2.8c3,0,4.7,1.6,4.7,5.1v8.7h-3.3v-8
		c0-1.6-0.4-2.7-2.1-2.7c-1.8,0-3.1,1.1-3.6,2.7c-0.2,0.6-0.2,1.2-0.2,1.8v6.2H204V31.7z">
  </path>
  <path class="st1" d="M220.8,41.1c0,0,1.5,1.5,3.7,1.5c1,0,1.8-0.4,1.8-1.2c0-2-6.6-1.7-6.6-6.1c0-2.5,2.2-4,5.2-4
		c3,0,4.5,1.5,4.5,1.5l-1.2,2.5c0,0-1.2-1.2-3.3-1.2c-0.9,0-1.7,0.4-1.7,1.2c0,1.9,6.5,1.7,6.5,6c0,2.2-2,4-5.2,4
		c-3.4,0-5.2-2-5.2-2L220.8,41.1z">
  </path>
  <polygon class="st1" points="117,49.5 120.4,49.5 120.4,57.4 129,57.4 129,49.5 132.4,49.5 132.4,68.2 129,68.2 129,60.3 
		120.4,60.3 120.4,68.2 117,68.2 	">
  </polygon>
  <path class="st1" d="M142.3,65.7c2.2,0,4-1.7,4-4.2c0-2.5-1.8-4.2-4-4.2c-2.2,0-4,1.7-4,4.2C138.2,64,140.1,65.7,142.3,65.7
		 M142.2,54.4c4.1,0,7.4,2.9,7.4,7.1c0,4.1-3.3,7.1-7.4,7.1c-4.1,0-7.4-2.9-7.4-7.1C134.8,57.4,138.1,54.4,142.2,54.4">
  </path>
  <path class="st1" d="M152.2,64.2c0,0,1.5,1.5,3.7,1.5c1,0,1.8-0.4,1.8-1.2c0-2-6.6-1.7-6.6-6.1c0-2.5,2.2-4,5.1-4
		c3,0,4.5,1.5,4.5,1.5l-1.2,2.5c0,0-1.2-1.2-3.3-1.2c-0.9,0-1.7,0.4-1.7,1.2c0,1.9,6.6,1.7,6.6,6c0,2.2-2,4-5.2,4
		c-3.4,0-5.2-2-5.2-2L152.2,64.2z">
  </path>
  <path class="st1" d="M169.8,65.7c1.8,0,3.4-1.5,3.4-4.2c0-2.6-1.4-4.2-3.4-4.2c-1.7,0-3.4,1.3-3.4,4.3
		C166.4,63.6,167.6,65.7,169.8,65.7 M163.2,54.7h3.1v1c0,0.5-0.1,0.9-0.1,0.9h0.1c0,0,1.2-2.2,4.3-2.2c3.6,0,6,2.9,6,7.1
		c0,4.3-2.6,7.1-6.2,7.1c-2.7,0-3.9-1.8-3.9-1.8h-0.1c0,0,0.1,0.5,0.1,1.2v5.7h-3.4V54.7z">
  </path>
  <rect x="178.8" y="54.7" class="st1" width="3.4" height="13.5">
  </rect>
  <path class="st1" d="M186.2,57.6h-1.7V55h1.8v-3.9h3.3V55h3.1v2.7h-3.1v5.2c0,2.2,1.7,2.5,2.7,2.5c0.4,0,0.6-0.1,0.6-0.1v2.9
		c0,0-0.4,0.1-1,0.1c-1.9,0-5.6-0.6-5.6-5.1V57.6z">
  </path>
  <path class="st1" d="M199.8,65.9c1.8,0,3-1.9,3-3.5v-0.3h-0.6c-1.7,0-4.5,0.2-4.5,2.1C197.8,65.1,198.5,65.9,199.8,65.9
		 M202.4,59.8h0.5v-0.2c0-1.8-1.1-2.4-2.6-2.4c-1.9,0-3.7,1.3-3.7,1.3l-1.3-2.4c0,0,2.1-1.7,5.3-1.7c3.5,0,5.6,2,5.6,5.4v8.4h-3.1
		v-1.1c0-0.5,0.1-1,0.1-1h-0.1c0,0-1,2.4-4.1,2.4c-2.4,0-4.6-1.5-4.6-4.2C194.4,60,200.2,59.8,202.4,59.8">
  </path>
  <rect x="157.6" y="26.4" class="st1" width="3.3" height="18.8">
  </rect>
  <rect x="209" y="49.4" class="st1" width="3.3" height="18.8">
  </rect>
  <path class="st1" d="M221,28.1c0-1-0.8-1.7-1.7-1.7c-1,0-1.7,0.8-1.7,1.7c0,0.9,0.7,1.6,1.5,1.7c-0.3,0.2-0.7,0.4-1.3,0.6l0.3,1.1
		C220.8,30.7,221,29,221,28.1C221,28.1,221,28.1,221,28.1">
  </path>
  <path class="st1" d="M182.3,51.2c0,1-0.8,1.9-1.9,1.9c-1,0-1.9-0.8-1.9-1.9s0.8-1.9,1.9-1.9C181.5,49.3,182.3,50.1,182.3,51.2">
  </path>
  <path class="st1" d="M154.3,28.1c0,1-0.8,1.9-1.9,1.9c-1,0-1.9-0.8-1.9-1.9c0-1,0.8-1.9,1.9-1.9C153.4,26.2,154.3,27.1,154.3,28.1">
  </path>
  <path class="st0" d="M124.1,19.1c1.7,0,2.7-1.1,2.7-2.7c0-1.6-1-2.7-2.7-2.7h-3.6v5.4H124.1z M123.7,10.9c1.5,0,2.3-1.1,2.3-2.4
		c0-1.3-0.8-2.3-2.4-2.3h-3.2v4.7H123.7z M117,3.3h6.7c3.4,0,5.8,1.7,5.8,4.8c0,1.7-0.8,3.2-2.3,4v0.1c2.1,0.6,3,2.5,3,4.4
		c0,3.8-3,5.4-6.5,5.4H117V3.3z">
  </path>
  <path class="st0" d="M139.2,19.5c2.2,0,4-1.7,4-4.2c0-2.5-1.8-4.2-4-4.2c-2.2,0-4,1.7-4,4.2C135.2,17.8,137.1,19.5,139.2,19.5
		 M139.2,8.3c4.1,0,7.4,2.9,7.4,7.1c0,4.1-3.3,7.1-7.4,7.1c-4.1,0-7.4-2.9-7.4-7.1C131.8,11.2,135.1,8.3,139.2,8.3">
  </path>
  <path class="st0" d="M149.2,18c0,0,1.5,1.5,3.7,1.5c1,0,1.8-0.4,1.8-1.2c0-2-6.6-1.7-6.6-6.1c0-2.5,2.2-4,5.2-4
		c3,0,4.5,1.5,4.5,1.5l-1.2,2.5c0,0-1.2-1.2-3.3-1.2c-0.9,0-1.7,0.4-1.7,1.2c0,1.9,6.6,1.7,6.6,6c0,2.2-2,4-5.1,4
		c-3.4,0-5.2-2-5.2-2L149.2,18z">
  </path>
  <path class="st0" d="M161,11.4h-1.7V8.8h1.8V4.9h3.3v3.9h3.1v2.7h-3.1v5.2c0,2.2,1.7,2.5,2.7,2.5c0.4,0,0.6-0.1,0.6-0.1v2.9
		c0,0-0.4,0.1-1,0.1c-1.9,0-5.6-0.6-5.6-5.1V11.4z">
  </path>
  <path class="st0" d="M176.3,19.5c2.2,0,4-1.7,4-4.2c0-2.5-1.8-4.2-4-4.2c-2.2,0-4,1.7-4,4.2C172.3,17.8,174.1,19.5,176.3,19.5
		 M176.3,8.3c4.1,0,7.4,2.9,7.4,7.1c0,4.1-3.3,7.1-7.4,7.1c-4.1,0-7.4-2.9-7.4-7.1C168.9,11.2,172.2,8.3,176.3,8.3">
  </path>
  <path class="st0" d="M185.7,8.6h3.2v1.6c0,0.5-0.1,0.9-0.1,0.9h0.1c0.6-1.1,2.1-2.8,4.8-2.8c3,0,4.7,1.6,4.7,5.1V22H195v-8
		c0-1.6-0.4-2.7-2.1-2.7c-1.8,0-3.1,1.1-3.6,2.7c-0.2,0.6-0.2,1.2-0.2,1.8V22h-3.4V8.6z">
  </path>
  <path class="st0" d="M125,26.1c4.6,0,6.9,2.6,6.9,2.6l-1.6,2.5c0,0-2.1-2-5.1-2c-4,0-6.3,3-6.3,6.4c0,3.6,2.4,6.7,6.3,6.7
		c3.2,0,5.4-2.4,5.4-2.4l1.8,2.5c0,0-2.6,3-7.4,3c-5.7,0-9.7-4.3-9.7-9.8C115.4,30.2,119.5,26.1,125,26.1">
  </path>
  <path class="st0" d="M134.8,26.4h3.4v6.5c0,0.7-0.1,1.1-0.1,1.1h0.1c0.7-1.3,2.3-2.7,4.6-2.7c3,0,4.7,1.6,4.7,5.1v8.7h-3.3v-8
		c0-1.6-0.4-2.7-2.1-2.7c-1.8,0-3.1,1.2-3.6,2.8c-0.2,0.5-0.2,1.1-0.2,1.7v6.2h-3.4V26.4z">
  </path>
  <rect x="150.7" y="31.7" class="st0" width="3.4" height="13.5">
  </rect>
  <path class="st0" d="M170,42.6c1.7,0,3.4-1.3,3.4-4.3c0-2.1-1.1-4.1-3.4-4.1c-1.8,0-3.4,1.5-3.4,4.2C166.6,41,168,42.6,170,42.6
		 M169.3,31.3c3,0,3.9,1.7,3.9,1.7h0.1c0,0,0-0.3,0-0.8v-5.9h3.4v18.8h-3.2V44c0-0.5,0.1-0.9,0.1-0.9h-0.1c0,0-1.1,2.3-4.2,2.3
		c-3.6,0-6-2.9-6-7.1C163.2,34.1,165.8,31.3,169.3,31.3">
  </path>
  <path class="st0" d="M179.8,31.7h3.2V34c0,0.5-0.1,1-0.1,1h0.1c0.6-1.9,2.2-3.5,4.3-3.5c0.3,0,0.6,0.1,0.6,0.1v3.3
		c0,0-0.3-0.1-0.8-0.1c-1.4,0-3,0.8-3.7,2.8c-0.2,0.7-0.3,1.4-0.3,2.2v5.3h-3.4V31.7z">
  </path>
  <path class="st0" d="M198.1,36.7c-0.1-1.8-1.2-2.8-2.7-2.8c-1.7,0-2.9,1.1-3.2,2.8H198.1z M195.5,31.3c3.9,0,6,2.8,6,6.4
		c0,0.4-0.1,1.3-0.1,1.3h-9.3c0.2,2.4,2,3.6,4,3.6c2.2,0,3.9-1.5,3.9-1.5l1.3,2.4c0,0-2.1,1.9-5.4,1.9c-4.5,0-7.2-3.2-7.2-7.1
		C188.6,34.2,191.5,31.3,195.5,31.3">
  </path>
  <path class="st0" d="M204,31.7h3.2v1.6c0,0.5-0.1,0.9-0.1,0.9h0.1c0.6-1.1,2.1-2.8,4.8-2.8c3,0,4.7,1.6,4.7,5.1v8.7h-3.3v-8
		c0-1.6-0.4-2.7-2.1-2.7c-1.8,0-3.1,1.1-3.6,2.7c-0.2,0.6-0.2,1.2-0.2,1.8v6.2H204V31.7z">
  </path>
  <path class="st0" d="M220.8,41.1c0,0,1.5,1.5,3.7,1.5c1,0,1.8-0.4,1.8-1.2c0-2-6.6-1.7-6.6-6.1c0-2.5,2.2-4,5.2-4
		c3,0,4.5,1.5,4.5,1.5l-1.2,2.5c0,0-1.2-1.2-3.3-1.2c-0.9,0-1.7,0.4-1.7,1.2c0,1.9,6.5,1.7,6.5,6c0,2.2-2,4-5.2,4
		c-3.4,0-5.2-2-5.2-2L220.8,41.1z">
  </path>
  <polygon class="st0" points="117,49.5 120.4,49.5 120.4,57.4 129,57.4 129,49.5 132.4,49.5 132.4,68.2 129,68.2 129,60.3 
		120.4,60.3 120.4,68.2 117,68.2 	">
  </polygon>
  <path class="st0" d="M142.3,65.7c2.2,0,4-1.7,4-4.2c0-2.5-1.8-4.2-4-4.2c-2.2,0-4,1.7-4,4.2C138.2,64,140.1,65.7,142.3,65.7
		 M142.2,54.4c4.1,0,7.4,2.9,7.4,7.1c0,4.1-3.3,7.1-7.4,7.1c-4.1,0-7.4-2.9-7.4-7.1C134.8,57.4,138.1,54.4,142.2,54.4">
  </path>
  <path class="st0" d="M152.2,64.2c0,0,1.5,1.5,3.7,1.5c1,0,1.8-0.4,1.8-1.2c0-2-6.6-1.7-6.6-6.1c0-2.5,2.2-4,5.1-4
		c3,0,4.5,1.5,4.5,1.5l-1.2,2.5c0,0-1.2-1.2-3.3-1.2c-0.9,0-1.7,0.4-1.7,1.2c0,1.9,6.6,1.7,6.6,6c0,2.2-2,4-5.2,4
		c-3.4,0-5.2-2-5.2-2L152.2,64.2z">
  </path>
  <path class="st0" d="M169.8,65.7c1.8,0,3.4-1.5,3.4-4.2c0-2.6-1.4-4.2-3.4-4.2c-1.7,0-3.4,1.3-3.4,4.3
		C166.4,63.6,167.6,65.7,169.8,65.7 M163.2,54.7h3.1v1c0,0.5-0.1,0.9-0.1,0.9h0.1c0,0,1.2-2.2,4.3-2.2c3.6,0,6,2.9,6,7.1
		c0,4.3-2.6,7.1-6.2,7.1c-2.7,0-3.9-1.8-3.9-1.8h-0.1c0,0,0.1,0.5,0.1,1.2v5.7h-3.4V54.7z">
  </path>
  <rect x="178.8" y="54.7" class="st0" width="3.4" height="13.5">
  </rect>
  <path class="st0" d="M186.2,57.6h-1.7V55h1.8v-3.9h3.3V55h3.1v2.7h-3.1v5.2c0,2.2,1.7,2.5,2.7,2.5c0.4,0,0.6-0.1,0.6-0.1v2.9
		c0,0-0.4,0.1-1,0.1c-1.9,0-5.6-0.6-5.6-5.1V57.6z">
  </path>
  <path class="st0" d="M199.8,65.9c1.8,0,3-1.9,3-3.5v-0.3h-0.6c-1.7,0-4.5,0.2-4.5,2.1C197.8,65.1,198.5,65.9,199.8,65.9
		 M202.4,59.8h0.5v-0.2c0-1.8-1.1-2.4-2.6-2.4c-1.9,0-3.7,1.3-3.7,1.3l-1.3-2.4c0,0,2.1-1.7,5.3-1.7c3.5,0,5.6,2,5.6,5.4v8.4h-3.1
		v-1.1c0-0.5,0.1-1,0.1-1h-0.1c0,0-1,2.4-4.1,2.4c-2.4,0-4.6-1.5-4.6-4.2C194.4,60,200.2,59.8,202.4,59.8">
  </path>
  <rect x="157.6" y="26.4" class="st0" width="3.3" height="18.8">
  </rect>
  <rect x="209" y="49.4" class="st0" width="3.3" height="18.8">
  </rect>
  <path class="st0" d="M221,28.1c0-1-0.8-1.7-1.7-1.7c-1,0-1.7,0.8-1.7,1.7c0,0.9,0.7,1.6,1.5,1.7c-0.3,0.2-0.7,0.4-1.3,0.6l0.3,1.1
		C220.8,30.7,221,29,221,28.1C221,28.1,221,28.1,221,28.1">
  </path>
  <path class="st0" d="M182.3,51.2c0,1-0.8,1.9-1.9,1.9c-1,0-1.9-0.8-1.9-1.9s0.8-1.9,1.9-1.9C181.5,49.3,182.3,50.1,182.3,51.2">
  </path>
  <path class="st0" d="M154.3,28.1c0,1-0.8,1.9-1.9,1.9c-1,0-1.9-0.8-1.9-1.9c0-1,0.8-1.9,1.9-1.9C153.4,26.2,154.3,27.1,154.3,28.1">
  </path>
  <path class="st1" d="M11,109.1c0.2,0.7,0.2,1.3,0.2,1.3h0c0,0,0.1-0.6,0.2-1.3l2-8.4h2.3l-3.1,12.2H10l-1.9-7.2
		c-0.2-0.8-0.3-1.6-0.3-1.6h0c0,0-0.1,0.8-0.3,1.6l-1.9,7.2H3.1L0,100.7h2.3l1.9,8.4c0.2,0.7,0.2,1.3,0.2,1.3h0c0,0,0-0.6,0.2-1.3
		l2.2-8.4h1.9L11,109.1z">
  </path>
  <path class="st1" d="M17.3,100.7h2.2v4.2c0,0.4,0,0.7,0,0.7h0c0.4-0.8,1.5-1.7,3-1.7c1.9,0,3,1,3,3.3v5.6h-2.2v-5.2
		c0-1.1-0.3-1.8-1.4-1.8c-1.1,0-2,0.8-2.4,1.8c-0.1,0.3-0.1,0.7-0.1,1.1v4h-2.2V100.7z">
  </path>
  <path class="st1" d="M33.4,107.4c0-1.2-0.8-1.8-1.7-1.8c-1.1,0-1.9,0.7-2.1,1.8H33.4z M31.7,103.9c2.5,0,3.9,1.8,3.9,4.2
		c0,0.3-0.1,0.8-0.1,0.8h-6c0.1,1.5,1.3,2.3,2.6,2.3c1.4,0,2.5-1,2.5-1l0.8,1.6c0,0-1.3,1.3-3.5,1.3c-2.9,0-4.7-2.1-4.7-4.6
		C27.3,105.8,29.1,103.9,31.7,103.9">
  </path>
  <path class="st1" d="M37.4,104.1h2.1v1.5c0,0.3,0,0.6,0,0.6h0c0.4-1.3,1.4-2.2,2.8-2.2c0.2,0,0.4,0,0.4,0v2.1c0,0-0.2,0-0.5,0
		c-0.9,0-2,0.5-2.4,1.8c-0.1,0.4-0.2,0.9-0.2,1.4v3.5h-2.2V104.1z">
  </path>
  <path class="st1" d="M49.7,107.4c0-1.2-0.8-1.8-1.7-1.8c-1.1,0-1.9,0.7-2.1,1.8H49.7z M48,103.9c2.5,0,3.9,1.8,3.9,4.2
		c0,0.3-0.1,0.8-0.1,0.8h-6c0.1,1.5,1.3,2.3,2.6,2.3c1.4,0,2.5-1,2.5-1l0.8,1.6c0,0-1.3,1.3-3.5,1.3c-2.9,0-4.7-2.1-4.7-4.6
		C43.5,105.8,45.4,103.9,48,103.9">
  </path>
  <path class="st1" d="M58.2,106h-1.1v-1.7h1.2v-2.5h2.1v2.5h2v1.7h-2v3.4c0,1.4,1.1,1.6,1.7,1.6c0.2,0,0.4,0,0.4,0v1.9
		c0,0-0.3,0.1-0.7,0.1c-1.2,0-3.6-0.4-3.6-3.3V106z">
  </path>
  <path class="st1" d="M64.3,100.7h2.2v4.2c0,0.4,0,0.7,0,0.7h0c0.4-0.8,1.5-1.7,3-1.7c1.9,0,3,1,3,3.3v5.6h-2.2v-5.2
		c0-1.1-0.3-1.8-1.4-1.8c-1.1,0-2,0.8-2.4,1.8c-0.1,0.3-0.1,0.7-0.1,1.1v4h-2.2V100.7z">
  </path>
  <path class="st1" d="M80.4,107.4c0-1.2-0.8-1.8-1.7-1.8c-1.1,0-1.9,0.7-2.1,1.8H80.4z M78.7,103.9c2.5,0,3.9,1.8,3.9,4.2
		c0,0.3-0.1,0.8-0.1,0.8h-6c0.1,1.5,1.3,2.3,2.6,2.3c1.4,0,2.5-1,2.5-1l0.8,1.6c0,0-1.3,1.3-3.5,1.3c-2.9,0-4.7-2.1-4.7-4.6
		C74.2,105.8,76.1,103.9,78.7,103.9">
  </path>
  <path class="st1" d="M87.6,104.1h2.3l1.5,5.8c0.1,0.5,0.2,0.9,0.2,0.9h0c0,0,0.1-0.5,0.2-0.9l1.6-5.7h1.9l1.6,5.7
		c0.1,0.5,0.2,0.9,0.2,0.9h0c0,0,0.1-0.5,0.2-0.9l1.5-5.8h2.3l-2.7,8.8h-2.4l-1.5-5c-0.1-0.5-0.2-0.9-0.2-0.9h0c0,0-0.1,0.5-0.2,0.9
		l-1.5,5h-2.4L87.6,104.1z">
  </path>
  <path class="st1" d="M106.8,111.2c1.4,0,2.6-1.1,2.6-2.7c0-1.6-1.2-2.7-2.6-2.7c-1.4,0-2.6,1.1-2.6,2.7
		C104.2,110.1,105.4,111.2,106.8,111.2 M106.8,103.9c2.7,0,4.8,1.9,4.8,4.6c0,2.7-2.1,4.6-4.8,4.6c-2.7,0-4.8-1.9-4.8-4.6
		C102,105.8,104.1,103.9,106.8,103.9">
  </path>
  <path class="st1" d="M113.4,104.1h2.1v1.5c0,0.3,0,0.6,0,0.6h0c0.4-1.3,1.4-2.2,2.8-2.2c0.2,0,0.4,0,0.4,0v2.1c0,0-0.2,0-0.5,0
		c-0.9,0-2,0.5-2.4,1.8c-0.1,0.4-0.2,0.9-0.2,1.4v3.5h-2.2V104.1z">
  </path>
  <path class="st1" d="M120,100.7h2.2v9.1c0,1,0.3,1.2,0.9,1.2c0.2,0,0.3,0,0.3,0v1.9c0,0-0.3,0.1-0.7,0.1c-1.2,0-2.7-0.3-2.7-2.8
		V100.7z">
  </path>
  <path class="st1" d="M128.8,111.3c1.1,0,2.2-0.8,2.2-2.8c0-1.4-0.7-2.7-2.2-2.7c-1.2,0-2.2,1-2.2,2.7
		C126.6,110.2,127.5,111.3,128.8,111.3 M128.4,103.9c1.9,0,2.5,1.1,2.5,1.1h0c0,0,0-0.2,0-0.5v-3.8h2.2v12.2H131v-0.7
		c0-0.3,0-0.6,0-0.6h0c0,0-0.7,1.5-2.7,1.5c-2.4,0-3.9-1.9-3.9-4.6C124.4,105.7,126,103.9,128.4,103.9">
  </path>
  <path class="st1" d="M143.8,103.9c2.3,0,3.4,1.3,3.4,1.3l-1,1.5c0,0-0.9-0.9-2.3-0.9c-1.6,0-2.7,1.2-2.7,2.7c0,1.5,1.1,2.7,2.7,2.7
		c1.5,0,2.6-1.1,2.6-1.1l0.8,1.5c0,0-1.3,1.4-3.6,1.4c-2.9,0-4.8-2-4.8-4.6C139,106,140.9,103.9,143.8,103.9">
  </path>
  <path class="st1" d="M153.2,111.2c1.4,0,2.6-1.1,2.6-2.7c0-1.6-1.2-2.7-2.6-2.7c-1.4,0-2.6,1.1-2.6,2.7
		C150.6,110.1,151.8,111.2,153.2,111.2 M153.2,103.9c2.7,0,4.8,1.9,4.8,4.6c0,2.7-2.1,4.6-4.8,4.6c-2.7,0-4.8-1.9-4.8-4.6
		C148.4,105.8,150.5,103.9,153.2,103.9">
  </path>
  <path class="st1" d="M159.8,104.1h2.1v1c0,0.3,0,0.6,0,0.6h0c0.4-0.9,1.5-1.8,2.8-1.8c1.3,0,2.2,0.6,2.6,1.8h0
		c0.5-0.9,1.6-1.8,3-1.8c1.8,0,2.9,1,2.9,3.3v5.6H171v-5.2c0-1-0.2-1.8-1.2-1.8c-1.1,0-1.9,0.9-2.1,2c-0.1,0.3-0.1,0.7-0.1,1.1v3.8
		h-2.2v-5.2c0-0.9-0.2-1.8-1.2-1.8c-1.1,0-1.9,0.9-2.1,2c-0.1,0.3-0.1,0.7-0.1,1.1v3.8h-2.2V104.1z">
  </path>
  <path class="st1" d="M181,107.4c0-1.2-0.8-1.8-1.7-1.8c-1.1,0-1.9,0.7-2.1,1.8H181z M179.3,103.9c2.5,0,3.9,1.8,3.9,4.2
		c0,0.3-0.1,0.8-0.1,0.8h-6c0.1,1.5,1.3,2.3,2.6,2.3c1.4,0,2.5-1,2.5-1l0.8,1.6c0,0-1.3,1.3-3.5,1.3c-2.9,0-4.7-2.1-4.7-4.6
		C174.8,105.8,176.7,103.9,179.3,103.9">
  </path>
  <path class="st1" d="M185.2,110.3c0,0,1,1,2.4,1c0.6,0,1.2-0.3,1.2-0.8c0-1.3-4.3-1.1-4.3-3.9c0-1.6,1.5-2.6,3.3-2.6
		c2,0,2.9,1,2.9,1l-0.8,1.6c0,0-0.8-0.8-2.1-0.8c-0.6,0-1.1,0.2-1.1,0.8c0,1.2,4.3,1.1,4.3,3.9c0,1.5-1.3,2.6-3.3,2.6
		c-2.2,0-3.4-1.3-3.4-1.3L185.2,110.3z">
  </path>
  <path class="st1" d="M197.3,106h-1.1v-1.7h1.1v-0.4c0-2.9,2.4-3.2,3.6-3.2c0.4,0,0.7,0.1,0.7,0.1v1.9c0,0-0.2,0-0.4,0
		c-0.6,0-1.7,0.2-1.7,1.4v0.3h1.9v1.7h-1.9v6.9h-2.2V106z">
  </path>
  <path class="st1" d="M207,111.2c1.4,0,2.6-1.1,2.6-2.7c0-1.6-1.2-2.7-2.6-2.7c-1.4,0-2.6,1.1-2.6,2.7
		C204.4,110.1,205.6,111.2,207,111.2 M207,103.9c2.7,0,4.8,1.9,4.8,4.6c0,2.7-2.1,4.6-4.8,4.6c-2.7,0-4.8-1.9-4.8-4.6
		C202.2,105.8,204.4,103.9,207,103.9">
  </path>
  <path class="st1" d="M213.6,104.1h2.1v1.5c0,0.3,0,0.6,0,0.6h0c0.4-1.3,1.4-2.2,2.8-2.2c0.2,0,0.4,0,0.4,0v2.1c0,0-0.2,0-0.5,0
		c-0.9,0-2,0.5-2.4,1.8c-0.1,0.4-0.2,0.9-0.2,1.4v3.5h-2.2V104.1z">
  </path>
  <path class="st1" d="M227.3,111.4c1.1,0,2-1.2,2-2.3v-0.2h-0.4c-1.1,0-2.9,0.2-2.9,1.4C226,110.9,226.4,111.4,227.3,111.4
		 M229,107.4h0.3v-0.1c0-1.2-0.7-1.5-1.7-1.5c-1.3,0-2.4,0.8-2.4,0.8l-0.8-1.6c0,0,1.4-1.1,3.4-1.1c2.3,0,3.6,1.3,3.6,3.5v5.5h-2
		v-0.7c0-0.3,0-0.6,0-0.6h0c0,0-0.7,1.5-2.7,1.5c-1.6,0-3-1-3-2.7C223.8,107.6,227.5,107.4,229,107.4">
  </path>
  <path class="st1" d="M233.7,104.1h2.1v1c0,0.3,0,0.6,0,0.6h0c0.4-0.7,1.3-1.8,3.1-1.8c1.9,0,3,1,3,3.3v5.6h-2.2v-5.2
		c0-1.1-0.3-1.8-1.4-1.8c-1.2,0-2,0.7-2.4,1.8c-0.1,0.4-0.2,0.8-0.2,1.2v4h-2.2V104.1z">
  </path>
  <path class="st1" d="M244.5,110.3c0,0,1,1,2.4,1c0.6,0,1.2-0.3,1.2-0.8c0-1.3-4.3-1.1-4.3-3.9c0-1.6,1.5-2.6,3.3-2.6
		c2,0,2.9,1,2.9,1l-0.8,1.6c0,0-0.8-0.8-2.1-0.8c-0.6,0-1.1,0.2-1.1,0.8c0,1.2,4.3,1.1,4.3,3.9c0,1.5-1.3,2.6-3.3,2.6
		c-2.2,0-3.4-1.3-3.4-1.3L244.5,110.3z">
  </path>
  <path class="st1" d="M251,104.1h2.3l1.5,5.8c0.1,0.5,0.2,0.9,0.2,0.9h0c0,0,0.1-0.5,0.2-0.9l1.6-5.7h1.9l1.6,5.7
		c0.1,0.5,0.2,0.9,0.2,0.9h0c0,0,0.1-0.5,0.2-0.9l1.5-5.8h2.3l-2.7,8.8h-2.4l-1.5-5c-0.1-0.5-0.2-0.9-0.2-0.9h0c0,0-0.1,0.5-0.2,0.9
		l-1.5,5h-2.4L251,104.1z">
  </path>
  <path class="st1" d="M271.6,107.4c0-1.2-0.8-1.8-1.7-1.8c-1.1,0-1.9,0.7-2.1,1.8H271.6z M269.9,103.9c2.5,0,3.9,1.8,3.9,4.2
		c0,0.3-0.1,0.8-0.1,0.8h-6c0.1,1.5,1.3,2.3,2.6,2.3c1.4,0,2.5-1,2.5-1l0.8,1.6c0,0-1.3,1.3-3.5,1.3c-2.9,0-4.7-2.1-4.7-4.6
		C265.5,105.8,267.3,103.9,269.9,103.9">
  </path>
  <path class="st1" d="M275.6,104.1h2.1v1.5c0,0.3,0,0.6,0,0.6h0c0.4-1.3,1.4-2.2,2.8-2.2c0.2,0,0.4,0,0.4,0v2.1c0,0-0.2,0-0.5,0
		c-0.9,0-2,0.5-2.4,1.8c-0.1,0.4-0.2,0.9-0.2,1.4v3.5h-2.2V104.1z">
  </path>
  <path class="st1" d="M282.6,110.3c0,0,1,1,2.4,1c0.6,0,1.2-0.3,1.2-0.8c0-1.3-4.3-1.1-4.3-3.9c0-1.6,1.5-2.6,3.3-2.6
		c2,0,2.9,1,2.9,1l-0.8,1.6c0,0-0.8-0.8-2.1-0.8c-0.6,0-1.1,0.2-1.1,0.8c0,1.2,4.3,1.1,4.3,3.9c0,1.5-1.3,2.6-3.3,2.6
		c-2.2,0-3.4-1.3-3.4-1.3L282.6,110.3z">
  </path>
  <path class="st2" d="M11,109.1c0.2,0.7,0.2,1.3,0.2,1.3h0c0,0,0.1-0.6,0.2-1.3l2-8.4h2.3l-3.1,12.2H10l-1.9-7.2
		c-0.2-0.8-0.3-1.6-0.3-1.6h0c0,0-0.1,0.8-0.3,1.6l-1.9,7.2H3.1L0,100.7h2.3l1.9,8.4c0.2,0.7,0.2,1.3,0.2,1.3h0c0,0,0-0.6,0.2-1.3
		l2.2-8.4h1.9L11,109.1z">
  </path>
  <path class="st2" d="M17.3,100.7h2.2v4.2c0,0.4,0,0.7,0,0.7h0c0.4-0.8,1.5-1.7,3-1.7c1.9,0,3,1,3,3.3v5.6h-2.2v-5.2
		c0-1.1-0.3-1.8-1.4-1.8c-1.1,0-2,0.8-2.4,1.8c-0.1,0.3-0.1,0.7-0.1,1.1v4h-2.2V100.7z">
  </path>
  <path class="st2" d="M33.4,107.4c0-1.2-0.8-1.8-1.7-1.8c-1.1,0-1.9,0.7-2.1,1.8H33.4z M31.7,103.9c2.5,0,3.9,1.8,3.9,4.2
		c0,0.3-0.1,0.8-0.1,0.8h-6c0.1,1.5,1.3,2.3,2.6,2.3c1.4,0,2.5-1,2.5-1l0.8,1.6c0,0-1.3,1.3-3.5,1.3c-2.9,0-4.7-2.1-4.7-4.6
		C27.3,105.8,29.1,103.9,31.7,103.9">
  </path>
  <path class="st2" d="M37.4,104.1h2.1v1.5c0,0.3,0,0.6,0,0.6h0c0.4-1.3,1.4-2.2,2.8-2.2c0.2,0,0.4,0,0.4,0v2.1c0,0-0.2,0-0.5,0
		c-0.9,0-2,0.5-2.4,1.8c-0.1,0.4-0.2,0.9-0.2,1.4v3.5h-2.2V104.1z">
  </path>
  <path class="st2" d="M49.7,107.4c0-1.2-0.8-1.8-1.7-1.8c-1.1,0-1.9,0.7-2.1,1.8H49.7z M48,103.9c2.5,0,3.9,1.8,3.9,4.2
		c0,0.3-0.1,0.8-0.1,0.8h-6c0.1,1.5,1.3,2.3,2.6,2.3c1.4,0,2.5-1,2.5-1l0.8,1.6c0,0-1.3,1.3-3.5,1.3c-2.9,0-4.7-2.1-4.7-4.6
		C43.5,105.8,45.4,103.9,48,103.9">
  </path>
  <path class="st2" d="M58.2,106h-1.1v-1.7h1.2v-2.5h2.1v2.5h2v1.7h-2v3.4c0,1.4,1.1,1.6,1.7,1.6c0.2,0,0.4,0,0.4,0v1.9
		c0,0-0.3,0.1-0.7,0.1c-1.2,0-3.6-0.4-3.6-3.3V106z">
  </path>
  <path class="st2" d="M64.3,100.7h2.2v4.2c0,0.4,0,0.7,0,0.7h0c0.4-0.8,1.5-1.7,3-1.7c1.9,0,3,1,3,3.3v5.6h-2.2v-5.2
		c0-1.1-0.3-1.8-1.4-1.8c-1.1,0-2,0.8-2.4,1.8c-0.1,0.3-0.1,0.7-0.1,1.1v4h-2.2V100.7z">
  </path>
  <path class="st2" d="M80.4,107.4c0-1.2-0.8-1.8-1.7-1.8c-1.1,0-1.9,0.7-2.1,1.8H80.4z M78.7,103.9c2.5,0,3.9,1.8,3.9,4.2
		c0,0.3-0.1,0.8-0.1,0.8h-6c0.1,1.5,1.3,2.3,2.6,2.3c1.4,0,2.5-1,2.5-1l0.8,1.6c0,0-1.3,1.3-3.5,1.3c-2.9,0-4.7-2.1-4.7-4.6
		C74.2,105.8,76.1,103.9,78.7,103.9">
  </path>
  <path class="st2" d="M87.6,104.1h2.3l1.5,5.8c0.1,0.5,0.2,0.9,0.2,0.9h0c0,0,0.1-0.5,0.2-0.9l1.6-5.7h1.9l1.6,5.7
		c0.1,0.5,0.2,0.9,0.2,0.9h0c0,0,0.1-0.5,0.2-0.9l1.5-5.8h2.3l-2.7,8.8h-2.4l-1.5-5c-0.1-0.5-0.2-0.9-0.2-0.9h0c0,0-0.1,0.5-0.2,0.9
		l-1.5,5h-2.4L87.6,104.1z">
  </path>
  <path class="st2" d="M106.8,111.2c1.4,0,2.6-1.1,2.6-2.7c0-1.6-1.2-2.7-2.6-2.7c-1.4,0-2.6,1.1-2.6,2.7
		C104.2,110.1,105.4,111.2,106.8,111.2 M106.8,103.9c2.7,0,4.8,1.9,4.8,4.6c0,2.7-2.1,4.6-4.8,4.6c-2.7,0-4.8-1.9-4.8-4.6
		C102,105.8,104.1,103.9,106.8,103.9">
  </path>
  <path class="st2" d="M113.4,104.1h2.1v1.5c0,0.3,0,0.6,0,0.6h0c0.4-1.3,1.4-2.2,2.8-2.2c0.2,0,0.4,0,0.4,0v2.1c0,0-0.2,0-0.5,0
		c-0.9,0-2,0.5-2.4,1.8c-0.1,0.4-0.2,0.9-0.2,1.4v3.5h-2.2V104.1z">
  </path>
  <path class="st2" d="M120,100.7h2.2v9.1c0,1,0.3,1.2,0.9,1.2c0.2,0,0.3,0,0.3,0v1.9c0,0-0.3,0.1-0.7,0.1c-1.2,0-2.7-0.3-2.7-2.8
		V100.7z">
  </path>
  <path class="st2" d="M128.8,111.3c1.1,0,2.2-0.8,2.2-2.8c0-1.4-0.7-2.7-2.2-2.7c-1.2,0-2.2,1-2.2,2.7
		C126.6,110.2,127.5,111.3,128.8,111.3 M128.4,103.9c1.9,0,2.5,1.1,2.5,1.1h0c0,0,0-0.2,0-0.5v-3.8h2.2v12.2H131v-0.7
		c0-0.3,0-0.6,0-0.6h0c0,0-0.7,1.5-2.7,1.5c-2.4,0-3.9-1.9-3.9-4.6C124.4,105.7,126,103.9,128.4,103.9">
  </path>
  <path class="st2" d="M143.8,103.9c2.3,0,3.4,1.3,3.4,1.3l-1,1.5c0,0-0.9-0.9-2.3-0.9c-1.6,0-2.7,1.2-2.7,2.7c0,1.5,1.1,2.7,2.7,2.7
		c1.5,0,2.6-1.1,2.6-1.1l0.8,1.5c0,0-1.3,1.4-3.6,1.4c-2.9,0-4.8-2-4.8-4.6C139,106,140.9,103.9,143.8,103.9">
  </path>
  <path class="st2" d="M153.2,111.2c1.4,0,2.6-1.1,2.6-2.7c0-1.6-1.2-2.7-2.6-2.7c-1.4,0-2.6,1.1-2.6,2.7
		C150.6,110.1,151.8,111.2,153.2,111.2 M153.2,103.9c2.7,0,4.8,1.9,4.8,4.6c0,2.7-2.1,4.6-4.8,4.6c-2.7,0-4.8-1.9-4.8-4.6
		C148.4,105.8,150.5,103.9,153.2,103.9">
  </path>
  <path class="st2" d="M159.8,104.1h2.1v1c0,0.3,0,0.6,0,0.6h0c0.4-0.9,1.5-1.8,2.8-1.8c1.3,0,2.2,0.6,2.6,1.8h0
		c0.5-0.9,1.6-1.8,3-1.8c1.8,0,2.9,1,2.9,3.3v5.6H171v-5.2c0-1-0.2-1.8-1.2-1.8c-1.1,0-1.9,0.9-2.1,2c-0.1,0.3-0.1,0.7-0.1,1.1v3.8
		h-2.2v-5.2c0-0.9-0.2-1.8-1.2-1.8c-1.1,0-1.9,0.9-2.1,2c-0.1,0.3-0.1,0.7-0.1,1.1v3.8h-2.2V104.1z">
  </path>
  <path class="st2" d="M181,107.4c0-1.2-0.8-1.8-1.7-1.8c-1.1,0-1.9,0.7-2.1,1.8H181z M179.3,103.9c2.5,0,3.9,1.8,3.9,4.2
		c0,0.3-0.1,0.8-0.1,0.8h-6c0.1,1.5,1.3,2.3,2.6,2.3c1.4,0,2.5-1,2.5-1l0.8,1.6c0,0-1.3,1.3-3.5,1.3c-2.9,0-4.7-2.1-4.7-4.6
		C174.8,105.8,176.7,103.9,179.3,103.9">
  </path>
  <path class="st2" d="M185.2,110.3c0,0,1,1,2.4,1c0.6,0,1.2-0.3,1.2-0.8c0-1.3-4.3-1.1-4.3-3.9c0-1.6,1.5-2.6,3.3-2.6
		c2,0,2.9,1,2.9,1l-0.8,1.6c0,0-0.8-0.8-2.1-0.8c-0.6,0-1.1,0.2-1.1,0.8c0,1.2,4.3,1.1,4.3,3.9c0,1.5-1.3,2.6-3.3,2.6
		c-2.2,0-3.4-1.3-3.4-1.3L185.2,110.3z">
  </path>
  <path class="st2" d="M197.3,106h-1.1v-1.7h1.1v-0.4c0-2.9,2.4-3.2,3.6-3.2c0.4,0,0.7,0.1,0.7,0.1v1.9c0,0-0.2,0-0.4,0
		c-0.6,0-1.7,0.2-1.7,1.4v0.3h1.9v1.7h-1.9v6.9h-2.2V106z">
  </path>
  <path class="st2" d="M207,111.2c1.4,0,2.6-1.1,2.6-2.7c0-1.6-1.2-2.7-2.6-2.7c-1.4,0-2.6,1.1-2.6,2.7
		C204.4,110.1,205.6,111.2,207,111.2 M207,103.9c2.7,0,4.8,1.9,4.8,4.6c0,2.7-2.1,4.6-4.8,4.6c-2.7,0-4.8-1.9-4.8-4.6
		C202.2,105.8,204.4,103.9,207,103.9">
  </path>
  <path class="st2" d="M213.6,104.1h2.1v1.5c0,0.3,0,0.6,0,0.6h0c0.4-1.3,1.4-2.2,2.8-2.2c0.2,0,0.4,0,0.4,0v2.1c0,0-0.2,0-0.5,0
		c-0.9,0-2,0.5-2.4,1.8c-0.1,0.4-0.2,0.9-0.2,1.4v3.5h-2.2V104.1z">
  </path>
  <path class="st2" d="M227.3,111.4c1.1,0,2-1.2,2-2.3v-0.2h-0.4c-1.1,0-2.9,0.2-2.9,1.4C226,110.9,226.4,111.4,227.3,111.4
		 M229,107.4h0.3v-0.1c0-1.2-0.7-1.5-1.7-1.5c-1.3,0-2.4,0.8-2.4,0.8l-0.8-1.6c0,0,1.4-1.1,3.4-1.1c2.3,0,3.6,1.3,3.6,3.5v5.5h-2
		v-0.7c0-0.3,0-0.6,0-0.6h0c0,0-0.7,1.5-2.7,1.5c-1.6,0-3-1-3-2.7C223.8,107.6,227.5,107.4,229,107.4">
  </path>
  <path class="st2" d="M233.7,104.1h2.1v1c0,0.3,0,0.6,0,0.6h0c0.4-0.7,1.3-1.8,3.1-1.8c1.9,0,3,1,3,3.3v5.6h-2.2v-5.2
		c0-1.1-0.3-1.8-1.4-1.8c-1.2,0-2,0.7-2.4,1.8c-0.1,0.4-0.2,0.8-0.2,1.2v4h-2.2V104.1z">
  </path>
  <path class="st2" d="M244.5,110.3c0,0,1,1,2.4,1c0.6,0,1.2-0.3,1.2-0.8c0-1.3-4.3-1.1-4.3-3.9c0-1.6,1.5-2.6,3.3-2.6
		c2,0,2.9,1,2.9,1l-0.8,1.6c0,0-0.8-0.8-2.1-0.8c-0.6,0-1.1,0.2-1.1,0.8c0,1.2,4.3,1.1,4.3,3.9c0,1.5-1.3,2.6-3.3,2.6
		c-2.2,0-3.4-1.3-3.4-1.3L244.5,110.3z">
  </path>
  <path class="st2" d="M251,104.1h2.3l1.5,5.8c0.1,0.5,0.2,0.9,0.2,0.9h0c0,0,0.1-0.5,0.2-0.9l1.6-5.7h1.9l1.6,5.7
		c0.1,0.5,0.2,0.9,0.2,0.9h0c0,0,0.1-0.5,0.2-0.9l1.5-5.8h2.3l-2.7,8.8h-2.4l-1.5-5c-0.1-0.5-0.2-0.9-0.2-0.9h0c0,0-0.1,0.5-0.2,0.9
		l-1.5,5h-2.4L251,104.1z">
  </path>
  <path class="st2" d="M271.6,107.4c0-1.2-0.8-1.8-1.7-1.8c-1.1,0-1.9,0.7-2.1,1.8H271.6z M269.9,103.9c2.5,0,3.9,1.8,3.9,4.2
		c0,0.3-0.1,0.8-0.1,0.8h-6c0.1,1.5,1.3,2.3,2.6,2.3c1.4,0,2.5-1,2.5-1l0.8,1.6c0,0-1.3,1.3-3.5,1.3c-2.9,0-4.7-2.1-4.7-4.6
		C265.5,105.8,267.3,103.9,269.9,103.9">
  </path>
  <path class="st2" d="M275.6,104.1h2.1v1.5c0,0.3,0,0.6,0,0.6h0c0.4-1.3,1.4-2.2,2.8-2.2c0.2,0,0.4,0,0.4,0v2.1c0,0-0.2,0-0.5,0
		c-0.9,0-2,0.5-2.4,1.8c-0.1,0.4-0.2,0.9-0.2,1.4v3.5h-2.2V104.1z">
  </path>
  <path class="st2" d="M282.6,110.3c0,0,1,1,2.4,1c0.6,0,1.2-0.3,1.2-0.8c0-1.3-4.3-1.1-4.3-3.9c0-1.6,1.5-2.6,3.3-2.6
		c2,0,2.9,1,2.9,1l-0.8,1.6c0,0-0.8-0.8-2.1-0.8c-0.6,0-1.1,0.2-1.1,0.8c0,1.2,4.3,1.1,4.3,3.9c0,1.5-1.3,2.6-3.3,2.6
		c-2.2,0-3.4-1.3-3.4-1.3L282.6,110.3z">
  </path>
 </g>
</svg>