<?xml version="1.0" encoding="utf-8"?>
<!-- Generator: Adobe Illustrator 26.5.0, SVG Export Plug-In . SVG Version: 6.00 Build 0)  -->
<svg version="1.1" id="Layer_1" xmlns="http://www.w3.org/2000/svg" xmlns:xlink="http://www.w3.org/1999/xlink" x="0px" y="0px"
	 viewBox="0 0 512 512" style="enable-background:new 0 0 512 512;" xml:space="preserve">
<style type="text/css">
	.st0{fill:#0F0C0C;}
</style>
<g id="XMLID_1_">
	<path id="XMLID_50_" class="st0" d="M117.43,99.89c0-2.8-1.12-5.47-4.77-6.87c-3.09-1.12-5.89-1.4-8.84-1.96
		c-4.35-0.7-3.51-5.05,0.42-5.05c2.52,0,14.73,0.98,29.31,0.98c8.41,0,20.48-0.42,26.37-0.7c3.65-0.28,4.07,3.65,1.4,4.35
		c-2.52,0.7-14.59,3.65-36.18,23.42c-22.3,20.48-51.05,50.77-51.05,50.77s64.65,76.99,75.87,86.11
		c11.64,9.54,19.77,10.24,28.47,10.94c2.24,0.14,2.95,4.35,0,4.35h-50.49c0,0-62.55-75.59-72.79-82.46
		c-1.82-1.12-6.17-2.52-6.59,2.52c-0.42,4.77-0.7,44.88,0.42,53.57c1.12,8.84,4.77,21.6,25.52,21.6c2.52,0,4.07,4.91,0.42,4.77
		c-12.34-0.56-21.6-0.56-36.88-0.56c-13.18,0-31.56,0.56-34.08,0.56c-4.35,0-4.35-4.07-0.42-4.35c5.89-0.42,19.77-1.12,20.62-23.42
		c0.98-23,0.42-120.05,0-130.71c-0.14-7.29-6.31-17.25-22.44-17.25c-2.52,0-2.24-4.35,0.7-4.35h68.72c2.52,0,4.07,4.21-0.42,4.63
		c-4.35,0.42-21.04,0.84-21.6,23.14c-0.56,22.3-0.56,56.94-0.56,58.34c0,1.82,0.7,3.65,3.23,1.82c7.99-5.33,31.41-28.47,48.95-48.1
		c6.87-7.85,11.64-14.59,15.01-20.9C116.73,104.09,117.43,102.13,117.43,99.89 M203.96,161.73V99.75c0-7.71,5.47-9.82,11.36-10.24
		c2.24,0,2.52-2.95-0.42-2.95h-36.6c-2.52,0-2.95,2.8-0.42,2.95c5.47,0.56,12.06,3.23,12.06,10.24v61.99
		c0,6.87-2.52,11.36-10.66,11.36c-3.23,0-2.38,2.66,0,2.66h36.04c1.82,0,2.38-2.66-0.7-2.66
		C206.91,173.09,203.96,167.91,203.96,161.73 M251.09,215.31c0.7,0,1.26-0.42,1.4-1.12l5.89-18.65c0.42-1.12-0.14-1.82-1.12-1.82
		c-0.42,0-0.84,0.14-1.26,0.56c-1.12,1.12-2.38,2.24-3.51,2.24c-0.56,0-1.12-0.42-1.68-0.84c-5.19-6.45-13.6-7.43-17.67-7.43
		c-18.65,0-34.78,12.2-44.18,27.21c-5.75,8.84-8.7,18.65-8.7,28.33c0,15.43,10.66,23.98,24.54,23.98c6.17,0,10.94-0.7,19.35-4.21
		c1.82-0.7,3.93-1.54,5.19-1.54c2.1,0,2.24,3.09,2.38,5.89c0,1.12,0.7,1.4,1.4,1.4c0.56,0,1.12-0.28,1.4-1.12l7.85-22.3
		c0.56-1.82-0.14-2.52-0.84-2.52c-1.12,0-1.68,0.42-2.52,1.96c-3.51,5.47-6.03,8.98-18.23,15.01c-5.19,2.38-11.08,3.93-15.85,3.93
		c-10.38,0-14.45-7.99-14.45-17.95c0-13.18,6.17-26.93,15.71-38.43c6.03-7.57,15.43-16.13,26.23-16.13
		c10.38,0,18.09,7.71,16.97,21.88C249.26,214.75,250.1,215.31,251.09,215.31 M227.52,86.56c-2.52,0-2.52,2.52-1.12,2.95
		c2.8,0.56,8.7,1.12,8.7,8.84c0.14,18.09,0.14,41.93-0.56,61.29c-0.14,6.87-2.24,12.76-8.13,13.46c-2.24,0.14-2.24,2.66-0.7,2.66
		h26.37c1.4,0,1.96-2.38,0.14-2.66c-4.07-0.7-10.66-0.7-11.08-13.46c-0.56-12.48-0.98-59.46-0.98-59.46l66.06,73.49h5.47
		c0,0,0-68.72,0.42-73.91c0.42-6.03,2.38-9.4,8.98-9.82c3.23-0.28,2.66-3.23,0.42-3.23H294.7c-3.23,0-2.38,2.95-0.98,2.95
		c2.95,0.42,12.06,1.4,12.48,10.24c0.42,12.76,0.98,52.59,0.98,52.59L248.42,86.7h-20.9V86.56z M286.15,208.02
		c11.64,0,13.88,10.24,13.88,19.77c0,15.15-13.88,39.27-30.71,39.27c-10.66,0-14.59-8.55-14.59-17.25
		C254.73,228.63,269.74,208.02,286.15,208.02 M288.67,211.38c-11.5,0-28.19,27.49-28.19,44.18c0,4.35,1.96,7.71,6.59,7.71
		c11.36,0,28.19-28.05,28.19-42.77C295.4,216.01,294.14,211.38,288.67,211.38 M332.01,193.15c0,0.42-0.14,1.12-0.56,1.82
		c-9.82,21.46-19.63,42.77-29.17,64.23c-0.42,1.12-1.4,3.23-1.4,4.77c0,1.82,1.4,3.37,3.23,3.37c0.98,0,2.24-0.42,3.09-0.7
		c5.33-2.1,10.94-7.99,14.31-13.04c0.7-1.12-0.56-2.1-1.4-1.4c-1.26,1.26-5.19,6.31-9.12,8.55c-0.7,0.42-1.4,0.42-0.98-1.12
		l30.43-67.6c0.56-1.26,0.7-1.96,0.7-2.66c0-0.84-0.56-1.26-1.54-1.26c-1.4,0-3.23,0.42-5.33,0.56c-1.82,0.14-5.05,0.42-7.85,0.56
		c-0.7,0-1.12,0.7-1.12,1.26c0,0.7,0.56,1.12,1.4,1.12c1.4,0,2.95,0,4.49,0.42C331.87,192.31,332.01,192.73,332.01,193.15
		 M412.79,146.45c0-7.43,5.47-8.13,10.24-8.55c1.82-0.28,2.24-3.23-0.42-3.23h-36.88c-2.52,0-2.52,3.37,0,3.51
		c7.29,0.42,13.18,1.82,13.18,8.84v13.32c0,2.95-1.4,5.05-3.09,6.17c-6.45,5.33-14.59,5.75-19.35,5.75
		c-23.42,0-33.94-20.2-33.94-40.39c0-16.41,8.27-42.07,35.34-42.07c24.26,0,32.96,15.71,35.9,21.74c0.98,1.82,3.23,1.4,3.23,0V92.17
		c0-1.82-2.66-2.24-3.23,0c-0.56,2.24-1.96,3.65-3.79,3.65c-1.4,0-3.23-1.12-3.93-1.54c-7.29-4.63-14.31-8.27-28.19-8.27
		c-22.44,0-50.07,11.22-50.07,45.3c0,34.36,25.95,45.02,48.67,45.02c22.3,0,34.08-11.36,36.18-12.76v-17.11H412.79z M359.22,193.15
		c0,0.42-0.14,1.12-0.56,1.82c-9.82,21.46-19.63,42.77-29.17,64.23c-0.56,1.12-1.4,3.23-1.4,4.77c0,1.82,1.4,3.37,3.23,3.37
		c0.98,0,2.24-0.42,3.09-0.7c5.33-2.1,10.94-7.99,14.31-13.04c0.7-1.12-0.56-2.1-1.4-1.4c-1.4,1.26-5.19,6.31-9.12,8.55
		c-0.7,0.42-1.4,0.42-0.98-1.12l30.43-67.6c0.56-1.26,0.7-1.96,0.7-2.66c0-0.84-0.56-1.26-1.4-1.26c-1.4,0-3.23,0.42-5.33,0.56
		c-1.82,0.14-5.05,0.42-7.85,0.56c-0.7,0-1.12,0.7-1.12,1.26c0,0.7,0.56,1.12,1.4,1.12c1.4,0,2.95,0,4.49,0.42
		C359.08,192.31,359.22,192.73,359.22,193.15 M394.84,254.16c-5.19,6.73-13.18,12.9-23.14,12.9c-7.71,0-12.34-5.47-12.34-12.48
		c0-21.88,24.12-44.88,40.25-44.88c5.47,0,9.54,2.1,9.54,7.99c0,8.55-7.43,13.18-20.9,17.25c-3.79,1.12-12.06,2.95-16.13,3.79
		c-1.82,2.95-4.21,8.84-4.21,13.46c0,6.17,3.09,9.96,8.84,9.96c6.59,0,12.76-5.19,16.27-9.12
		C394.14,251.49,395.82,253.03,394.84,254.16 M387.55,231.44c7.57-2.38,14.59-6.45,14.59-13.18c0-3.51-1.68-5.05-5.19-5.05
		c-4.21,0-8.41,3.23-10.94,5.75c-4.21,4.07-8.41,9.12-11.92,15.43C376.75,234.38,382.36,232.98,387.55,231.44 M462.86,214.75
		c1.4,0,2.8-0.7,2.8-3.23c0-2.24-2.1-2.95-4.07-2.95c-2.24,0-5.05,0.56-7.99,2.52c-0.7,0.56-2.52,1.4-3.65,0.7
		c-2.24-1.54-4.35-2.66-9.82-2.66c-5.47,0-13.46,3.23-18.65,10.24c-3.65,5.19-4.35,8.84-4.35,12.48c0,3.65,1.54,6.31,2.52,7.85
		c0.28,0.42,0.42,0.56,0.42,0.98c0,0.84-1.12,1.4-2.95,1.96c-3.23,1.12-8.7,4.21-8.7,9.82c0,3.65,2.95,7.15,6.17,9.4
		c0,0-6.73,1.82-12.06,4.77c-4.21,2.24-8.84,5.89-8.84,10.94c0,5.89,5.05,15.43,25.66,15.43c12.06,0,19.63-4.35,22.58-7.71
		c2.24-2.52,2.52-5.47,2.52-7.29c0-6.59-7.29-12.76-15.29-17.25c-5.19-2.95-12.62-6.45-12.62-11.64c0-1.4,0.42-2.8,1.82-3.65
		c0.98-0.7,2.52-1.12,4.21-1.12c2.24,0,5.19,0.7,7.29,0.7c6.59,0,15.43-2.24,21.04-13.88c1.4-3.23,2.1-6.59,2.1-9.4
		c0-3.65-0.56-4.49-0.56-6.17c0-1.4,1.4-2.24,4.21-2.24C460.47,213.21,460.47,214.75,462.86,214.75 M420.22,289.36
		c-13.46,0-17.53-7.85-17.53-11.64c0-3.65,1.4-6.03,5.19-8.55c2.52-1.82,6.31-3.65,9.26-4.77c3.37,1.4,8.27,4.35,9.96,5.89
		c7.29,5.05,8.7,7.99,8.7,10.66C435.79,287.68,425.41,289.36,420.22,289.36 M447.01,216.85c0,3.51-1.4,8.27-4.35,13.46
		c-5.75,9.26-10.24,11.08-14.16,11.08c-3.37,0-4.77-2.66-4.77-6.59c0-3.37,1.4-7.85,4.07-11.78c3.93-6.17,9.4-11.36,14.31-11.36
		C445.33,211.66,447.01,213.35,447.01,216.85 M432.28,100.45c-3.23,0-6.87-1.96-6.87-7.01c0-5.47,4.35-7.15,7.71-7.15
		c4.63,0,8.41,3.37,8.41,8.98c0,6.31-4.77,13.88-13.18,13.88c-0.84,0-1.26-0.56-1.26-1.12c0-0.56,0.42-0.98,0.84-1.12
		c5.75-1.12,7.85-4.77,7.99-7.15C435.65,100.03,433.97,100.45,432.28,100.45 M499.74,104.37c0.56,0,1.26-0.42,1.12-1.26l-2.38-16.27
		c-0.28-1.12-0.7-1.4-1.4-1.4c-0.42,0-0.84,0.28-1.26,0.98c-0.7,1.4-1.82,2.66-3.93,2.66c-3.65,0-7.01-2.66-15.71-2.66
		c-11.36,0-26.37,4.91-26.37,21.32s13.18,21.88,24.54,25.95c11.92,4.35,21.46,7.71,21.46,20.06c0,13.88-9.82,18.37-19.07,18.37
		c-10.24,0-22.3-4.91-26.65-21.04c-0.42-1.4-0.84-1.68-1.82-1.68c-0.84,0-1.54,0.56-1.54,2.1v20.9c0,1.26,0.7,1.82,1.4,1.82
		c0.56,0,1.12-0.42,1.4-0.98c0.84-1.26,1.82-2.38,4.21-2.38c4.63,0,10.1,5.61,23.42,5.61c11.64,0,31.41-3.65,31.41-26.65
		c0-9.12-3.79-20.9-25.95-27.07c-15.71-4.35-20.76-10.94-20.76-19.07c0-6.87,4.07-13.6,15.43-13.6c5.61,0,14.73,1.54,20.9,13.46
		C498.9,104.37,499.32,104.37,499.74,104.37 M493.43,254.16c-5.19,6.73-13.18,12.9-23.28,12.9c-7.71,0-12.2-5.47-12.2-12.48
		c0-21.88,24.12-44.88,40.25-44.88c5.47,0,9.54,2.1,9.54,7.99c0,8.55-7.57,13.18-20.9,17.25c-3.93,1.12-12.06,2.95-16.13,3.79
		c-1.82,2.95-4.21,8.84-4.21,13.46c0,6.17,3.23,9.96,8.84,9.96c6.59,0,12.76-5.19,16.27-9.12
		C492.73,251.49,494.27,253.03,493.43,254.16 M486.14,231.44c7.43-2.38,14.45-6.45,14.45-13.18c0-3.51-1.54-5.05-5.19-5.05
		c-4.21,0-8.41,3.23-10.94,5.75c-4.21,4.07-8.41,9.12-11.78,15.43C475.2,234.38,480.95,232.98,486.14,231.44"/>
	<path id="XMLID_62_" class="st0" d="M8.04,296.65h31.41c1.54,0,2.1,2.52,0.14,2.52c-3.09,0-9.26,1.4-9.26,7.99v54.56
		c0,6.17,3.09,8.41,16.55,8.41c13.04,0,25.38-1.54,31.41-18.93c0.56-1.4,2.8-1.26,2.38,0.84l-4.07,21.6H9.16
		c-2.38,0-1.82-2.8-0.42-2.8c4.35,0,9.82-2.1,9.82-9.96v-52.31c0-6.73-3.93-9.54-10.52-9.54C6.36,299.18,6.22,296.65,8.04,296.65
		 M500.3,401.13H9.16v4.63h491v-4.63H500.3z M500.3,416H9.16v10.66h491V416H500.3z M121.5,374.35c22.58,0,38.71-15.71,38.71-39.83
		c0-21.18-15.71-38.43-38.71-38.43c-22.44,0-38.57,17.53-38.57,38.43C82.93,357.24,98.22,374.35,121.5,374.35 M95.41,334.52
		c0-19.77,9.12-34.92,25.95-34.92c15.01,0,26.37,14.45,26.37,34.92c0,25.24-10.24,36.32-26.37,36.32
		C105.65,370.84,95.41,355.69,95.41,334.52 M165.68,296.51c-1.4,0-1.82,2.52,0.14,2.52c2.24,0,6.87,0.56,6.87,7.29l-0.42,54.13
		c0,5.89-2.1,10.8-7.57,10.8c-1.82,0-1.82,2.38-0.42,2.38h22.58c1.4,0,1.4-2.38-0.28-2.38c-3.23,0-8.98-1.4-9.12-10.8l-0.56-55.12
		c0,0,57.78,67.88,58.2,68.3h3.93l0.42-65.07c0-6.45,2.8-9.82,9.82-9.82c1.4,0,1.4-2.24,0-2.24h-25.24c-1.4,0-1.4,2.24,0,2.24
		c2.52,0,10.38,0.42,10.52,8.84l0.56,47.4l-49.65-58.48H165.68z M256.56,296.09c-2.52,0-2.1,2.95-0.56,2.95
		c2.95,0,7.85,1.4,7.85,7.29v54.98c0,5.89-1.4,9.54-8.27,9.54c-1.68,0-1.68,2.8-0.14,2.8h36.74c16.13,0,42.77-7.71,42.77-39.55
		c0-32.26-21.88-38.01-43.2-38.01H256.56z M275.49,306.89c0-7.01,4.07-7.29,13.46-7.29c16.41,0,33.1,8.13,33.1,34.22
		c0,25.38-13.88,36.18-32.26,36.18h-3.93c-4.91,0-10.38-0.98-10.38-10.66L275.49,306.89L275.49,306.89z M383.62,374.35
		c22.58,0,38.71-15.71,38.71-39.83c0-21.18-15.71-38.43-38.71-38.43c-22.44,0-38.57,17.53-38.57,38.43
		C345.05,357.24,360.34,374.35,383.62,374.35 M357.67,334.52c0-19.77,9.12-34.92,25.95-34.92c15.01,0,26.37,14.45,26.37,34.92
		c0,25.24-10.24,36.32-26.37,36.32C367.91,370.84,357.67,355.69,357.67,334.52 M427.37,296.51c-1.4,0-1.82,2.52,0.14,2.52
		c2.24,0,6.87,0.56,6.87,7.29l-0.42,54.13c0,5.89-2.1,10.8-7.57,10.8c-1.82,0-1.82,2.38-0.42,2.38h22.58c1.4,0,1.4-2.38-0.28-2.38
		c-3.23,0-8.98-1.4-9.12-10.8l-0.56-55.12c0,0,57.78,67.88,58.2,68.3h3.93l0.42-65.07c0-6.45,2.8-9.82,9.82-9.82
		c1.4,0,1.4-2.24,0-2.24h-25.24c-1.4,0-1.4,2.24,0,2.24c2.52,0,10.38,0.42,10.52,8.84l0.56,47.4l-49.65-58.48H427.37L427.37,296.51z
		"/>
</g>
</svg>
